<?xml version="1.0" standalone="no"?>
<!DOCTYPE svg PUBLIC "-//W3C//DTD SVG 1.1//EN" "http://www.w3.org/Graphics/SVG/1.1/DTD/svg11.dtd" >
<svg xmlns="http://www.w3.org/2000/svg" xmlns:xlink="http://www.w3.org/1999/xlink" version="1.1">
<metadata>
Created by FontForge 20201107 at Sat Apr 16 09:24:33 2022
 By 
Roashe Personal Use (c) Din Studio. 2021. All Rights Reserved
</metadata>
<defs>
<font id="1FTVRoashe" horiz-adv-x="40" >
  <font-face 
    font-family="1FTV Roashe"
    font-weight="400"
    font-stretch="normal"
    units-per-em="1000"
    panose-1="2 0 5 3 0 0 0 2 0 3"
    ascent="800"
    descent="-200"
    x-height="700"
    cap-height="700"
    bbox="-118 -158 2605 1048"
    underline-thickness="150"
    underline-position="-292"
    unicode-range="U+000D-FB02"
  />
<missing-glyph horiz-adv-x="1024" 
 />
    <glyph glyph-name="dollar" unicode="ROASHE" horiz-adv-x="583" 
d="M313 817h7v-104q34 -1 66.5 -8t60.5 -20t50.5 -30.5t36.5 -39.5v-103q-40 85 -97.5 128.5t-116.5 56.5v-298q4 -4 8 -5t9 -2q39 -18 77 -38.5t68 -46.5t48 -59t18 -77q0 -42 -16.5 -73.5t-42.5 -52.5q-32 -26 -70 -36t-71 -10q-14 0 -28 1v-91l-4 -23l-3 23v91
q-77 4 -152.5 40t-125.5 103v141q23 -59 54.5 -106t68 -81.5t76 -56t79.5 -28.5v297q-2 1 -5 2l-9 3q-2 1 -5 2q-39 19 -77 39.5t-68 46.5t-48.5 59t-18.5 78q0 46 20 79t52.5 54t74 31t84.5 10v104zM313 401v296q-20 3 -39 3q-24 0 -54 -6.5t-62 -27.5q-28 -18 -36 -38
t-8 -33q0 -18 12 -45.5t57.5 -67t129.5 -81.5zM320 305v-294q19 -3 37 -3q25 0 59 7.5t66 37.5q24 19 28.5 37t4.5 26q0 21 -14.5 49t-58.5 65t-122 75z" />
    <glyph glyph-name="uniE1D0" unicode="EE" horiz-adv-x="767" 
d="M747 700v-113h-9q-1 29 -14 53q-11 20 -35 36t-71 16h-142q-8 -9 -18 -35t-10 -80v-34q0 -32 -11.5 -46t-38.5 -14v55q-1 21 -1 39.5v20.5q0 18 -4.5 35t-18 30t-36.5 21t-61 8h-142q-8 -9 -18 -35t-10 -80v-34q0 -32 -11 -46t-39 -14v94q0 41 -6 65t-13 37q-8 15 -18 21
h727zM618 8q47 0 71 16.5t35 36.5q13 23 14 52h9v-113h-727q10 6 18 22q7 14 13 38.5t6 66.5v305q0 22 18 25t50 3q47 0 71.5 10t35.5 22q13 14 14 32h8v-137h-8q-1 18 -14 33q-11 12 -35.5 22t-71.5 10h-18v-326q0 -56 10 -82.5t18 -35.5h142q36 0 59.5 8t37 23t19 37.5
t5.5 50.5v305q0 22 18 25t50 3q47 0 71.5 10t35.5 22q13 14 14 32h8v-137h-8q-1 18 -14 33q-11 12 -35.5 22t-71.5 10h-18v-326q0 -56 9.5 -82.5t17.5 -35.5h143z" />
    <glyph glyph-name="uniE1D1" unicode="FF" horiz-adv-x="765" 
d="M745 700v-113h-8q-1 29 -14 53q-11 20 -35.5 36t-71.5 16h-141q-8 -9 -18 -35t-10 -80v-34q0 -33 -12.5 -46.5t-37.5 -13.5v94q0 29 -3.5 50.5t-16 35.5t-36.5 21.5t-65 7.5h-141q-8 -9 -18 -35t-10 -80v-34q0 -33 -12.5 -46.5t-37.5 -13.5v94q0 41 -6 65t-13 37
q-8 15 -18 21h725zM464 460q47 0 71.5 10t35.5 22q13 14 14 32h8v-137h-8q-1 18 -14 33q-11 12 -35.5 22t-71.5 10h-17v-326q0 -42 5.5 -66.5t13.5 -38.5q8 -15 18 -21h-124q10 6 18 22q7 14 13 38.5t6 66.5v305q0 20 20.5 24t46.5 4zM124 460q47 0 71.5 10t35.5 22
q13 14 14 32h8v-137h-8q-1 18 -14 33q-11 12 -35.5 22t-71.5 10h-17v-326q0 -42 5.5 -66.5t13.5 -38.5q8 -15 18 -21h-124q10 6 18 22q7 14 13 38.5t6 66.5v305q0 20 20 24t47 4z" />
    <glyph glyph-name="uniE1D2" unicode="HH" horiz-adv-x="760" 
d="M107 126q0 -42 5.5 -66.5t13.5 -38.5q8 -15 18 -21h-124q10 6 18 22q7 14 13 38.5t6 66.5l1 186q0 19 14.5 26.5t34.5 7.5l248 2v228q0 41 -6 65t-13 37q-8 15 -18 21h124q-10 -6 -18 -21q-8 -13 -13.5 -37t-5.5 -65v-208q0 -20 -13.5 -25t-33.5 -5l-250 -1zM405 126
q0 -42 5.5 -66.5t13.5 -38.5q8 -15 18 -21h-124q10 6 18 22q7 14 13 38.5t6 66.5v167q0 19 14 26t35 7l248 3v247q0 41 -5.5 65t-12.5 37q-9 15 -19 21h125q-10 -6 -18 -21q-8 -13 -13.5 -37t-5.5 -65v-227q0 -20 -13.5 -25t-33.5 -5l-251 -2v-192zM57 577q0 41 -6 65
t-13 37q-8 15 -18 21h124q-10 -6 -18 -21q-8 -13 -13.5 -37t-5.5 -65v-146q0 -34 -14 -52t-36 -18v216zM703 126q0 -42 5.5 -66.5t13.5 -38.5q8 -15 18 -21h-125q10 6 19 22q7 14 12.5 38.5t5.5 66.5v103q0 24 5 38.5t12.5 23t16.5 11.5t17 3v-180z" />
    <glyph glyph-name="uniE1D3" unicode="GG" horiz-adv-x="1065" 
d="M716 312q-6 -22 -17 -55.5t-30.5 -69.5t-48.5 -71.5t-69 -62.5q32 -21 69 -32.5t77 -11.5q54 0 94 14t69.5 36.5t49.5 50.5t33 54.5t19.5 49.5t10.5 36q5 20 19.5 31t46.5 11q-5 -20 -14.5 -50t-27 -62.5t-43 -64.5t-62 -57.5t-84.5 -41.5t-111 -16q-45 0 -86.5 10.5
t-78.5 30.5q-32 -19 -72.5 -30t-89.5 -11q-72 0 -136 27.5t-111.5 75t-75 111.5t-27.5 136t27.5 136t75 111.5t111.5 75t136 27.5q45 0 89.5 -9.5t82.5 -26.5q35 17 74 26.5t81 9.5q47 0 93.5 -10.5t86 -28.5t69.5 -43.5t44 -55.5l-45 -26q-17 36 -43.5 65t-59 49
t-69.5 30.5t-76 10.5q-72 0 -134 -37q35 -18 61 -41.5t39 -50.5l-45 -26q-14 30 -35 55t-47 45q-61 -46 -98 -120.5t-37 -165.5v-25h644q0 -1 -1 -3q0 -5 -1 -10h-327zM370 9q47 0 83.5 11t64.5 29q-77 46 -124 125t-47 176q0 96 46.5 174.5t122.5 124.5q-32 20 -69.5 31
t-76.5 11q-61 0 -115 -27t-94.5 -73t-63.5 -108t-23 -133q0 -70 23 -132.5t63.5 -108.5t94.5 -73t115 -27zM537 63q29 23 48 50t31.5 53.5t19.5 48.5t10 35q8 29 14 43t14 19h-272q8 -78 44 -143t91 -106z" />
    <glyph glyph-name="uniE1D4" unicode="NN" horiz-adv-x="741" 
d="M721 700q-7 -2 -13 -10q-5 -7 -9 -22t-4 -42v-626h-12q-81 181 -147 324q-28 62 -54.5 121t-48.5 106.5t-36 78t-17 33.5q-3 -15 -3 -37v-626h-11q-81 181 -147 324q-28 62 -54.5 121t-48.5 106.5t-36 78t-17 33.5q-3 -15 -3 -37v-552q0 -26 4 -40.5t9 -22.5q6 -9 13 -11
h-66q8 2 14 11q5 8 9.5 22.5t4.5 40.5l1 553q0 26 -4.5 40.5t-9.5 21.5q-7 9 -15 11h129q-8 -6 -11 -21q-2 -13 0.5 -37t16.5 -65l211 -462v512q0 26 -4.5 40.5t-9.5 21.5q-7 9 -15 11h129q-8 -6 -11 -21q-2 -13 1 -37t17 -65l210 -462l1 512q0 26 -3.5 40.5t-8.5 21.5
q-5 9 -12 11h61z" />
    <glyph glyph-name="uniE1D5" unicode="LL" horiz-adv-x="533" 
d="M385 8q47 0 71 16.5t35 36.5q13 23 14 52h8v-113h-493q10 6 18 22q7 14 13 38.5t6 66.5v450q0 41 -6 65t-13 37q-8 15 -18 21h124q-10 -6 -18 -21q-8 -14 -13.5 -38t-5.5 -65v-450q0 -56 10 -82.5t18 -35.5h250zM513 307v-113h-330q10 6 18 22q7 14 13 38.5t6 66.5v255
q0 42 -6 66t-13 37q-8 15 -18 21h124q-10 -6 -18 -21q-8 -14 -13.5 -38t-5.5 -65v-256q0 -56 9.5 -82.5t17.5 -35.5h88q47 0 71 16.5t35 36.5q13 23 14 52h8z" />
    <glyph glyph-name="uniE1D6" unicode="OO" horiz-adv-x="1168" 
d="M800 700q72 0 135.5 -27.5t110.5 -75t74.5 -111.5t27.5 -136t-27.5 -136t-74.5 -111.5t-110.5 -75t-135.5 -27.5q-61 0 -116 20t-100 56q-45 -36 -99.5 -56t-116.5 -20q-72 0 -135.5 27.5t-110.5 75t-74.5 111.5t-27.5 136t27.5 136t74.5 111.5t110.5 75t135.5 27.5
q62 0 116.5 -20t99.5 -55q45 35 100 55t116 20zM570 88q-54 48 -86 116t-32 146q0 72 26.5 134.5t73.5 110.5q-45 43 -98 66t-110 23q-45 0 -87 -15q-57 -21 -98 -64t-62.5 -99t-22.5 -121.5t22 -131.5q19 -53 51 -96t71.5 -73t85.5 -46.5t93 -16.5q48 0 93 17t80 50z
M916 36q57 20 98 63t62.5 99.5t22.5 122t-23 130.5q-19 53 -50.5 96t-71.5 73.5t-85.5 47t-92.5 16.5q-51 0 -96 -18.5t-82 -52.5q55 -49 86.5 -116.5t31.5 -146.5q0 -70 -25 -131.5t-70 -109.5q44 -42 97 -65t110 -23q45 0 88 15zM528 253q27 -73 76 -127q24 32 39 70.5
t20.5 80.5t1 86t-20.5 88q-13 37 -32.5 69t-43.5 58q-24 -31 -39 -69.5t-20.5 -80.5t-1 -86.5t20.5 -88.5z" />
    <glyph glyph-name="uniE1D7" unicode="QQ" horiz-adv-x="1219" 
d="M993 76q38 -17 72.5 -29.5t63.5 -12.5q20 0 38 7.5t32 25.5q-24 -36 -50.5 -50.5t-55.5 -14.5q-32 0 -67 13.5t-73 33.5q-2 1 -24.5 14.5t-57 29t-76 28t-81.5 12.5q-34 0 -61 -11t-46 -25q-5 -5 -10.5 -10t-11.5 -10l-2 -2q54 -35 119.5 -53t124.5 -18q40 0 72 9t51 27
q-31 -32 -76 -47t-97 -15q-57 0 -117.5 17.5t-114.5 51.5q-3 2 -25.5 16.5t-55 31t-69.5 30t-69 13.5q-30 0 -58 -9.5t-50 -22t-36 -24.5t-16 -16q-66 48 -106 122t-40 163q0 72 27.5 136t74.5 111.5t110.5 75t135.5 27.5q57 0 109 -17.5t95 -48.5q45 31 97 48.5t109 17.5
q72 0 135.5 -27.5t110.5 -75t74.5 -111.5t27.5 -136q0 -85 -36 -156t-97 -119zM337 160q62 0 106.5 -15t86.5 -40q-48 48 -76.5 111t-28.5 135q0 79 32.5 147t88.5 116q-44 35 -95 53t-104 18q-46 0 -90 -15q-57 -21 -98 -64t-62.5 -99t-22.5 -121.5t22 -131.5
q15 -42 40 -80.5t54 -67.5q30 25 70.5 39.5t76.5 14.5zM974 84q35 30 59 72t35 90.5t8 101t-22 104.5q-19 53 -50.5 96t-71.5 73.5t-85.5 47t-92.5 16.5q-97 0 -165 -64q59 -48 93 -118t34 -152q0 -60 -18.5 -113t-51.5 -97q20 10 41 16t40 6q32 0 63.5 -7.5t62.5 -18.5
t61.5 -25t59.5 -28zM576 95q32 32 55.5 73.5t35 89.5t10 99t-19.5 101q-15 42 -38.5 76.5t-53.5 62.5q-39 -43 -66 -103t-31.5 -127t20 -137.5t88.5 -134.5z" />
    <glyph glyph-name="uniE1D8" unicode="TT" horiz-adv-x="694" 
d="M674 701v-112h-8q-1 29 -14 52q-11 20 -35.5 36t-71.5 16h-30q-4 -4 -8.5 -12.5t-9 -22.5t-7.5 -34.5t-3 -49.5v-451q0 -41 5.5 -65t13.5 -37q8 -15 18 -21h-124q10 6 18 21q7 13 13 37t6 65v450v21t-7.5 40.5t-26.5 39t-56 17.5t-55.5 -17t-26 -38t-7.5 -40v-22v-451
q0 -41 5.5 -65t13.5 -37q8 -15 18 -21h-125q10 6 19 21q7 13 12.5 37t5.5 65v450q0 58 -10.5 84.5t-18.5 35.5h-29q-47 0 -71.5 -16t-35.5 -36q-13 -23 -14 -52h-8v112h654z" />
    <glyph glyph-name="uniE1D9" unicode="SS" horiz-adv-x="929" 
d="M496 563q0 -40 30.5 -65.5t76.5 -45.5t99.5 -39t99.5 -47t76.5 -69.5t30.5 -106.5q0 -31 -9 -64t-34 -61t-70 -46t-118 -18q-78 0 -127.5 26t-77.5 66q-10 -19 -27 -36t-42.5 -29.5t-59.5 -19.5t-79 -7q-69 0 -116 20.5t-75.5 53t-41 73.5t-12.5 82l72 26
q-10 -63 2.5 -109t38.5 -76t61 -45t71 -15q50 0 82 15t51 40.5t26.5 59t7.5 70.5q0 53 -27 85.5t-68 55t-88 39t-88 37t-68 50t-27 77.5q0 38 14.5 68t41 50.5t63 31.5t79.5 11q53 0 90.5 -12t62.5 -26q28 -17 47 -39q27 42 72.5 59.5t108.5 17.5q44 0 80 -10.5t63 -26
t44 -33.5t23 -33l-60 -19q0 18 -11.5 38t-31.5 37t-47.5 28t-59.5 11q-18 0 -44 -5.5t-49 -20.5t-39.5 -40t-16.5 -64zM678 11q50 -2 82 13t51.5 41t27 60t7.5 71q0 54 -30 88t-74.5 57.5t-97 41t-97 38t-74.5 49t-30 72.5q0 16 -9 41.5t-29.5 50t-55 42t-85.5 17.5
q-25 0 -51 -8.5t-47 -25t-34 -41t-13 -57.5q0 -43 28.5 -69t71.5 -44.5t93 -36t93 -44t71.5 -68t28.5 -108.5q0 -42 15 -74.5t39.5 -56t55.5 -36t63 -13.5z" />
    <glyph glyph-name="uniE1DA" unicode="TE" horiz-adv-x="806" 
d="M786 701v-112h-8q-1 29 -14 52q-11 20 -35 36t-71 16h-142q-8 -9 -18 -35t-10 -80v-34q0 -32 -11.5 -46t-38.5 -14v94q0 41 -10 64t-29.5 34.5t-48 14t-64.5 2.5q-8 -9 -18 -35t-10 -84v-451q0 -41 5.5 -65t13.5 -37q8 -15 18 -21h-125q10 6 19 21q7 13 12.5 37t5.5 65
v450q0 58 -10.5 84.5t-18.5 35.5h-29q-47 0 -71.5 -16t-35.5 -36q-13 -23 -14 -52h-8v112h766zM658 9q47 0 71 16.5t35 36.5q13 23 14 52h8v-113h-385q10 6 18 22q7 14 13 38.5t6 66.5v305q0 22 18 25t50 3q47 0 71.5 10t35.5 22q13 14 14 32h8v-137h-8q-1 18 -14 33
q-11 12 -35.5 22t-71.5 10h-18v-326q0 -56 9.5 -82.5t17.5 -35.5h143z" />
    <glyph glyph-name="uniE1DB" unicode="TH" horiz-adv-x="842" 
d="M487 127q0 -42 5.5 -66.5t13.5 -38.5q8 -15 18 -21h-124q10 6 18 22q7 14 13 38.5t6 66.5v173q0 19 14 26.5t35 7.5h248v242q0 42 -5.5 66t-12.5 37q-9 15 -19 21h125q-10 -6 -18 -21q-8 -14 -13.5 -38t-5.5 -65v-222q0 -20 -13.5 -24.5t-33.5 -4.5h-251v-199zM286 693
q-8 -9 -18 -35t-10 -84v-451q0 -41 5.5 -65t13.5 -37q8 -15 18 -21h-125q10 6 19 21q7 13 12.5 37t5.5 65v450q0 58 -10.5 84.5t-18.5 35.5h-29q-47 0 -71.5 -16t-35.5 -36q-13 -24 -14 -53h-8v113h504q-10 -6 -18 -21q-8 -14 -13.5 -38t-5.5 -65v-139q0 -34 -14 -52
t-36 -18v209q0 24 -2 45t-13 36.5t-35.5 25t-70.5 9.5h-30zM785 127q0 -42 5.5 -66.5t13.5 -38.5q8 -15 18 -21h-125q10 6 19 22q7 14 12.5 38.5t5.5 66.5v89q0 23 5 38t12.5 23t16.5 11t17 3v-165z" />
    <glyph glyph-name="uniE1DC" unicode="TR" horiz-adv-x="859" 
d="M708 128q26 -42 46.5 -66.5t34.5 -38.5q17 -15 31 -21h-124q6 6 5 22q-1 14 -10 38.5t-33 66.5l-74 125q-23 -3 -46.5 -4t-48.5 -1h-2v-124q0 -41 5.5 -65t13.5 -37q8 -16 18 -22h-124q10 6 18 21q7 14 13 38t6 65v135h54q61 0 114.5 11.5t93.5 37t63 66.5t23 102
q0 59 -21 99t-58 65t-87 36.5t-107 13.5q-8 -11 -16.5 -37t-8.5 -79v-169q0 -43 -13.5 -64.5t-36.5 -21.5v255q0 22 -2 43t-13 37.5t-35.5 27t-70.5 10.5h-30q-8 -9 -18 -35t-10 -84v-451q0 -41 5.5 -65t13.5 -37q8 -15 18 -21h-125q10 6 19 21q7 13 12.5 37t5.5 65v450
q0 58 -10.5 84.5t-18.5 35.5h-29q-47 0 -71.5 -16t-35.5 -36q-13 -24 -14 -53h-8v113h470q72 0 136 -10t111 -35t74.5 -68.5t27.5 -110.5q0 -49 -15.5 -85.5t-43 -63t-66 -43t-84.5 -25.5z" />
    <glyph glyph-name="uniE1DD" unicode="TU" horiz-adv-x="846" 
d="M826 702q-6 -2 -11 -10q-4 -7 -7.5 -22t-3.5 -42v-396q0 -66 -9.5 -110t-29 -70.5t-49.5 -38t-72 -11.5t-79.5 9.5t-66 35t-45 69.5t-16.5 112v346q0 36 -4.5 59t-18 36.5t-37 19t-61.5 5.5h-30q-8 -8 -18 -34.5t-10 -84.5v-450q0 -41 5.5 -65t13.5 -37q8 -16 18 -22
h-125q10 6 19 21q7 13 12.5 37t5.5 65v450q0 58 -10.5 84.5t-18.5 35.5h-29q-47 0 -71.5 -16t-35.5 -36q-13 -23 -14 -52h-8v112l466 -1l1 -473q0 -63 11.5 -105.5t32 -68t49.5 -36t64 -10.5t62 10t46 35t29.5 67t10.5 106l1 403q0 26 -3.5 40.5t-8.5 21.5q-5 9 -12 11h57z
" />
    <glyph glyph-name="uniE1DE" unicode="RO" horiz-adv-x="1212" 
d="M844 38q-72 0 -135.5 26t-110.5 71t-74.5 105.5t-27.5 129.5t27.5 129t74.5 105t110.5 71t135.5 26t135.5 -26t110.5 -71t74.5 -105t27.5 -129t-27.5 -129.5t-74.5 -105.5t-110.5 -71t-135.5 -26zM799 -83q84 0 142 15t97 37.5t63 49.5t39 51q-40 -84 -126 -135.5
t-227 -51.5q-87 0 -168.5 16t-155.5 57t-139 113t-120 183q-23 -2 -46.5 -3t-48.5 -1h-2v-125q0 -41 5.5 -65t13.5 -37q8 -15 18 -21h-124q10 6 18 21q7 13 13 37t6 65v135l55 1q61 0 114.5 11.5t93 37t62.5 66.5t23 102q0 59 -21 99t-58 64.5t-87 36.5t-107 13
q-8 -11 -16.5 -37t-8.5 -78v-169q0 -43 -13.5 -64.5t-36.5 -21.5v254q0 42 -6 66.5t-13 38.5q-8 16 -18 22h90q72 0 136 -10t111 -35t74.5 -68.5t27.5 -110.5q0 -49 -15.5 -86t-43 -63.5t-65.5 -42.5t-84 -25q36 -81 95 -144.5t131.5 -107.5t155 -67t166.5 -23zM732 672
q-57 -19 -97.5 -60t-62.5 -94.5t-23 -115.5t23 -124q19 -51 50.5 -91.5t71.5 -69.5t85.5 -44.5t92.5 -15.5q44 0 87 15q57 20 98 60.5t62.5 94t22.5 115.5t-22 124q-19 50 -51 91t-72 69.5t-86 44t-93 15.5q-22 0 -43.5 -3t-42.5 -11z" />
    <glyph glyph-name="uniE1DF" unicode="RU" horiz-adv-x="943" 
d="M525 573q0 42 -5.5 66.5t-12.5 38.5q-9 16 -19 22h125q-10 -6 -18 -21q-8 -13 -13.5 -38t-5.5 -67v-347q0 -63 11.5 -105.5t32 -68t49 -36t63.5 -10.5t62.5 10t46.5 35t29 67t11 106v403q0 26 -3.5 40.5t-7.5 21.5q-6 9 -12 11h57q-6 -2 -11 -10q-5 -7 -8.5 -22t-3.5 -42
v-396q0 -66 -9.5 -110t-29 -70.5t-49.5 -38t-72 -11.5q-41 0 -78.5 9.5t-66 35t-45.5 69.5t-17 112v346zM705 -77q46 0 81.5 10.5t62 30t44.5 46.5t30 60q-13 -51 -36.5 -83t-53 -50t-62.5 -24t-66 -6q-86 0 -164.5 27t-144 73.5t-115 109.5t-77.5 135q-23 -2 -46.5 -3
t-48.5 -1h-2v-125q0 -41 5.5 -65t13.5 -37q8 -15 18 -21h-124q10 6 18 21q7 13 13 37t6 65v135l55 1q61 0 114.5 11.5t93 37t62.5 66.5t23 102q0 59 -21 99t-58 64.5t-87 36.5t-107 13q-8 -11 -16.5 -37t-8.5 -78v-169q0 -43 -13.5 -64.5t-36.5 -21.5v254q0 42 -6 66.5
t-13 38.5q-8 16 -18 22h90q72 0 136 -10t111 -35t74.5 -68.5t27.5 -110.5q0 -49 -15.5 -86t-43 -63.5t-65.5 -42.5t-84 -25q34 -77 89 -139.5t118.5 -106t128.5 -67t118 -23.5z" />
    <glyph glyph-name="uniE1E0" unicode="RI" horiz-adv-x="649" 
d="M504 81q10 6 18 22q7 14 13 38.5t6 65.5v370q0 41 -6 65t-13 37q-8 15 -18 21h124q-10 -6 -18 -21q-8 -13 -13.5 -37t-5.5 -65v-370q0 -42 5.5 -66.5t13.5 -38.5q8 -15 18 -21h-124zM251 259q26 -72 59.5 -121t69.5 -79t72 -43t68 -13q42 0 71 17t38 43
q-10 -45 -45.5 -69.5t-84.5 -24.5q-37 0 -79 16t-81.5 50t-75 88t-59.5 129q-23 -2 -46.5 -3t-48.5 -1h-2v-125q0 -41 5.5 -65t13.5 -37q8 -15 18 -21h-124q10 6 18 21q7 13 13 37t6 65v135l55 1q61 0 114.5 11.5t93 37t62.5 66.5t23 102q0 59 -21 99t-58 64.5t-87 36.5
t-107 13q-8 -11 -16.5 -37t-8.5 -78v-169q0 -43 -13.5 -64.5t-36.5 -21.5v254q0 42 -6 66.5t-13 38.5q-8 16 -18 22h90q72 0 136 -10t111 -35t74.5 -68.5t27.5 -110.5q0 -49 -15.5 -86t-43 -63.5t-65.5 -42.5t-84 -25z" />
    <glyph glyph-name="uniE1E1" unicode="KU" horiz-adv-x="908" 
d="M499 573q0 42 -5.5 66.5t-12.5 38.5q-9 16 -19 22h124q-10 -6 -18 -21q-8 -13 -13.5 -38t-5.5 -67v-298q0 -63 11.5 -107t32 -71t49.5 -39t64 -12t62.5 11.5t46.5 38t29 70t11 107.5v354q0 26 -3.5 40.5t-7.5 21.5q-6 9 -12 11h56q-6 -2 -11 -10q-4 -7 -7.5 -22t-3.5 -42
v-348q0 -131 -38.5 -187.5t-121.5 -56.5q-41 0 -78.5 12t-66 40t-45.5 74.5t-17 114.5v297zM671 -14q31 0 62 5.5t60 19.5t53.5 37.5t41.5 59.5q-11 -45 -37.5 -73t-59 -44t-65.5 -22t-57 -6q-63 0 -130.5 19t-133.5 62.5t-126.5 113.5t-110.5 172l-61 -96v-108
q0 -42 5.5 -66.5t13.5 -38.5q8 -15 18 -21h-124q10 6 18 22q7 14 13 38.5t6 65.5v47l289 453q17 26 20.5 41t1.5 22q-3 9 -12 11h80q-10 -2 -22 -10q-11 -7 -25.5 -22t-31.5 -42l-162 -255q51 -108 112 -182t124 -119t125 -64.5t115 -19.5zM57 576q0 42 -6 66t-13 37
q-8 15 -18 21h124q-10 -6 -18 -21q-8 -14 -13.5 -38t-5.5 -65v-221q0 -19 -2 -35t-7.5 -30t-15.5 -27.5t-25 -28.5v342z" />
    <glyph glyph-name="uniE1E2" unicode="KO" horiz-adv-x="1080" 
d="M712 701q72 0 135.5 -26t110.5 -71t74.5 -105t27.5 -129t-27.5 -129.5t-74.5 -105.5t-110.5 -71t-135.5 -26t-136 26t-111 71t-74.5 105.5t-27.5 129.5t27.5 129t74.5 105t111 71t136 26zM700 -28q102 0 167.5 33.5t100.5 104.5q-35 -86 -102.5 -123.5t-168.5 -37.5
q-61 0 -128 12.5t-135 52.5t-135.5 115.5t-130.5 200.5l-61 -96v-108q0 -42 5.5 -66.5t13.5 -38.5q8 -15 18 -21h-124q10 6 18 22q7 14 13 38.5t6 65.5v47l289 453q17 26 20.5 41t1.5 22q-3 9 -12 11h80q-10 -2 -22 -10q-11 -7 -25.5 -22t-31.5 -42l-162 -255
q51 -108 109 -184t122 -124t132.5 -69.5t141.5 -21.5zM57 576q0 42 -6 66t-13 37q-8 15 -18 21h124q-10 -6 -18 -21q-8 -14 -13.5 -38t-5.5 -65v-221q0 -19 -2 -35t-7.5 -30t-15.5 -27.5t-25 -28.5v342zM827 72q57 20 98 60.5t62.5 94t22.5 115.5t-23 124q-19 50 -50.5 91
t-71.5 69.5t-86 44t-93 15.5q-22 0 -43.5 -3t-42.5 -11q-57 -19 -97.5 -60t-62.5 -94.5t-23 -115.5t23 -124q19 -51 50.5 -91.5t71 -69.5t85.5 -44.5t93 -15.5q44 0 87 15z" />
    <glyph glyph-name="uniE1E3" unicode="LI" horiz-adv-x="405" 
d="M204 81q10 6 18 22q7 14 13 38.5t6 65.5v371q0 41 -6 65t-13 37q-8 15 -18 21h124q-10 -6 -18 -21q-8 -13 -13.5 -37t-5.5 -65v-371q0 -42 5.5 -66.5t13.5 -38.5q8 -15 18 -21h-124zM385 67v-66h-365q10 6 18 22q7 14 13 38.5t6 66.5v450q0 41 -6 65t-13 37q-8 15 -18 21
h124q-10 -6 -18 -21q-8 -13 -13.5 -37t-5.5 -65v-451q0 -56 10 -82.5t18 -35.5h121q47 0 71.5 9t35.5 20q13 13 14 29h8z" />
    <glyph glyph-name="uniE1E4" unicode="LA" horiz-adv-x="705" 
d="M256 9q47 0 71.5 9t35.5 20q13 13 14 29h8v-66h-365q10 6 18 22q7 14 13 38.5t6 66.5v450q0 41 -6 65t-13 37q-8 15 -18 21h124q-10 -6 -18 -21q-8 -13 -13.5 -37t-5.5 -65v-451q0 -56 10 -82.5t18 -35.5h121zM561 0q9 6 13 21q3 14 2 38.5t-12 66.5l-54 200h-211
l-57 -211q-7 -26 -8.5 -40.5t-0.5 -22.5q1 -9 5 -11h-45q5 2 11 11q5 8 12 22.5t14 40.5l139 512q8 26 9 40t0 22q-2 9 -6 11h22q26 0 40.5 -4.5t23.5 -18t16 -37.5t18 -63l57 -208q-27 0 -43 15t-26 53l-38 140q-11 41 -22 65t-21 37q-9 -16 -19 -53l-79 -291h207
q21 0 37 -8t27 -44l42 -156q11 -42 23.5 -66.5t23.5 -38.5q12 -16 24 -22h-124z" />
    <glyph glyph-name="uniE1E5" unicode="CH" horiz-adv-x="845" 
d="M440 301q0 19 14.5 26.5t34.5 7.5h249v242q0 42 -6 66t-13 37q-8 15 -18 21h124q-10 -6 -18 -21q-8 -14 -13.5 -38t-5.5 -65v-222q0 -20 -13.5 -25t-33.5 -5h-251v-88q0 -42 5.5 -67t13.5 -39q8 -15 18 -21h-124q10 6 18 22q7 14 13 38.5t6 66.5v64zM370 9q39 0 76 11.5
t68 33t53.5 52t32.5 68.5l50 -17q-9 -33 -36.5 -61.5t-66 -49.5t-84.5 -33t-93 -12q-72 0 -136 27.5t-111.5 75t-75 111t-27.5 136.5q0 72 27.5 136t75 111t111.5 74.5t136 27.5q84 0 154.5 -35.5t118.5 -95.5l-53 -28q-15 32 -37.5 60t-50.5 48t-61 31.5t-71 11.5
q-61 0 -115 -27t-94.5 -73t-63.5 -108t-23 -133t23 -133t63.5 -108.5t94.5 -73.5t115 -27zM490 438q0 -34 -14 -52t-36 -18v76q0 42 -6 66t-13 37q-8 15 -18 21h124q-10 -6 -18 -21q-8 -14 -13.5 -38t-5.5 -65v-6zM788 127q0 -42 5.5 -66.5t13.5 -38.5q8 -15 18 -21h-124
q10 6 18 22q7 14 13 38.5t6 65.5v90q0 23 5 38t12.5 23t16 11t16.5 3v-165z" />
    <glyph glyph-name="uniE1E6" unicode="AS" horiz-adv-x="884" 
d="M488 558q0 -36 16 -60t42.5 -41.5t60.5 -30.5t69 -26.5t69 -30t60.5 -40.5t42.5 -58t16 -83q0 -31 -9 -64t-34 -61t-70.5 -46t-117.5 -18q-52 0 -89.5 12t-64.5 32t-45 45t-29.5 50.5t-18.5 49t-12 40.5q-5 16 -10 33t-10 31q-5 17 -10 33h-208l-68 -252
q-7 -26 -8.5 -40.5t0.5 -22.5q1 -9 5 -11h-45q5 2 11 11q5 8 11.5 22.5t14.5 40.5l150 553q7 25 8 39.5t0 22t-3.5 9.5l-2.5 2h23q26 0 40.5 -4.5t23.5 -18t16 -37.5t18 -63l56 -209q-26 0 -42 15.5t-26 53.5l-38 139q-11 42 -22.5 66t-20.5 37q-9 -16 -19 -53l-79 -292h207
q28 0 45.5 -24t32.5 -60t30 -78.5t37.5 -78.5t56 -60t85.5 -24q50 0 82 15t51.5 40.5t27 59.5t7.5 71q0 54 -27 85t-68 51.5t-88.5 35.5t-88.5 35.5t-68 52t-27 84.5q0 43 14.5 73.5t41 50t63 28.5t79.5 9q44 0 75 -10.5t52 -26.5t33 -33.5t18 -32.5l-60 -19q0 18 -6.5 37.5
t-20.5 36.5t-36.5 28t-54.5 11q-33 0 -59.5 -6t-45 -21t-29 -40.5t-10.5 -64.5z" />
    <glyph glyph-name="uniE1E7" unicode="OR" horiz-adv-x="993" 
d="M842 125q26 -42 46.5 -66.5t34.5 -38.5q17 -15 31 -21h-124q6 6 5 22q-1 14 -10 38.5t-33 66.5l-85 145q-13 -58 -44.5 -108t-76.5 -86.5t-100.5 -57t-117.5 -20.5q-72 0 -135.5 27.5t-110.5 75t-74.5 111.5t-27.5 136t27.5 136t74.5 111.5t110.5 75t135.5 27.5h132
q55 -1 124 -1q72 0 136 -10t111 -35t74.5 -68.5t27.5 -110.5q0 -49 -17 -87t-47 -63t-69.5 -38t-84.5 -13zM459 687q56 -15 103 -47t81 -76.5t53.5 -99t19.5 -115.5q0 -16 -1.5 -31t-3.5 -30q111 2 159.5 48t48.5 138q0 59 -21 99t-58 64.5t-87 36.5t-107 13h-187zM484 35
q57 21 98 64t62.5 99t22.5 121.5t-23 131.5q-19 53 -50.5 96t-71.5 73t-85.5 46.5t-92.5 16.5q-45 0 -87 -15q-57 -21 -98 -64t-62.5 -99t-22.5 -121.5t22 -131.5q19 -53 51 -96t71.5 -73t85.5 -46.5t93 -16.5q44 0 87 15z" />
    <glyph glyph-name="uniE1E8" unicode="SV" horiz-adv-x="937" 
d="M917 699q-5 -2 -11 -11q-5 -8 -11 -22.5t-14 -40.5l-151 -553q-7 -26 -8 -40.5t0 -21.5q2 -9 6 -11h-22q-27 0 -41 4.5t-23 18t-16 37.5t-19 63q-12 43 -24.5 88t-24.5 89t-22.5 85t-19.5 76q-16 61 -42 104.5t-57 71.5t-65 41t-66 13q-25 0 -54 -6t-54 -21t-42 -40.5
t-17 -64.5q0 -47 28 -75t70 -47.5t90.5 -36.5t90.5 -42t70 -65t28 -105q0 -31 -9 -64t-34 -60.5t-70.5 -45.5t-117.5 -18q-69 0 -116 20.5t-75.5 53t-41 73.5t-12.5 82l72 26q-10 -63 2.5 -109.5t38.5 -76.5t61 -45t71 -15q50 0 82 15t51 40.5t26.5 59t7.5 70.5q0 54 -27 85
t-68 51.5t-88 35.5t-88 35.5t-68 51.5t-27 85q0 36 15 65.5t43.5 51.5t69 33.5t92.5 11.5q43 0 87 -16.5t82.5 -48t68.5 -77.5t45 -106q8 -31 18.5 -71t22.5 -83.5t24.5 -88.5t22.5 -86q11 -42 22.5 -65.5t21.5 -36.5q4 8 9 20.5t10 31.5l149 553q8 26 9 40.5t0 22.5
q-2 9 -6 11h45z" />
    <glyph glyph-name="uniE1E9" unicode="SW" horiz-adv-x="1312" 
d="M730 73q-7 -26 -8.5 -40.5t-0.5 -21.5q2 -9 6 -11h-22q-26 0 -40.5 4.5t-23.5 18t-16 37.5t-18 63q-21 77 -39 144q-7 29 -15 58t-15 55.5t-13 47.5t-9 34q-16 61 -42 104.5t-57 71t-65 40.5t-66 13q-25 0 -54 -6t-54 -21t-42 -40t-17 -64q0 -48 28 -76t70 -47.5
t90.5 -36t90.5 -42t70 -65t28 -104.5q0 -31 -9 -64t-34 -61t-70.5 -46t-117.5 -18q-69 0 -116 20.5t-75.5 53t-41 73.5t-12.5 82l72 26q-10 -63 2.5 -109t38.5 -76.5t61 -45.5t71 -15q50 0 82 15t51 40.5t26.5 59.5t7.5 71q0 54 -27 85t-68 51.5t-88 35.5t-88 35.5t-68 52
t-27 84.5q0 35 15 65t43.5 51.5t69 33t92.5 11.5q43 0 87 -16.5t82.5 -48t68.5 -77.5t45 -106l10 -37.5t13 -49t14.5 -54.5t14.5 -55q17 -63 36 -133q11 -41 22 -65t21 -37q4 8 9 21t10 32l166 625q2 -7 1.5 -26t-8.5 -48zM1292 700q-5 -2 -11 -11q-5 -8 -11.5 -22.5
t-14.5 -40.5l-150 -553q-7 -26 -8 -40.5t0 -21.5q2 -9 6 -11h-23q-26 0 -40.5 4.5t-23.5 18t-15.5 37.5t-18.5 63l-104 385q-5 20 -3.5 41.5t6 41t10.5 34t9 20.5l132 -522q11 -41 22.5 -65t20.5 -37q5 8 9.5 21t9.5 32l150 552q8 26 9 41t0 22q-2 9 -6 11h45z" />
    <glyph glyph-name="uniE1EA" unicode="ZA" horiz-adv-x="888" 
d="M744 0q9 6 13 21q3 14 2 38.5t-12 66.5l-54 200h-211l-84 -326h-378q13 6 29 21q14 13 31 37t37 65l218 451q29 59 35 84.5t2 33.5h-199q-46 0 -70.5 -16t-35.5 -36q-13 -24 -14 -53h-8v113h439q-13 -6 -29 -22q-14 -14 -32 -38.5t-38 -66.5l-218 -450q-14 -29 -20.5 -49
t-8.5 -33.5t-0.5 -21t3.5 -11.5h128q23 0 45 4t42 21.5t39.5 54.5t37.5 103l119 436q7 26 8.5 40t-0.5 22q-1 8 -5 11h22q26 0 40.5 -4.5t23.5 -18t16 -37.5t18 -63l56 -209q-26 0 -42 15.5t-26 53.5l-38 140q-11 41 -22.5 65t-20.5 37q-9 -16 -19 -53l-79 -291l207 -1
q21 0 37 -7.5t27 -43.5l42 -156q11 -42 23.5 -66.5t23.5 -38.5q12 -16 24 -22h-124z" />
    <glyph glyph-name="uniE1EB" unicode="LU" horiz-adv-x="605" 
d="M456 7q47 0 71.5 16.5t35.5 36.5q13 23 14 52h8v-113h-565q10 6 18 22q7 14 13 38.5t6 66.5v450q0 42 -6 65.5t-13 36.5q-8 15 -18 21h124q-10 -6 -18 -21q-8 -13 -13.5 -37t-5.5 -65v-451q0 -56 10 -82t18 -36h321zM228 572q0 42 -5.5 66t-12.5 38q-9 16 -19 22h125
q-10 -6 -18 -21q-8 -13 -13.5 -38t-5.5 -67v-291q0 -63 8 -105.5t24.5 -68t42 -36t60.5 -10.5q31 0 56 10t42.5 35t27.5 67t11 106l1 347q0 26 -3.5 40.5t-8.5 21.5q-5 9 -12 11h57q-6 -2 -11 -10q-4 -7 -7.5 -21.5t-3.5 -41.5v-342q0 -66 -9 -110t-27.5 -70.5t-46.5 -37.5
t-66 -11q-42 0 -76 9.5t-58.5 35t-38 69.5t-13.5 112v291z" />
    <glyph glyph-name="uniE1EC" unicode="LK" horiz-adv-x="686" 
d="M277 7q47 0 71.5 16.5t35.5 36.5q13 23 14 52h8v-113h-386q10 6 18 22q7 14 13 38.5t6 66.5v450q0 42 -6 65.5t-13 36.5q-8 15 -18 21h124q-10 -6 -18 -21q-8 -13 -13.5 -37t-5.5 -65v-451q0 -56 10 -82t18 -36h142zM272 576q0 42 -5.5 65.5t-12.5 36.5q-9 15 -19 21h124
q-10 -6 -18 -21q-8 -13 -13.5 -37t-5.5 -65v-221q0 -19 -2 -35t-7.5 -30t-15.5 -27.5t-25 -29.5v343zM542 -1q6 6 5 22q-1 14 -10 38.5t-33 66.5l-120 204l-62 -96v-75q0 -27 3.5 -44t8.5 -26q5 -11 12 -16h-96q6 7 11 18t8 27t3 41v14l289 453q17 26 20.5 40.5t1.5 21.5
q-3 9 -12 11h80q-10 -2 -22 -10q-11 -7 -25.5 -21.5t-31.5 -41.5l-162 -255l145 -246q25 -42 45.5 -66.5t34.5 -38.5q17 -15 31 -21h-124z" />
    <glyph glyph-name="uniE1ED" unicode="THE" horiz-adv-x="1104" 
d="M286 692q-8 -9 -18 -35.5t-10 -84.5v-450q0 -41 5.5 -65t13.5 -37q8 -16 18 -22h-125q10 6 19 21q7 14 12.5 38t5.5 65v450q0 57 -10.5 84t-18.5 36h-29q-47 0 -71.5 -16t-35.5 -36q-13 -24 -14 -53h-8v112h504q-10 -6 -18 -21q-8 -13 -13.5 -37t-5.5 -65v-153
q0 -34 -14 -52t-36 -18v223q0 17 -1.5 37t-13 37.5t-36 29.5t-70.5 12h-30zM1084 699v-112h-9q-1 29 -14 53q-11 20 -35 36t-71 16h-142q-8 -10 -18 -36t-10 -80v-222q0 -20 -13.5 -25t-33.5 -5h-251v-198q0 -42 5.5 -67t13.5 -39q8 -15 18 -21h-124q10 6 18 22
q7 14 13 38.5t6 66.5v174q0 18 14 25.5t35 7.5l248 1l1 242q0 42 -6 65.5t-13 36.5q-8 15 -18 21h386zM955 7q47 0 71 16.5t35 36.5q13 23 14 52h9v-113h-386q10 6 18 22q7 14 13 38.5t6 66.5v147q0 22 18 25t50 3q47 0 71.5 10t35.5 23q13 14 14 32h8v-138h-8q-1 18 -14 33
q-11 12 -35.5 22t-71.5 10h-18v-167q0 -56 9.5 -82.5t17.5 -36.5h143z" />
    <glyph glyph-name="uniE1EE" unicode="ASS" horiz-adv-x="1300" 
d="M867 561q0 -41 30.5 -66.5t76.5 -45t99.5 -38.5t99.5 -47t76.5 -69.5t30.5 -106.5q0 -31 -9 -64t-34 -61t-70.5 -46t-117.5 -18t-125.5 27.5t-82.5 63.5q-10 -19 -27 -35.5t-42.5 -29t-59.5 -19.5t-79 -7q-52 0 -89.5 12t-64.5 32t-45 45t-29.5 50.5t-18.5 49t-12 40.5
q-5 16 -10 33t-10 31q-5 17 -10 33h-208l-68 -252q-7 -26 -8.5 -40.5t0.5 -22.5q1 -9 5 -11h-45q5 2 11 11q5 8 11.5 22.5t14.5 40.5l150 553q7 25 8 39.5t0 22t-3.5 9.5l-2.5 2h23q26 0 40.5 -4.5t23.5 -18t16 -37.5t18 -63l56 -209q-26 0 -42 15.5t-26 53.5l-38 139
q-11 42 -22.5 66t-20.5 37q-9 -16 -19 -53l-79 -292h207q28 0 45.5 -24t32.5 -60t30 -78.5t37.5 -78.5t56 -60t85.5 -24q50 0 82 15t51.5 40.5t27 59.5t7.5 71q0 54 -27 85t-68 51.5t-88.5 35.5t-88.5 35.5t-68 52t-27 84.5q0 43 16.5 73.5t45 50t67 28.5t81.5 9
q52 0 88 -12t59 -27q27 -17 44 -39q27 42 72.5 60t108.5 18q43 0 79 -10.5t63 -26t44.5 -33.5t22.5 -33l-59 -19q0 18 -11.5 37.5t-31.5 36.5t-47.5 28t-59.5 11q-19 0 -44.5 -5.5t-48.5 -20t-39.5 -39.5t-16.5 -64zM1049 8q50 -2 82 13t51.5 41t27 60.5t7.5 71.5
q0 54 -30 88t-75 57.5t-97 41t-97 38t-75 48.5t-30 73q0 5 -8.5 29t-28.5 51t-52 48.5t-80 21.5q-32 0 -60.5 -6t-49.5 -21t-33.5 -40.5t-12.5 -64.5q0 -43 28.5 -68.5t72 -45t93.5 -37t93.5 -44.5t72 -68t28.5 -106q0 -42 15 -75t39.5 -56.5t55.5 -36t63 -13.5z" />
    <glyph glyph-name="uniE1EF" unicode="ORR" horiz-adv-x="1226" 
d="M1076 125q25 -42 45.5 -66.5t34.5 -38.5q17 -15 31 -21h-124q6 6 5 22q-1 14 -10 38.5t-33 66.5l-95 162q119 0 170.5 45.5t51.5 140.5q0 59 -21 99t-58 64.5t-87 36.5t-107 13h-114q46 -8 84 -24t65.5 -41.5t43 -61.5t15.5 -86q0 -49 -17 -87t-47 -63t-69.5 -38
t-84.5 -13l87 -148q26 -42 46.5 -66.5t34.5 -38.5q17 -15 31 -21h-124q6 6 5 22q-1 14 -10 38.5t-33 66.5l-85 145q-13 -58 -44.5 -108t-76.5 -86.5t-100.5 -57t-117.5 -20.5q-72 0 -135.5 27.5t-110.5 75t-74.5 111.5t-27.5 136t27.5 136t74.5 111.5t110.5 75t135.5 27.5
h24h56.5h78t88.5 -0.5t88.5 -0.5h77.5h54.5h21.5q72 0 136 -10t111 -35t74.5 -68.5t27.5 -110.5q0 -49 -17 -87t-47 -63t-69.5 -38t-84.5 -13zM919 474q0 59 -21 99t-58 64.5t-87 36.5t-107 13h-187q56 -15 103 -47t81 -76.5t53.5 -99t19.5 -115.5q0 -16 -1.5 -31t-3.5 -30
q111 2 159.5 48t48.5 138zM484 35q57 21 98 64t62.5 99t22.5 121.5t-23 131.5q-19 53 -50.5 96t-71.5 73t-85.5 46.5t-92.5 16.5q-45 0 -87 -15q-57 -21 -98 -64t-62.5 -99t-22.5 -121.5t22 -131.5q19 -53 51 -96t71.5 -73t85.5 -46.5t93 -16.5q44 0 87 15z" />
    <glyph glyph-name=".notdef" horiz-adv-x="1024" 
 />
    <glyph glyph-name=".null" horiz-adv-x="0" 
 />
    <glyph glyph-name=".null" horiz-adv-x="0" 
 />
    <glyph glyph-name="uni000D" unicode="&#xd;" horiz-adv-x="250" 
 />
    <glyph glyph-name="space" unicode=" " horiz-adv-x="299" 
 />
    <glyph glyph-name="space" unicode="&#xa0;" horiz-adv-x="299" 
 />
    <glyph glyph-name="exclam" unicode="!" horiz-adv-x="164" 
d="M144 700q-10 -6 -18 -21q-8 -13 -13.5 -37t-5.5 -65l-16 -476h-17l-17 476q0 41 -6 65t-13 37q-8 15 -18 21h124zM83 79q16 0 27.5 -11t11.5 -28q0 -16 -11.5 -27.5t-27.5 -11.5q-17 0 -28 11.5t-11 27.5q0 17 11 28t28 11z" />
    <glyph glyph-name="quotedbl" unicode="&#x22;" horiz-adv-x="194" 
d="M103 700q-10 -34 -23 -60q-11 -23 -26 -42t-34 -19l31 121h52zM174 700q-10 -34 -23 -60q-11 -23 -26 -42t-34 -19l31 121h52z" />
    <glyph glyph-name="numbersign" unicode="#" horiz-adv-x="447" 
d="M147 392v1h-84l12 30l82 -4l54 157l56 1l-64 -159h2l104 -5l56 163l56 1l-67 -165l73 -3l-7 -17h-74l-40 -99l74 -3l-7 -17h-75l-59 -147l-30 1l51 146l-108 1h-7l-60 -148l-30 1l51 147h-86l12 30l83 -4zM192 392l-37 -93h7l105 -5l34 98l-106 1h-3v-1z" />
    <glyph glyph-name="percent" unicode="%" horiz-adv-x="789" 
d="M195 -5h-54l451 748h54zM173 728q22 6 44 6q14 0 38.5 -4t55 -21.5t52.5 -46.5t31 -66q7 -26 7 -51q0 -11 -3 -35t-20.5 -55t-46 -54t-65.5 -33q-23 -6 -46 -6q-13 0 -38 4t-55.5 22t-53 47t-31.5 66q-7 24 -7 48q0 12 3.5 36t21.5 55t46.5 54.5t66.5 33.5zM173 724
q-33 -10 -54.5 -33.5t-32.5 -53.5t-11.5 -48.5t-0.5 -21.5q0 -29 7 -56q8 -30 25.5 -58.5t42 -49t47 -27.5t39.5 -7q15 0 31 4q33 10 53.5 33t31 53t11 47.5t0.5 19.5q0 31 -8 58q-8 30 -24.5 58.5t-40.5 49.5t-46.5 28.5t-39.5 7.5q-14 0 -30 -4zM523 361q22 5 43 5
q15 0 40 -4t55.5 -22t53 -46.5t32.5 -65.5q6 -24 6 -48q0 -13 -3.5 -37.5t-21 -55.5t-46 -54t-64.5 -33q-24 -6 -47 -6q-13 0 -37.5 3.5t-55.5 21.5t-54 47t-33 65q-6 23 -6 46q0 14 4 39t22 56.5t46.5 54.5t65.5 34zM524 354q-33 -9 -54.5 -32t-32 -52.5t-10.5 -63t8 -63.5
q7 -30 24 -59t40.5 -50t46 -28t38.5 -7t33 5q33 9 54.5 32t32 53t11 47.5t0.5 19.5q0 32 -8 60q-8 30 -25 59t-41 49.5t-46.5 27.5t-38.5 7q-15 0 -32 -5z" />
    <glyph glyph-name="ampersand" unicode="&#x26;" horiz-adv-x="870" 
d="M835 126q-14 -18 -30 -37t-34.5 -34.5t-40.5 -25t-47 -9.5q-48 0 -88.5 18.5t-71.5 42.5q-48 -35 -99.5 -65.5t-101 -46t-96.5 -15.5q-5 0 -34 1t-79 33q-31 21 -50.5 54t-23 59.5t-3.5 40.5q0 25 7 59t31.5 72t64.5 69t97 50q-45 60 -55.5 105.5t-10.5 73.5q0 25 9 60.5
t45.5 65.5t93.5 30q39 0 70.5 -16.5t51 -43.5t23 -49t3.5 -33q0 -24 -10.5 -53t-44 -60.5t-90.5 -54.5q50 -67 112 -143t135 -148q39 33 65.5 68t37.5 55l5 -5q-15 -26 -40.5 -59.5t-63.5 -64.5q28 -20 55.5 -37.5t58.5 -27.5q15 -4 30 -4q26 0 53 15.5t64 63.5zM318 717
q-41 0 -67.5 -18.5t-29 -39.5t-2.5 -27q0 -34 20.5 -85t76.5 -125q34 19 56.5 48.5t34 62t11.5 63.5q0 2 -0.5 19t-11.5 43t-33 42.5t-55 16.5zM239 388q-52 -19 -90 -53.5t-53 -71.5t-15 -72q0 -12 4 -43t42 -78q36 -42 76.5 -56t79.5 -14q11 0 42 2.5t85.5 24.5t107.5 57
q-32 26 -70.5 65t-77 81.5t-73.5 84.5t-58 73z" />
    <glyph glyph-name="quotesingle" unicode="'" horiz-adv-x="123" 
d="M103 700q-10 -34 -23 -60q-11 -23 -26 -42t-34 -19l31 121h52z" />
    <glyph glyph-name="parenleft" unicode="(" horiz-adv-x="386" 
d="M366 691q-60 -1 -113.5 -28t-93 -73t-62.5 -108t-23 -132t23 -132t62.5 -108t93 -73t113.5 -28v-9q-72 1 -135 28.5t-110 75t-74 111t-27 135.5t27 135.5t74 111t110 75t135 28.5v-9z" />
    <glyph glyph-name="parenright" unicode=")" horiz-adv-x="386" 
d="M20 700q72 -1 135 -28.5t110 -75t74 -111t27 -135.5t-27 -135.5t-74 -111t-110 -75t-135 -28.5v9q61 1 114.5 28t93 73t62.5 108t23 132t-23 132t-62.5 108t-93 73t-114.5 28v9z" />
    <glyph glyph-name="asterisk" unicode="*" horiz-adv-x="216" 
d="M196 636q-14 3 -27 4.5t-26 2.5q10 -9 20.5 -17.5t21.5 -16.5l-29 -29q-16 23 -33 42q1 -14 2 -27t3 -26h-41l4 26t3 26q-9 -10 -17.5 -20t-16.5 -21l-29 29q11 8 22 16.5t21 17.5q-14 -1 -27 -2.5t-27 -4.5v42q27 -4 53 -6q-11 9 -21 17t-21 16l29 29q8 -11 16.5 -21
t17.5 -20q-1 13 -2.5 26t-4.5 26h41q-2 -14 -3 -27l-2 -26q9 10 17 20.5t16 21.5l29 -29q-11 -8 -21 -16.5t-19 -16.5q26 2 51 6v-42z" />
    <glyph glyph-name="plus" unicode="+" horiz-adv-x="335" 
d="M315 316q-61 10 -124 12q1 -32 3.5 -63.5t7.5 -61.5h-69q5 32 8.5 63t4.5 63q-32 -1 -63 -4.5t-63 -8.5v69q32 -5 63.5 -7.5t62.5 -3.5q-2 65 -13 124h69q-5 -32 -7 -63t-3 -61q32 1 62.5 3.5t60.5 7.5v-69z" />
    <glyph glyph-name="comma" unicode="," horiz-adv-x="173" 
d="M86 98q21 0 35 -15t16 -33q1 -7 1 -14q0 -43 -23.5 -85t-59.5 -82l-8 7q15 13 28.5 32t21.5 37.5t8 32.5q0 1 -0.5 8.5t-15.5 11.5q-21 3 -37.5 15.5t-16.5 36.5q0 18 14.5 33t36.5 15z" />
    <glyph glyph-name="hyphen" unicode="-" horiz-adv-x="335" 
d="M20 385q41 -5 79 -8t75 -3t72 3t69 8v-69q-37 7 -74 10t-74 3q-76 0 -147 -13v69z" />
    <glyph glyph-name="hyphen" unicode="&#xad;" horiz-adv-x="335" 
d="M20 385q41 -5 79 -8t75 -3t72 3t69 8v-69q-37 7 -74 10t-74 3q-76 0 -147 -13v69z" />
    <glyph glyph-name="period" unicode="." horiz-adv-x="174" 
d="M100 84q18 0 30.5 -12.5t12.5 -29.5t-12.5 -29.5t-30.5 -12.5q-17 0 -29.5 12.5t-12.5 29.5t12.5 29.5t29.5 12.5z" />
    <glyph glyph-name="slash" unicode="/" horiz-adv-x="421" 
d="M401 700q-13 -6 -27 -21q-12 -13 -27 -37t-32 -65l-176 -451q-17 -42 -20.5 -66.5t-1.5 -38.5q2 -15 10 -21h-107q13 6 27 22q12 14 27.5 38.5t32.5 66.5l175 450q16 41 20 65t2 37q-2 15 -10 21h107z" />
    <glyph glyph-name="zero" unicode="0" horiz-adv-x="603" 
d="M303 710q55 0 103.5 -25.5t84.5 -72t56.5 -112t20.5 -146.5q0 -80 -20.5 -145t-56.5 -111.5t-84.5 -71.5t-103.5 -25q-56 0 -105 25t-85 71.5t-57 111.5t-21 145q0 81 21 146.5t57 112t85 72t105 25.5zM303 12q44 0 78.5 25t58.5 70.5t36.5 108.5t12.5 138
q0 76 -12.5 139t-36.5 108.5t-58.5 71t-78.5 25.5t-78.5 -25.5t-58.5 -71t-36.5 -108.5t-12.5 -139q0 -75 12.5 -138t36.5 -108.5t58.5 -70.5t78.5 -25z" />
    <glyph glyph-name="one" unicode="1" horiz-adv-x="232" 
d="M197 705v-705h-79v564q0 43 -18 53.5t-35 10.5q-13 0 -30 -5l83 43z" />
    <glyph glyph-name="two" unicode="2" horiz-adv-x="550" 
d="M378 75q18 0 39 4t40 12t34.5 19t23.5 25q-4 -6 -8 -15q-4 -8 -10 -19l-16 -26l-40 -75h-406v32l32 24q24 20 48.5 42t53.5 49t64 62t79 82q31 32 48.5 64t26 63.5t9.5 56t1 41.5v23q-3 28 -15 56t-32.5 49.5t-47 33t-56.5 11.5h-10q-58 -6 -90 -20t-49.5 -37.5
t-25 -56.5l-17.5 -77v207q13 -24 23 -27.5t19 -3.5q8 0 23 3.5t45.5 12.5t79.5 11h8q30 0 65 -6.5t67.5 -23.5t56 -43.5t30.5 -63.5q4 -20 4 -38t-5 -43t-25 -58.5t-52 -68t-74 -73.5q-36 -36 -62 -62.5t-49.5 -49.5t-48.5 -45.5t-59 -50.5h278z" />
    <glyph glyph-name="three" unicode="3" horiz-adv-x="574" 
d="M385 375q44 -4 76.5 -21t51.5 -45t22.5 -52.5t3.5 -36.5q0 -26 -7 -54q-9 -38 -33 -69.5t-59 -55t-79 -36.5t-92 -13q-32 0 -66 6.5t-65.5 19.5t-58.5 32.5t-44 45.5l8 7q13 -20 35.5 -38.5t53 -31.5t61.5 -18.5t58 -5.5q16 0 33 2q67 6 110.5 43.5t60.5 106.5q8 31 8 59
q0 5 -1 23.5t-13 44.5t-33.5 44.5t-51.5 24.5q-20 5 -37.5 5t-34.5 -3t-34.5 -8.5t-38.5 -10.5l-5 8q38 10 74 25t65 36t49 50t28 67q4 20 4 37q0 18 -6 41.5t-26 45t-46 31t-53 9.5q-8 0 -16 -1q-47 -3 -78.5 -16t-53 -36t-36 -58t-27.5 -81v207q9 -35 18.5 -38.5
t15.5 -3.5q11 0 30 6.5t54.5 19t88.5 12.5h7q31 0 65.5 -8.5t64 -28t46.5 -47.5t17 -63v-8q-2 -33 -17.5 -59t-40.5 -46.5t-58.5 -37t-70.5 -30.5q17 2 29 2.5t18 0.5q13 0 26 -1z" />
    <glyph glyph-name="four" unicode="4" horiz-adv-x="473" 
d="M360 173h-325l403 518v-691h-78v173zM53 180h307v401z" />
    <glyph glyph-name="five" unicode="5" horiz-adv-x="516" 
d="M76 388q13 24 48.5 41.5t69 22t55.5 4.5q24 0 61 -5t78 -29.5t67 -67.5t26 -110q0 -77 -33 -128.5t-82.5 -80.5t-92.5 -35.5t-69 -6.5q-28 0 -65.5 7t-70.5 32.5t-33 63.5h5q0 -31 26 -54.5t59 -33t63 -9.5q14 0 44 3.5t70.5 30t69.5 77.5t33 132q0 66 -24.5 106
t-61 60.5t-63.5 22.5t-38 2q-30 0 -61.5 -7t-56 -24t-24.5 -37h-8v340h413v-77h-405v-240z" />
    <glyph glyph-name="six" unicode="6" horiz-adv-x="566" 
d="M343 438q40 -5 76 -25t62 -51t37.5 -66.5t11.5 -69.5q0 -12 -1 -25q-4 -37 -21.5 -75.5t-49.5 -69t-75.5 -47.5t-93.5 -17h-17q-40 3 -85 21.5t-81 56t-53.5 88t-17.5 106.5q0 22 2 46q9 93 54 165t109 121t137.5 74.5t139.5 26.5l-1 -9q-27 0 -63.5 -6t-74.5 -21
t-76 -41t-68.5 -66t-51.5 -96t-25 -131q11 26 32.5 48.5t50.5 38t58 21t52 5.5q16 0 33 -2zM449 200q1 12 1 23q0 72 -31 124.5t-97 69.5q-20 6 -41 6q-14 0 -39.5 -5t-55.5 -25t-49.5 -51t-20.5 -69q-1 -15 -1 -30q0 -71 18.5 -121t49 -78t61 -34.5t50.5 -6.5h11
q39 5 66 24t44 47t25.5 61t8.5 65z" />
    <glyph glyph-name="seven" unicode="7" horiz-adv-x="504" 
d="M35 628v77h434q-50 -67 -97.5 -154t-84.5 -181.5t-59.5 -190t-22.5 -179.5h-92q12 82 42 167.5t70.5 167.5t88.5 157t95 136h-374z" />
    <glyph glyph-name="eight" unicode="8" horiz-adv-x="575" 
d="M369 362q85 -35 128 -78t43 -105q0 -30 -12 -63t-40.5 -60.5t-75 -45.5t-115.5 -18q-71 0 -120.5 14t-81 37t-46 53t-14.5 63q0 39 15 70t38 55t50.5 41t51.5 28q-21 11 -43.5 26.5t-41.5 36.5t-30 48.5t-11 61.5v6q1 40 21.5 71.5t52 53t69.5 33t76 11.5
q60 0 102.5 -16.5t70 -41t41 -53t14.5 -52.5q0 -25 -6 -48t-22.5 -45t-44 -42.5t-69.5 -40.5zM120 539q3 -39 32 -67.5t68 -49t78.5 -34t63.5 -22.5q16 11 31 26t26.5 35.5t18 47t6.5 59.5q-1 39 -14.5 68.5t-35.5 48.5t-51.5 28.5t-61.5 9.5q-27 0 -57 -9.5t-54 -28
t-37.5 -44.5t-13.5 -56q0 -6 1 -12zM287 6h16q28 0 58 6t55.5 23t41 45t16.5 67v5q0 42 -30 73.5t-74.5 54.5t-92 39.5t-79.5 28.5q-42 -28 -68 -70t-29 -105q0 -36 15.5 -66t42 -51.5t60 -34.5t68.5 -15z" />
    <glyph glyph-name="nine" unicode="9" horiz-adv-x="565" 
d="M222 253q-41 4 -77 23.5t-61.5 50t-37 67t-11.5 72.5q0 11 1 23q4 36 22 74t49.5 69t74.5 48t93 17h16q40 -2 85 -20.5t81.5 -56t54 -88t17.5 -106.5q0 -21 -2 -45q-8 -93 -53 -165t-108.5 -121t-137 -75t-138.5 -28l1 10q27 0 62.5 6t73.5 21.5t76 41.5t69 66t51.5 96
t25.5 132q-11 -28 -32.5 -51t-51 -38.5t-57 -20.5t-48.5 -5q-18 0 -38 3zM115 489v-15q0 -80 31.5 -133t97.5 -70q19 -5 39 -5q15 0 41 5t56 25t49.5 50.5t20.5 69.5q1 15 1 29q0 71 -18.5 121t-49 79t-61 36t-51.5 7h-10q-39 -6 -66.5 -25.5t-45 -47t-26 -60.5t-8.5 -66z
" />
    <glyph glyph-name="colon" unicode=":" horiz-adv-x="108" 
d="M54 460q-14 0 -24 10t-10 24t10 24t24 10t24 -10t10 -24t-10 -24t-24 -10zM54 238q14 0 24 -10t10 -24t-10 -23.5t-24 -9.5t-24 9.5t-10 23.5t10 24t24 10z" />
    <glyph glyph-name="semicolon" unicode=";" horiz-adv-x="108" 
d="M54 460q-14 0 -24 10t-10 24t10 24t24 10t24 -10t10 -24t-10 -24t-24 -10zM54 238q14 0 24 -10t10 -24q0 -17 -9 -36t-38 -25q3 2 5 6t3 9t-1 13q-12 2 -20 11.5t-8 21.5q0 14 10 24t24 10z" />
    <glyph glyph-name="less" unicode="&#x3c;" horiz-adv-x="199" 
d="M179 430q-26 -20 -49.5 -39.5t-45.5 -40.5q23 -23 47 -42.5t48 -37.5l-48 -49q-9 14 -27.5 35.5t-37.5 42.5q-22 24 -46 51q25 27 47 52q18 21 36.5 42.5t27.5 34.5z" />
    <glyph glyph-name="equal" unicode="=" horiz-adv-x="335" 
d="M20 431q41 -5 79 -8t75 -3t72 3t69 8v-69q-37 7 -74 10t-74 3q-76 0 -147 -13v69zM20 330q40 -5 77.5 -8t73.5 -3q38 0 73.5 3t70.5 8v-69q-38 7 -75 10t-75 3q-37 0 -73 -3t-72 -10v69z" />
    <glyph glyph-name="greater" unicode="&#x3e;" horiz-adv-x="199" 
d="M69 479q9 -13 27 -34.5t37 -42.5q21 -25 46 -52q-24 -27 -46 -51q-18 -21 -36.5 -42.5t-27.5 -35.5l-49 49q50 36 95 80q-22 21 -45.5 40.5t-49.5 39.5z" />
    <glyph glyph-name="question" unicode="?" horiz-adv-x="528" 
d="M254 701q72 0 121 -19t78.5 -49t42 -68t12.5 -77q0 -58 -19 -99.5t-47 -72t-61 -54t-61 -47.5t-47 -51.5t-19 -65.5h-24q0 40 16 70t39.5 55.5t51.5 50t51.5 53.5t39.5 66.5t16 88.5q0 37 -6.5 74t-27 67t-58 49t-98.5 19q-52 0 -87.5 -17t-55 -49t-24 -77t4.5 -102
l-72 26q0 41 10.5 82t37.5 73.5t72 53t114 20.5zM243 79q17 0 28 -11t11 -28q0 -16 -11 -27.5t-28 -11.5q-16 0 -27.5 11.5t-11.5 27.5q0 17 11.5 28t27.5 11z" />
    <glyph glyph-name="at" unicode="@" horiz-adv-x="609" 
d="M305 634q59 0 110.5 -22.5t90 -61t61 -90t22.5 -110.5q0 -58 -21.5 -109t-58.5 -89q-6 -6 -14.5 -10t-19.5 -4q-22 0 -45.5 21t-38.5 76l-34 123h-130l-42 -156q-5 -16 -5.5 -25t0.5 -14q0 -5 3 -6h-28q3 1 7 7q3 5 6.5 13.5t8.5 24.5l93 342q5 16 6 25t0 14t-4 7h14
q16 0 26.5 -3t18.5 -11.5t14 -23.5t13 -39l34 -128q-16 0 -31.5 9.5t-21.5 32.5l-24 86q-7 26 -13.5 40.5t-12.5 22.5q-6 -10 -12 -32l-49 -180h128q14 0 29 -5t22 -28l26 -96q11 -38 25 -60.5t19 -17.5q20 22 31.5 44.5t16.5 46t6 49t1 53.5q0 57 -17 107.5t-47 88
t-71.5 59.5t-91.5 22t-92 -22t-72 -59.5t-47 -88t-17 -107.5t17 -108t47 -88.5t72 -59.5t92 -22q42 0 71 10.5t58 38.5h39q-38 -31 -77 -43.5t-91 -12.5q-59 0 -111 22.5t-90.5 61t-61 90.5t-22.5 111t22.5 110.5t61 90t90.5 61t111 22.5z" />
    <glyph glyph-name="A" unicode="A" horiz-adv-x="543" 
d="M399 0q9 6 13 21q3 14 2 38.5t-12 66.5l-54 200h-212l-68 -252q-7 -26 -8.5 -40.5t-0.5 -22.5q2 -9 6 -11h-45q5 2 11 11q5 8 11.5 22.5t14.5 40.5l150 553q7 25 8 39.5t0 22t-3.5 9.5l-2.5 2h23q26 0 40.5 -4.5t23.5 -18t16 -37.5t18 -63l56 -209q-26 0 -42 15.5
t-26 53.5l-38 140q-11 41 -22.5 65t-20.5 37q-9 -16 -19 -53l-79 -291l207 -1q21 0 37 -7.5t27 -43.5l42 -156q11 -42 23.5 -66.5t23.5 -38.5q12 -16 24 -22h-124z" />
    <glyph glyph-name="B" unicode="B" horiz-adv-x="491" 
d="M202 449q58 -5 107 -19.5t85 -41t56.5 -67t20.5 -97.5q0 -67 -24.5 -110.5t-69 -68.5t-105.5 -35t-134 -10h-118q10 6 18 22q7 14 13 38.5t6 66.5v289q32 0 41 -17t9 -63v-210q0 -51 8.5 -77.5t16.5 -37.5q59 1 111 12t91 35.5t61.5 65t22.5 100.5q0 61 -23.5 102.5
t-63.5 67t-94 36.5t-116 11h-32l-32 -1v12h70q15 0 45.5 4t61 16t53 35t22.5 62q0 47 -16.5 72.5t-42 36.5t-56 13t-58.5 2q-8 -8 -18.5 -34t-10.5 -82v-35q0 -32 -13.5 -46t-36.5 -14v95q0 41 -6 65t-13 37q-8 15 -18 21h124q52 0 92.5 -6.5t68.5 -21.5t43 -40t15 -63
q0 -30 -11.5 -51.5t-32.5 -35.5t-50.5 -22t-66.5 -11z" />
    <glyph glyph-name="C" unicode="C" horiz-adv-x="669" 
d="M649 156q-9 -33 -36 -61.5t-65.5 -49.5t-84.5 -33t-93 -12q-72 0 -136 27.5t-111.5 75t-75 111.5t-27.5 136t27.5 136t75 111.5t111.5 75t136 27.5q84 0 154.5 -36t118.5 -96l-53 -28q-15 32 -37.5 60t-50.5 48t-61 31.5t-71 11.5q-61 0 -115 -27t-94.5 -73t-63.5 -108
t-23 -133q0 -70 23 -132.5t63.5 -108.5t94.5 -73t115 -27q39 0 76 11.5t68 32.5t53.5 51.5t32.5 69.5z" />
    <glyph glyph-name="D" unicode="D" horiz-adv-x="491" 
d="M139 700q73 0 134 -24.5t105 -69.5t68.5 -110t24.5 -146t-27.5 -146t-75 -110t-111 -69.5t-136.5 -24.5h-101q10 6 18 22q7 14 13 38.5t6 66.5v450q0 41 -6 65t-13 37q-8 15 -18 21h119zM134 9q59 3 110.5 30.5t90 73.5t61 107t22.5 130t-19 130t-55 107.5t-88.5 74.5
t-120.5 31q-8 -9 -18 -35t-10 -81v-451q0 -54 9.5 -80.5t17.5 -36.5z" />
    <glyph glyph-name="E" unicode="E" horiz-adv-x="426" 
d="M406 700v-113h-8q-1 29 -14 53q-11 20 -35.5 36t-71.5 16h-142q-8 -9 -18 -35t-10 -80v-34q0 -32 -11 -46t-39 -14v94q0 41 -6 65t-13 37q-8 15 -18 21h386zM277 8q47 0 71.5 16.5t35.5 36.5q13 23 14 52h8v-113h-386q10 6 18 22q7 14 13 38.5t6 66.5v305q0 22 18 25
t50 3q47 0 71.5 10t35.5 22q13 14 14 32h8v-137h-8q-1 18 -14 33q-11 12 -35.5 22t-71.5 10h-18v-326q0 -56 10 -82.5t18 -35.5h142z" />
    <glyph glyph-name="F" unicode="F" horiz-adv-x="425" 
d="M405 700v-113h-8q-1 29 -14 53q-11 20 -35.5 36t-71.5 16h-141q-8 -9 -18 -35t-10 -80v-34q0 -33 -12.5 -46.5t-37.5 -13.5v94q0 41 -6 65t-13 37q-8 15 -18 21h385zM124 460q47 0 71.5 10t35.5 22q13 14 14 32h8v-137h-8q-1 18 -14 33q-11 12 -35.5 22t-71.5 10h-17
v-326q0 -42 5.5 -66.5t13.5 -38.5q8 -15 18 -21h-124q10 6 18 22q7 14 13 38.5t6 66.5v305q0 20 20 24t47 4z" />
    <glyph glyph-name="G" unicode="G" horiz-adv-x="738" 
d="M646 250q5 20 19.5 31t46.5 11q-5 -20 -14.5 -50t-27 -62.5t-43 -64.5t-62 -57.5t-85 -41.5t-110.5 -16q-72 0 -136 27.5t-111.5 75t-75 111.5t-27.5 136t27.5 136t75 111.5t111.5 75t136 27.5q47 0 93.5 -10.5t86 -28.5t69.5 -43.5t44 -55.5l-45 -26q-17 36 -43.5 65
t-59 49t-69.5 30.5t-76 10.5q-61 0 -115 -27t-94.5 -73t-63.5 -108t-23 -133q0 -70 23 -132.5t63.5 -108.5t94.5 -73t115 -27q54 0 94 14t69.5 36.5t49.5 50.5t33 54.5t20 49.5t10 36zM718 325q0 -1 -1 -3q0 -5 -1 -10l-376 1v12h378z" />
    <glyph glyph-name="H" unicode="H" horiz-adv-x="462" 
d="M107 126q0 -42 5.5 -66.5t13.5 -38.5q8 -15 18 -21h-124q10 6 18 22q7 14 13 38.5t6 66.5v173q0 19 14.5 26.5t34.5 7.5h170v1h79v242q0 41 -6 65t-13 37q-8 15 -18 21h124q-10 -6 -18 -21q-8 -13 -13.5 -37t-5.5 -65v-222q0 -20 -13.5 -25t-33.5 -5h-251v-199zM57 577
q0 41 -6 65t-13 37q-8 15 -18 21h124q-10 -6 -18 -21q-8 -13 -13.5 -37t-5.5 -65v-140q0 -34 -14 -52t-36 -18v210zM405 126q0 -42 5.5 -66.5t13.5 -38.5q8 -15 18 -21h-124q10 6 18 22q7 14 13 38.5t6 66.5v89q0 23 5 38t12.5 23t16 11t16.5 3v-165z" />
    <glyph glyph-name="I" unicode="I" horiz-adv-x="164" 
d="M107 126q0 -42 5.5 -66.5t13.5 -38.5q8 -15 18 -21h-124q10 6 18 22q7 14 13 38.5t6 66.5v450q0 41 -6 65t-13 37q-8 15 -18 21h124q-10 -6 -18 -21q-8 -13 -13.5 -37t-5.5 -65v-451z" />
    <glyph glyph-name="J" unicode="J" horiz-adv-x="413" 
d="M393 700q-10 -6 -18 -21q-8 -13 -13.5 -37t-5.5 -65v-334q0 -53 -5 -97.5t-20.5 -77t-46 -50.5t-81.5 -18q-45 0 -74.5 10.5t-47.5 29t-26 42t-10.5 49.5t-2 52.5t0.5 50.5q0 27 -4 39.5t-19 19.5h98q-11 -8 -18 -19.5t-7 -42.5v-73t10 -72t32.5 -55t67.5 -22
q30 0 49.5 12t31 33.5t16.5 52t6 67.5v403q0 41 -6 65t-13 37q-8 15 -18 21h124z" />
    <glyph glyph-name="K" unicode="K" horiz-adv-x="471" 
d="M327 0q6 6 5 22q-1 14 -10 38.5t-33 66.5l-121 204l-61 -96v-109q0 -42 5.5 -66.5t13.5 -38.5q8 -15 18 -21h-124q10 6 18 22q7 14 13 38.5t6 66.5v47l289 453q17 26 20.5 40.5t1.5 21.5q-3 9 -12 11h80q-10 -2 -23 -10q-11 -7 -25 -22t-31 -42l-162 -254l145 -246
q25 -42 45.5 -66.5t34.5 -38.5q17 -15 31 -21h-124zM57 577q0 41 -6 65t-13 37q-8 15 -18 21h124q-10 -6 -18 -21q-8 -13 -13.5 -37t-5.5 -65v-222q0 -19 -2 -34.5t-7.5 -29.5t-15.5 -27.5t-25 -29.5v343z" />
    <glyph glyph-name="L" unicode="L" horiz-adv-x="426" 
d="M406 113v-113h-386q10 6 18 22q7 14 13 38.5t6 66.5v450q0 41 -6 65t-13 37q-8 15 -18 21h124q-10 -6 -18 -21q-8 -13 -13.5 -37t-5.5 -65v-451q0 -56 10 -82.5t18 -35.5h142q47 0 71.5 16.5t35.5 36.5q13 23 14 52h8z" />
    <glyph glyph-name="M" unicode="M" horiz-adv-x="592" 
d="M535 126q0 -42 5.5 -66.5t13.5 -38.5q8 -15 18 -21h-125q10 6 19 22q7 14 12.5 38.5t5.5 66.5v450q0 30 -3 51t-8 35q-4 -8 -7.5 -16.5t-6.5 -19.5l-180 -627q-4 3 -4.5 12.5t4.5 26.5l169 587q8 27 8 42t-3 22q-4 8 -11 10h130q-10 -6 -18 -21q-8 -13 -13.5 -37
t-5.5 -65v-451zM261 193q17 -54 14.5 -94t-14.5 -78l-163 556q-17 55 -36 83q-1 -7 -1.5 -15t-0.5 -19v-552q0 -26 4 -40.5t9 -22.5q6 -9 13 -11h-66q8 2 14 11q5 8 9.5 22.5t4.5 40.5l1 553q0 26 -4.5 40.5t-9.5 21.5q-7 9 -15 11h129q-9 -6 -12 -21q-4 -13 -2.5 -37
t13.5 -65q23 -79 45 -151q9 -31 18.5 -64t18.5 -63.5t17 -58t14 -47.5z" />
    <glyph glyph-name="N" unicode="N" horiz-adv-x="424" 
d="M404 700q-8 -2 -13 -10q-5 -7 -9.5 -22t-4.5 -42v-626h-11q-81 181 -147 324q-28 62 -54.5 121t-48.5 106.5t-36 78t-17 33.5q-3 -15 -3 -37v-552q0 -26 4 -40.5t9 -22.5q6 -9 13 -11h-66q8 2 14 11q5 8 9.5 22.5t4.5 40.5l1 553q0 26 -4.5 40.5t-9.5 21.5q-7 9 -15 11
h129q-8 -6 -11 -21q-2 -13 0.5 -37t16.5 -65l211 -462v512q0 26 -3.5 40.5t-7.5 21.5q-6 9 -12 11h61z" />
    <glyph glyph-name="O" unicode="O" horiz-adv-x="736" 
d="M368 700q72 0 135.5 -27.5t110.5 -75t74.5 -111.5t27.5 -136t-27.5 -136t-74.5 -111.5t-110.5 -75t-135.5 -27.5t-135.5 27.5t-110.5 75t-74.5 111.5t-27.5 136t27.5 136t74.5 111.5t110.5 75t135.5 27.5zM484 36q57 21 98 64t62.5 99t22.5 121.5t-23 131.5
q-19 53 -50.5 96t-71.5 73t-85.5 46.5t-92.5 16.5q-45 0 -87 -15q-57 -21 -98 -64t-62.5 -99t-22.5 -121.5t22 -131.5q19 -53 51 -96t71.5 -73t85.5 -46.5t93 -16.5q44 0 87 15z" />
    <glyph glyph-name="P" unicode="P" horiz-adv-x="479" 
d="M107 247v-125q0 -41 5.5 -65t13.5 -37q8 -15 18 -21h-124q10 6 18 21q7 13 13 37t6 65v135l55 1q61 0 114.5 11.5t93 37t62.5 66.5t23 102q0 59 -21 99t-58 64.5t-87 36.5t-107 13q-8 -11 -16.5 -37t-8.5 -78v-169q0 -43 -13.5 -64.5t-36.5 -21.5v254q0 42 -6 66.5
t-13 38.5q-8 16 -18 22h90q72 0 136 -10t111 -35t74.5 -68.5t27.5 -110.5t-27.5 -111t-75 -70t-111.5 -36.5t-136 -10.5h-2z" />
    <glyph glyph-name="Q" unicode="Q" horiz-adv-x="740" 
d="M583 75q38 -17 72.5 -29.5t63.5 -12.5q20 0 38 7.5t32 25.5q-24 -36 -50.5 -50.5t-55.5 -14.5q-32 0 -67 13.5t-73 33.5q-2 1 -24.5 14.5t-57 29t-76 28.5t-81.5 13q-30 0 -54.5 -9t-42.5 -21t-28.5 -23t-12.5 -15q-66 48 -106 122.5t-40 162.5q0 72 27.5 136t74.5 111.5
t110.5 75t135.5 27.5t135.5 -27.5t110.5 -75t74.5 -111.5t27.5 -136q0 -85 -36 -156t-97 -119zM564 83q35 31 59 72.5t35 90t8 101.5t-22 105q-19 53 -50.5 96t-71.5 73t-85.5 46.5t-92.5 16.5q-45 0 -87 -15q-57 -21 -98 -64t-62.5 -99t-22.5 -121.5t22 -131.5
q15 -42 38 -77.5t52 -63.5q27 27 60.5 38.5t70.5 11.5q32 0 63.5 -7.5t62.5 -18.5t61.5 -25t59.5 -28z" />
    <glyph glyph-name="R" unicode="R" horiz-adv-x="479" 
d="M329 126q25 -42 45.5 -66.5t34.5 -38.5q17 -15 31 -21h-124q6 6 5 22q-1 14 -10 38.5t-33 66.5l-74 124q-23 -2 -46.5 -3t-48.5 -1h-2v-125q0 -41 5.5 -65t13.5 -37q8 -15 18 -21h-124q10 6 18 21q7 13 13 37t6 65v135l55 1q61 0 114.5 11.5t93 37t62.5 66.5t23 102
q0 59 -21 99t-58 64.5t-87 36.5t-107 13q-8 -11 -16.5 -37t-8.5 -78v-169q0 -43 -13.5 -64.5t-36.5 -21.5v254q0 42 -6 66.5t-13 38.5q-8 16 -18 22h90q72 0 136 -10t111 -35t74.5 -68.5t27.5 -110.5q0 -49 -15.5 -86t-43 -63.5t-65.5 -42.5t-84 -25z" />
    <glyph glyph-name="S" unicode="S" horiz-adv-x="516" 
d="M119 560q0 -48 28 -76t70 -47.5t90.5 -36t90.5 -42t70 -65t28 -104.5q0 -31 -9 -64t-34 -61t-70.5 -46t-117.5 -18q-69 0 -116 20.5t-75.5 53t-41 73.5t-12.5 82l72 26q-10 -63 2.5 -109t38.5 -76.5t61 -45.5t71 -15q50 0 82 15t51 40.5t26.5 59.5t7.5 71q0 54 -27 85
t-68 51.5t-88 35.5t-88 35.5t-68 52t-27 84.5q0 43 14.5 73.5t41 50t63 28.5t79.5 9t74 -10.5t52 -26t33.5 -33.5t17.5 -33l-59 -19q0 18 -6.5 37.5t-20.5 36.5t-36.5 28t-54.5 11q-33 0 -59.5 -6t-45.5 -21t-29.5 -40t-10.5 -64z" />
    <glyph glyph-name="T" unicode="T" horiz-adv-x="464" 
d="M444 700v-113h-8q-1 29 -14 53q-11 20 -35 36t-71 16h-30q-8 -9 -18 -35t-10 -84v-451q0 -41 5.5 -65t13.5 -37q8 -15 18 -21h-125q10 6 19 21q7 13 12.5 37t5.5 65v450q0 58 -10.5 84.5t-18.5 35.5h-29q-47 0 -71.5 -16t-35.5 -36q-13 -24 -14 -53h-8v113h424z" />
    <glyph glyph-name="U" unicode="U" horiz-adv-x="466" 
d="M446 700q-6 -2 -11 -10q-4 -7 -7.5 -22t-3.5 -42v-396q0 -66 -9.5 -110t-29 -70.5t-49.5 -38t-72 -11.5q-41 0 -78.5 9.5t-66 35t-45.5 69.5t-17 112v346q0 42 -6 66.5t-13 38.5q-8 16 -18 22h124q-10 -6 -18 -21q-8 -13 -13.5 -38t-5.5 -67v-347q0 -63 11.5 -105.5
t32 -68t49.5 -36t64 -10.5t62.5 10t46 35t29 67t10.5 106l1 403q0 26 -3.5 40.5t-7.5 21.5q-6 9 -12 11h56z" />
    <glyph glyph-name="V" unicode="V" horiz-adv-x="543" 
d="M523 700q-5 -2 -11 -11q-5 -8 -11.5 -22.5t-14.5 -40.5l-150 -553q-7 -26 -8.5 -40.5t0.5 -21.5q2 -9 6 -11h-23q-26 0 -40.5 4.5t-23.5 18t-15.5 37.5t-18.5 63l-122 450q-11 42 -23.5 66.5t-23.5 38.5q-12 16 -24 22h124q-9 -6 -13 -21q-3 -13 -2 -38t12 -67l122 -451
q11 -41 22.5 -65t20.5 -37q5 8 9.5 21t9.5 32l150 552q8 26 9 41t0 22q-2 9 -6 11h45z" />
    <glyph glyph-name="W" unicode="W" horiz-adv-x="919" 
d="M486 678q2 -7 1.5 -26t-8.5 -47l-143 -532q-7 -26 -8.5 -40.5t0.5 -21.5q2 -9 6 -11h-23q-26 0 -40.5 4.5t-23.5 18t-15.5 37.5t-18.5 63l-122 450q-11 42 -23.5 66.5t-23.5 38.5q-12 16 -24 22h124q-9 -6 -13 -21q-3 -13 -2 -38t12 -67l122 -451q11 -41 22.5 -65
t20.5 -37q5 8 9.5 21t9.5 32zM899 700q-5 -2 -11 -11q-5 -8 -11.5 -22.5t-14.5 -40.5l-150 -553q-7 -26 -8.5 -40.5t-0.5 -21.5q2 -9 6 -11h-22q-26 0 -40.5 4.5t-23.5 18t-16 37.5t-18 63l-105 385q-5 20 -3 41.5t6.5 41t10 34t8.5 20.5l133 -522q11 -41 22 -65t21 -37
q9 16 19 53l149 552q8 26 9.5 41t-0.5 22q-1 9 -5 11h45z" />
    <glyph glyph-name="X" unicode="X" horiz-adv-x="532" 
d="M124 74q-14 -26 -18.5 -40.5t-3.5 -22.5q0 -9 5 -11h-55q7 2 16 11q8 8 19 22.5t25 40.5l291 553q14 26 18.5 40.5t3.5 21.5q-1 9 -6 11h56q-7 -2 -16 -10q-8 -7 -19.5 -22t-25.5 -42zM124 572q-22 42 -41 66.5t-33 38.5q-17 16 -30 22h124q-7 -6 -7 -21q0 -13 7.5 -38
t29.5 -67l60 -115q7 -15 11 -26.5t4.5 -22t-3 -22.5t-11.5 -28zM388 -1q7 6 7 21q0 13 -7 37t-28 65l-70 133q-11 23 -10 43.5t13 46.5l117 -223q22 -41 40 -65t32 -37q17 -15 30 -21h-124z" />
    <glyph glyph-name="Y" unicode="Y" horiz-adv-x="553" 
d="M533 700q-7 -2 -16 -10q-8 -7 -19.5 -22t-25.5 -42l-164 -311v-193q0 -41 5.5 -65t13.5 -37q8 -15 18 -21h-124q10 6 18 21q7 13 13 37t6 65v114l203 391q14 26 18 40.5t4 21.5q-1 9 -6 11h56zM261 407q18 -37 17.5 -63.5t-9.5 -48.5l-145 277q-22 42 -41 66.5t-33 38.5
q-17 16 -30 22h124q-7 -6 -7 -21q0 -13 7.5 -38t29.5 -67z" />
    <glyph glyph-name="Z" unicode="Z" horiz-adv-x="504" 
d="M332 8q47 0 71 16.5t35 36.5q13 23 14 52h8v-113h-440q13 6 29 21q14 13 31 37t37 65l218 451q29 59 35 84.5t2 33.5h-199q-46 0 -70.5 -16t-35.5 -36q-13 -24 -14 -53h-8v113h439q-13 -6 -29 -22q-14 -14 -32 -38.5t-38 -66.5l-218 -450q-14 -29 -20.5 -49t-8.5 -33.5
t-0.5 -21t3.5 -11.5h191z" />
    <glyph glyph-name="bracketleft" unicode="[" horiz-adv-x="290" 
d="M72 692v-20.5t-0.5 -21.5t-0.5 -29v-44v-569h52q47 0 75 10t45 22q18 13 27 31v-71h-250v700h250v-71q-9 18 -27 32q-17 11 -45 21t-75 10h-51z" />
    <glyph glyph-name="backslash" unicode="\" horiz-adv-x="421" 
d="M127 700q-8 -6 -10 -21q-2 -13 1.5 -37t19.5 -65l176 -450q17 -42 32.5 -66.5t27.5 -38.5q14 -16 27 -22h-107q8 6 10 21q2 14 -2 38.5t-21 66.5l-176 451q-16 41 -31 65t-27 37q-14 15 -27 21h107z" />
    <glyph glyph-name="bracketright" unicode="]" horiz-adv-x="290" 
d="M270 700v-700h-250v71q9 -18 27 -31q17 -12 45.5 -22t74.5 -10h52v684h-52q-46 0 -74.5 -10t-45.5 -21q-18 -14 -27 -32v71h250z" />
    <glyph glyph-name="asciicircum" unicode="^" horiz-adv-x="251" 
d="M231 482h-54q-21 44 -31 88.5t-21 100.5q-5 -28 -9.5 -53t-10 -48t-13 -44.5t-18.5 -43.5h-54l105 206z" />
    <glyph glyph-name="underscore" unicode="_" horiz-adv-x="375" 
d="M20 39q78 -12 163 -12q82 0 172 12v-75q-41 7 -82.5 10.5t-83.5 3.5t-84 -3.5t-85 -10.5v75z" />
    <glyph glyph-name="grave" unicode="`" horiz-adv-x="111" 
d="M87 694q-3 -13 -2.5 -29.5t1.5 -31.5t3 -25l2 -10l-71 96h67z" />
    <glyph glyph-name="a" unicode="a" horiz-adv-x="543" 
d="M399 0q9 6 13 21q3 14 2 38.5t-12 66.5l-54 200h-212l-68 -252q-7 -26 -8.5 -40.5t-0.5 -22.5q2 -9 6 -11h-45q5 2 11 11q5 8 11.5 22.5t14.5 40.5l150 553q7 25 8 39.5t0 22t-3.5 9.5l-2.5 2h23q26 0 40.5 -4.5t23.5 -18t16 -37.5t18 -63l56 -209q-26 0 -42 15.5
t-26 53.5l-38 140q-11 41 -22.5 65t-20.5 37q-9 -16 -19 -53l-79 -291l207 -1q21 0 37 -7.5t27 -43.5l42 -156q11 -42 23.5 -66.5t23.5 -38.5q12 -16 24 -22h-124z" />
    <glyph glyph-name="b" unicode="b" horiz-adv-x="491" 
d="M202 449q58 -5 107 -19.5t85 -41t56.5 -67t20.5 -97.5q0 -67 -24.5 -110.5t-69 -68.5t-105.5 -35t-134 -10h-118q10 6 18 22q7 14 13 38.5t6 66.5v289q32 0 41 -17t9 -63v-210q0 -51 8.5 -77.5t16.5 -37.5q59 1 111 12t91 35.5t61.5 65t22.5 100.5q0 61 -23.5 102.5
t-63.5 67t-94 36.5t-116 11h-32l-32 -1v12h70q15 0 45.5 4t61 16t53 35t22.5 62q0 47 -16.5 72.5t-42 36.5t-56 13t-58.5 2q-8 -8 -18.5 -34t-10.5 -82v-35q0 -32 -13.5 -46t-36.5 -14v95q0 41 -6 65t-13 37q-8 15 -18 21h124q52 0 92.5 -6.5t68.5 -21.5t43 -40t15 -63
q0 -30 -11.5 -51.5t-32.5 -35.5t-50.5 -22t-66.5 -11z" />
    <glyph glyph-name="c" unicode="c" horiz-adv-x="669" 
d="M649 156q-9 -33 -36 -61.5t-65.5 -49.5t-84.5 -33t-93 -12q-72 0 -136 27.5t-111.5 75t-75 111.5t-27.5 136t27.5 136t75 111.5t111.5 75t136 27.5q84 0 154.5 -36t118.5 -96l-53 -28q-15 32 -37.5 60t-50.5 48t-61 31.5t-71 11.5q-61 0 -115 -27t-94.5 -73t-63.5 -108
t-23 -133q0 -70 23 -132.5t63.5 -108.5t94.5 -73t115 -27q39 0 76 11.5t68 32.5t53.5 51.5t32.5 69.5z" />
    <glyph glyph-name="d" unicode="d" horiz-adv-x="491" 
d="M139 700q73 0 134 -24.5t105 -69.5t68.5 -110t24.5 -146t-27.5 -146t-75 -110t-111 -69.5t-136.5 -24.5h-101q10 6 18 22q7 14 13 38.5t6 66.5v450q0 41 -6 65t-13 37q-8 15 -18 21h119zM134 9q59 3 110.5 30.5t90 73.5t61 107t22.5 130t-19 130t-55 107.5t-88.5 74.5
t-120.5 31q-8 -9 -18 -35t-10 -81v-451q0 -54 9.5 -80.5t17.5 -36.5z" />
    <glyph glyph-name="e" unicode="e" horiz-adv-x="426" 
d="M406 700v-113h-8q-1 29 -14 53q-11 20 -35.5 36t-71.5 16h-142q-8 -9 -18 -35t-10 -80v-34q0 -32 -11 -46t-39 -14v94q0 41 -6 65t-13 37q-8 15 -18 21h386zM277 8q47 0 71.5 16.5t35.5 36.5q13 23 14 52h8v-113h-386q10 6 18 22q7 14 13 38.5t6 66.5v305q0 22 18 25
t50 3q47 0 71.5 10t35.5 22q13 14 14 32h8v-137h-8q-1 18 -14 33q-11 12 -35.5 22t-71.5 10h-18v-326q0 -56 10 -82.5t18 -35.5h142z" />
    <glyph glyph-name="f" unicode="f" horiz-adv-x="425" 
d="M405 700v-113h-8q-1 29 -14 53q-11 20 -35.5 36t-71.5 16h-141q-8 -9 -18 -35t-10 -80v-34q0 -33 -12.5 -46.5t-37.5 -13.5v94q0 41 -6 65t-13 37q-8 15 -18 21h385zM124 460q47 0 71.5 10t35.5 22q13 14 14 32h8v-137h-8q-1 18 -14 33q-11 12 -35.5 22t-71.5 10h-17
v-326q0 -42 5.5 -66.5t13.5 -38.5q8 -15 18 -21h-124q10 6 18 22q7 14 13 38.5t6 66.5v305q0 20 20 24t47 4z" />
    <glyph glyph-name="g" unicode="g" horiz-adv-x="738" 
d="M646 250q5 20 19.5 31t46.5 11q-5 -20 -14.5 -50t-27 -62.5t-43 -64.5t-62 -57.5t-85 -41.5t-110.5 -16q-72 0 -136 27.5t-111.5 75t-75 111.5t-27.5 136t27.5 136t75 111.5t111.5 75t136 27.5q47 0 93.5 -10.5t86 -28.5t69.5 -43.5t44 -55.5l-45 -26q-17 36 -43.5 65
t-59 49t-69.5 30.5t-76 10.5q-61 0 -115 -27t-94.5 -73t-63.5 -108t-23 -133q0 -70 23 -132.5t63.5 -108.5t94.5 -73t115 -27q54 0 94 14t69.5 36.5t49.5 50.5t33 54.5t20 49.5t10 36zM718 325q0 -1 -1 -3q0 -5 -1 -10l-376 1v12h378z" />
    <glyph glyph-name="h" unicode="h" horiz-adv-x="462" 
d="M107 126q0 -42 5.5 -66.5t13.5 -38.5q8 -15 18 -21h-124q10 6 18 22q7 14 13 38.5t6 66.5v173q0 19 14.5 26.5t34.5 7.5h170v1h79v242q0 41 -6 65t-13 37q-8 15 -18 21h124q-10 -6 -18 -21q-8 -13 -13.5 -37t-5.5 -65v-222q0 -20 -13.5 -25t-33.5 -5h-251v-199zM57 577
q0 41 -6 65t-13 37q-8 15 -18 21h124q-10 -6 -18 -21q-8 -13 -13.5 -37t-5.5 -65v-140q0 -34 -14 -52t-36 -18v210zM405 126q0 -42 5.5 -66.5t13.5 -38.5q8 -15 18 -21h-124q10 6 18 22q7 14 13 38.5t6 66.5v89q0 23 5 38t12.5 23t16 11t16.5 3v-165z" />
    <glyph glyph-name="i" unicode="i" horiz-adv-x="164" 
d="M107 126q0 -42 5.5 -66.5t13.5 -38.5q8 -15 18 -21h-124q10 6 18 22q7 14 13 38.5t6 66.5v450q0 41 -6 65t-13 37q-8 15 -18 21h124q-10 -6 -18 -21q-8 -13 -13.5 -37t-5.5 -65v-451z" />
    <glyph glyph-name="j" unicode="j" horiz-adv-x="413" 
d="M393 700q-10 -6 -18 -21q-8 -13 -13.5 -37t-5.5 -65v-334q0 -53 -5 -97.5t-20.5 -77t-46 -50.5t-81.5 -18q-45 0 -74.5 10.5t-47.5 29t-26 42t-10.5 49.5t-2 52.5t0.5 50.5q0 27 -4 39.5t-19 19.5h98q-11 -8 -18 -19.5t-7 -42.5v-73t10 -72t32.5 -55t67.5 -22
q30 0 49.5 12t31 33.5t16.5 52t6 67.5v403q0 41 -6 65t-13 37q-8 15 -18 21h124z" />
    <glyph glyph-name="k" unicode="k" horiz-adv-x="471" 
d="M327 0q6 6 5 22q-1 14 -10 38.5t-33 66.5l-121 204l-61 -96v-109q0 -42 5.5 -66.5t13.5 -38.5q8 -15 18 -21h-124q10 6 18 22q7 14 13 38.5t6 66.5v47l289 453q17 26 20.5 40.5t1.5 21.5q-3 9 -12 11h80q-10 -2 -23 -10q-11 -7 -25 -22t-31 -42l-162 -254l145 -246
q25 -42 45.5 -66.5t34.5 -38.5q17 -15 31 -21h-124zM57 577q0 41 -6 65t-13 37q-8 15 -18 21h124q-10 -6 -18 -21q-8 -13 -13.5 -37t-5.5 -65v-222q0 -19 -2 -34.5t-7.5 -29.5t-15.5 -27.5t-25 -29.5v343z" />
    <glyph glyph-name="l" unicode="l" horiz-adv-x="426" 
d="M406 113v-113h-386q10 6 18 22q7 14 13 38.5t6 66.5v450q0 41 -6 65t-13 37q-8 15 -18 21h124q-10 -6 -18 -21q-8 -13 -13.5 -37t-5.5 -65v-451q0 -56 10 -82.5t18 -35.5h142q47 0 71.5 16.5t35.5 36.5q13 23 14 52h8z" />
    <glyph glyph-name="m" unicode="m" horiz-adv-x="592" 
d="M535 126q0 -42 5.5 -66.5t13.5 -38.5q8 -15 18 -21h-125q10 6 19 22q7 14 12.5 38.5t5.5 66.5v450q0 30 -3 51t-8 35q-4 -8 -7.5 -16.5t-6.5 -19.5l-180 -627q-4 3 -4.5 12.5t4.5 26.5l169 587q8 27 8 42t-3 22q-4 8 -11 10h130q-10 -6 -18 -21q-8 -13 -13.5 -37
t-5.5 -65v-451zM261 193q17 -54 14.5 -94t-14.5 -78l-163 556q-17 55 -36 83q-1 -7 -1.5 -15t-0.5 -19v-552q0 -26 4 -40.5t9 -22.5q6 -9 13 -11h-66q8 2 14 11q5 8 9.5 22.5t4.5 40.5l1 553q0 26 -4.5 40.5t-9.5 21.5q-7 9 -15 11h129q-9 -6 -12 -21q-4 -13 -2.5 -37
t13.5 -65q23 -79 45 -151q9 -31 18.5 -64t18.5 -63.5t17 -58t14 -47.5z" />
    <glyph glyph-name="n" unicode="n" horiz-adv-x="424" 
d="M404 700q-8 -2 -13 -10q-5 -7 -9.5 -22t-4.5 -42v-626h-11q-81 181 -147 324q-28 62 -54.5 121t-48.5 106.5t-36 78t-17 33.5q-3 -15 -3 -37v-552q0 -26 4 -40.5t9 -22.5q6 -9 13 -11h-66q8 2 14 11q5 8 9.5 22.5t4.5 40.5l1 553q0 26 -4.5 40.5t-9.5 21.5q-7 9 -15 11
h129q-8 -6 -11 -21q-2 -13 0.5 -37t16.5 -65l211 -462v512q0 26 -3.5 40.5t-7.5 21.5q-6 9 -12 11h61z" />
    <glyph glyph-name="o" unicode="o" horiz-adv-x="736" 
d="M368 700q72 0 135.5 -27.5t110.5 -75t74.5 -111.5t27.5 -136t-27.5 -136t-74.5 -111.5t-110.5 -75t-135.5 -27.5t-135.5 27.5t-110.5 75t-74.5 111.5t-27.5 136t27.5 136t74.5 111.5t110.5 75t135.5 27.5zM484 36q57 21 98 64t62.5 99t22.5 121.5t-23 131.5
q-19 53 -50.5 96t-71.5 73t-85.5 46.5t-92.5 16.5q-45 0 -87 -15q-57 -21 -98 -64t-62.5 -99t-22.5 -121.5t22 -131.5q19 -53 51 -96t71.5 -73t85.5 -46.5t93 -16.5q44 0 87 15z" />
    <glyph glyph-name="p" unicode="p" horiz-adv-x="479" 
d="M107 247v-125q0 -41 5.5 -65t13.5 -37q8 -15 18 -21h-124q10 6 18 21q7 13 13 37t6 65v135l55 1q61 0 114.5 11.5t93 37t62.5 66.5t23 102q0 59 -21 99t-58 64.5t-87 36.5t-107 13q-8 -11 -16.5 -37t-8.5 -78v-169q0 -43 -13.5 -64.5t-36.5 -21.5v254q0 42 -6 66.5
t-13 38.5q-8 16 -18 22h90q72 0 136 -10t111 -35t74.5 -68.5t27.5 -110.5t-27.5 -111t-75 -70t-111.5 -36.5t-136 -10.5h-2z" />
    <glyph glyph-name="q" unicode="q" horiz-adv-x="740" 
d="M583 75q38 -17 72.5 -29.5t63.5 -12.5q20 0 38 7.5t32 25.5q-24 -36 -50.5 -50.5t-55.5 -14.5q-32 0 -67 13.5t-73 33.5q-2 1 -24.5 14.5t-57 29t-76 28.5t-81.5 13q-30 0 -54.5 -9t-42.5 -21t-28.5 -23t-12.5 -15q-66 48 -106 122.5t-40 162.5q0 72 27.5 136t74.5 111.5
t110.5 75t135.5 27.5t135.5 -27.5t110.5 -75t74.5 -111.5t27.5 -136q0 -85 -36 -156t-97 -119zM564 83q35 31 59 72.5t35 90t8 101.5t-22 105q-19 53 -50.5 96t-71.5 73t-85.5 46.5t-92.5 16.5q-45 0 -87 -15q-57 -21 -98 -64t-62.5 -99t-22.5 -121.5t22 -131.5
q15 -42 38 -77.5t52 -63.5q27 27 60.5 38.5t70.5 11.5q32 0 63.5 -7.5t62.5 -18.5t61.5 -25t59.5 -28z" />
    <glyph glyph-name="r" unicode="r" horiz-adv-x="479" 
d="M329 126q25 -42 45.5 -66.5t34.5 -38.5q17 -15 31 -21h-124q6 6 5 22q-1 14 -10 38.5t-33 66.5l-74 124q-23 -2 -46.5 -3t-48.5 -1h-2v-125q0 -41 5.5 -65t13.5 -37q8 -15 18 -21h-124q10 6 18 21q7 13 13 37t6 65v135l55 1q61 0 114.5 11.5t93 37t62.5 66.5t23 102
q0 59 -21 99t-58 64.5t-87 36.5t-107 13q-8 -11 -16.5 -37t-8.5 -78v-169q0 -43 -13.5 -64.5t-36.5 -21.5v254q0 42 -6 66.5t-13 38.5q-8 16 -18 22h90q72 0 136 -10t111 -35t74.5 -68.5t27.5 -110.5q0 -49 -15.5 -86t-43 -63.5t-65.5 -42.5t-84 -25z" />
    <glyph glyph-name="s" unicode="s" horiz-adv-x="516" 
d="M119 560q0 -48 28 -76t70 -47.5t90.5 -36t90.5 -42t70 -65t28 -104.5q0 -31 -9 -64t-34 -61t-70.5 -46t-117.5 -18q-69 0 -116 20.5t-75.5 53t-41 73.5t-12.5 82l72 26q-10 -63 2.5 -109t38.5 -76.5t61 -45.5t71 -15q50 0 82 15t51 40.5t26.5 59.5t7.5 71q0 54 -27 85
t-68 51.5t-88 35.5t-88 35.5t-68 52t-27 84.5q0 43 14.5 73.5t41 50t63 28.5t79.5 9t74 -10.5t52 -26t33.5 -33.5t17.5 -33l-59 -19q0 18 -6.5 37.5t-20.5 36.5t-36.5 28t-54.5 11q-33 0 -59.5 -6t-45.5 -21t-29.5 -40t-10.5 -64z" />
    <glyph glyph-name="t" unicode="t" horiz-adv-x="464" 
d="M444 700v-113h-8q-1 29 -14 53q-11 20 -35 36t-71 16h-30q-8 -9 -18 -35t-10 -84v-451q0 -41 5.5 -65t13.5 -37q8 -15 18 -21h-125q10 6 19 21q7 13 12.5 37t5.5 65v450q0 58 -10.5 84.5t-18.5 35.5h-29q-47 0 -71.5 -16t-35.5 -36q-13 -24 -14 -53h-8v113h424z" />
    <glyph glyph-name="u" unicode="u" horiz-adv-x="466" 
d="M446 700q-6 -2 -11 -10q-4 -7 -7.5 -22t-3.5 -42v-396q0 -66 -9.5 -110t-29 -70.5t-49.5 -38t-72 -11.5q-41 0 -78.5 9.5t-66 35t-45.5 69.5t-17 112v346q0 42 -6 66.5t-13 38.5q-8 16 -18 22h124q-10 -6 -18 -21q-8 -13 -13.5 -38t-5.5 -67v-347q0 -63 11.5 -105.5
t32 -68t49.5 -36t64 -10.5t62.5 10t46 35t29 67t10.5 106l1 403q0 26 -3.5 40.5t-7.5 21.5q-6 9 -12 11h56z" />
    <glyph glyph-name="v" unicode="v" horiz-adv-x="543" 
d="M523 700q-5 -2 -11 -11q-5 -8 -11.5 -22.5t-14.5 -40.5l-150 -553q-7 -26 -8.5 -40.5t0.5 -21.5q2 -9 6 -11h-23q-26 0 -40.5 4.5t-23.5 18t-15.5 37.5t-18.5 63l-122 450q-11 42 -23.5 66.5t-23.5 38.5q-12 16 -24 22h124q-9 -6 -13 -21q-3 -13 -2 -38t12 -67l122 -451
q11 -41 22.5 -65t20.5 -37q5 8 9.5 21t9.5 32l150 552q8 26 9 41t0 22q-2 9 -6 11h45z" />
    <glyph glyph-name="w" unicode="w" horiz-adv-x="919" 
d="M486 678q2 -7 1.5 -26t-8.5 -47l-143 -532q-7 -26 -8.5 -40.5t0.5 -21.5q2 -9 6 -11h-23q-26 0 -40.5 4.5t-23.5 18t-15.5 37.5t-18.5 63l-122 450q-11 42 -23.5 66.5t-23.5 38.5q-12 16 -24 22h124q-9 -6 -13 -21q-3 -13 -2 -38t12 -67l122 -451q11 -41 22.5 -65
t20.5 -37q5 8 9.5 21t9.5 32zM899 700q-5 -2 -11 -11q-5 -8 -11.5 -22.5t-14.5 -40.5l-150 -553q-7 -26 -8.5 -40.5t-0.5 -21.5q2 -9 6 -11h-22q-26 0 -40.5 4.5t-23.5 18t-16 37.5t-18 63l-105 385q-5 20 -3 41.5t6.5 41t10 34t8.5 20.5l133 -522q11 -41 22 -65t21 -37
q9 16 19 53l149 552q8 26 9.5 41t-0.5 22q-1 9 -5 11h45z" />
    <glyph glyph-name="x" unicode="x" horiz-adv-x="532" 
d="M124 74q-14 -26 -18.5 -40.5t-3.5 -22.5q0 -9 5 -11h-55q7 2 16 11q8 8 19 22.5t25 40.5l291 553q14 26 18.5 40.5t3.5 21.5q-1 9 -6 11h56q-7 -2 -16 -10q-8 -7 -19.5 -22t-25.5 -42zM124 572q-22 42 -41 66.5t-33 38.5q-17 16 -30 22h124q-7 -6 -7 -21q0 -13 7.5 -38
t29.5 -67l60 -115q7 -15 11 -26.5t4.5 -22t-3 -22.5t-11.5 -28zM388 -1q7 6 7 21q0 13 -7 37t-28 65l-70 133q-11 23 -10 43.5t13 46.5l117 -223q22 -41 40 -65t32 -37q17 -15 30 -21h-124z" />
    <glyph glyph-name="y" unicode="y" horiz-adv-x="553" 
d="M533 700q-7 -2 -16 -10q-8 -7 -19.5 -22t-25.5 -42l-164 -311v-193q0 -41 5.5 -65t13.5 -37q8 -15 18 -21h-124q10 6 18 21q7 13 13 37t6 65v114l203 391q14 26 18 40.5t4 21.5q-1 9 -6 11h56zM261 407q18 -37 17.5 -63.5t-9.5 -48.5l-145 277q-22 42 -41 66.5t-33 38.5
q-17 16 -30 22h124q-7 -6 -7 -21q0 -13 7.5 -38t29.5 -67z" />
    <glyph glyph-name="z" unicode="z" horiz-adv-x="504" 
d="M332 8q47 0 71 16.5t35 36.5q13 23 14 52h8v-113h-440q13 6 29 21q14 13 31 37t37 65l218 451q29 59 35 84.5t2 33.5h-199q-46 0 -70.5 -16t-35.5 -36q-13 -24 -14 -53h-8v113h439q-13 -6 -29 -22q-14 -14 -32 -38.5t-38 -66.5l-218 -450q-14 -29 -20.5 -49t-8.5 -33.5
t-0.5 -21t3.5 -11.5h191z" />
    <glyph glyph-name="braceleft" unicode="{" horiz-adv-x="330" 
d="M112 692v-20.5t-0.5 -21.5t-0.5 -29v-44v-569h52q47 0 75.5 10t44.5 22q19 13 27 31v-71h-250v311l-40 40l40 40v309h250v-71q-8 18 -27 32q-16 11 -44.5 21t-75.5 10h-51z" />
    <glyph glyph-name="bar" unicode="|" horiz-adv-x="147" 
d="M90 126q0 -42 5.5 -66.5t13.5 -38.5q8 -15 18 -21h-107q10 6 18 22q7 14 13 38.5t6 66.5v450q0 41 -6 65t-13 37q-8 15 -18 21h107q-10 -6 -18 -21q-8 -13 -13.5 -37t-5.5 -65v-451z" />
    <glyph glyph-name="braceright" unicode="}" horiz-adv-x="330" 
d="M310 351l-40 -40v-311h-250v71q9 -18 27 -31q17 -12 45.5 -22t74.5 -10h52v684h-52q-46 0 -74.5 -10t-45.5 -21q-18 -14 -27 -32v71h250v-309z" />
    <glyph glyph-name="asciitilde" unicode="~" horiz-adv-x="387" 
d="M277 362q26 0 42.5 5t27.5 10q13 7 20 15q-11 -24 -25 -43q-12 -17 -28.5 -31t-37.5 -16q-19 -1 -35.5 5.5t-35.5 14.5t-43 15.5t-60 7.5q-17 0 -31.5 -6t-25.5 -14q-14 -10 -25 -21q7 26 20 47q11 17 30 31.5t47 14.5q26 0 47.5 -5.5t41 -12t37 -12t34.5 -5.5z" />
    <glyph glyph-name="exclamdown" unicode="&#xa1;" horiz-adv-x="164" 
d="M111 618q-16 0 -27.5 11t-11.5 28q0 16 11.5 27.5t27.5 11.5q17 0 28 -11.5t11 -27.5q0 -17 -11 -28t-28 -11zM50 -3q10 6 19 21q7 13 12.5 37t5.5 65l16 476h17l17 -476q1 -41 6.5 -65t12.5 -37q8 -15 18 -21h-124z" />
    <glyph glyph-name="cent" unicode="&#xa2;" horiz-adv-x="669" 
d="M649 156q-9 -33 -36 -61.5t-65.5 -49.5t-84.5 -33t-93 -12q2 -20 5 -32t7 -17q3 -7 8 -9h-55q5 2 9 8t7 17.5t5 32.5q-70 3 -131.5 31.5t-107 75.5t-71.5 109.5t-26 133.5t26 133t71.5 109.5t106.5 75.5t131 31q-2 17 -5 26t-7 14t-8 6h56q-4 -1 -8 -7q-3 -5 -6.5 -13.5
t-5.5 -24.5q83 -1 153.5 -36.5t118.5 -95.5l-53 -28q-15 32 -37.5 60t-50.5 48t-61 31.5t-71 11.5q-1 -7 -1.5 -14t-0.5 -16v-634q1 -5 1 -9.5v-8.5h1q39 0 76 11.5t68 32.5t53.5 51.5t32.5 69.5zM357 661v15.5t-1 14.5q-59 -3 -110.5 -31t-89.5 -74t-60 -106.5t-22 -129.5
t22 -129.5t60 -106.5t89.5 -74t110.5 -31q1 4 1 8v9v635z" />
    <glyph glyph-name="sterling" unicode="&#xa3;" horiz-adv-x="536" 
d="M444 444q9 56 4.5 101.5t-24 77.5t-54.5 49t-88 17q-61 0 -99 -19t-58 -49t-27 -67.5t-7 -74.5q1 -46 23 -86t48 -71q31 -35 70 -65l-50 -103h74v-9h-78l-11 -22q-25 -53 -28.5 -79t0.5 -36h170q47 0 71.5 16.5t35.5 36.5q13 23 14 52h8v-113h-418q13 6 29 21
q14 13 31 37t37 65l10 22h-77v9h82l43 90q-26 20 -52 42t-47 50t-34.5 64t-13.5 85q0 39 12.5 77t42 68t78.5 49t121 19q69 0 114 -20.5t71.5 -53t37.5 -73.5t11 -82z" />
    <glyph glyph-name="currency" unicode="&#xa4;" horiz-adv-x="481" 
d="M436 580l25 -25l-59 -59q27 -30 41.5 -66t14.5 -78q0 -61 -29 -107q-5 -9 -10.5 -16.5t-11.5 -15.5l54 -53l-25 -25l-54 54q-29 -26 -64 -38t-73 -12q-82 0 -142 54l-58 -58l-25 25l59 58q-5 7 -9.5 13t-8.5 14q-29 49 -29 107q0 38 13 74t39 65l-64 64l25 25l64 -64
q31 24 63.5 36.5t72.5 12.5q34 0 69.5 -11t61.5 -34zM245 165q38 0 70.5 15.5t56.5 41.5t38 59.5t14 70.5t-14 71t-38 59.5t-56.5 40.5t-70.5 15q-37 0 -70 -15.5t-57 -41t-38 -59t-14 -70.5t14 -70.5t38 -59.5t57 -41.5t70 -15.5z" />
    <glyph glyph-name="yen" unicode="&#xa5;" horiz-adv-x="553" 
d="M533 701q-7 -2 -16 -10q-8 -7 -19.5 -22t-25.5 -42l-164 -311v-92h62v-10h-62v-28h62v-10h-62v-53q0 -41 5.5 -65t13.5 -37q8 -15 18 -21h-124q10 6 18 21q7 13 13 37t6 65v53h-64v10h64v28h-64v10h64v13l203 391q14 26 18 40.5t4 21.5q-1 9 -6 11h56zM261 408
q18 -37 17.5 -63.5t-9.5 -48.5l-145 277q-22 42 -41 66.5t-33 38.5q-17 16 -30 22h124q-7 -6 -7 -21q0 -13 7.5 -38t29.5 -67z" />
    <glyph glyph-name="brokenbar" unicode="&#xa6;" horiz-adv-x="88" 
d="M20 700h48v-337h-48v337zM68 0h-48v319h48v-319z" />
    <glyph glyph-name="section" unicode="&#xa7;" horiz-adv-x="516" 
d="M286 313q38 -11 75.5 -23.5t67.5 -31t48.5 -46t18.5 -67.5q0 -24 -9 -49.5t-34 -46.5t-70.5 -34.5t-117.5 -13.5q-69 0 -116 15.5t-75.5 40.5t-41 56.5t-12.5 62.5l72 20q-10 -48 2.5 -83.5t38.5 -58.5t61 -34.5t71 -11.5q50 0 82 11.5t51 31t26.5 45.5t7.5 54
q0 41 -27 65t-68 39.5t-88 27t-88 27t-68 39.5t-27 65q0 51 32.5 78.5t87.5 37.5q-25 6 -46.5 13.5t-38 17t-26 22.5t-9.5 30q0 24 14.5 41t41 27.5t63 15.5t79.5 5t74 -6t52 -14.5t33.5 -18.5t17.5 -18l-59 -11q0 10 -6.5 21t-20.5 20.5t-36.5 15.5t-54.5 6q-33 0 -59.5 -3
t-45.5 -11.5t-29.5 -22.5t-10.5 -36q0 -26 28 -41.5t70 -26.5t90.5 -20t90.5 -23t70 -36t28 -58q0 -16 -8 -34t-31 -33.5t-64 -25.5t-107 -12zM119 428q0 -23 12 -40t33 -29.5t48 -22t57 -18.5q48 0 79.5 8.5t50 23t26 33t7.5 38.5q0 26 -20.5 42.5t-53.5 27.5t-73 18.5
t-79 15.5q-40 -8 -63.5 -29.5t-23.5 -67.5z" />
    <glyph glyph-name="dieresis" unicode="&#xa8;" horiz-adv-x="246" 
d="M62 670q18 0 30.5 -12.5t12.5 -29.5t-12.5 -29.5t-30.5 -12.5q-17 0 -29.5 12.5t-12.5 29.5t12.5 29.5t29.5 12.5zM184 670q17 0 29.5 -12.5t12.5 -29.5t-12.5 -29.5t-29.5 -12.5t-29.5 12.5t-12.5 29.5t12.5 29.5t29.5 12.5z" />
    <glyph glyph-name="copyright" unicode="&#xa9;" horiz-adv-x="609" 
d="M305 634q59 0 110.5 -22.5t90 -61t61 -90t22.5 -110.5t-22.5 -111t-61 -90.5t-90 -61t-110.5 -22.5t-111 22.5t-90.5 61t-61 90.5t-22.5 111t22.5 110.5t61 90t90.5 61t111 22.5zM305 72q50 0 91.5 22t71.5 59.5t47 88.5t17 108t-17 107.5t-47 88t-71.5 59.5t-91.5 22
t-92 -22t-72 -59.5t-47 -88t-17 -107.5t17 -108t47 -88.5t72 -59.5t92 -22zM475 232q-5 -19 -21 -36t-38.5 -29t-50 -19t-54.5 -7q-42 0 -79 16t-65 44t-44 65t-16 79t16 79.5t44 65.5t65 44t79 16q49 0 90.5 -21t69.5 -56l-39 -17q-17 38 -46.5 63.5t-74.5 25.5
q-36 0 -65 -16t-49.5 -43t-32 -63.5t-11.5 -77.5t11.5 -77.5t32 -63.5t49.5 -42.5t65 -15.5q46 0 80.5 25.5t46.5 70.5z" />
    <glyph glyph-name="ordfeminine" unicode="&#xaa;" horiz-adv-x="372" 
d="M250 628q6 3 9 13q2 8 1.5 22.5t-8.5 40.5l-35 119h-140l-45 -151q-5 -15 -5.5 -23.5t0.5 -13.5q0 -6 3 -7h-30q4 1 8 7q3 5 7 13.5t9 23.5l100 332q5 15 5.5 24t0 13.5t-2.5 5.5l-2 1h15q17 0 26.5 -3t15.5 -11t11 -22.5t12 -37.5l37 -125q-17 0 -28 9t-17 32l-25 84
q-8 25 -15 39t-14 22q-6 -9 -12 -31l-52 -175h136q14 0 24.5 -5t17.5 -26l28 -94q8 -25 16 -40t15 -23q8 -9 16 -13h-82zM87 554q39 -12 81 -12t87 12v-75q-20 8 -41 11t-42 3q-44 0 -85 -14v75z" />
    <glyph glyph-name="guillemotleft" unicode="&#xab;" horiz-adv-x="296" 
d="M179 430q-26 -20 -49.5 -39.5t-45.5 -40.5q23 -23 47 -42.5t48 -37.5l-48 -49q-9 14 -27.5 35.5t-37.5 42.5q-22 24 -46 51q25 27 47 52q18 21 36.5 42.5t27.5 34.5zM276 430q-26 -20 -49.5 -39.5t-45.5 -40.5q45 -44 95 -80l-49 -49q-9 14 -27.5 35.5t-36.5 42.5
q-22 24 -47 51q25 27 47 52q19 21 37.5 42.5t26.5 34.5z" />
    <glyph glyph-name="logicalnot" unicode="&#xac;" horiz-adv-x="375" 
d="M20 421q78 -12 163 -12q82 0 172 12v-163h-69q8 13 15 28q6 13 12 29.5t8 36.5q-64 9 -130 9q-42 0 -84.5 -3.5t-86.5 -10.5v74z" />
    <glyph glyph-name="registered" unicode="&#xae;" horiz-adv-x="609" 
d="M305 634q59 0 110.5 -22.5t90 -61t61 -90t22.5 -110.5t-22.5 -111t-61 -90.5t-90 -61t-110.5 -22.5t-111 22.5t-90.5 61t-61 90.5t-22.5 111t22.5 110.5t61 90t90.5 61t111 22.5zM305 72q50 0 91.5 22t71.5 59.5t47 88.5t17 108t-17 107.5t-47 88t-71.5 59.5t-91.5 22
t-92 -22t-72 -59.5t-47 -88t-17 -107.5t17 -108t47 -88.5t72 -59.5t92 -22zM452 431q0 -62 -36.5 -94t-94.5 -43l49 -83q16 -26 29 -42t22 -24q11 -9 19 -13h-78q4 4 3 14q0 9 -5.5 24.5t-21.5 41.5l-46 78q-28 -3 -60 -3h-1v-78q0 -26 3.5 -41t8.5 -23q5 -10 11 -14h-78
q6 4 12 14q4 8 7.5 23t3.5 41v85h34q38 0 72 7.5t59 23.5t39.5 42t14.5 64q0 37 -13.5 62t-36.5 40.5t-54.5 23t-67.5 8.5q-5 -7 -10 -23.5t-5 -49.5v-106q0 -27 -9 -40.5t-23 -13.5v160q0 26 -3.5 42t-7.5 24q-6 10 -12 14h28q11 -1 19.5 -1h9.5q45 0 85 -6t70 -22t47 -43
t17 -69z" />
    <glyph glyph-name="macron" unicode="&#xaf;" horiz-adv-x="290" 
d="M270 631l-8 -21l-112 1h-130l12 30z" />
    <glyph glyph-name="degree" unicode="&#xb0;" horiz-adv-x="315" 
d="M158 674q28 0 53 -11t43.5 -29.5t29.5 -43.5t11 -54q0 -28 -11 -53t-29.5 -44t-43.5 -29.5t-53 -10.5t-53.5 10.5t-44 29.5t-29.5 44t-11 53q0 29 11 54t29.5 43.5t44 29.5t53.5 11zM158 416q24 0 44.5 10t36.5 26.5t25 38t9 45.5t-9 46t-25 38.5t-36.5 26.5t-44.5 10
t-45 -10t-37 -26.5t-25 -38.5t-9 -46t9 -45.5t25 -38t37 -26.5t45 -10z" />
    <glyph glyph-name="plusminus" unicode="&#xb1;" horiz-adv-x="336" 
d="M315 316q-61 10 -124 12q1 -32 3.5 -63.5t7.5 -61.5h-69q5 32 8.5 63t4.5 63q-32 -1 -63 -4.5t-63 -8.5v69q32 -5 63.5 -7.5t62.5 -3.5q-2 65 -13 124h69q-5 -32 -7 -63t-3 -61q32 1 62.5 3.5t60.5 7.5v-69zM22 206q69 -12 143 -12q73 0 151 12v-75q-36 8 -72.5 11
t-73.5 3t-73.5 -3t-74.5 -11v75z" />
    <glyph glyph-name="twosuperior" unicode="&#xb2;" horiz-adv-x="271" 
d="M177 352q22 0 33.5 8t16.5 17q6 11 7 25h4v-54h-218q56 38 101 77q19 17 37 36t32 38.5t22.5 39t8.5 37.5q0 17 -3 35t-13 32t-27.5 23t-46.5 9q-50 0 -67.5 -31t-9.5 -85l-34 12q0 20 5 39t18 34.5t34 25t54 9.5q34 0 57 -9t37 -23t20 -32t6 -36q0 -28 -13 -55
t-32.5 -52t-42.5 -46.5t-42.5 -37.5t-32 -25.5t-11.5 -10.5h100z" />
    <glyph glyph-name="threesuperior" unicode="&#xb3;" horiz-adv-x="271" 
d="M98 676q-22 0 -33.5 -7.5t-16.5 -17.5q-6 -11 -7 -25h-4v54h202q-6 -1 -14 -8q-7 -5 -17.5 -17t-25.5 -34l-20 -29q-4 -7 -14.5 -13t-18.5 -1l29 43q11 17 14.5 27t4 16t-1.5 8.5t-4 3.5h-73zM130 566q19 -4 40 -12t39 -22t30 -34.5t12 -48.5q0 -18 -6 -36.5t-20 -32.5
t-37 -23t-57 -9q-33 0 -54 9.5t-34 25t-18 35t-5 38.5l34 13q-8 -54 9 -85t68 -31q29 0 46.5 9t27.5 23t13 31.5t3 35.5q0 39 -16 60.5t-36 32.5q-23 13 -52 16q1 2 4.5 4.5t8.5 0.5z" />
    <glyph glyph-name="acute" unicode="&#xb4;" horiz-adv-x="111" 
d="M20 598q3 18 4 35q2 15 2 31.5t-3 29.5h68z" />
    <glyph glyph-name="uni00B5" unicode="&#xb5;" horiz-adv-x="256" 
d="M192 184l1 58q-11 -18 -27.5 -25.5t-37.5 -7.5q-19 0 -38.5 7.5t-26.5 20.5v-102h-43v435h45v-258q0 -46 20 -64t45 -18q14 0 25.5 7t20 18t13.5 24.5t5 27.5v263h42v-386h-44z" />
    <glyph glyph-name="paragraph" unicode="&#xb6;" horiz-adv-x="373" 
d="M153 571h200v-436h-48l-1 419l-102 1l-1 -420h-48v170q-27 0 -51.5 10.5t-42.5 28.5t-28.5 42t-10.5 52q0 27 10.5 51.5t28.5 42.5t42.5 28.5t51.5 10.5z" />
    <glyph glyph-name="periodcentered" unicode="&#xb7;" horiz-adv-x="151" 
d="M76 406q23 0 39 -16t16 -39t-16 -39.5t-39 -16.5t-39.5 16.5t-16.5 39.5t16.5 39t39.5 16z" />
    <glyph glyph-name="periodcentered" unicode="&#x2219;" horiz-adv-x="151" 
d="M76 406q23 0 39 -16t16 -39t-16 -39.5t-39 -16.5t-39.5 16.5t-16.5 39.5t16.5 39t39.5 16z" />
    <glyph glyph-name="cedilla" unicode="&#xb8;" horiz-adv-x="131" 
d="M73 -11q16 -3 27 -15.5t11 -29.5q0 -19 -13.5 -32t-32.5 -13q-17 0 -30 11t-15 28h20q5 -19 25 -19q11 0 20.5 6t9.5 23q0 20 -14.5 31.5t-28.5 6.5l12 34h20z" />
    <glyph glyph-name="onesuperior" unicode="&#xb9;" horiz-adv-x="99" 
d="M20 348q5 3 9 11q3 6 6 17.5t3 31.5v213q0 20 -3 31t-6 17q-4 7 -9 10h41v-271q0 -20 3 -31.5t6 -18.5q4 -7 9 -10h-59z" />
    <glyph glyph-name="ordmasculine" unicode="&#xba;" horiz-adv-x="317" 
d="M158 679q29 0 54.5 -13t44 -35.5t29.5 -52.5t11 -64t-11 -64.5t-29.5 -53t-44 -35.5t-54.5 -13q-28 0 -53.5 13t-44 35.5t-29.5 53t-11 64.5t11 64t29.5 52.5t44 35.5t53.5 13zM158 353q24 0 44 12.5t34.5 34.5t22 51.5t7.5 62.5t-7.5 62.5t-22 51.5t-34.5 34.5t-44 12.5
t-43.5 -12.5t-34 -34.5t-22 -51.5t-7.5 -62.5t7.5 -62.5t22 -51.5t34 -34.5t43.5 -12.5z" />
    <glyph glyph-name="guillemotright" unicode="&#xbb;" horiz-adv-x="296" 
d="M69 479q9 -13 27 -34.5t37 -42.5q21 -25 46 -52q-24 -27 -46 -51q-18 -21 -36.5 -42.5t-27.5 -35.5l-49 49q50 36 95 80q-22 21 -45.5 40.5t-49.5 39.5zM165 479q9 -13 27.5 -34.5t37.5 -42.5q21 -25 46 -52q-24 -27 -46 -51q-19 -21 -37 -42.5t-28 -35.5l-49 49
q25 18 49 37.5t47 42.5q-22 21 -46 40.5t-50 39.5z" />
    <glyph glyph-name="onequarter" unicode="&#xbc;" horiz-adv-x="318" 
d="M36 325q5 3 9 11q3 6 5.5 17.5t2.5 31.5v213q0 20 -2.5 31t-5.5 17q-4 7 -9 10h40l1 -271q0 -20 2.5 -31.5t6.5 -18.5q3 -7 8 -10h-58zM244 523l-208 -450h-16l187 450h37zM260 124q8 6 12 13t6 13q2 7 2 14h4v-53h-24q0 -18 5 -27t13 -18h-59q8 10 12.5 19.5t4.5 25.5
h-149q6 3 14 10q6 6 14.5 17.5t17.5 30.5l94 196q10 20 13 31.5t3 17.5q0 8 -4 10h59q-7 -3 -14 -10t-15 -18.5t-18 -31.5l-20 -40h29v-200zM236 266q0 20 -2.5 31.5t-6.5 17.5l-71 -146q-12 -26 -13.5 -38t0.5 -16h93v151z" />
    <glyph glyph-name="onehalf" unicode="&#xbd;" horiz-adv-x="426" 
d="M36 325q5 3 9 11q3 6 5.5 17.5t2.5 31.5v213q0 20 -2.5 31t-5.5 17q-4 7 -9 10h40l1 -271q0 -20 2.5 -31.5t6.5 -18.5q3 -7 8 -10h-58zM244 523l-208 -450h-16l187 450h37zM332 65q22 0 33.5 8t16.5 17q6 11 7 25h4v-54h-218q56 38 101 77q19 17 37 36t32 38.5t22.5 39
t8.5 37.5q0 17 -3 35t-13 32t-27.5 23t-46.5 9q-50 0 -67.5 -31t-9.5 -85l-34 12q0 20 5 39t18 34.5t34 25t54 9.5q34 0 57 -9t37 -23t20 -32t6 -36q0 -28 -13 -55t-32.5 -52t-42.5 -46.5t-42.5 -37.5t-32 -25.5t-11.5 -10.5h100z" />
    <glyph glyph-name="threequarters" unicode="&#xbe;" horiz-adv-x="430" 
d="M98 646q-22 0 -33.5 -7.5t-16.5 -16.5q-6 -11 -7 -25h-4v53h202q-6 -1 -14 -7q-7 -5 -17.5 -17t-25.5 -34l-20 -30q-4 -6 -14.5 -12t-18.5 -1l29 43q11 16 14.5 26t4 16t-1.5 8.5t-4 3.5h-73zM251 419q0 -18 -6 -36t-20 -32.5t-37 -23.5t-57 -9q-33 0 -54 9.5t-34 25.5
t-18 35.5t-5 38.5l34 12q-8 -54 9 -85t68 -31q29 0 46.5 9t27.5 23.5t13 32t3 34.5q0 39 -16 61t-36 33q-23 12 -52 15q1 2 4.5 4.5t8.5 1.5q19 -4 40 -12.5t39 -22.5t30 -34.5t12 -48.5zM363 523l-207 -450h-17l187 450h37zM372 124q8 6 12 13t6 13q3 7 3 14h3v-53h-24
q0 -18 5 -27t13 -18h-59q8 10 12.5 19.5t4.5 25.5h-149q6 3 14 10q6 6 14.5 17.5t17.5 30.5l94 196q10 20 13 31.5t3 17.5q0 8 -4 10h59q-7 -3 -14 -10t-15 -18.5t-18 -31.5l-19 -40h28v-200zM348 266q0 20 -2.5 31.5t-6.5 17.5l-71 -146q-12 -26 -13.5 -38t0.5 -16h93v151z
" />
    <glyph glyph-name="questiondown" unicode="&#xbf;" horiz-adv-x="528" 
d="M315 623q-17 0 -28 11t-11 28q0 16 11 27.5t28 11.5q16 0 27.5 -11.5t11.5 -27.5q0 -17 -11.5 -28t-27.5 -11zM304 1q-72 0 -121 19t-78.5 49t-42 68t-12.5 77q0 59 19 100t47 71.5t61 54.5t61 47.5t47 51t19 65.5h24q0 -40 -16 -70t-39.5 -55.5t-51.5 -50t-51.5 -53.5
t-39.5 -66.5t-16 -88.5q0 -37 6.5 -74.5t27 -67.5t58 -49t98.5 -19q53 0 88 17t54.5 49t24 77.5t-4.5 102.5l72 -26q0 -41 -10.5 -82t-37.5 -73.5t-72 -53t-114 -20.5z" />
    <glyph glyph-name="Agrave" unicode="&#xc0;" horiz-adv-x="543" 
d="M267 894q-3 -13 -2.5 -29.5t1.5 -31.5t3 -25l2 -10l-71 96h67zM399 0q9 6 13 21q3 14 2 38.5t-12 66.5l-54 200h-212l-68 -252q-7 -26 -8.5 -40.5t-0.5 -22.5q2 -9 6 -11h-45q5 2 11 11q5 8 11.5 22.5t14.5 40.5l150 553q7 25 8 39.5t0 22t-3.5 9.5l-2.5 2h23
q26 0 40.5 -4.5t23.5 -18t16 -37.5t18 -63l56 -209q-26 0 -42 15.5t-26 53.5l-38 140q-11 41 -22.5 65t-20.5 37q-9 -16 -19 -53l-79 -291l207 -1q21 0 37 -7.5t27 -43.5l42 -156q11 -42 23.5 -66.5t23.5 -38.5q12 -16 24 -22h-124z" />
    <glyph glyph-name="Aacute" unicode="&#xc1;" horiz-adv-x="543" 
d="M223 798q3 18 4 35q2 15 2 31.5t-3 29.5h68zM399 0q9 6 13 21q3 14 2 38.5t-12 66.5l-54 200h-212l-68 -252q-7 -26 -8.5 -40.5t-0.5 -22.5q2 -9 6 -11h-45q5 2 11 11q5 8 11.5 22.5t14.5 40.5l150 553q7 25 8 39.5t0 22t-3.5 9.5l-2.5 2h23q26 0 40.5 -4.5t23.5 -18
t16 -37.5t18 -63l56 -209q-26 0 -42 15.5t-26 53.5l-38 140q-11 41 -22.5 65t-20.5 37q-9 -16 -19 -53l-79 -291l207 -1q21 0 37 -7.5t27 -43.5l42 -156q11 -42 23.5 -66.5t23.5 -38.5q12 -16 24 -22h-124z" />
    <glyph glyph-name="Acircumflex" unicode="&#xc2;" horiz-adv-x="543" 
d="M360 731h-54q-21 20 -31 41t-21 47q-11 -26 -19.5 -47t-31.5 -41h-54l105 96zM399 0q9 6 13 21q3 14 2 38.5t-12 66.5l-54 200h-212l-68 -252q-7 -26 -8.5 -40.5t-0.5 -22.5q2 -9 6 -11h-45q5 2 11 11q5 8 11.5 22.5t14.5 40.5l150 553q7 25 8 39.5t0 22t-3.5 9.5l-2.5 2
h23q26 0 40.5 -4.5t23.5 -18t16 -37.5t18 -63l56 -209q-26 0 -42 15.5t-26 53.5l-38 140q-11 41 -22.5 65t-20.5 37q-9 -16 -19 -53l-79 -291l207 -1q21 0 37 -7.5t27 -43.5l42 -156q11 -42 23.5 -66.5t23.5 -38.5q12 -16 24 -22h-124z" />
    <glyph glyph-name="Atilde" unicode="&#xc3;" horiz-adv-x="543" 
d="M298 845q16 0 26.5 3t16.5 6q8 4 12 9q-7 -15 -15 -27q-8 -10 -17.5 -18.5t-22.5 -9.5q-12 -1 -24.5 2t-26 7.5t-27.5 8.5t-30 4q-10 0 -19 -3t-16 -7q-8 -5 -15 -11q4 16 12 29q8 11 19.5 19.5t28.5 8.5q16 0 29 -3.5t25 -7t23 -7t21 -3.5zM399 0q9 6 13 21q3 14 2 38.5
t-12 66.5l-54 200h-212l-68 -252q-7 -26 -8.5 -40.5t-0.5 -22.5q2 -9 6 -11h-45q5 2 11 11q5 8 11.5 22.5t14.5 40.5l150 553q7 25 8 39.5t0 22t-3.5 9.5l-2.5 2h23q26 0 40.5 -4.5t23.5 -18t16 -37.5t18 -63l56 -209q-26 0 -42 15.5t-26 53.5l-38 140q-11 41 -22.5 65
t-20.5 37q-9 -16 -19 -53l-79 -291l207 -1q21 0 37 -7.5t27 -43.5l42 -156q11 -42 23.5 -66.5t23.5 -38.5q12 -16 24 -22h-124z" />
    <glyph glyph-name="Adieresis" unicode="&#xc4;" horiz-adv-x="543" 
d="M186 870q18 0 30.5 -12.5t12.5 -29.5t-12.5 -29.5t-30.5 -12.5q-17 0 -29.5 12.5t-12.5 29.5t12.5 29.5t29.5 12.5zM308 870q17 0 29.5 -12.5t12.5 -29.5t-12.5 -29.5t-29.5 -12.5t-29.5 12.5t-12.5 29.5t12.5 29.5t29.5 12.5zM399 0q9 6 13 21q3 14 2 38.5t-12 66.5
l-54 200h-212l-68 -252q-7 -26 -8.5 -40.5t-0.5 -22.5q2 -9 6 -11h-45q5 2 11 11q5 8 11.5 22.5t14.5 40.5l150 553q7 25 8 39.5t0 22t-3.5 9.5l-2.5 2h23q26 0 40.5 -4.5t23.5 -18t16 -37.5t18 -63l56 -209q-26 0 -42 15.5t-26 53.5l-38 140q-11 41 -22.5 65t-20.5 37
q-9 -16 -19 -53l-79 -291l207 -1q21 0 37 -7.5t27 -43.5l42 -156q11 -42 23.5 -66.5t23.5 -38.5q12 -16 24 -22h-124z" />
    <glyph glyph-name="Aring" unicode="&#xc5;" horiz-adv-x="543" 
d="M247 894q22 0 37.5 -15.5t15.5 -37.5t-15.5 -37.5t-37.5 -15.5t-37.5 15.5t-15.5 37.5t15.5 37.5t37.5 15.5zM247 811q13 0 21.5 9t8.5 21q0 13 -8.5 21.5t-21.5 8.5q-12 0 -21 -8.5t-9 -21.5q0 -12 9 -21t21 -9zM399 0q9 6 13 21q3 14 2 38.5t-12 66.5l-54 200h-212
l-68 -252q-7 -26 -8.5 -40.5t-0.5 -22.5q2 -9 6 -11h-45q5 2 11 11q5 8 11.5 22.5t14.5 40.5l150 553q7 25 8 39.5t0 22t-3.5 9.5l-2.5 2h23q26 0 40.5 -4.5t23.5 -18t16 -37.5t18 -63l56 -209q-26 0 -42 15.5t-26 53.5l-38 140q-11 41 -22.5 65t-20.5 37q-9 -16 -19 -53
l-79 -291l207 -1q21 0 37 -7.5t27 -43.5l42 -156q11 -42 23.5 -66.5t23.5 -38.5q12 -16 24 -22h-124z" />
    <glyph glyph-name="AE" unicode="&#xc6;" horiz-adv-x="622" 
d="M594 589q-1 29 -14 52q-11 20 -35 36t-71 16h-143q-8 -9 -17.5 -35t-9.5 -80v-34q0 -32 -11.5 -46t-39.5 -14v94q0 39 -5 62.5t-12 37.5q-5 -8 -9 -20.5t-9 -30.5l-79 -291h114v97q0 22 18.5 25t50.5 3q47 0 71 10t35 22q13 14 14 32h8v-137h-8q-1 18 -14 33
q-11 12 -35 22t-71 10h-18v-326q0 -56 9.5 -82.5t17.5 -35.5h143q47 0 71 16.5t35 36.5q13 23 14 52h8v-113h-386q10 6 19 22q7 14 12.5 38.5t5.5 66.5v199h-117l-68 -252q-7 -26 -8.5 -40.5t-0.5 -22.5q2 -9 6 -11h-45q5 2 11 11q5 8 11.5 22.5t14.5 40.5l150 553
q7 25 8 39.5t0 22t-3.5 9.5l-2.5 2h393v-112h-8z" />
    <glyph glyph-name="Ccedilla" unicode="&#xc7;" horiz-adv-x="669" 
d="M649 156q-9 -32 -34.5 -60t-62.5 -49t-81 -33t-90 -14l-4 -11q16 -3 27 -15.5t11 -29.5q0 -19 -13.5 -32t-32.5 -13q-17 0 -30 11t-15 28h20q5 -19 25 -19q11 0 20.5 6t9.5 23q0 20 -14.5 31.5t-28.5 6.5l5 14q-71 2 -133 30t-108.5 75.5t-73 110.5t-26.5 134
q0 72 27.5 136t75 111.5t111.5 75t136 27.5q84 0 154.5 -36t118.5 -96l-53 -28q-15 32 -37.5 60t-50.5 48t-61 31.5t-71 11.5q-61 0 -115 -27t-94.5 -73t-63.5 -108t-23 -133q0 -70 22.5 -131.5t62 -107.5t92.5 -73t113 -29l4 11h20l-4 -11q37 2 72 14.5t63.5 33.5
t49.5 50.5t31 66.5z" />
    <glyph glyph-name="Egrave" unicode="&#xc8;" horiz-adv-x="426" 
d="M233 894q-3 -13 -2.5 -29.5t1.5 -31.5t3 -25l2 -10l-71 96h67zM406 700v-113h-8q-1 29 -14 53q-11 20 -35.5 36t-71.5 16h-142q-8 -9 -18 -35t-10 -80v-34q0 -32 -11 -46t-39 -14v94q0 41 -6 65t-13 37q-8 15 -18 21h386zM277 8q47 0 71.5 16.5t35.5 36.5q13 23 14 52h8
v-113h-386q10 6 18 22q7 14 13 38.5t6 66.5v305q0 22 18 25t50 3q47 0 71.5 10t35.5 22q13 14 14 32h8v-137h-8q-1 18 -14 33q-11 12 -35.5 22t-71.5 10h-18v-326q0 -56 10 -82.5t18 -35.5h142z" />
    <glyph glyph-name="Eacute" unicode="&#xc9;" horiz-adv-x="426" 
d="M189 798q3 18 4 35q2 15 2 31.5t-3 29.5h68zM406 700v-113h-8q-1 29 -14 53q-11 20 -35.5 36t-71.5 16h-142q-8 -9 -18 -35t-10 -80v-34q0 -32 -11 -46t-39 -14v94q0 41 -6 65t-13 37q-8 15 -18 21h386zM277 8q47 0 71.5 16.5t35.5 36.5q13 23 14 52h8v-113h-386
q10 6 18 22q7 14 13 38.5t6 66.5v305q0 22 18 25t50 3q47 0 71.5 10t35.5 22q13 14 14 32h8v-137h-8q-1 18 -14 33q-11 12 -35.5 22t-71.5 10h-18v-326q0 -56 10 -82.5t18 -35.5h142z" />
    <glyph glyph-name="Ecircumflex" unicode="&#xca;" horiz-adv-x="426" 
d="M323 745h-54q-21 20 -31 41t-21 47q-11 -26 -19.5 -47t-31.5 -41h-54l105 96zM406 700v-113h-8q-1 29 -14 53q-11 20 -35.5 36t-71.5 16h-142q-8 -9 -18 -35t-10 -80v-34q0 -32 -11 -46t-39 -14v94q0 41 -6 65t-13 37q-8 15 -18 21h386zM277 8q47 0 71.5 16.5t35.5 36.5
q13 23 14 52h8v-113h-386q10 6 18 22q7 14 13 38.5t6 66.5v305q0 22 18 25t50 3q47 0 71.5 10t35.5 22q13 14 14 32h8v-137h-8q-1 18 -14 33q-11 12 -35.5 22t-71.5 10h-18v-326q0 -56 10 -82.5t18 -35.5h142z" />
    <glyph glyph-name="Edieresis" unicode="&#xcb;" horiz-adv-x="426" 
d="M152 870q18 0 30.5 -12.5t12.5 -29.5t-12.5 -29.5t-30.5 -12.5q-17 0 -29.5 12.5t-12.5 29.5t12.5 29.5t29.5 12.5zM274 870q17 0 29.5 -12.5t12.5 -29.5t-12.5 -29.5t-29.5 -12.5t-29.5 12.5t-12.5 29.5t12.5 29.5t29.5 12.5zM406 700v-113h-8q-1 29 -14 53
q-11 20 -35.5 36t-71.5 16h-142q-8 -9 -18 -35t-10 -80v-34q0 -32 -11 -46t-39 -14v94q0 41 -6 65t-13 37q-8 15 -18 21h386zM277 8q47 0 71.5 16.5t35.5 36.5q13 23 14 52h8v-113h-386q10 6 18 22q7 14 13 38.5t6 66.5v305q0 22 18 25t50 3q47 0 71.5 10t35.5 22
q13 14 14 32h8v-137h-8q-1 18 -14 33q-11 12 -35.5 22t-71.5 10h-18v-326q0 -56 10 -82.5t18 -35.5h142z" />
    <glyph glyph-name="Igrave" unicode="&#xcc;" horiz-adv-x="164" 
d="M102 894q-3 -13 -2.5 -29.5t1.5 -31.5t3 -25l2 -10l-71 96h67zM107 126q0 -42 5.5 -66.5t13.5 -38.5q8 -15 18 -21h-124q10 6 18 22q7 14 13 38.5t6 66.5v450q0 41 -6 65t-13 37q-8 15 -18 21h124q-10 -6 -18 -21q-8 -13 -13.5 -37t-5.5 -65v-451z" />
    <glyph glyph-name="Iacute" unicode="&#xcd;" horiz-adv-x="164" 
d="M58 798q3 18 4 35q2 15 2 31.5t-3 29.5h68zM107 126q0 -42 5.5 -66.5t13.5 -38.5q8 -15 18 -21h-124q10 6 18 22q7 14 13 38.5t6 66.5v450q0 41 -6 65t-13 37q-8 15 -18 21h124q-10 -6 -18 -21q-8 -13 -13.5 -37t-5.5 -65v-451z" />
    <glyph glyph-name="Icircumflex" unicode="&#xce;" horiz-adv-x="164" 
d="M187 792h-54q-21 20 -31 41t-21 47q-11 -26 -19.5 -47t-31.5 -41h-54l105 96zM107 126q0 -42 5.5 -66.5t13.5 -38.5q8 -15 18 -21h-124q10 6 18 22q7 14 13 38.5t6 66.5v450q0 41 -6 65t-13 37q-8 15 -18 21h124q-10 -6 -18 -21q-8 -13 -13.5 -37t-5.5 -65v-451z" />
    <glyph glyph-name="Idieresis" unicode="&#xcf;" horiz-adv-x="164" 
d="M21 870q18 0 30.5 -12.5t12.5 -29.5t-12.5 -29.5t-30.5 -12.5q-17 0 -29.5 12.5t-12.5 29.5t12.5 29.5t29.5 12.5zM143 870q17 0 29.5 -12.5t12.5 -29.5t-12.5 -29.5t-29.5 -12.5t-29.5 12.5t-12.5 29.5t12.5 29.5t29.5 12.5zM107 126q0 -42 5.5 -66.5t13.5 -38.5
q8 -15 18 -21h-124q10 6 18 22q7 14 13 38.5t6 66.5v450q0 41 -6 65t-13 37q-8 15 -18 21h124q-10 -6 -18 -21q-8 -13 -13.5 -37t-5.5 -65v-451z" />
    <glyph glyph-name="Eth" unicode="&#xd0;" horiz-adv-x="491" 
d="M139 700q73 0 134 -24.5t105 -69.5t68.5 -110t24.5 -146t-27.5 -146t-75 -110t-111 -69.5t-136.5 -24.5h-101q10 6 18 22q7 14 13 38.5t6 66.5v200q-36 -2 -72 -5t-72 -9v74q35 -5 70.5 -8t73.5 -3v201q0 41 -6 65t-13 37q-8 15 -18 21h119zM134 9q59 3 110.5 30.5
t90 73.5t61 107t22.5 130t-19 130t-55 107.5t-88.5 74.5t-120.5 31q-8 -9 -18 -35t-10 -81v-201q34 1 69 3.5t72 7.5v-74q-35 6 -70.5 9.5t-70.5 4.5v-201q0 -54 9.5 -80.5t17.5 -36.5z" />
    <glyph glyph-name="Ntilde" unicode="&#xd1;" horiz-adv-x="424" 
d="M263 845q16 0 26.5 3t16.5 6q8 4 12 9q-7 -15 -15 -27q-8 -10 -17.5 -18.5t-22.5 -9.5q-12 -1 -24.5 2t-26 7.5t-27.5 8.5t-30 4q-10 0 -19 -3t-16 -7q-8 -5 -15 -11q4 16 12 29q8 11 19.5 19.5t28.5 8.5q16 0 29 -3.5t25 -7t23 -7t21 -3.5zM404 700q-8 -2 -13 -10
q-5 -7 -9.5 -22t-4.5 -42v-626h-11q-81 181 -147 324q-28 62 -54.5 121t-48.5 106.5t-36 78t-17 33.5q-3 -15 -3 -37v-552q0 -26 4 -40.5t9 -22.5q6 -9 13 -11h-66q8 2 14 11q5 8 9.5 22.5t4.5 40.5l1 553q0 26 -4.5 40.5t-9.5 21.5q-7 9 -15 11h129q-8 -6 -11 -21
q-2 -13 0.5 -37t16.5 -65l211 -462v512q0 26 -3.5 40.5t-7.5 21.5q-6 9 -12 11h61z" />
    <glyph glyph-name="Ograve" unicode="&#xd2;" horiz-adv-x="736" 
d="M388 894q-3 -13 -2.5 -29.5t1.5 -31.5t3 -25l2 -10l-71 96h67zM368 700q72 0 135.5 -27.5t110.5 -75t74.5 -111.5t27.5 -136t-27.5 -136t-74.5 -111.5t-110.5 -75t-135.5 -27.5t-135.5 27.5t-110.5 75t-74.5 111.5t-27.5 136t27.5 136t74.5 111.5t110.5 75t135.5 27.5z
M484 36q57 21 98 64t62.5 99t22.5 121.5t-23 131.5q-19 53 -50.5 96t-71.5 73t-85.5 46.5t-92.5 16.5q-45 0 -87 -15q-57 -21 -98 -64t-62.5 -99t-22.5 -121.5t22 -131.5q19 -53 51 -96t71.5 -73t85.5 -46.5t93 -16.5q44 0 87 15z" />
    <glyph glyph-name="Oacute" unicode="&#xd3;" horiz-adv-x="736" 
d="M344 798q3 18 4 35q2 15 2 31.5t-3 29.5h68zM368 700q72 0 135.5 -27.5t110.5 -75t74.5 -111.5t27.5 -136t-27.5 -136t-74.5 -111.5t-110.5 -75t-135.5 -27.5t-135.5 27.5t-110.5 75t-74.5 111.5t-27.5 136t27.5 136t74.5 111.5t110.5 75t135.5 27.5zM484 36q57 21 98 64
t62.5 99t22.5 121.5t-23 131.5q-19 53 -50.5 96t-71.5 73t-85.5 46.5t-92.5 16.5q-45 0 -87 -15q-57 -21 -98 -64t-62.5 -99t-22.5 -121.5t22 -131.5q19 -53 51 -96t71.5 -73t85.5 -46.5t93 -16.5q44 0 87 15z" />
    <glyph glyph-name="Ocircumflex" unicode="&#xd4;" horiz-adv-x="736" 
d="M481 745h-54q-21 20 -31 41t-21 47q-11 -26 -19.5 -47t-31.5 -41h-54l105 96zM368 700q72 0 135.5 -27.5t110.5 -75t74.5 -111.5t27.5 -136t-27.5 -136t-74.5 -111.5t-110.5 -75t-135.5 -27.5t-135.5 27.5t-110.5 75t-74.5 111.5t-27.5 136t27.5 136t74.5 111.5t110.5 75
t135.5 27.5zM484 36q57 21 98 64t62.5 99t22.5 121.5t-23 131.5q-19 53 -50.5 96t-71.5 73t-85.5 46.5t-92.5 16.5q-45 0 -87 -15q-57 -21 -98 -64t-62.5 -99t-22.5 -121.5t22 -131.5q19 -53 51 -96t71.5 -73t85.5 -46.5t93 -16.5q44 0 87 15z" />
    <glyph glyph-name="Otilde" unicode="&#xd5;" horiz-adv-x="736" 
d="M419 845q16 0 26.5 3t16.5 6q8 4 12 9q-7 -15 -15 -27q-8 -10 -17.5 -18.5t-22.5 -9.5q-12 -1 -24.5 2t-26 7.5t-27.5 8.5t-30 4q-10 0 -19 -3t-16 -7q-8 -5 -15 -11q4 16 12 29q8 11 19.5 19.5t28.5 8.5q16 0 29 -3.5t25 -7t23 -7t21 -3.5zM368 700q72 0 135.5 -27.5
t110.5 -75t74.5 -111.5t27.5 -136t-27.5 -136t-74.5 -111.5t-110.5 -75t-135.5 -27.5t-135.5 27.5t-110.5 75t-74.5 111.5t-27.5 136t27.5 136t74.5 111.5t110.5 75t135.5 27.5zM484 36q57 21 98 64t62.5 99t22.5 121.5t-23 131.5q-19 53 -50.5 96t-71.5 73t-85.5 46.5
t-92.5 16.5q-45 0 -87 -15q-57 -21 -98 -64t-62.5 -99t-22.5 -121.5t22 -131.5q19 -53 51 -96t71.5 -73t85.5 -46.5t93 -16.5q44 0 87 15z" />
    <glyph glyph-name="Odieresis" unicode="&#xd6;" horiz-adv-x="736" 
d="M307 870q18 0 30.5 -12.5t12.5 -29.5t-12.5 -29.5t-30.5 -12.5q-17 0 -29.5 12.5t-12.5 29.5t12.5 29.5t29.5 12.5zM429 870q17 0 29.5 -12.5t12.5 -29.5t-12.5 -29.5t-29.5 -12.5t-29.5 12.5t-12.5 29.5t12.5 29.5t29.5 12.5zM368 700q72 0 135.5 -27.5t110.5 -75
t74.5 -111.5t27.5 -136t-27.5 -136t-74.5 -111.5t-110.5 -75t-135.5 -27.5t-135.5 27.5t-110.5 75t-74.5 111.5t-27.5 136t27.5 136t74.5 111.5t110.5 75t135.5 27.5zM484 36q57 21 98 64t62.5 99t22.5 121.5t-23 131.5q-19 53 -50.5 96t-71.5 73t-85.5 46.5t-92.5 16.5
q-45 0 -87 -15q-57 -21 -98 -64t-62.5 -99t-22.5 -121.5t22 -131.5q19 -53 51 -96t71.5 -73t85.5 -46.5t93 -16.5q44 0 87 15z" />
    <glyph glyph-name="multiply" unicode="&#xd7;" horiz-adv-x="298" 
d="M278 430q-26 -20 -50 -39.5t-46 -40.5q23 -23 47 -42.5t49 -37.5l-49 -49q-38 53 -79 97q-46 -48 -81 -97l-49 49q52 37 98 80q-45 44 -98 80l49 49q20 -26 40 -50t41 -47q43 46 79 97z" />
    <glyph glyph-name="Oslash" unicode="&#xd8;" horiz-adv-x="736" 
d="M541 654q39 -22 71.5 -54.5t55.5 -71.5t35.5 -84t12.5 -94q0 -72 -27.5 -136t-74.5 -111.5t-110.5 -75t-135.5 -27.5q-39 0 -76 8.5t-71 24.5l-3 -6q-15 -30 -20 -47t-6 -26q0 -9 4 -12h-56q8 2 18 12q8 8 20.5 25t27.5 47l6 11q-43 22 -78 54t-60.5 72.5t-39.5 88
t-14 98.5q0 72 27.5 136t74.5 111.5t110.5 75t135.5 27.5q45 0 86 -10.5t78 -30.5l1 2q17 31 22 48t5 25q0 9 -5 11h55q-8 -2 -18 -12q-8 -8 -20 -25t-28 -47zM96 253q21 -58 55.5 -103t79.5 -76l284 552q-38 28 -82 43t-90 15q-44 0 -86 -15q-57 -21 -98 -64t-62.5 -99
t-22.5 -121.5t22 -131.5zM484 36q57 20 98 63t62.5 99.5t22.5 122t-23 130.5q-19 54 -50 96.5t-71 72.5l-283 -551q35 -23 75 -35.5t81 -12.5q45 0 88 15z" />
    <glyph glyph-name="Ugrave" unicode="&#xd9;" horiz-adv-x="466" 
d="M253 894q-3 -13 -2.5 -29.5t1.5 -31.5t3 -25l2 -10l-71 96h67zM446 700q-6 -2 -11 -10q-4 -7 -7.5 -22t-3.5 -42v-396q0 -66 -9.5 -110t-29 -70.5t-49.5 -38t-72 -11.5q-41 0 -78.5 9.5t-66 35t-45.5 69.5t-17 112v346q0 42 -6 66.5t-13 38.5q-8 16 -18 22h124
q-10 -6 -18 -21q-8 -13 -13.5 -38t-5.5 -67v-347q0 -63 11.5 -105.5t32 -68t49.5 -36t64 -10.5t62.5 10t46 35t29 67t10.5 106l1 403q0 26 -3.5 40.5t-7.5 21.5q-6 9 -12 11h56z" />
    <glyph glyph-name="Uacute" unicode="&#xda;" horiz-adv-x="466" 
d="M209 798q3 18 4 35q2 15 2 31.5t-3 29.5h68zM446 700q-6 -2 -11 -10q-4 -7 -7.5 -22t-3.5 -42v-396q0 -66 -9.5 -110t-29 -70.5t-49.5 -38t-72 -11.5q-41 0 -78.5 9.5t-66 35t-45.5 69.5t-17 112v346q0 42 -6 66.5t-13 38.5q-8 16 -18 22h124q-10 -6 -18 -21
q-8 -13 -13.5 -38t-5.5 -67v-347q0 -63 11.5 -105.5t32 -68t49.5 -36t64 -10.5t62.5 10t46 35t29 67t10.5 106l1 403q0 26 -3.5 40.5t-7.5 21.5q-6 9 -12 11h56z" />
    <glyph glyph-name="Ucircumflex" unicode="&#xdb;" horiz-adv-x="466" 
d="M338 792h-54q-21 20 -31 41t-21 47q-11 -26 -19.5 -47t-31.5 -41h-54l105 96zM446 700q-6 -2 -11 -10q-4 -7 -7.5 -22t-3.5 -42v-396q0 -66 -9.5 -110t-29 -70.5t-49.5 -38t-72 -11.5q-41 0 -78.5 9.5t-66 35t-45.5 69.5t-17 112v346q0 42 -6 66.5t-13 38.5q-8 16 -18 22
h124q-10 -6 -18 -21q-8 -13 -13.5 -38t-5.5 -67v-347q0 -63 11.5 -105.5t32 -68t49.5 -36t64 -10.5t62.5 10t46 35t29 67t10.5 106l1 403q0 26 -3.5 40.5t-7.5 21.5q-6 9 -12 11h56z" />
    <glyph glyph-name="Udieresis" unicode="&#xdc;" horiz-adv-x="466" 
d="M172 870q18 0 30.5 -12.5t12.5 -29.5t-12.5 -29.5t-30.5 -12.5q-17 0 -29.5 12.5t-12.5 29.5t12.5 29.5t29.5 12.5zM294 870q17 0 29.5 -12.5t12.5 -29.5t-12.5 -29.5t-29.5 -12.5t-29.5 12.5t-12.5 29.5t12.5 29.5t29.5 12.5zM446 700q-6 -2 -11 -10q-4 -7 -7.5 -22
t-3.5 -42v-396q0 -66 -9.5 -110t-29 -70.5t-49.5 -38t-72 -11.5q-41 0 -78.5 9.5t-66 35t-45.5 69.5t-17 112v346q0 42 -6 66.5t-13 38.5q-8 16 -18 22h124q-10 -6 -18 -21q-8 -13 -13.5 -38t-5.5 -67v-347q0 -63 11.5 -105.5t32 -68t49.5 -36t64 -10.5t62.5 10t46 35t29 67
t10.5 106l1 403q0 26 -3.5 40.5t-7.5 21.5q-6 9 -12 11h56z" />
    <glyph glyph-name="Yacute" unicode="&#xdd;" horiz-adv-x="553" 
d="M252 798q3 18 4 35q2 15 2 31.5t-3 29.5h68zM533 700q-7 -2 -16 -10q-8 -7 -19.5 -22t-25.5 -42l-164 -311v-193q0 -41 5.5 -65t13.5 -37q8 -15 18 -21h-124q10 6 18 21q7 13 13 37t6 65v114l203 391q14 26 18 40.5t4 21.5q-1 9 -6 11h56zM261 407q18 -37 17.5 -63.5
t-9.5 -48.5l-145 277q-22 42 -41 66.5t-33 38.5q-17 16 -30 22h124q-7 -6 -7 -21q0 -13 7.5 -38t29.5 -67z" />
    <glyph glyph-name="Thorn" unicode="&#xde;" horiz-adv-x="604" 
d="M326 612q53 0 100 -20.5t82 -56t55.5 -83t20.5 -101.5t-20.5 -101.5t-55.5 -83t-82 -56t-100 -20.5q-69 0 -126.5 33t-92.5 89v-85q0 -42 5.5 -66.5t13.5 -38.5q8 -15 18 -21h-124q10 6 18 22q7 14 13 38.5t6 66.5v450q0 41 -6 65t-13 37q-8 15 -18 21h124
q-10 -6 -18 -21q-8 -13 -13.5 -37t-5.5 -65v-88q35 55 92.5 88.5t126.5 33.5zM326 96q45 0 81.5 20t62 54.5t39 81t13.5 99.5t-13.5 99t-39 80.5t-62 54.5t-81.5 20t-84 -19.5t-69 -53t-47.5 -79t-18.5 -97.5v-10q1 -52 18.5 -97.5t47.5 -79.5t69 -53.5t84 -19.5z" />
    <glyph glyph-name="germandbls" unicode="&#xdf;" horiz-adv-x="491" 
d="M202 450q58 -5 107 -19.5t85 -41t56.5 -67t20.5 -97.5q0 -64 -22.5 -106.5t-63.5 -68t-97 -36.5t-124 -13v13q54 3 100 15.5t80.5 37t54 63.5t19.5 95q0 61 -23.5 102.5t-63.5 67t-94 36.5t-116 11h-64v11h70q15 0 45.5 4t61 16t53 35t22.5 62q0 47 -13.5 72.5t-33 37
t-42 13t-40.5 1.5q-25 0 -39.5 -7.5t-22 -22.5t-9.5 -36.5t-2 -49.5v-35q0 -32 -13.5 -46t-36.5 -14v95q-1 41 12 65.5t32.5 37.5t41.5 16.5t39 3.5q52 0 86.5 -6.5t55.5 -21.5t30 -40t9 -63q0 -30 -11.5 -51.5t-32.5 -35.5t-50.5 -22t-66.5 -11zM107 127q0 -41 5 -65.5
t11 -38t11 -18t4 -4.5h-118q10 6 18 22q7 14 13 38.5t6 66.5v289q32 0 41 -17t9 -63v-210z" />
    <glyph glyph-name="agrave" unicode="&#xe0;" horiz-adv-x="543" 
d="M267 894q-3 -13 -2.5 -29.5t1.5 -31.5t3 -25l2 -10l-71 96h67zM399 0q9 6 13 21q3 14 2 38.5t-12 66.5l-54 200h-212l-68 -252q-7 -26 -8.5 -40.5t-0.5 -22.5q2 -9 6 -11h-45q5 2 11 11q5 8 11.5 22.5t14.5 40.5l150 553q7 25 8 39.5t0 22t-3.5 9.5l-2.5 2h23
q26 0 40.5 -4.5t23.5 -18t16 -37.5t18 -63l56 -209q-26 0 -42 15.5t-26 53.5l-38 140q-11 41 -22.5 65t-20.5 37q-9 -16 -19 -53l-79 -291l207 -1q21 0 37 -7.5t27 -43.5l42 -156q11 -42 23.5 -66.5t23.5 -38.5q12 -16 24 -22h-124z" />
    <glyph glyph-name="aacute" unicode="&#xe1;" horiz-adv-x="543" 
d="M223 798q3 18 4 35q2 15 2 31.5t-3 29.5h68zM399 0q9 6 13 21q3 14 2 38.5t-12 66.5l-54 200h-212l-68 -252q-7 -26 -8.5 -40.5t-0.5 -22.5q2 -9 6 -11h-45q5 2 11 11q5 8 11.5 22.5t14.5 40.5l150 553q7 25 8 39.5t0 22t-3.5 9.5l-2.5 2h23q26 0 40.5 -4.5t23.5 -18
t16 -37.5t18 -63l56 -209q-26 0 -42 15.5t-26 53.5l-38 140q-11 41 -22.5 65t-20.5 37q-9 -16 -19 -53l-79 -291l207 -1q21 0 37 -7.5t27 -43.5l42 -156q11 -42 23.5 -66.5t23.5 -38.5q12 -16 24 -22h-124z" />
    <glyph glyph-name="acircumflex" unicode="&#xe2;" horiz-adv-x="543" 
d="M355 737h-54q-21 20 -31 41t-21 47q-11 -26 -19.5 -47t-31.5 -41h-54l105 96zM399 0q9 6 13 21q3 14 2 38.5t-12 66.5l-54 200h-212l-68 -252q-7 -26 -8.5 -40.5t-0.5 -22.5q2 -9 6 -11h-45q5 2 11 11q5 8 11.5 22.5t14.5 40.5l150 553q7 25 8 39.5t0 22t-3.5 9.5l-2.5 2
h23q26 0 40.5 -4.5t23.5 -18t16 -37.5t18 -63l56 -209q-26 0 -42 15.5t-26 53.5l-38 140q-11 41 -22.5 65t-20.5 37q-9 -16 -19 -53l-79 -291l207 -1q21 0 37 -7.5t27 -43.5l42 -156q11 -42 23.5 -66.5t23.5 -38.5q12 -16 24 -22h-124z" />
    <glyph glyph-name="atilde" unicode="&#xe3;" horiz-adv-x="543" 
d="M298 845q16 0 26.5 3t16.5 6q8 4 12 9q-7 -15 -15 -27q-8 -10 -17.5 -18.5t-22.5 -9.5q-12 -1 -24.5 2t-26 7.5t-27.5 8.5t-30 4q-10 0 -19 -3t-16 -7q-8 -5 -15 -11q4 16 12 29q8 11 19.5 19.5t28.5 8.5q16 0 29 -3.5t25 -7t23 -7t21 -3.5zM399 0q9 6 13 21q3 14 2 38.5
t-12 66.5l-54 200h-212l-68 -252q-7 -26 -8.5 -40.5t-0.5 -22.5q2 -9 6 -11h-45q5 2 11 11q5 8 11.5 22.5t14.5 40.5l150 553q7 25 8 39.5t0 22t-3.5 9.5l-2.5 2h23q26 0 40.5 -4.5t23.5 -18t16 -37.5t18 -63l56 -209q-26 0 -42 15.5t-26 53.5l-38 140q-11 41 -22.5 65
t-20.5 37q-9 -16 -19 -53l-79 -291l207 -1q21 0 37 -7.5t27 -43.5l42 -156q11 -42 23.5 -66.5t23.5 -38.5q12 -16 24 -22h-124z" />
    <glyph glyph-name="adieresis" unicode="&#xe4;" horiz-adv-x="543" 
d="M186 870q18 0 30.5 -12.5t12.5 -29.5t-12.5 -29.5t-30.5 -12.5q-17 0 -29.5 12.5t-12.5 29.5t12.5 29.5t29.5 12.5zM308 870q17 0 29.5 -12.5t12.5 -29.5t-12.5 -29.5t-29.5 -12.5t-29.5 12.5t-12.5 29.5t12.5 29.5t29.5 12.5zM399 0q9 6 13 21q3 14 2 38.5t-12 66.5
l-54 200h-212l-68 -252q-7 -26 -8.5 -40.5t-0.5 -22.5q2 -9 6 -11h-45q5 2 11 11q5 8 11.5 22.5t14.5 40.5l150 553q7 25 8 39.5t0 22t-3.5 9.5l-2.5 2h23q26 0 40.5 -4.5t23.5 -18t16 -37.5t18 -63l56 -209q-26 0 -42 15.5t-26 53.5l-38 140q-11 41 -22.5 65t-20.5 37
q-9 -16 -19 -53l-79 -291l207 -1q21 0 37 -7.5t27 -43.5l42 -156q11 -42 23.5 -66.5t23.5 -38.5q12 -16 24 -22h-124z" />
    <glyph glyph-name="aring" unicode="&#xe5;" horiz-adv-x="543" 
d="M247 894q22 0 37.5 -15.5t15.5 -37.5t-15.5 -37.5t-37.5 -15.5t-37.5 15.5t-15.5 37.5t15.5 37.5t37.5 15.5zM247 811q13 0 21.5 9t8.5 21q0 13 -8.5 21.5t-21.5 8.5q-12 0 -21 -8.5t-9 -21.5q0 -12 9 -21t21 -9zM399 0q9 6 13 21q3 14 2 38.5t-12 66.5l-54 200h-212
l-68 -252q-7 -26 -8.5 -40.5t-0.5 -22.5q2 -9 6 -11h-45q5 2 11 11q5 8 11.5 22.5t14.5 40.5l150 553q7 25 8 39.5t0 22t-3.5 9.5l-2.5 2h23q26 0 40.5 -4.5t23.5 -18t16 -37.5t18 -63l56 -209q-26 0 -42 15.5t-26 53.5l-38 140q-11 41 -22.5 65t-20.5 37q-9 -16 -19 -53
l-79 -291l207 -1q21 0 37 -7.5t27 -43.5l42 -156q11 -42 23.5 -66.5t23.5 -38.5q12 -16 24 -22h-124z" />
    <glyph glyph-name="ae" unicode="&#xe6;" horiz-adv-x="622" 
d="M594 589q-1 29 -14 52q-11 20 -35 36t-71 16h-143q-8 -9 -17.5 -35t-9.5 -80v-34q0 -32 -11.5 -46t-39.5 -14v94q0 39 -5 62.5t-12 37.5q-5 -8 -9 -20.5t-9 -30.5l-79 -291h114v97q0 22 18.5 25t50.5 3q47 0 71 10t35 22q13 14 14 32h8v-137h-8q-1 18 -14 33
q-11 12 -35 22t-71 10h-18v-326q0 -56 9.5 -82.5t17.5 -35.5h143q47 0 71 16.5t35 36.5q13 23 14 52h8v-113h-386q10 6 19 22q7 14 12.5 38.5t5.5 66.5v199h-117l-68 -252q-7 -26 -8.5 -40.5t-0.5 -22.5q2 -9 6 -11h-45q5 2 11 11q5 8 11.5 22.5t14.5 40.5l150 553
q7 25 8 39.5t0 22t-3.5 9.5l-2.5 2h393v-112h-8z" />
    <glyph glyph-name="ccedilla" unicode="&#xe7;" horiz-adv-x="669" 
d="M649 156q-9 -32 -34.5 -60t-62.5 -49t-81 -33t-90 -14l-4 -11q16 -3 27 -15.5t11 -29.5q0 -19 -13.5 -32t-32.5 -13q-17 0 -30 11t-15 28h20q5 -19 25 -19q11 0 20.5 6t9.5 23q0 20 -14.5 31.5t-28.5 6.5l5 14q-71 2 -133 30t-108.5 75.5t-73 110.5t-26.5 134
q0 72 27.5 136t75 111.5t111.5 75t136 27.5q84 0 154.5 -36t118.5 -96l-53 -28q-15 32 -37.5 60t-50.5 48t-61 31.5t-71 11.5q-61 0 -115 -27t-94.5 -73t-63.5 -108t-23 -133q0 -70 22.5 -131.5t62 -107.5t92.5 -73t113 -29l4 11h20l-4 -11q37 2 72 14.5t63.5 33.5
t49.5 50.5t31 66.5z" />
    <glyph glyph-name="egrave" unicode="&#xe8;" horiz-adv-x="426" 
d="M238 894q-3 -13 -2.5 -29.5t1.5 -31.5t3 -25l2 -10l-71 96h67zM406 700v-113h-8q-1 29 -14 53q-11 20 -35.5 36t-71.5 16h-142q-8 -9 -18 -35t-10 -80v-34q0 -32 -11 -46t-39 -14v94q0 41 -6 65t-13 37q-8 15 -18 21h386zM277 8q47 0 71.5 16.5t35.5 36.5q13 23 14 52h8
v-113h-386q10 6 18 22q7 14 13 38.5t6 66.5v305q0 22 18 25t50 3q47 0 71.5 10t35.5 22q13 14 14 32h8v-137h-8q-1 18 -14 33q-11 12 -35.5 22t-71.5 10h-18v-326q0 -56 10 -82.5t18 -35.5h142z" />
    <glyph glyph-name="eacute" unicode="&#xe9;" horiz-adv-x="426" 
d="M194 798q3 18 4 35q2 15 2 31.5t-3 29.5h68zM406 700v-113h-8q-1 29 -14 53q-11 20 -35.5 36t-71.5 16h-142q-8 -9 -18 -35t-10 -80v-34q0 -32 -11 -46t-39 -14v94q0 41 -6 65t-13 37q-8 15 -18 21h386zM277 8q47 0 71.5 16.5t35.5 36.5q13 23 14 52h8v-113h-386
q10 6 18 22q7 14 13 38.5t6 66.5v305q0 22 18 25t50 3q47 0 71.5 10t35.5 22q13 14 14 32h8v-137h-8q-1 18 -14 33q-11 12 -35.5 22t-71.5 10h-18v-326q0 -56 10 -82.5t18 -35.5h142z" />
    <glyph glyph-name="ecircumflex" unicode="&#xea;" horiz-adv-x="426" 
d="M324 738h-54q-21 20 -31 41t-21 47q-11 -26 -19.5 -47t-31.5 -41h-54l105 96zM406 700v-113h-8q-1 29 -14 53q-11 20 -35.5 36t-71.5 16h-142q-8 -9 -18 -35t-10 -80v-34q0 -32 -11 -46t-39 -14v94q0 41 -6 65t-13 37q-8 15 -18 21h386zM277 8q47 0 71.5 16.5t35.5 36.5
q13 23 14 52h8v-113h-386q10 6 18 22q7 14 13 38.5t6 66.5v305q0 22 18 25t50 3q47 0 71.5 10t35.5 22q13 14 14 32h8v-137h-8q-1 18 -14 33q-11 12 -35.5 22t-71.5 10h-18v-326q0 -56 10 -82.5t18 -35.5h142z" />
    <glyph glyph-name="edieresis" unicode="&#xeb;" horiz-adv-x="426" 
d="M157 870q18 0 30.5 -12.5t12.5 -29.5t-12.5 -29.5t-30.5 -12.5q-17 0 -29.5 12.5t-12.5 29.5t12.5 29.5t29.5 12.5zM279 870q17 0 29.5 -12.5t12.5 -29.5t-12.5 -29.5t-29.5 -12.5t-29.5 12.5t-12.5 29.5t12.5 29.5t29.5 12.5zM406 700v-113h-8q-1 29 -14 53
q-11 20 -35.5 36t-71.5 16h-142q-8 -9 -18 -35t-10 -80v-34q0 -32 -11 -46t-39 -14v94q0 41 -6 65t-13 37q-8 15 -18 21h386zM277 8q47 0 71.5 16.5t35.5 36.5q13 23 14 52h8v-113h-386q10 6 18 22q7 14 13 38.5t6 66.5v305q0 22 18 25t50 3q47 0 71.5 10t35.5 22
q13 14 14 32h8v-137h-8q-1 18 -14 33q-11 12 -35.5 22t-71.5 10h-18v-326q0 -56 10 -82.5t18 -35.5h142z" />
    <glyph glyph-name="igrave" unicode="&#xec;" horiz-adv-x="164" 
d="M102 894q-3 -13 -2.5 -29.5t1.5 -31.5t3 -25l2 -10l-71 96h67zM107 126q0 -42 5.5 -66.5t13.5 -38.5q8 -15 18 -21h-124q10 6 18 22q7 14 13 38.5t6 66.5v450q0 41 -6 65t-13 37q-8 15 -18 21h124q-10 -6 -18 -21q-8 -13 -13.5 -37t-5.5 -65v-451z" />
    <glyph glyph-name="iacute" unicode="&#xed;" horiz-adv-x="164" 
d="M58 798q3 18 4 35q2 15 2 31.5t-3 29.5h68zM107 126q0 -42 5.5 -66.5t13.5 -38.5q8 -15 18 -21h-124q10 6 18 22q7 14 13 38.5t6 66.5v450q0 41 -6 65t-13 37q-8 15 -18 21h124q-10 -6 -18 -21q-8 -13 -13.5 -37t-5.5 -65v-451z" />
    <glyph glyph-name="icircumflex" unicode="&#xee;" horiz-adv-x="164" 
d="M187 792h-54q-21 20 -31 41t-21 47q-11 -26 -19.5 -47t-31.5 -41h-54l105 96zM107 126q0 -42 5.5 -66.5t13.5 -38.5q8 -15 18 -21h-124q10 6 18 22q7 14 13 38.5t6 66.5v450q0 41 -6 65t-13 37q-8 15 -18 21h124q-10 -6 -18 -21q-8 -13 -13.5 -37t-5.5 -65v-451z" />
    <glyph glyph-name="idieresis" unicode="&#xef;" horiz-adv-x="164" 
d="M21 870q18 0 30.5 -12.5t12.5 -29.5t-12.5 -29.5t-30.5 -12.5q-17 0 -29.5 12.5t-12.5 29.5t12.5 29.5t29.5 12.5zM143 870q17 0 29.5 -12.5t12.5 -29.5t-12.5 -29.5t-29.5 -12.5t-29.5 12.5t-12.5 29.5t12.5 29.5t29.5 12.5zM107 126q0 -42 5.5 -66.5t13.5 -38.5
q8 -15 18 -21h-124q10 6 18 22q7 14 13 38.5t6 66.5v450q0 41 -6 65t-13 37q-8 15 -18 21h124q-10 -6 -18 -21q-8 -13 -13.5 -37t-5.5 -65v-451z" />
    <glyph glyph-name="eth" unicode="&#xf0;" horiz-adv-x="736" 
d="M233 886q88 -49 174.5 -103t155 -118.5t111 -141.5t42.5 -173q0 -72 -27.5 -136t-74.5 -111.5t-110.5 -75t-135.5 -27.5t-135.5 27.5t-110.5 75t-74.5 111.5t-27.5 136t27.5 136t74.5 111.5t110.5 75t135.5 27.5q59 0 111 -18q-30 28 -64 55t-68 52t-66.5 47t-60.5 40
l-92 -71l-1 2l88 72q-21 14 -38 24.5t-30 18.5q-15 8 -26 15l5 8l50 -28t51 -28l71 58l7 -6zM484 36q57 21 98 64t62.5 99t22.5 121.5t-23 131.5q-19 53 -50.5 96t-71.5 73t-85.5 46.5t-92.5 16.5q-45 0 -87 -15q-57 -21 -98 -64t-62.5 -99t-22.5 -121.5t22 -131.5
q19 -53 51 -96t71.5 -73t85.5 -46.5t93 -16.5q44 0 87 15z" />
    <glyph glyph-name="ntilde" unicode="&#xf1;" horiz-adv-x="424" 
d="M263 845q16 0 26.5 3t16.5 6q8 4 12 9q-7 -15 -15 -27q-8 -10 -17.5 -18.5t-22.5 -9.5q-12 -1 -24.5 2t-26 7.5t-27.5 8.5t-30 4q-10 0 -19 -3t-16 -7q-8 -5 -15 -11q4 16 12 29q8 11 19.5 19.5t28.5 8.5q16 0 29 -3.5t25 -7t23 -7t21 -3.5zM404 700q-8 -2 -13 -10
q-5 -7 -9.5 -22t-4.5 -42v-626h-11q-81 181 -147 324q-28 62 -54.5 121t-48.5 106.5t-36 78t-17 33.5q-3 -15 -3 -37v-552q0 -26 4 -40.5t9 -22.5q6 -9 13 -11h-66q8 2 14 11q5 8 9.5 22.5t4.5 40.5l1 553q0 26 -4.5 40.5t-9.5 21.5q-7 9 -15 11h129q-8 -6 -11 -21
q-2 -13 0.5 -37t16.5 -65l211 -462v512q0 26 -3.5 40.5t-7.5 21.5q-6 9 -12 11h61z" />
    <glyph glyph-name="ograve" unicode="&#xf2;" horiz-adv-x="736" 
d="M388 894q-3 -13 -2.5 -29.5t1.5 -31.5t3 -25l2 -10l-71 96h67zM368 700q72 0 135.5 -27.5t110.5 -75t74.5 -111.5t27.5 -136t-27.5 -136t-74.5 -111.5t-110.5 -75t-135.5 -27.5t-135.5 27.5t-110.5 75t-74.5 111.5t-27.5 136t27.5 136t74.5 111.5t110.5 75t135.5 27.5z
M484 36q57 21 98 64t62.5 99t22.5 121.5t-23 131.5q-19 53 -50.5 96t-71.5 73t-85.5 46.5t-92.5 16.5q-45 0 -87 -15q-57 -21 -98 -64t-62.5 -99t-22.5 -121.5t22 -131.5q19 -53 51 -96t71.5 -73t85.5 -46.5t93 -16.5q44 0 87 15z" />
    <glyph glyph-name="oacute" unicode="&#xf3;" horiz-adv-x="736" 
d="M344 798q3 18 4 35q2 15 2 31.5t-3 29.5h68zM368 700q72 0 135.5 -27.5t110.5 -75t74.5 -111.5t27.5 -136t-27.5 -136t-74.5 -111.5t-110.5 -75t-135.5 -27.5t-135.5 27.5t-110.5 75t-74.5 111.5t-27.5 136t27.5 136t74.5 111.5t110.5 75t135.5 27.5zM484 36q57 21 98 64
t62.5 99t22.5 121.5t-23 131.5q-19 53 -50.5 96t-71.5 73t-85.5 46.5t-92.5 16.5q-45 0 -87 -15q-57 -21 -98 -64t-62.5 -99t-22.5 -121.5t22 -131.5q19 -53 51 -96t71.5 -73t85.5 -46.5t93 -16.5q44 0 87 15z" />
    <glyph glyph-name="ocircumflex" unicode="&#xf4;" horiz-adv-x="736" 
d="M473 746h-54q-21 20 -31 41t-21 47q-11 -26 -19.5 -47t-31.5 -41h-54l105 96zM368 700q72 0 135.5 -27.5t110.5 -75t74.5 -111.5t27.5 -136t-27.5 -136t-74.5 -111.5t-110.5 -75t-135.5 -27.5t-135.5 27.5t-110.5 75t-74.5 111.5t-27.5 136t27.5 136t74.5 111.5t110.5 75
t135.5 27.5zM484 36q57 21 98 64t62.5 99t22.5 121.5t-23 131.5q-19 53 -50.5 96t-71.5 73t-85.5 46.5t-92.5 16.5q-45 0 -87 -15q-57 -21 -98 -64t-62.5 -99t-22.5 -121.5t22 -131.5q19 -53 51 -96t71.5 -73t85.5 -46.5t93 -16.5q44 0 87 15z" />
    <glyph glyph-name="otilde" unicode="&#xf5;" horiz-adv-x="736" 
d="M419 845q16 0 26.5 3t16.5 6q8 4 12 9q-7 -15 -15 -27q-8 -10 -17.5 -18.5t-22.5 -9.5q-12 -1 -24.5 2t-26 7.5t-27.5 8.5t-30 4q-10 0 -19 -3t-16 -7q-8 -5 -15 -11q4 16 12 29q8 11 19.5 19.5t28.5 8.5q16 0 29 -3.5t25 -7t23 -7t21 -3.5zM368 700q72 0 135.5 -27.5
t110.5 -75t74.5 -111.5t27.5 -136t-27.5 -136t-74.5 -111.5t-110.5 -75t-135.5 -27.5t-135.5 27.5t-110.5 75t-74.5 111.5t-27.5 136t27.5 136t74.5 111.5t110.5 75t135.5 27.5zM484 36q57 21 98 64t62.5 99t22.5 121.5t-23 131.5q-19 53 -50.5 96t-71.5 73t-85.5 46.5
t-92.5 16.5q-45 0 -87 -15q-57 -21 -98 -64t-62.5 -99t-22.5 -121.5t22 -131.5q19 -53 51 -96t71.5 -73t85.5 -46.5t93 -16.5q44 0 87 15z" />
    <glyph glyph-name="odieresis" unicode="&#xf6;" horiz-adv-x="736" 
d="M307 870q18 0 30.5 -12.5t12.5 -29.5t-12.5 -29.5t-30.5 -12.5q-17 0 -29.5 12.5t-12.5 29.5t12.5 29.5t29.5 12.5zM429 870q17 0 29.5 -12.5t12.5 -29.5t-12.5 -29.5t-29.5 -12.5t-29.5 12.5t-12.5 29.5t12.5 29.5t29.5 12.5zM368 700q72 0 135.5 -27.5t110.5 -75
t74.5 -111.5t27.5 -136t-27.5 -136t-74.5 -111.5t-110.5 -75t-135.5 -27.5t-135.5 27.5t-110.5 75t-74.5 111.5t-27.5 136t27.5 136t74.5 111.5t110.5 75t135.5 27.5zM484 36q57 21 98 64t62.5 99t22.5 121.5t-23 131.5q-19 53 -50.5 96t-71.5 73t-85.5 46.5t-92.5 16.5
q-45 0 -87 -15q-57 -21 -98 -64t-62.5 -99t-22.5 -121.5t22 -131.5q19 -53 51 -96t71.5 -73t85.5 -46.5t93 -16.5q44 0 87 15z" />
    <glyph glyph-name="divide" unicode="&#xf7;" horiz-adv-x="335" 
d="M169 392q-19 0 -32.5 13t-13.5 33q0 19 13.5 32.5t32.5 13.5q20 0 33 -13.5t13 -32.5q0 -20 -13 -33t-33 -13zM20 385q41 -5 79 -8t75 -3t72 3t69 8v-69q-37 7 -74 10t-74 3q-76 0 -147 -13v69zM169 308q20 0 33 -13t13 -33q0 -19 -13 -32.5t-33 -13.5q-19 0 -32.5 13.5
t-13.5 32.5q0 20 13.5 33t32.5 13z" />
    <glyph glyph-name="oslash" unicode="&#xf8;" horiz-adv-x="736" 
d="M541 654q39 -22 71.5 -54.5t55.5 -71.5t35.5 -84t12.5 -94q0 -72 -27.5 -136t-74.5 -111.5t-110.5 -75t-135.5 -27.5q-39 0 -76 8.5t-71 24.5l-3 -6q-15 -30 -20 -47t-6 -26q0 -9 4 -12h-56q8 2 18 12q8 8 20.5 25t27.5 47l6 11q-43 22 -78 54t-60.5 72.5t-39.5 88
t-14 98.5q0 72 27.5 136t74.5 111.5t110.5 75t135.5 27.5q45 0 86 -10.5t78 -30.5l1 2q17 31 22 48t5 25q0 9 -5 11h55q-8 -2 -18 -12q-8 -8 -20 -25t-28 -47zM96 253q21 -58 55.5 -103t79.5 -76l284 552q-38 28 -82 43t-90 15q-44 0 -86 -15q-57 -21 -98 -64t-62.5 -99
t-22.5 -121.5t22 -131.5zM484 36q57 20 98 63t62.5 99.5t22.5 122t-23 130.5q-19 54 -50 96.5t-71 72.5l-283 -551q35 -23 75 -35.5t81 -12.5q45 0 88 15z" />
    <glyph glyph-name="ugrave" unicode="&#xf9;" horiz-adv-x="466" 
d="M253 894q-3 -13 -2.5 -29.5t1.5 -31.5t3 -25l2 -10l-71 96h67zM446 700q-6 -2 -11 -10q-4 -7 -7.5 -22t-3.5 -42v-396q0 -66 -9.5 -110t-29 -70.5t-49.5 -38t-72 -11.5q-41 0 -78.5 9.5t-66 35t-45.5 69.5t-17 112v346q0 42 -6 66.5t-13 38.5q-8 16 -18 22h124
q-10 -6 -18 -21q-8 -13 -13.5 -38t-5.5 -67v-347q0 -63 11.5 -105.5t32 -68t49.5 -36t64 -10.5t62.5 10t46 35t29 67t10.5 106l1 403q0 26 -3.5 40.5t-7.5 21.5q-6 9 -12 11h56z" />
    <glyph glyph-name="uacute" unicode="&#xfa;" horiz-adv-x="466" 
d="M209 798q3 18 4 35q2 15 2 31.5t-3 29.5h68zM446 700q-6 -2 -11 -10q-4 -7 -7.5 -22t-3.5 -42v-396q0 -66 -9.5 -110t-29 -70.5t-49.5 -38t-72 -11.5q-41 0 -78.5 9.5t-66 35t-45.5 69.5t-17 112v346q0 42 -6 66.5t-13 38.5q-8 16 -18 22h124q-10 -6 -18 -21
q-8 -13 -13.5 -38t-5.5 -67v-347q0 -63 11.5 -105.5t32 -68t49.5 -36t64 -10.5t62.5 10t46 35t29 67t10.5 106l1 403q0 26 -3.5 40.5t-7.5 21.5q-6 9 -12 11h56z" />
    <glyph glyph-name="ucircumflex" unicode="&#xfb;" horiz-adv-x="466" 
d="M338 792h-54q-21 20 -31 41t-21 47q-11 -26 -19.5 -47t-31.5 -41h-54l105 96zM446 700q-6 -2 -11 -10q-4 -7 -7.5 -22t-3.5 -42v-396q0 -66 -9.5 -110t-29 -70.5t-49.5 -38t-72 -11.5q-41 0 -78.5 9.5t-66 35t-45.5 69.5t-17 112v346q0 42 -6 66.5t-13 38.5q-8 16 -18 22
h124q-10 -6 -18 -21q-8 -13 -13.5 -38t-5.5 -67v-347q0 -63 11.5 -105.5t32 -68t49.5 -36t64 -10.5t62.5 10t46 35t29 67t10.5 106l1 403q0 26 -3.5 40.5t-7.5 21.5q-6 9 -12 11h56z" />
    <glyph glyph-name="udieresis" unicode="&#xfc;" horiz-adv-x="466" 
d="M172 870q18 0 30.5 -12.5t12.5 -29.5t-12.5 -29.5t-30.5 -12.5q-17 0 -29.5 12.5t-12.5 29.5t12.5 29.5t29.5 12.5zM294 870q17 0 29.5 -12.5t12.5 -29.5t-12.5 -29.5t-29.5 -12.5t-29.5 12.5t-12.5 29.5t12.5 29.5t29.5 12.5zM446 700q-6 -2 -11 -10q-4 -7 -7.5 -22
t-3.5 -42v-396q0 -66 -9.5 -110t-29 -70.5t-49.5 -38t-72 -11.5q-41 0 -78.5 9.5t-66 35t-45.5 69.5t-17 112v346q0 42 -6 66.5t-13 38.5q-8 16 -18 22h124q-10 -6 -18 -21q-8 -13 -13.5 -38t-5.5 -67v-347q0 -63 11.5 -105.5t32 -68t49.5 -36t64 -10.5t62.5 10t46 35t29 67
t10.5 106l1 403q0 26 -3.5 40.5t-7.5 21.5q-6 9 -12 11h56z" />
    <glyph glyph-name="yacute" unicode="&#xfd;" horiz-adv-x="553" 
d="M274 790q3 18 4 35q2 15 2 31.5t-3 29.5h68zM533 700q-7 -2 -16 -10q-8 -7 -19.5 -22t-25.5 -42l-164 -311v-193q0 -41 5.5 -65t13.5 -37q8 -15 18 -21h-124q10 6 18 21q7 13 13 37t6 65v114l203 391q14 26 18 40.5t4 21.5q-1 9 -6 11h56zM261 407q18 -37 17.5 -63.5
t-9.5 -48.5l-145 277q-22 42 -41 66.5t-33 38.5q-17 16 -30 22h124q-7 -6 -7 -21q0 -13 7.5 -38t29.5 -67z" />
    <glyph glyph-name="thorn" unicode="&#xfe;" horiz-adv-x="604" 
d="M326 612q53 0 100 -20.5t82 -56t55.5 -83t20.5 -101.5t-20.5 -101.5t-55.5 -83t-82 -56t-100 -20.5q-69 0 -126.5 33t-92.5 89v-85q0 -42 5.5 -66.5t13.5 -38.5q8 -15 18 -21h-124q10 6 18 22q7 14 13 38.5t6 66.5v450q0 41 -6 65t-13 37q-8 15 -18 21h124
q-10 -6 -18 -21q-8 -13 -13.5 -37t-5.5 -65v-88q35 55 92.5 88.5t126.5 33.5zM326 96q45 0 81.5 20t62 54.5t39 81t13.5 99.5t-13.5 99t-39 80.5t-62 54.5t-81.5 20t-84 -19.5t-69 -53t-47.5 -79t-18.5 -97.5v-10q1 -52 18.5 -97.5t47.5 -79.5t69 -53.5t84 -19.5z" />
    <glyph glyph-name="ydieresis" unicode="&#xff;" horiz-adv-x="553" 
d="M215 870q18 0 30.5 -12.5t12.5 -29.5t-12.5 -29.5t-30.5 -12.5q-17 0 -29.5 12.5t-12.5 29.5t12.5 29.5t29.5 12.5zM337 870q17 0 29.5 -12.5t12.5 -29.5t-12.5 -29.5t-29.5 -12.5t-29.5 12.5t-12.5 29.5t12.5 29.5t29.5 12.5zM533 700q-7 -2 -16 -10q-8 -7 -19.5 -22
t-25.5 -42l-164 -311v-193q0 -41 5.5 -65t13.5 -37q8 -15 18 -21h-124q10 6 18 21q7 13 13 37t6 65v114l203 391q14 26 18 40.5t4 21.5q-1 9 -6 11h56zM261 407q18 -37 17.5 -63.5t-9.5 -48.5l-145 277q-22 42 -41 66.5t-33 38.5q-17 16 -30 22h124q-7 -6 -7 -21
q0 -13 7.5 -38t29.5 -67z" />
    <glyph glyph-name="Amacron" unicode="&#x100;" horiz-adv-x="543" 
d="M317 831l-4 -21l-64 1h-73l7 30zM399 0q9 6 13 21q3 14 2 38.5t-12 66.5l-54 200h-212l-68 -252q-7 -26 -8.5 -40.5t-0.5 -22.5q2 -9 6 -11h-45q5 2 11 11q5 8 11.5 22.5t14.5 40.5l150 553q7 25 8 39.5t0 22t-3.5 9.5l-2.5 2h23q26 0 40.5 -4.5t23.5 -18t16 -37.5
t18 -63l56 -209q-26 0 -42 15.5t-26 53.5l-38 140q-11 41 -22.5 65t-20.5 37q-9 -16 -19 -53l-79 -291l207 -1q21 0 37 -7.5t27 -43.5l42 -156q11 -42 23.5 -66.5t23.5 -38.5q12 -16 24 -22h-124z" />
    <glyph glyph-name="amacron" unicode="&#x101;" horiz-adv-x="543" 
d="M317 831l-4 -21l-64 1h-73l7 30zM399 0q9 6 13 21q3 14 2 38.5t-12 66.5l-54 200h-212l-68 -252q-7 -26 -8.5 -40.5t-0.5 -22.5q2 -9 6 -11h-45q5 2 11 11q5 8 11.5 22.5t14.5 40.5l150 553q7 25 8 39.5t0 22t-3.5 9.5l-2.5 2h23q26 0 40.5 -4.5t23.5 -18t16 -37.5
t18 -63l56 -209q-26 0 -42 15.5t-26 53.5l-38 140q-11 41 -22.5 65t-20.5 37q-9 -16 -19 -53l-79 -291l207 -1q21 0 37 -7.5t27 -43.5l42 -156q11 -42 23.5 -66.5t23.5 -38.5q12 -16 24 -22h-124z" />
    <glyph glyph-name="Abreve" unicode="&#x102;" horiz-adv-x="543" 
d="M322 781q-2 -17 -21.5 -28.5t-48.5 -11.5q-28 0 -47.5 11.5t-21.5 28.5h43q1 -3 2 -9t4 -12t8 -10.5t12 -4.5q8 0 12.5 4t7 10t3.5 12t1 10h46zM399 0q9 6 13 21q3 14 2 38.5t-12 66.5l-54 200h-212l-68 -252q-7 -26 -8.5 -40.5t-0.5 -22.5q2 -9 6 -11h-45q5 2 11 11
q5 8 11.5 22.5t14.5 40.5l150 553q7 25 8 39.5t0 22t-3.5 9.5l-2.5 2h23q26 0 40.5 -4.5t23.5 -18t16 -37.5t18 -63l56 -209q-26 0 -42 15.5t-26 53.5l-38 140q-11 41 -22.5 65t-20.5 37q-9 -16 -19 -53l-79 -291l207 -1q21 0 37 -7.5t27 -43.5l42 -156q11 -42 23.5 -66.5
t23.5 -38.5q12 -16 24 -22h-124z" />
    <glyph glyph-name="abreve" unicode="&#x103;" horiz-adv-x="543" 
d="M326 781q-2 -17 -21.5 -28.5t-48.5 -11.5q-28 0 -47.5 11.5t-21.5 28.5h43q1 -3 2 -9t4 -12t8 -10.5t12 -4.5q8 0 12.5 4t7 10t3.5 12t1 10h46zM399 0q9 6 13 21q3 14 2 38.5t-12 66.5l-54 200h-212l-68 -252q-7 -26 -8.5 -40.5t-0.5 -22.5q2 -9 6 -11h-45q5 2 11 11
q5 8 11.5 22.5t14.5 40.5l150 553q7 25 8 39.5t0 22t-3.5 9.5l-2.5 2h23q26 0 40.5 -4.5t23.5 -18t16 -37.5t18 -63l56 -209q-26 0 -42 15.5t-26 53.5l-38 140q-11 41 -22.5 65t-20.5 37q-9 -16 -19 -53l-79 -291l207 -1q21 0 37 -7.5t27 -43.5l42 -156q11 -42 23.5 -66.5
t23.5 -38.5q12 -16 24 -22h-124z" />
    <glyph glyph-name="Aogonek" unicode="&#x104;" horiz-adv-x="543" 
d="M400 0l5 5l2 4t3 5q2 10 3.5 18.5t1.5 19.5q-2 19 -5 37t-8 37l-54 200h-212l-68 -252q-2 -6 -3 -11l-2 -10t-1.5 -8.5t-1.5 -7.5t-1 -7.5v-5.5q0 -7 1 -10q0 -5 1 -6q0 -1 1 -3.5t3 -3.5v-1h-44l1 1q1 0 4 3q1 1 5 7q10 14 15.5 30t10.5 33l150 553q4 13 6 25
q1 5 1.5 10t1.5 9v13q-1 3 -1 9q-1 2 -1 3t-1 2l-2 2h21q48 0 61 -18q7 -10 14 -28.5t14 -47.5q2 -7 4.5 -14t4.5 -15l56 -209q-53 0 -68 69l-38 140q-22 78 -43 102q-9 -16 -19 -53l-79 -291l207 -1q19 0 37 -8q17 -9 27 -43l42 -156q3 -13 9.5 -31t14.5 -36t18.5 -33
t22.5 -22q1 -3 6 -5h-53l-2 -2q-5 -10 -5 -21q0 -21 22 -21q8 -2 12 3v-30h-5q-7 0 -16.5 2.5t-14.5 5.5q-10 5 -14 12q-6 7 -6 22q0 17 11 28v1h-52z" />
    <glyph glyph-name="aogonek" unicode="&#x105;" horiz-adv-x="543" 
d="M400 0l5 5l2 4t3 5q2 10 3.5 18.5t1.5 19.5q-2 19 -5 37t-8 37l-54 200h-212l-68 -252q-2 -6 -3 -11l-2 -10t-1.5 -8.5t-1.5 -7.5t-1 -7.5v-5.5q0 -7 1 -10q0 -5 1 -6q0 -1 1 -3.5t3 -3.5v-1h-44l1 1q1 0 4 3q1 1 5 7q10 14 15.5 30t10.5 33l150 553q4 13 6 25
q1 5 1.5 10t1.5 9v13q-1 3 -1 9q-1 2 -1 3t-1 2l-2 2h21q48 0 61 -18q7 -10 14 -28.5t14 -47.5q2 -7 4.5 -14t4.5 -15l56 -209q-53 0 -68 69l-38 140q-22 78 -43 102q-9 -16 -19 -53l-79 -291l207 -1q19 0 37 -8q17 -9 27 -43l42 -156q3 -13 9.5 -31t14.5 -36t18.5 -33
t22.5 -22q1 -3 6 -5h-51l-2 -2q-5 -10 -5 -21q0 -21 22 -21q8 -2 12 3v-30h-5q-7 0 -16.5 2.5t-14.5 5.5q-10 5 -14 12q-6 7 -6 22q0 17 11 28v1h-54z" />
    <glyph glyph-name="Cacute" unicode="&#x106;" horiz-adv-x="669" 
d="M346 798q3 18 4 35q2 15 2 31.5t-3 29.5h68zM649 156q-9 -33 -36 -61.5t-65.5 -49.5t-84.5 -33t-93 -12q-72 0 -136 27.5t-111.5 75t-75 111.5t-27.5 136t27.5 136t75 111.5t111.5 75t136 27.5q84 0 154.5 -36t118.5 -96l-53 -28q-15 32 -37.5 60t-50.5 48t-61 31.5
t-71 11.5q-61 0 -115 -27t-94.5 -73t-63.5 -108t-23 -133q0 -70 23 -132.5t63.5 -108.5t94.5 -73t115 -27q39 0 76 11.5t68 32.5t53.5 51.5t32.5 69.5z" />
    <glyph glyph-name="cacute" unicode="&#x107;" horiz-adv-x="669" 
d="M346 798q3 18 4 35q2 15 2 31.5t-3 29.5h68zM649 156q-9 -33 -36 -61.5t-65.5 -49.5t-84.5 -33t-93 -12q-72 0 -136 27.5t-111.5 75t-75 111.5t-27.5 136t27.5 136t75 111.5t111.5 75t136 27.5q84 0 154.5 -36t118.5 -96l-53 -28q-15 32 -37.5 60t-50.5 48t-61 31.5
t-71 11.5q-61 0 -115 -27t-94.5 -73t-63.5 -108t-23 -133q0 -70 23 -132.5t63.5 -108.5t94.5 -73t115 -27q39 0 76 11.5t68 32.5t53.5 51.5t32.5 69.5z" />
    <glyph glyph-name="Cdotaccent" unicode="&#x10a;" horiz-adv-x="669" 
d="M370 870q18 0 30.5 -12.5t12.5 -29.5t-12.5 -29.5t-30.5 -12.5q-17 0 -29.5 12.5t-12.5 29.5t12.5 29.5t29.5 12.5zM649 156q-9 -33 -36 -61.5t-65.5 -49.5t-84.5 -33t-93 -12q-72 0 -136 27.5t-111.5 75t-75 111.5t-27.5 136t27.5 136t75 111.5t111.5 75t136 27.5
q84 0 154.5 -36t118.5 -96l-53 -28q-15 32 -37.5 60t-50.5 48t-61 31.5t-71 11.5q-61 0 -115 -27t-94.5 -73t-63.5 -108t-23 -133q0 -70 23 -132.5t63.5 -108.5t94.5 -73t115 -27q39 0 76 11.5t68 32.5t53.5 51.5t32.5 69.5z" />
    <glyph glyph-name="cdotaccent" unicode="&#x10b;" horiz-adv-x="669" 
d="M370 870q18 0 30.5 -12.5t12.5 -29.5t-12.5 -29.5t-30.5 -12.5q-17 0 -29.5 12.5t-12.5 29.5t12.5 29.5t29.5 12.5zM649 156q-9 -33 -36 -61.5t-65.5 -49.5t-84.5 -33t-93 -12q-72 0 -136 27.5t-111.5 75t-75 111.5t-27.5 136t27.5 136t75 111.5t111.5 75t136 27.5
q84 0 154.5 -36t118.5 -96l-53 -28q-15 32 -37.5 60t-50.5 48t-61 31.5t-71 11.5q-61 0 -115 -27t-94.5 -73t-63.5 -108t-23 -133q0 -70 23 -132.5t63.5 -108.5t94.5 -73t115 -27q39 0 76 11.5t68 32.5t53.5 51.5t32.5 69.5z" />
    <glyph glyph-name="Ccaron" unicode="&#x10c;" horiz-adv-x="669" 
d="M475 888l-106 -96l-105 96h54q23 -20 31.5 -41t19.5 -47q11 26 21 47t31 41h54zM649 156q-9 -33 -36 -61.5t-65.5 -49.5t-84.5 -33t-93 -12q-72 0 -136 27.5t-111.5 75t-75 111.5t-27.5 136t27.5 136t75 111.5t111.5 75t136 27.5q84 0 154.5 -36t118.5 -96l-53 -28
q-15 32 -37.5 60t-50.5 48t-61 31.5t-71 11.5q-61 0 -115 -27t-94.5 -73t-63.5 -108t-23 -133q0 -70 23 -132.5t63.5 -108.5t94.5 -73t115 -27q39 0 76 11.5t68 32.5t53.5 51.5t32.5 69.5z" />
    <glyph glyph-name="ccaron" unicode="&#x10d;" horiz-adv-x="669" 
d="M475 888l-106 -96l-105 96h54q23 -20 31.5 -41t19.5 -47q11 26 21 47t31 41h54zM649 156q-9 -33 -36 -61.5t-65.5 -49.5t-84.5 -33t-93 -12q-72 0 -136 27.5t-111.5 75t-75 111.5t-27.5 136t27.5 136t75 111.5t111.5 75t136 27.5q84 0 154.5 -36t118.5 -96l-53 -28
q-15 32 -37.5 60t-50.5 48t-61 31.5t-71 11.5q-61 0 -115 -27t-94.5 -73t-63.5 -108t-23 -133q0 -70 23 -132.5t63.5 -108.5t94.5 -73t115 -27q39 0 76 11.5t68 32.5t53.5 51.5t32.5 69.5z" />
    <glyph glyph-name="Dcaron" unicode="&#x10e;" horiz-adv-x="491" 
d="M343 888l-106 -96l-105 96h54q23 -20 31.5 -41t19.5 -47q11 26 21 47t31 41h54zM139 700q73 0 134 -24.5t105 -69.5t68.5 -110t24.5 -146t-27.5 -146t-75 -110t-111 -69.5t-136.5 -24.5h-101q10 6 18 22q7 14 13 38.5t6 66.5v450q0 41 -6 65t-13 37q-8 15 -18 21h119z
M134 9q59 3 110.5 30.5t90 73.5t61 107t22.5 130t-19 130t-55 107.5t-88.5 74.5t-120.5 31q-8 -9 -18 -35t-10 -81v-451q0 -54 9.5 -80.5t17.5 -36.5z" />
    <glyph glyph-name="dcaron" unicode="&#x10f;" horiz-adv-x="514" 
d="M139 700q73 0 134 -24.5t105 -69.5t68.5 -110t24.5 -146t-27.5 -146t-75 -110t-111 -69.5t-136.5 -24.5h-101q10 6 18 22q7 14 13 38.5t6 66.5v450q0 41 -6 65t-13 37q-8 15 -18 21h119zM460 700q14 0 24 -10t10 -24q0 -17 -9 -36t-38 -25q3 2 5 6q2 3 2.5 8.5t-1.5 13.5
q-11 2 -19 11.5t-8 21.5q0 14 10 24t24 10zM134 9q59 3 110.5 30.5t90 73.5t61 107t22.5 130t-19 130t-55 107.5t-88.5 74.5t-120.5 31q-8 -9 -18 -35t-10 -81v-451q0 -54 9.5 -80.5t17.5 -36.5z" />
    <glyph glyph-name="Dcroat" unicode="&#x110;" horiz-adv-x="491" 
d="M57 577q0 23 -2.5 45.5t-10.5 44.5q-3 7 -6 12t-5 9q-6 7 -10 10l-1 1h-1l-1 1h119q78 0 139.5 -26.5t104.5 -73t65.5 -110.5t22.5 -140q0 -78 -26 -142.5t-72.5 -110.5t-111 -71.5t-140.5 -25.5h-100v1q1 0 3 2q2 1 9 10q5 8 11 22q8 23 10.5 46t2.5 46v200
q-36 -1 -72 -4.5t-72 -9.5v74q35 -5 70.5 -8t73.5 -3v201zM107 126q0 -12 1 -28t3.5 -33t8 -32t14.5 -24q66 5 119 35t89.5 77t56 106.5t19.5 122.5q0 67 -17.5 127t-53 106.5t-88.5 76t-124 33.5q-9 -9 -14.5 -24t-8.5 -31.5t-4 -32.5t-1 -28v-201q35 1 70 3.5t71 7.5v-74
q-35 6 -70.5 9t-70.5 5v-201z" />
    <glyph glyph-name="dcroat" unicode="&#x111;" horiz-adv-x="491" 
d="M57 577q0 23 -2.5 45.5t-10.5 44.5q-3 7 -6 12t-5 9q-6 7 -10 10l-1 1h-1l-1 1h119q78 0 139.5 -26.5t104.5 -73t65.5 -110.5t22.5 -140q0 -78 -26 -142.5t-72.5 -110.5t-111 -71.5t-140.5 -25.5h-100v1q1 0 3 2q2 1 9 10q5 8 11 22q8 23 10.5 46t2.5 46v200
q-36 -1 -72 -4.5t-72 -9.5v74q35 -5 70.5 -8t73.5 -3v201zM107 126q0 -12 1 -28t3.5 -33t8 -32t14.5 -24q66 5 119 35t89.5 77t56 106.5t19.5 122.5q0 67 -17.5 127t-53 106.5t-88.5 76t-124 33.5q-9 -9 -14.5 -24t-8.5 -31.5t-4 -32.5t-1 -28v-201q35 1 70 3.5t71 7.5v-74
q-35 6 -70.5 9t-70.5 5v-201z" />
    <glyph glyph-name="Emacron" unicode="&#x112;" horiz-adv-x="426" 
d="M283 831l-4 -21l-64 1h-73l7 30zM406 700v-113h-8q-1 29 -14 53q-11 20 -35.5 36t-71.5 16h-142q-8 -9 -18 -35t-10 -80v-34q0 -32 -11 -46t-39 -14v94q0 41 -6 65t-13 37q-8 15 -18 21h386zM277 8q47 0 71.5 16.5t35.5 36.5q13 23 14 52h8v-113h-386q10 6 18 22
q7 14 13 38.5t6 66.5v305q0 22 18 25t50 3q47 0 71.5 10t35.5 22q13 14 14 32h8v-137h-8q-1 18 -14 33q-11 12 -35.5 22t-71.5 10h-18v-326q0 -56 10 -82.5t18 -35.5h142z" />
    <glyph glyph-name="emacron" unicode="&#x113;" horiz-adv-x="426" 
d="M288 831l-4 -21l-64 1h-73l7 30zM406 700v-113h-8q-1 29 -14 53q-11 20 -35.5 36t-71.5 16h-142q-8 -9 -18 -35t-10 -80v-34q0 -32 -11 -46t-39 -14v94q0 41 -6 65t-13 37q-8 15 -18 21h386zM277 8q47 0 71.5 16.5t35.5 36.5q13 23 14 52h8v-113h-386q10 6 18 22
q7 14 13 38.5t6 66.5v305q0 22 18 25t50 3q47 0 71.5 10t35.5 22q13 14 14 32h8v-137h-8q-1 18 -14 33q-11 12 -35.5 22t-71.5 10h-18v-326q0 -56 10 -82.5t18 -35.5h142z" />
    <glyph glyph-name="Edotaccent" unicode="&#x116;" horiz-adv-x="426" 
d="M213 870q18 0 30.5 -12.5t12.5 -29.5t-12.5 -29.5t-30.5 -12.5q-17 0 -29.5 12.5t-12.5 29.5t12.5 29.5t29.5 12.5zM406 700v-113h-8q-1 29 -14 53q-11 20 -35.5 36t-71.5 16h-142q-8 -9 -18 -35t-10 -80v-34q0 -32 -11 -46t-39 -14v94q0 41 -6 65t-13 37q-8 15 -18 21
h386zM277 8q47 0 71.5 16.5t35.5 36.5q13 23 14 52h8v-113h-386q10 6 18 22q7 14 13 38.5t6 66.5v305q0 22 18 25t50 3q47 0 71.5 10t35.5 22q13 14 14 32h8v-137h-8q-1 18 -14 33q-11 12 -35.5 22t-71.5 10h-18v-326q0 -56 10 -82.5t18 -35.5h142z" />
    <glyph glyph-name="edotaccent" unicode="&#x117;" horiz-adv-x="426" 
d="M218 870q18 0 30.5 -12.5t12.5 -29.5t-12.5 -29.5t-30.5 -12.5q-17 0 -29.5 12.5t-12.5 29.5t12.5 29.5t29.5 12.5zM406 700v-113h-8q-1 29 -14 53q-11 20 -35.5 36t-71.5 16h-142q-8 -9 -18 -35t-10 -80v-34q0 -32 -11 -46t-39 -14v94q0 41 -6 65t-13 37q-8 15 -18 21
h386zM277 8q47 0 71.5 16.5t35.5 36.5q13 23 14 52h8v-113h-386q10 6 18 22q7 14 13 38.5t6 66.5v305q0 22 18 25t50 3q47 0 71.5 10t35.5 22q13 14 14 32h8v-137h-8q-1 18 -14 33q-11 12 -35.5 22t-71.5 10h-18v-326q0 -56 10 -82.5t18 -35.5h142z" />
    <glyph glyph-name="Eogonek" unicode="&#x118;" horiz-adv-x="426" 
d="M406 700v-113h-8l-1 11q-8 52 -40 73t-80 21h-142q-9 -7 -14.5 -22t-8.5 -32.5t-4 -33.5t-1 -27v-34q0 -63 -50 -60v94q0 23 -2.5 45.5t-10.5 44.5q-3 7 -6 12t-5 9q-6 7 -10 10l-1 1h-1l-1 1h386zM21 0v1q1 0 3 2q2 1 9 10q5 8 11 22q8 23 10.5 46t2.5 46v305
q0 20 17 25t45 3h6q14 0 32 1.5t35 7t30.5 15t19.5 24.5q2 4 2.5 7t1.5 5v4h8v-137h-8v5q-1 2 -1.5 5t-2.5 7q-3 8 -10 16q-20 20 -50 26t-57 6h-18v-326q0 -10 1 -27t4 -35t8.5 -33t14.5 -23h142q49 0 81 22.5t39 71.5q0 5 1 7v4h8v-113h-31l-2 -2q-5 -10 -5 -21
q0 -21 22 -21q8 -2 12 3v-30h-5q-7 0 -16.5 2.5t-14.5 5.5q-10 5 -14 12q-6 7 -6 22q0 17 11 28v1h-336z" />
    <glyph glyph-name="eogonek" unicode="&#x119;" horiz-adv-x="426" 
d="M406 700v-113h-8l-1 11q-8 52 -40 73t-80 21h-142q-9 -7 -14.5 -22t-8.5 -32.5t-4 -33.5t-1 -27v-34q0 -63 -50 -60v94q0 23 -2.5 45.5t-10.5 44.5q-3 7 -6 12t-5 9q-6 7 -10 10l-1 1h-1l-1 1h386zM21 0v1q1 0 3 2q2 1 9 10q5 8 11 22q8 23 10.5 46t2.5 46v305
q0 20 17 25t45 3h6q14 0 32 1.5t35 7t30.5 15t19.5 24.5q2 4 2.5 7t1.5 5v4h8v-137h-8v5q-1 2 -1.5 5t-2.5 7q-3 8 -10 16q-20 20 -50 26t-57 6h-18v-326q0 -10 1 -27t4 -35t8.5 -33t14.5 -23h142q49 0 81 22.5t39 71.5q0 5 1 7v4h8v-113h-36l-2 -2q-5 -10 -5 -21
q0 -21 22 -21q8 -2 12 3v-30h-5q-7 0 -16.5 2.5t-14.5 5.5q-10 5 -14 12q-6 7 -6 22q0 17 11 28v1h-331z" />
    <glyph glyph-name="Ecaron" unicode="&#x11a;" horiz-adv-x="426" 
d="M318 888l-106 -96l-105 96h54q23 -20 31.5 -41t19.5 -47q11 26 21 47t31 41h54zM406 700v-113h-8q-1 29 -14 53q-11 20 -35.5 36t-71.5 16h-142q-8 -9 -18 -35t-10 -80v-34q0 -32 -11 -46t-39 -14v94q0 41 -6 65t-13 37q-8 15 -18 21h386zM277 8q47 0 71.5 16.5
t35.5 36.5q13 23 14 52h8v-113h-386q10 6 18 22q7 14 13 38.5t6 66.5v305q0 22 18 25t50 3q47 0 71.5 10t35.5 22q13 14 14 32h8v-137h-8q-1 18 -14 33q-11 12 -35.5 22t-71.5 10h-18v-326q0 -56 10 -82.5t18 -35.5h142z" />
    <glyph glyph-name="ecaron" unicode="&#x11b;" horiz-adv-x="426" 
d="M323 888l-106 -96l-105 96h54q23 -20 31.5 -41t19.5 -47q11 26 21 47t31 41h54zM406 700v-113h-8q-1 29 -14 53q-11 20 -35.5 36t-71.5 16h-142q-8 -9 -18 -35t-10 -80v-34q0 -32 -11 -46t-39 -14v94q0 41 -6 65t-13 37q-8 15 -18 21h386zM277 8q47 0 71.5 16.5
t35.5 36.5q13 23 14 52h8v-113h-386q10 6 18 22q7 14 13 38.5t6 66.5v305q0 22 18 25t50 3q47 0 71.5 10t35.5 22q13 14 14 32h8v-137h-8q-1 18 -14 33q-11 12 -35.5 22t-71.5 10h-18v-326q0 -56 10 -82.5t18 -35.5h142z" />
    <glyph glyph-name="Gbreve" unicode="&#x11e;" horiz-adv-x="738" 
d="M439 851q-2 -17 -21.5 -28.5t-48.5 -11.5q-28 0 -47.5 11.5t-21.5 28.5h43q1 -3 2 -9t4 -12t8 -10.5t12 -4.5q8 0 12.5 4t7 10t3.5 12t1 10h46zM646 250q5 20 19.5 31t46.5 11q-5 -20 -14.5 -50t-27 -62.5t-43 -64.5t-62 -57.5t-85 -41.5t-110.5 -16q-72 0 -136 27.5
t-111.5 75t-75 111.5t-27.5 136t27.5 136t75 111.5t111.5 75t136 27.5q47 0 93.5 -10.5t86 -28.5t69.5 -43.5t44 -55.5l-45 -26q-17 36 -43.5 65t-59 49t-69.5 30.5t-76 10.5q-61 0 -115 -27t-94.5 -73t-63.5 -108t-23 -133q0 -70 23 -132.5t63.5 -108.5t94.5 -73t115 -27
q54 0 94 14t69.5 36.5t49.5 50.5t33 54.5t20 49.5t10 36zM718 325q0 -1 -1 -3q0 -5 -1 -10l-376 1v12h378z" />
    <glyph glyph-name="gbreve" unicode="&#x11f;" horiz-adv-x="738" 
d="M439 851q-2 -17 -21.5 -28.5t-48.5 -11.5q-28 0 -47.5 11.5t-21.5 28.5h43q1 -3 2 -9t4 -12t8 -10.5t12 -4.5q8 0 12.5 4t7 10t3.5 12t1 10h46zM646 250q5 20 19.5 31t46.5 11q-5 -20 -14.5 -50t-27 -62.5t-43 -64.5t-62 -57.5t-85 -41.5t-110.5 -16q-72 0 -136 27.5
t-111.5 75t-75 111.5t-27.5 136t27.5 136t75 111.5t111.5 75t136 27.5q47 0 93.5 -10.5t86 -28.5t69.5 -43.5t44 -55.5l-45 -26q-17 36 -43.5 65t-59 49t-69.5 30.5t-76 10.5q-61 0 -115 -27t-94.5 -73t-63.5 -108t-23 -133q0 -70 23 -132.5t63.5 -108.5t94.5 -73t115 -27
q54 0 94 14t69.5 36.5t49.5 50.5t33 54.5t20 49.5t10 36zM718 325q0 -1 -1 -3q0 -5 -1 -10l-376 1v12h378z" />
    <glyph glyph-name="Gdotaccent" unicode="&#x120;" horiz-adv-x="738" 
d="M369 870q18 0 30.5 -12.5t12.5 -29.5t-12.5 -29.5t-30.5 -12.5q-17 0 -29.5 12.5t-12.5 29.5t12.5 29.5t29.5 12.5zM646 250q5 20 19.5 31t46.5 11q-5 -20 -14.5 -50t-27 -62.5t-43 -64.5t-62 -57.5t-85 -41.5t-110.5 -16q-72 0 -136 27.5t-111.5 75t-75 111.5t-27.5 136
t27.5 136t75 111.5t111.5 75t136 27.5q47 0 93.5 -10.5t86 -28.5t69.5 -43.5t44 -55.5l-45 -26q-17 36 -43.5 65t-59 49t-69.5 30.5t-76 10.5q-61 0 -115 -27t-94.5 -73t-63.5 -108t-23 -133q0 -70 23 -132.5t63.5 -108.5t94.5 -73t115 -27q54 0 94 14t69.5 36.5t49.5 50.5
t33 54.5t20 49.5t10 36zM718 325q0 -1 -1 -3q0 -5 -1 -10l-376 1v12h378z" />
    <glyph glyph-name="gdotaccent" unicode="&#x121;" horiz-adv-x="738" 
d="M369 870q18 0 30.5 -12.5t12.5 -29.5t-12.5 -29.5t-30.5 -12.5q-17 0 -29.5 12.5t-12.5 29.5t12.5 29.5t29.5 12.5zM646 250q5 20 19.5 31t46.5 11q-5 -20 -14.5 -50t-27 -62.5t-43 -64.5t-62 -57.5t-85 -41.5t-110.5 -16q-72 0 -136 27.5t-111.5 75t-75 111.5t-27.5 136
t27.5 136t75 111.5t111.5 75t136 27.5q47 0 93.5 -10.5t86 -28.5t69.5 -43.5t44 -55.5l-45 -26q-17 36 -43.5 65t-59 49t-69.5 30.5t-76 10.5q-61 0 -115 -27t-94.5 -73t-63.5 -108t-23 -133q0 -70 23 -132.5t63.5 -108.5t94.5 -73t115 -27q54 0 94 14t69.5 36.5t49.5 50.5
t33 54.5t20 49.5t10 36zM718 325q0 -1 -1 -3q0 -5 -1 -10l-376 1v12h378z" />
    <glyph glyph-name="uni0122" unicode="&#x122;" horiz-adv-x="738" 
d="M646 250q5 20 19.5 31t46.5 11q-5 -20 -14.5 -50t-27 -62.5t-43 -64.5t-62 -57.5t-85 -41.5t-110.5 -16q-72 0 -136 27.5t-111.5 75t-75 111.5t-27.5 136t27.5 136t75 111.5t111.5 75t136 27.5q47 0 93.5 -10.5t86 -28.5t69.5 -43.5t44 -55.5l-45 -26q-17 36 -43.5 65
t-59 49t-69.5 30.5t-76 10.5q-61 0 -115 -27t-94.5 -73t-63.5 -108t-23 -133q0 -70 23 -132.5t63.5 -108.5t94.5 -73t115 -27q54 0 94 14t69.5 36.5t49.5 50.5t33 54.5t20 49.5t10 36zM718 325q0 -1 -1 -3q0 -5 -1 -10l-376 1v12h378zM369 -38q14 0 24 -10t10 -24
q0 -17 -9 -36t-38 -25q3 2 5 6q2 3 2.5 8.5t-1.5 13.5q-11 2 -19 11.5t-8 21.5q0 14 10 24t24 10z" />
    <glyph glyph-name="uni0123" unicode="&#x123;" horiz-adv-x="738" 
d="M375 872q12 -2 20 -11.5t8 -21.5q0 -14 -10 -24t-24 -10t-24 10t-10 24q0 17 8.5 36t38.5 25q-3 -2 -5 -6q-2 -3 -3 -8.5t1 -13.5zM646 250q5 20 19.5 31t46.5 11q-5 -20 -14.5 -50t-27 -62.5t-43 -64.5t-62 -57.5t-85 -41.5t-110.5 -16q-72 0 -136 27.5t-111.5 75
t-75 111.5t-27.5 136t27.5 136t75 111.5t111.5 75t136 27.5q47 0 93.5 -10.5t86 -28.5t69.5 -43.5t44 -55.5l-45 -26q-17 36 -43.5 65t-59 49t-69.5 30.5t-76 10.5q-61 0 -115 -27t-94.5 -73t-63.5 -108t-23 -133q0 -70 23 -132.5t63.5 -108.5t94.5 -73t115 -27q54 0 94 14
t69.5 36.5t49.5 50.5t33 54.5t20 49.5t10 36zM718 325q0 -1 -1 -3q0 -5 -1 -10l-376 1v12h378z" />
    <glyph glyph-name="Hbar" unicode="&#x126;" horiz-adv-x="462" 
d="M405 355q0 -22 -15 -26t-32 -4h-251v-199q0 -22 2.5 -47.5t11.5 -45.5q4 -12 11 -21q5 -7 9 -9l3 -3h-123v1q1 0 3 2q2 1 9 10q5 8 11 22q8 23 10.5 46t2.5 46v173q0 21 16 27.5t33 6.5h170v1h79v152q-29 2 -56.5 3t-56.5 1q-34 0 -67.5 -1.5t-67.5 -3.5v-49
q0 -68 -50 -70v114q-9 -1 -18.5 -1.5t-18.5 -2.5v74q2 0 4.5 -0.5t4.5 -0.5l19 -2q2 0 4.5 -0.5t4.5 -0.5v30q0 23 -2.5 45.5t-10.5 44.5q-3 7 -6 12t-5 9q-6 7 -10 10l-1 1h-1l-1 1h123v-1l-2 -1q-5 -3 -9 -10q-7 -9 -11 -21q-9 -20 -11.5 -44t-2.5 -46v-34q30 -2 60 -3
t61 -1t63 1t64 3v34q-1 16 -1.5 29.5t-2.5 24.5q-4 23 -9 36q-3 7 -6 12t-5 9q-6 7 -10 10l-1 1h-1l-1 1h123q-2 -2 -3 -2q-5 -3 -9 -10q-7 -9 -11 -21q-6 -13 -9 -36q-4 -20 -4 -54v-30l42 4v-74q-11 2 -21 3t-21 2v-127zM405 126q0 -36 4 -56q3 -24 9 -37q4 -12 11 -21
q5 -7 9 -9q2 -2 3 -2v-1h-122v1q1 0 3 2q2 1 9 10q5 8 11 22q4 12 9 37q2 11 2.5 24.5t1.5 30.5v89q0 47 17 61t33 14v-165z" />
    <glyph glyph-name="hbar" unicode="&#x127;" horiz-adv-x="462" 
d="M405 355q0 -22 -15 -26t-32 -4h-251v-199q0 -22 2.5 -47.5t11.5 -45.5q4 -12 11 -21q5 -7 9 -9l3 -3h-123v1q1 0 3 2q2 1 9 10q5 8 11 22q8 23 10.5 46t2.5 46v173q0 21 16 27.5t33 6.5h170v1h79v152q-29 2 -56.5 3t-56.5 1q-34 0 -67.5 -1.5t-67.5 -3.5v-49
q0 -68 -50 -70v114q-9 -1 -18.5 -1.5t-18.5 -2.5v74q2 0 4.5 -0.5t4.5 -0.5l19 -2q2 0 4.5 -0.5t4.5 -0.5v30q0 23 -2.5 45.5t-10.5 44.5q-3 7 -6 12t-5 9q-6 7 -10 10l-1 1h-1l-1 1h123v-1l-2 -1q-5 -3 -9 -10q-7 -9 -11 -21q-9 -20 -11.5 -44t-2.5 -46v-34q30 -2 60 -3
t61 -1t63 1t64 3v34q-1 16 -1.5 29.5t-2.5 24.5q-4 23 -9 36q-3 7 -6 12t-5 9q-6 7 -10 10l-1 1h-1l-1 1h123q-2 -2 -3 -2q-5 -3 -9 -10q-7 -9 -11 -21q-6 -13 -9 -36q-4 -20 -4 -54v-30l42 4v-74q-11 2 -21 3t-21 2v-127zM405 126q0 -36 4 -56q3 -24 9 -37q4 -12 11 -21
q5 -7 9 -9q2 -2 3 -2v-1h-122v1q1 0 3 2q2 1 9 10q5 8 11 22q4 12 9 37q2 11 2.5 24.5t1.5 30.5v89q0 47 17 61t33 14v-165z" />
    <glyph glyph-name="Itilde" unicode="&#x128;" horiz-adv-x="164" 
d="M107 126q0 -42 5.5 -66.5t13.5 -38.5q8 -15 18 -21h-124q10 6 18 22q7 14 13 38.5t6 66.5v450q0 41 -6 65t-13 37q-8 15 -18 21h124q-10 -6 -18 -21q-8 -13 -13.5 -37t-5.5 -65v-451zM133 818q16 0 26.5 3t16.5 6q8 4 12 9q-7 -15 -15 -27q-8 -10 -17.5 -18.5t-22.5 -9.5
q-12 -1 -24.5 2t-26 7.5t-27.5 8.5t-30 4q-10 0 -19 -3t-16 -7q-8 -5 -15 -11q4 16 12 29q8 11 19.5 19.5t28.5 8.5q16 0 29 -3.5t25 -7t23 -7t21 -3.5z" />
    <glyph glyph-name="itilde" unicode="&#x129;" horiz-adv-x="164" 
d="M107 126q0 -42 5.5 -66.5t13.5 -38.5q8 -15 18 -21h-124q10 6 18 22q7 14 13 38.5t6 66.5v450q0 41 -6 65t-13 37q-8 15 -18 21h124q-10 -6 -18 -21q-8 -13 -13.5 -37t-5.5 -65v-451zM126 814q16 0 26.5 3t16.5 6q8 4 12 9q-7 -15 -15 -27q-8 -10 -17.5 -18.5t-22.5 -9.5
q-12 -1 -24.5 2t-26 7.5t-27.5 8.5t-30 4q-10 0 -19 -3t-16 -7q-8 -5 -15 -11q4 16 12 29q8 11 19.5 19.5t28.5 8.5q16 0 29 -3.5t25 -7t23 -7t21 -3.5z" />
    <glyph glyph-name="Imacron" unicode="&#x12a;" horiz-adv-x="164" 
d="M152 831l-4 -21l-64 1h-73l7 30zM107 126q0 -42 5.5 -66.5t13.5 -38.5q8 -15 18 -21h-124q10 6 18 22q7 14 13 38.5t6 66.5v450q0 41 -6 65t-13 37q-8 15 -18 21h124q-10 -6 -18 -21q-8 -13 -13.5 -37t-5.5 -65v-451z" />
    <glyph glyph-name="imacron" unicode="&#x12b;" horiz-adv-x="164" 
d="M152 831l-4 -21l-64 1h-73l7 30zM107 126q0 -42 5.5 -66.5t13.5 -38.5q8 -15 18 -21h-124q10 6 18 22q7 14 13 38.5t6 66.5v450q0 41 -6 65t-13 37q-8 15 -18 21h124q-10 -6 -18 -21q-8 -13 -13.5 -37t-5.5 -65v-451z" />
    <glyph glyph-name="Iogonek" unicode="&#x12e;" horiz-adv-x="164" 
d="M21 0v1q1 0 3 2q2 1 9 10q5 8 11 22q8 23 10.5 46t2.5 46v450q0 23 -2.5 45.5t-10.5 44.5q-3 7 -6 12t-5 9q-6 7 -10 10l-1 1h-1l-1 1h123v-1l-2 -1q-5 -3 -9 -10q-7 -9 -11 -21q-9 -20 -11.5 -44t-2.5 -46v-451q0 -22 2.5 -47.5t11.5 -45.5q4 -12 11 -21q5 -7 9 -9l3 -3
h-49l-2 -2q-5 -10 -5 -21q0 -21 22 -21q8 -2 12 3v-30h-5q-7 0 -16.5 2.5t-14.5 5.5q-10 5 -14 12q-6 7 -6 22q0 17 11 28v1h-56z" />
    <glyph glyph-name="iogonek" unicode="&#x12f;" horiz-adv-x="164" 
d="M21 0v1q1 0 3 2q2 1 9 10q5 8 11 22q8 23 10.5 46t2.5 46v450q0 23 -2.5 45.5t-10.5 44.5q-3 7 -6 12t-5 9q-6 7 -10 10l-1 1h-1l-1 1h123v-1l-2 -1q-5 -3 -9 -10q-7 -9 -11 -21q-9 -20 -11.5 -44t-2.5 -46v-451q0 -22 2.5 -47.5t11.5 -45.5q4 -12 11 -21q5 -7 9 -9l3 -3
h-51q-5 -10 -5 -21q0 -21 22 -21q8 -2 12 3v-30h-5q-7 0 -16.5 2.5t-14.5 5.5q-10 5 -14 12q-6 7 -6 22q0 17 10 27h-55z" />
    <glyph glyph-name="Idotaccent" unicode="&#x130;" horiz-adv-x="164" 
d="M82 870q18 0 30.5 -12.5t12.5 -29.5t-12.5 -29.5t-30.5 -12.5q-17 0 -29.5 12.5t-12.5 29.5t12.5 29.5t29.5 12.5zM107 126q0 -42 5.5 -66.5t13.5 -38.5q8 -15 18 -21h-124q10 6 18 22q7 14 13 38.5t6 66.5v450q0 41 -6 65t-13 37q-8 15 -18 21h124q-10 -6 -18 -21
q-8 -13 -13.5 -37t-5.5 -65v-451z" />
    <glyph glyph-name="dotlessi" unicode="&#x131;" horiz-adv-x="164" 
d="M107 126q0 -42 5.5 -66.5t13.5 -38.5q8 -15 18 -21h-124q10 6 18 22q7 14 13 38.5t6 66.5v450q0 41 -6 65t-13 37q-8 15 -18 21h124q-10 -6 -18 -21q-8 -13 -13.5 -37t-5.5 -65v-451z" />
    <glyph glyph-name="uni0136" unicode="&#x136;" horiz-adv-x="471" 
d="M327 0q6 6 5 22q-1 14 -10 38.5t-33 66.5l-121 204l-61 -96v-109q0 -42 5.5 -66.5t13.5 -38.5q8 -15 18 -21h-124q10 6 18 22q7 14 13 38.5t6 66.5v47l289 453q17 26 20.5 40.5t1.5 21.5q-3 9 -12 11h80q-10 -2 -23 -10q-11 -7 -25 -22t-31 -42l-162 -254l145 -246
q25 -42 45.5 -66.5t34.5 -38.5q17 -15 31 -21h-124zM57 577q0 41 -6 65t-13 37q-8 15 -18 21h124q-10 -6 -18 -21q-8 -13 -13.5 -37t-5.5 -65v-222q0 -19 -2 -34.5t-7.5 -29.5t-15.5 -27.5t-25 -29.5v343zM236 -38q14 0 24 -10t10 -24q0 -17 -9 -36t-38 -25q3 2 5 6
q2 3 2.5 8.5t-1.5 13.5q-11 2 -19 11.5t-8 21.5q0 14 10 24t24 10z" />
    <glyph glyph-name="uni0137" unicode="&#x137;" horiz-adv-x="471" 
d="M327 0q6 6 5 22q-1 14 -10 38.5t-33 66.5l-121 204l-61 -96v-109q0 -42 5.5 -66.5t13.5 -38.5q8 -15 18 -21h-124q10 6 18 22q7 14 13 38.5t6 66.5v47l289 453q17 26 20.5 40.5t1.5 21.5q-3 9 -12 11h80q-10 -2 -23 -10q-11 -7 -25 -22t-31 -42l-162 -254l145 -246
q25 -42 45.5 -66.5t34.5 -38.5q17 -15 31 -21h-124zM57 577q0 41 -6 65t-13 37q-8 15 -18 21h124q-10 -6 -18 -21q-8 -13 -13.5 -37t-5.5 -65v-222q0 -19 -2 -34.5t-7.5 -29.5t-15.5 -27.5t-25 -29.5v343zM236 -38q14 0 24 -10t10 -24q0 -17 -9 -36t-38 -25q3 2 5 6
q2 3 2.5 8.5t-1.5 13.5q-11 2 -19 11.5t-8 21.5q0 14 10 24t24 10z" />
    <glyph glyph-name="Lacute" unicode="&#x139;" horiz-adv-x="426" 
d="M58 798q3 18 4 35q2 15 2 31.5t-3 29.5h68zM406 113v-113h-386q10 6 18 22q7 14 13 38.5t6 66.5v450q0 41 -6 65t-13 37q-8 15 -18 21h124q-10 -6 -18 -21q-8 -13 -13.5 -37t-5.5 -65v-451q0 -56 10 -82.5t18 -35.5h142q47 0 71.5 16.5t35.5 36.5q13 23 14 52h8z" />
    <glyph glyph-name="lacute" unicode="&#x13a;" horiz-adv-x="426" 
d="M58 798q3 18 4 35q2 15 2 31.5t-3 29.5h68zM406 113v-113h-386q10 6 18 22q7 14 13 38.5t6 66.5v450q0 41 -6 65t-13 37q-8 15 -18 21h124q-10 -6 -18 -21q-8 -13 -13.5 -37t-5.5 -65v-451q0 -56 10 -82.5t18 -35.5h142q47 0 71.5 16.5t35.5 36.5q13 23 14 52h8z" />
    <glyph glyph-name="uni013B" unicode="&#x13b;" horiz-adv-x="426" 
d="M406 113v-113h-386q10 6 18 22q7 14 13 38.5t6 66.5v450q0 41 -6 65t-13 37q-8 15 -18 21h124q-10 -6 -18 -21q-8 -13 -13.5 -37t-5.5 -65v-451q0 -56 10 -82.5t18 -35.5h142q47 0 71.5 16.5t35.5 36.5q13 23 14 52h8zM213 -38q14 0 24 -10t10 -24q0 -17 -9 -36t-38 -25
q3 2 5 6q2 3 2.5 8.5t-1.5 13.5q-11 2 -19 11.5t-8 21.5q0 14 10 24t24 10z" />
    <glyph glyph-name="uni013C" unicode="&#x13c;" horiz-adv-x="426" 
d="M406 113v-113h-386q10 6 18 22q7 14 13 38.5t6 66.5v450q0 41 -6 65t-13 37q-8 15 -18 21h124q-10 -6 -18 -21q-8 -13 -13.5 -37t-5.5 -65v-451q0 -56 10 -82.5t18 -35.5h142q47 0 71.5 16.5t35.5 36.5q13 23 14 52h8zM217 -38q14 0 24 -10t10 -24q0 -17 -9 -36t-38 -25
q3 2 5 6q2 3 2.5 8.5t-1.5 13.5q-11 2 -19 11.5t-8 21.5q0 14 10 24t24 10z" />
    <glyph glyph-name="Lcaron" unicode="&#x13d;" horiz-adv-x="426" 
d="M406 113v-113h-386q10 6 18 22q7 14 13 38.5t6 66.5v450q0 41 -6 65t-13 37q-8 15 -18 21h124q-10 -6 -18 -21q-8 -13 -13.5 -37t-5.5 -65v-451q0 -56 10 -82.5t18 -35.5h142q47 0 71.5 16.5t35.5 36.5q13 23 14 52h8zM295 700q14 0 24 -10t10 -24q0 -17 -9 -36t-38 -25
q3 2 5 6q2 3 2.5 8.5t-1.5 13.5q-11 2 -19 11.5t-8 21.5q0 14 10 24t24 10z" />
    <glyph glyph-name="lcaron" unicode="&#x13e;" horiz-adv-x="426" 
d="M406 113v-113h-386q10 6 18 22q7 14 13 38.5t6 66.5v450q0 41 -6 65t-13 37q-8 15 -18 21h124q-10 -6 -18 -21q-8 -13 -13.5 -37t-5.5 -65v-451q0 -56 10 -82.5t18 -35.5h142q47 0 71.5 16.5t35.5 36.5q13 23 14 52h8zM295 700q14 0 24 -10t10 -24q0 -17 -9 -36t-38 -25
q3 2 5 6q2 3 2.5 8.5t-1.5 13.5q-11 2 -19 11.5t-8 21.5q0 14 10 24t24 10z" />
    <glyph glyph-name="Lslash" unicode="&#x141;" horiz-adv-x="426" 
d="M107 126q0 -10 1 -27t4 -35t8.5 -33t14.5 -23h142q49 0 81 22.5t39 71.5q0 5 1 7v4h8v-113h-385v1q1 0 3 2q2 1 9 10q5 8 11 22q8 23 10.5 46t2.5 46v200q-36 -1 -72 -4.5t-72 -9.5v74q69 -10 144 -12v202q0 23 -2.5 45.5t-10.5 44.5q-3 7 -6 12t-5 9q-6 7 -10 10l-1 1
h-1l-1 1h123v-1l-2 -1q-5 -3 -9 -10q-7 -9 -11 -21q-9 -20 -11.5 -44t-2.5 -46v-202q69 3 141 12v-74q-35 6 -70.5 9t-70.5 5v-201z" />
    <glyph glyph-name="lslash" unicode="&#x142;" horiz-adv-x="426" 
d="M107 126q0 -10 1 -27t4 -35t8.5 -33t14.5 -23h142q49 0 81 22.5t39 71.5q0 5 1 7v4h8v-113h-385v1q1 0 3 2q2 1 9 10q5 8 11 22q8 23 10.5 46t2.5 46v198q-48 -4 -100 -12v74q24 -4 49 -6.5t51 -3.5v200q0 23 -2.5 45.5t-10.5 44.5q-3 7 -6 12t-5 9q-6 7 -10 10l-1 1h-1
l-1 1h123v-1l-2 -1q-5 -3 -9 -10q-7 -9 -11 -21q-9 -20 -11.5 -44t-2.5 -46v-202q89 -1 186 12v-74q-94 15 -186 14v-201z" />
    <glyph glyph-name="Nacute" unicode="&#x143;" horiz-adv-x="424" 
d="M188 798q3 18 4 35q2 15 2 31.5t-3 29.5h68zM404 700q-8 -2 -13 -10q-5 -7 -9.5 -22t-4.5 -42v-626h-11q-81 181 -147 324q-28 62 -54.5 121t-48.5 106.5t-36 78t-17 33.5q-3 -15 -3 -37v-552q0 -26 4 -40.5t9 -22.5q6 -9 13 -11h-66q8 2 14 11q5 8 9.5 22.5t4.5 40.5
l1 553q0 26 -4.5 40.5t-9.5 21.5q-7 9 -15 11h129q-8 -6 -11 -21q-2 -13 0.5 -37t16.5 -65l211 -462v512q0 26 -3.5 40.5t-7.5 21.5q-6 9 -12 11h61z" />
    <glyph glyph-name="nacute" unicode="&#x144;" horiz-adv-x="424" 
d="M188 798q3 18 4 35q2 15 2 31.5t-3 29.5h68zM404 700q-8 -2 -13 -10q-5 -7 -9.5 -22t-4.5 -42v-626h-11q-81 181 -147 324q-28 62 -54.5 121t-48.5 106.5t-36 78t-17 33.5q-3 -15 -3 -37v-552q0 -26 4 -40.5t9 -22.5q6 -9 13 -11h-66q8 2 14 11q5 8 9.5 22.5t4.5 40.5
l1 553q0 26 -4.5 40.5t-9.5 21.5q-7 9 -15 11h129q-8 -6 -11 -21q-2 -13 0.5 -37t16.5 -65l211 -462v512q0 26 -3.5 40.5t-7.5 21.5q-6 9 -12 11h61z" />
    <glyph glyph-name="uni0145" unicode="&#x145;" horiz-adv-x="424" 
d="M404 700q-8 -2 -13 -10q-5 -7 -9.5 -22t-4.5 -42v-626h-11q-81 181 -147 324q-28 62 -54.5 121t-48.5 106.5t-36 78t-17 33.5q-3 -15 -3 -37v-552q0 -26 4 -40.5t9 -22.5q6 -9 13 -11h-66q8 2 14 11q5 8 9.5 22.5t4.5 40.5l1 553q0 26 -4.5 40.5t-9.5 21.5q-7 9 -15 11
h129q-8 -6 -11 -21q-2 -13 0.5 -37t16.5 -65l211 -462v512q0 26 -3.5 40.5t-7.5 21.5q-6 9 -12 11h61zM212 -38q14 0 24 -10t10 -24q0 -17 -9 -36t-38 -25q3 2 5 6q2 3 2.5 8.5t-1.5 13.5q-11 2 -19 11.5t-8 21.5q0 14 10 24t24 10z" />
    <glyph glyph-name="uni0146" unicode="&#x146;" horiz-adv-x="424" 
d="M404 700q-8 -2 -13 -10q-5 -7 -9.5 -22t-4.5 -42v-626h-11q-81 181 -147 324q-28 62 -54.5 121t-48.5 106.5t-36 78t-17 33.5q-3 -15 -3 -37v-552q0 -26 4 -40.5t9 -22.5q6 -9 13 -11h-66q8 2 14 11q5 8 9.5 22.5t4.5 40.5l1 553q0 26 -4.5 40.5t-9.5 21.5q-7 9 -15 11
h129q-8 -6 -11 -21q-2 -13 0.5 -37t16.5 -65l211 -462v512q0 26 -3.5 40.5t-7.5 21.5q-6 9 -12 11h61zM212 -38q14 0 24 -10t10 -24q0 -17 -9 -36t-38 -25q3 2 5 6q2 3 2.5 8.5t-1.5 13.5q-11 2 -19 11.5t-8 21.5q0 14 10 24t24 10z" />
    <glyph glyph-name="Ncaron" unicode="&#x147;" horiz-adv-x="424" 
d="M317 888l-106 -96l-105 96h54q23 -20 31.5 -41t19.5 -47q11 26 21 47t31 41h54zM404 700q-8 -2 -13 -10q-5 -7 -9.5 -22t-4.5 -42v-626h-11q-81 181 -147 324q-28 62 -54.5 121t-48.5 106.5t-36 78t-17 33.5q-3 -15 -3 -37v-552q0 -26 4 -40.5t9 -22.5q6 -9 13 -11h-66
q8 2 14 11q5 8 9.5 22.5t4.5 40.5l1 553q0 26 -4.5 40.5t-9.5 21.5q-7 9 -15 11h129q-8 -6 -11 -21q-2 -13 0.5 -37t16.5 -65l211 -462v512q0 26 -3.5 40.5t-7.5 21.5q-6 9 -12 11h61z" />
    <glyph glyph-name="ncaron" unicode="&#x148;" horiz-adv-x="424" 
d="M317 888l-106 -96l-105 96h54q23 -20 31.5 -41t19.5 -47q11 26 21 47t31 41h54zM404 700q-8 -2 -13 -10q-5 -7 -9.5 -22t-4.5 -42v-626h-11q-81 181 -147 324q-28 62 -54.5 121t-48.5 106.5t-36 78t-17 33.5q-3 -15 -3 -37v-552q0 -26 4 -40.5t9 -22.5q6 -9 13 -11h-66
q8 2 14 11q5 8 9.5 22.5t4.5 40.5l1 553q0 26 -4.5 40.5t-9.5 21.5q-7 9 -15 11h129q-8 -6 -11 -21q-2 -13 0.5 -37t16.5 -65l211 -462v512q0 26 -3.5 40.5t-7.5 21.5q-6 9 -12 11h61z" />
    <glyph glyph-name="Eng" unicode="&#x14a;" horiz-adv-x="424" 
d="M404 700q-8 -2 -13 -10q-5 -7 -9.5 -22t-4.5 -42v-610q0 -40 -9.5 -67.5t-23.5 -44t-31.5 -23.5t-34.5 -7q25 0 40 23t20 56.5t1.5 71t-15.5 66.5q-12 32 -35.5 85.5t-51.5 115.5t-57.5 126.5t-54.5 117.5t-42 88t-20 39q-3 -15 -3 -37v-552q0 -26 4 -40.5t9 -22.5
q6 -9 13 -11h-66q8 2 14 11q5 8 9.5 22.5t4.5 40.5l1 553q0 26 -4.5 40.5t-9.5 21.5q-7 9 -15 11h129q-8 -6 -11 -21q-2 -13 0.5 -37t16.5 -65l211 -462v512q0 26 -3.5 40.5t-7.5 21.5q-6 9 -12 11h61z" />
    <glyph glyph-name="eng" unicode="&#x14b;" horiz-adv-x="424" 
d="M404 700q-8 -2 -13 -10q-5 -7 -9.5 -22t-4.5 -42v-610q0 -40 -9.5 -67.5t-23.5 -44t-31.5 -23.5t-34.5 -7q25 0 40 23t20 56.5t1.5 71t-15.5 66.5q-12 32 -35.5 85.5t-51.5 115.5t-57.5 126.5t-54.5 117.5t-42 88t-20 39q-3 -15 -3 -37v-552q0 -26 4 -40.5t9 -22.5
q6 -9 13 -11h-66q8 2 14 11q5 8 9.5 22.5t4.5 40.5l1 553q0 26 -4.5 40.5t-9.5 21.5q-7 9 -15 11h129q-8 -6 -11 -21q-2 -13 0.5 -37t16.5 -65l211 -462v512q0 26 -3.5 40.5t-7.5 21.5q-6 9 -12 11h61z" />
    <glyph glyph-name="Omacron" unicode="&#x14c;" horiz-adv-x="736" 
d="M438 831l-4 -21l-64 1h-73l7 30zM368 700q72 0 135.5 -27.5t110.5 -75t74.5 -111.5t27.5 -136t-27.5 -136t-74.5 -111.5t-110.5 -75t-135.5 -27.5t-135.5 27.5t-110.5 75t-74.5 111.5t-27.5 136t27.5 136t74.5 111.5t110.5 75t135.5 27.5zM484 36q57 21 98 64t62.5 99
t22.5 121.5t-23 131.5q-19 53 -50.5 96t-71.5 73t-85.5 46.5t-92.5 16.5q-45 0 -87 -15q-57 -21 -98 -64t-62.5 -99t-22.5 -121.5t22 -131.5q19 -53 51 -96t71.5 -73t85.5 -46.5t93 -16.5q44 0 87 15z" />
    <glyph glyph-name="omacron" unicode="&#x14d;" horiz-adv-x="736" 
d="M438 831l-4 -21l-64 1h-73l7 30zM368 700q72 0 135.5 -27.5t110.5 -75t74.5 -111.5t27.5 -136t-27.5 -136t-74.5 -111.5t-110.5 -75t-135.5 -27.5t-135.5 27.5t-110.5 75t-74.5 111.5t-27.5 136t27.5 136t74.5 111.5t110.5 75t135.5 27.5zM484 36q57 21 98 64t62.5 99
t22.5 121.5t-23 131.5q-19 53 -50.5 96t-71.5 73t-85.5 46.5t-92.5 16.5q-45 0 -87 -15q-57 -21 -98 -64t-62.5 -99t-22.5 -121.5t22 -131.5q19 -53 51 -96t71.5 -73t85.5 -46.5t93 -16.5q44 0 87 15z" />
    <glyph glyph-name="Ohungarumlaut" unicode="&#x150;" horiz-adv-x="736" 
d="M462 894l-70 -96q3 18 4 35q2 15 2 31.5t-3 29.5h67zM392 894l-71 -96q3 18 4 35q2 15 2 31.5t-3 29.5h68zM368 700q72 0 135.5 -27.5t110.5 -75t74.5 -111.5t27.5 -136t-27.5 -136t-74.5 -111.5t-110.5 -75t-135.5 -27.5t-135.5 27.5t-110.5 75t-74.5 111.5t-27.5 136
t27.5 136t74.5 111.5t110.5 75t135.5 27.5zM484 36q57 21 98 64t62.5 99t22.5 121.5t-23 131.5q-19 53 -50.5 96t-71.5 73t-85.5 46.5t-92.5 16.5q-45 0 -87 -15q-57 -21 -98 -64t-62.5 -99t-22.5 -121.5t22 -131.5q19 -53 51 -96t71.5 -73t85.5 -46.5t93 -16.5q44 0 87 15z
" />
    <glyph glyph-name="ohungarumlaut" unicode="&#x151;" horiz-adv-x="736" 
d="M462 894l-70 -96q3 18 4 35q2 15 2 31.5t-3 29.5h67zM392 894l-71 -96q3 18 4 35q2 15 2 31.5t-3 29.5h68zM368 700q72 0 135.5 -27.5t110.5 -75t74.5 -111.5t27.5 -136t-27.5 -136t-74.5 -111.5t-110.5 -75t-135.5 -27.5t-135.5 27.5t-110.5 75t-74.5 111.5t-27.5 136
t27.5 136t74.5 111.5t110.5 75t135.5 27.5zM484 36q57 21 98 64t62.5 99t22.5 121.5t-23 131.5q-19 53 -50.5 96t-71.5 73t-85.5 46.5t-92.5 16.5q-45 0 -87 -15q-57 -21 -98 -64t-62.5 -99t-22.5 -121.5t22 -131.5q19 -53 51 -96t71.5 -73t85.5 -46.5t93 -16.5q44 0 87 15z
" />
    <glyph glyph-name="OE" unicode="&#x152;" horiz-adv-x="1041" 
d="M893 9q47 0 71 16.5t35 36.5q13 23 14 52h8v-113h-385q10 6 18 22q7 14 13 38.5t6 66.5v53q-22 -40 -54.5 -73t-71.5 -57t-84.5 -37t-94.5 -13q-72 0 -135.5 27.5t-110.5 75t-74.5 111.5t-27.5 136t27.5 136t74.5 111.5t110.5 75t135.5 27.5q58 0 110.5 -18t96 -50
t75.5 -76.5t49 -97.5q8 2 18.5 2h23.5q47 0 71 10t35 22q13 14 14 32h8v-137h-8q-1 18 -14 33q-11 12 -35 22t-71 10h-18v-326q0 -56 9.5 -82.5t17.5 -35.5h143zM1021 701v-112h-8q-1 29 -14 52q-11 20 -35 36t-71 16h-143q-8 -9 -17.5 -35t-9.5 -80q0 -17 -12.5 -28.5
t-37.5 -11.5v40q0 41 -6 65t-13 37q-8 15 -18 21h385zM484 37q57 21 98 64t62.5 99t22.5 121.5t-23 131.5q-19 53 -50.5 96t-71.5 73t-85.5 46.5t-92.5 16.5q-45 0 -87 -15q-57 -21 -98 -64t-62.5 -99t-22.5 -121.5t22 -131.5q19 -53 51 -96t71.5 -73t85.5 -46.5t93 -16.5
q44 0 87 15z" />
    <glyph glyph-name="oe" unicode="&#x153;" horiz-adv-x="1041" 
d="M893 9q47 0 71 16.5t35 36.5q13 23 14 52h8v-113h-385q10 6 18 22q7 14 13 38.5t6 66.5v53q-22 -40 -54.5 -73t-71.5 -57t-84.5 -37t-94.5 -13q-72 0 -135.5 27.5t-110.5 75t-74.5 111.5t-27.5 136t27.5 136t74.5 111.5t110.5 75t135.5 27.5q58 0 110.5 -18t96 -50
t75.5 -76.5t49 -97.5q8 2 18.5 2h23.5q47 0 71 10t35 22q13 14 14 32h8v-137h-8q-1 18 -14 33q-11 12 -35 22t-71 10h-18v-326q0 -56 9.5 -82.5t17.5 -35.5h143zM1021 701v-112h-8q-1 29 -14 52q-11 20 -35 36t-71 16h-143q-8 -9 -17.5 -35t-9.5 -80q0 -17 -12.5 -28.5
t-37.5 -11.5v40q0 41 -6 65t-13 37q-8 15 -18 21h385zM484 37q57 21 98 64t62.5 99t22.5 121.5t-23 131.5q-19 53 -50.5 96t-71.5 73t-85.5 46.5t-92.5 16.5q-45 0 -87 -15q-57 -21 -98 -64t-62.5 -99t-22.5 -121.5t22 -131.5q19 -53 51 -96t71.5 -73t85.5 -46.5t93 -16.5
q44 0 87 15z" />
    <glyph glyph-name="Racute" unicode="&#x154;" horiz-adv-x="479" 
d="M228 798q3 18 4 35q2 15 2 31.5t-3 29.5h68zM329 126q25 -42 45.5 -66.5t34.5 -38.5q17 -15 31 -21h-124q6 6 5 22q-1 14 -10 38.5t-33 66.5l-74 124q-23 -2 -46.5 -3t-48.5 -1h-2v-125q0 -41 5.5 -65t13.5 -37q8 -15 18 -21h-124q10 6 18 21q7 13 13 37t6 65v135l55 1
q61 0 114.5 11.5t93 37t62.5 66.5t23 102q0 59 -21 99t-58 64.5t-87 36.5t-107 13q-8 -11 -16.5 -37t-8.5 -78v-169q0 -43 -13.5 -64.5t-36.5 -21.5v254q0 42 -6 66.5t-13 38.5q-8 16 -18 22h90q72 0 136 -10t111 -35t74.5 -68.5t27.5 -110.5q0 -49 -15.5 -86t-43 -63.5
t-65.5 -42.5t-84 -25z" />
    <glyph glyph-name="racute" unicode="&#x155;" horiz-adv-x="479" 
d="M215 797q3 18 4 35q2 15 2 31.5t-3 29.5h68zM329 126q25 -42 45.5 -66.5t34.5 -38.5q17 -15 31 -21h-124q6 6 5 22q-1 14 -10 38.5t-33 66.5l-74 124q-23 -2 -46.5 -3t-48.5 -1h-2v-125q0 -41 5.5 -65t13.5 -37q8 -15 18 -21h-124q10 6 18 21q7 13 13 37t6 65v135l55 1
q61 0 114.5 11.5t93 37t62.5 66.5t23 102q0 59 -21 99t-58 64.5t-87 36.5t-107 13q-8 -11 -16.5 -37t-8.5 -78v-169q0 -43 -13.5 -64.5t-36.5 -21.5v254q0 42 -6 66.5t-13 38.5q-8 16 -18 22h90q72 0 136 -10t111 -35t74.5 -68.5t27.5 -110.5q0 -49 -15.5 -86t-43 -63.5
t-65.5 -42.5t-84 -25z" />
    <glyph glyph-name="uni0156" unicode="&#x156;" horiz-adv-x="479" 
d="M329 126q25 -42 45.5 -66.5t34.5 -38.5q17 -15 31 -21h-124q6 6 5 22q-1 14 -10 38.5t-33 66.5l-74 124q-23 -2 -46.5 -3t-48.5 -1h-2v-125q0 -41 5.5 -65t13.5 -37q8 -15 18 -21h-124q10 6 18 21q7 13 13 37t6 65v135l55 1q61 0 114.5 11.5t93 37t62.5 66.5t23 102
q0 59 -21 99t-58 64.5t-87 36.5t-107 13q-8 -11 -16.5 -37t-8.5 -78v-169q0 -43 -13.5 -64.5t-36.5 -21.5v254q0 42 -6 66.5t-13 38.5q-8 16 -18 22h90q72 0 136 -10t111 -35t74.5 -68.5t27.5 -110.5q0 -49 -15.5 -86t-43 -63.5t-65.5 -42.5t-84 -25zM239 -38q14 0 24 -10
t10 -24q0 -17 -9 -36t-38 -25q3 2 5 6q2 3 2.5 8.5t-1.5 13.5q-11 2 -19 11.5t-8 21.5q0 14 10 24t24 10z" />
    <glyph glyph-name="uni0157" unicode="&#x157;" horiz-adv-x="479" 
d="M329 126q25 -42 45.5 -66.5t34.5 -38.5q17 -15 31 -21h-124q6 6 5 22q-1 14 -10 38.5t-33 66.5l-74 124q-23 -2 -46.5 -3t-48.5 -1h-2v-125q0 -41 5.5 -65t13.5 -37q8 -15 18 -21h-124q10 6 18 21q7 13 13 37t6 65v135l55 1q61 0 114.5 11.5t93 37t62.5 66.5t23 102
q0 59 -21 99t-58 64.5t-87 36.5t-107 13q-8 -11 -16.5 -37t-8.5 -78v-169q0 -43 -13.5 -64.5t-36.5 -21.5v254q0 42 -6 66.5t-13 38.5q-8 16 -18 22h90q72 0 136 -10t111 -35t74.5 -68.5t27.5 -110.5q0 -49 -15.5 -86t-43 -63.5t-65.5 -42.5t-84 -25zM228 -38q14 0 24 -10
t10 -24q0 -17 -9 -36t-38 -25q3 2 5 6q2 3 2.5 8.5t-1.5 13.5q-11 2 -19 11.5t-8 21.5q0 14 10 24t24 10z" />
    <glyph glyph-name="Rcaron" unicode="&#x158;" horiz-adv-x="479" 
d="M357 888l-106 -96l-105 96h54q23 -20 31.5 -41t19.5 -47q11 26 21 47t31 41h54zM329 126q25 -42 45.5 -66.5t34.5 -38.5q17 -15 31 -21h-124q6 6 5 22q-1 14 -10 38.5t-33 66.5l-74 124q-23 -2 -46.5 -3t-48.5 -1h-2v-125q0 -41 5.5 -65t13.5 -37q8 -15 18 -21h-124
q10 6 18 21q7 13 13 37t6 65v135l55 1q61 0 114.5 11.5t93 37t62.5 66.5t23 102q0 59 -21 99t-58 64.5t-87 36.5t-107 13q-8 -11 -16.5 -37t-8.5 -78v-169q0 -43 -13.5 -64.5t-36.5 -21.5v254q0 42 -6 66.5t-13 38.5q-8 16 -18 22h90q72 0 136 -10t111 -35t74.5 -68.5
t27.5 -110.5q0 -49 -15.5 -86t-43 -63.5t-65.5 -42.5t-84 -25z" />
    <glyph glyph-name="rcaron" unicode="&#x159;" horiz-adv-x="479" 
d="M344 887l-106 -96l-105 96h54q23 -20 31.5 -41t19.5 -47q11 26 21 47t31 41h54zM329 126q25 -42 45.5 -66.5t34.5 -38.5q17 -15 31 -21h-124q6 6 5 22q-1 14 -10 38.5t-33 66.5l-74 124q-23 -2 -46.5 -3t-48.5 -1h-2v-125q0 -41 5.5 -65t13.5 -37q8 -15 18 -21h-124
q10 6 18 21q7 13 13 37t6 65v135l55 1q61 0 114.5 11.5t93 37t62.5 66.5t23 102q0 59 -21 99t-58 64.5t-87 36.5t-107 13q-8 -11 -16.5 -37t-8.5 -78v-169q0 -43 -13.5 -64.5t-36.5 -21.5v254q0 42 -6 66.5t-13 38.5q-8 16 -18 22h90q72 0 136 -10t111 -35t74.5 -68.5
t27.5 -110.5q0 -49 -15.5 -86t-43 -63.5t-65.5 -42.5t-84 -25z" />
    <glyph glyph-name="Sacute" unicode="&#x15a;" horiz-adv-x="516" 
d="M234 798q3 18 4 35q2 15 2 31.5t-3 29.5h68zM119 560q0 -48 28 -76t70 -47.5t90.5 -36t90.5 -42t70 -65t28 -104.5q0 -31 -9 -64t-34 -61t-70.5 -46t-117.5 -18q-69 0 -116 20.5t-75.5 53t-41 73.5t-12.5 82l72 26q-10 -63 2.5 -109t38.5 -76.5t61 -45.5t71 -15
q50 0 82 15t51 40.5t26.5 59.5t7.5 71q0 54 -27 85t-68 51.5t-88 35.5t-88 35.5t-68 52t-27 84.5q0 43 14.5 73.5t41 50t63 28.5t79.5 9t74 -10.5t52 -26t33.5 -33.5t17.5 -33l-59 -19q0 18 -6.5 37.5t-20.5 36.5t-36.5 28t-54.5 11q-33 0 -59.5 -6t-45.5 -21t-29.5 -40
t-10.5 -64z" />
    <glyph glyph-name="sacute" unicode="&#x15b;" horiz-adv-x="516" 
d="M234 798q3 18 4 35q2 15 2 31.5t-3 29.5h68zM119 560q0 -48 28 -76t70 -47.5t90.5 -36t90.5 -42t70 -65t28 -104.5q0 -31 -9 -64t-34 -61t-70.5 -46t-117.5 -18q-69 0 -116 20.5t-75.5 53t-41 73.5t-12.5 82l72 26q-10 -63 2.5 -109t38.5 -76.5t61 -45.5t71 -15
q50 0 82 15t51 40.5t26.5 59.5t7.5 71q0 54 -27 85t-68 51.5t-88 35.5t-88 35.5t-68 52t-27 84.5q0 43 14.5 73.5t41 50t63 28.5t79.5 9t74 -10.5t52 -26t33.5 -33.5t17.5 -33l-59 -19q0 18 -6.5 37.5t-20.5 36.5t-36.5 28t-54.5 11q-33 0 -59.5 -6t-45.5 -21t-29.5 -40
t-10.5 -64z" />
    <glyph glyph-name="Scedilla" unicode="&#x15e;" horiz-adv-x="516" 
d="M281 9q43 2 72 17.5t46.5 40t25 57.5t7.5 71q0 51 -24.5 83.5t-69.5 53.5q-21 10 -43.5 18.5t-45.5 16.5q-33 11 -65.5 24t-59 32.5t-42.5 47.5t-16 68q0 45 16 76t43 50t63 27t76 8q58 0 106.5 -23.5t70.5 -79.5l-59 -19q0 53 -33.5 83t-84.5 30q-72 0 -108.5 -29.5
t-36.5 -101.5q0 -34 16 -58.5t40.5 -42t54 -29.5t56.5 -21q43 -16 81 -33.5t66.5 -42t45.5 -59t17 -85.5t-20 -92t-64 -67q-46 -28 -134 -30l-4 -11q17 -3 27 -15q11 -14 11 -30q0 -20 -13 -32.5t-33 -12.5q-16 0 -29 11q-13 10 -16 28h20q4 -9 10 -13q6 -6 15 -6
q14 0 22 7.5t8 21.5q0 20 -14 32q-15 11 -29 6l5 14q-34 1 -66.5 7.5t-60.5 21t-51 37.5t-37 56q-23 54 -23 107l72 26q-12 -84 12 -138q21 -48 62.5 -77t94.5 -31l4 11h20z" />
    <glyph glyph-name="scedilla" unicode="&#x15f;" horiz-adv-x="516" 
d="M281 9q43 2 72 17.5t46.5 40t25 57.5t7.5 71q0 51 -24.5 83.5t-69.5 53.5q-21 10 -43.5 18.5t-45.5 16.5q-33 11 -65.5 24t-59 32.5t-42.5 47.5t-16 68q0 45 16 76t43 50t63 27t76 8q58 0 106.5 -23.5t70.5 -79.5l-59 -19q0 53 -33.5 83t-84.5 30q-72 0 -108.5 -29.5
t-36.5 -101.5q0 -34 16 -58.5t40.5 -42t54 -29.5t56.5 -21q43 -16 81 -33.5t66.5 -42t45.5 -59t17 -85.5t-20 -92t-64 -67q-46 -28 -134 -30l-4 -11q17 -3 27 -15q11 -14 11 -30q0 -20 -13 -32.5t-33 -12.5q-16 0 -29 11q-13 10 -16 28h20q4 -9 10 -13q6 -6 15 -6
q14 0 22 7.5t8 21.5q0 20 -14 32q-15 11 -29 6l5 14q-34 1 -66.5 7.5t-60.5 21t-51 37.5t-37 56q-23 54 -23 107l72 26q-12 -84 12 -138q21 -48 62.5 -77t94.5 -31l4 11h20z" />
    <glyph glyph-name="Scaron" unicode="&#x160;" horiz-adv-x="516" 
d="M363 888l-106 -96l-105 96h54q23 -20 31.5 -41t19.5 -47q11 26 21 47t31 41h54zM119 560q0 -48 28 -76t70 -47.5t90.5 -36t90.5 -42t70 -65t28 -104.5q0 -31 -9 -64t-34 -61t-70.5 -46t-117.5 -18q-69 0 -116 20.5t-75.5 53t-41 73.5t-12.5 82l72 26q-10 -63 2.5 -109
t38.5 -76.5t61 -45.5t71 -15q50 0 82 15t51 40.5t26.5 59.5t7.5 71q0 54 -27 85t-68 51.5t-88 35.5t-88 35.5t-68 52t-27 84.5q0 43 14.5 73.5t41 50t63 28.5t79.5 9t74 -10.5t52 -26t33.5 -33.5t17.5 -33l-59 -19q0 18 -6.5 37.5t-20.5 36.5t-36.5 28t-54.5 11
q-33 0 -59.5 -6t-45.5 -21t-29.5 -40t-10.5 -64z" />
    <glyph glyph-name="scaron" unicode="&#x161;" horiz-adv-x="516" 
d="M363 888l-106 -96l-105 96h54q23 -20 31.5 -41t19.5 -47q11 26 21 47t31 41h54zM119 560q0 -48 28 -76t70 -47.5t90.5 -36t90.5 -42t70 -65t28 -104.5q0 -31 -9 -64t-34 -61t-70.5 -46t-117.5 -18q-69 0 -116 20.5t-75.5 53t-41 73.5t-12.5 82l72 26q-10 -63 2.5 -109
t38.5 -76.5t61 -45.5t71 -15q50 0 82 15t51 40.5t26.5 59.5t7.5 71q0 54 -27 85t-68 51.5t-88 35.5t-88 35.5t-68 52t-27 84.5q0 43 14.5 73.5t41 50t63 28.5t79.5 9t74 -10.5t52 -26t33.5 -33.5t17.5 -33l-59 -19q0 18 -6.5 37.5t-20.5 36.5t-36.5 28t-54.5 11
q-33 0 -59.5 -6t-45.5 -21t-29.5 -40t-10.5 -64z" />
    <glyph glyph-name="uni0162" unicode="&#x162;" horiz-adv-x="464" 
d="M171 -1l3 3q4 1 10 9q14 23 18.5 53.5t4.5 57.5v450q-2 58 -10 85q-11 28 -19 35h-29q-50 0 -81.5 -22t-38.5 -72q0 -5 -1 -7v-4h-8v113h424v-113h-8v11q-1 11 -6 27q-6 14 -18 31q-20 22 -43.5 29t-52.5 7h-30q-9 -7 -14.5 -23t-8.5 -33.5t-4 -34.5t-1 -28v-451
q0 -34 4 -54q3 -21 9 -35q4 -12 11 -21q5 -9 9 -10q2 -2 3 -2v-1h-52l-4 -10q17 -3 27 -15q11 -14 11 -30q0 -20 -13 -32.5t-33 -12.5q-16 0 -29 11q-13 10 -16 28h20q4 -9 10 -13q6 -6 15 -6q14 0 22 7.5t8 21.5q0 20 -14 32q-15 11 -29 6l5 13h-51z" />
    <glyph glyph-name="uni0163" unicode="&#x163;" horiz-adv-x="464" 
d="M171 -1l3 3q4 1 10 9q14 23 18.5 53.5t4.5 57.5v450q-2 58 -10 85q-11 28 -19 35h-29q-50 0 -81.5 -22t-38.5 -72q0 -5 -1 -7v-4h-8v113h424v-113h-8v11q-1 11 -6 27q-6 14 -18 31q-20 22 -43.5 29t-52.5 7h-30q-9 -7 -14.5 -23t-8.5 -33.5t-4 -34.5t-1 -28v-451
q0 -34 4 -54q3 -21 9 -35q4 -12 11 -21q5 -9 9 -10q2 -2 3 -2v-1h-52l-4 -10q17 -3 27 -15q11 -14 11 -30q0 -20 -13 -32.5t-33 -12.5q-16 0 -29 11q-13 10 -16 28h20q4 -9 10 -13q6 -6 15 -6q14 0 22 7.5t8 21.5q0 20 -14 32q-15 11 -29 6l5 13h-51z" />
    <glyph glyph-name="Tcaron" unicode="&#x164;" horiz-adv-x="464" 
d="M337 888l-106 -96l-105 96h54q23 -20 31.5 -41t19.5 -47q11 26 21 47t31 41h54zM444 700v-113h-8q-1 29 -14 53q-11 20 -35 36t-71 16h-30q-8 -9 -18 -35t-10 -84v-451q0 -41 5.5 -65t13.5 -37q8 -15 18 -21h-125q10 6 19 21q7 13 12.5 37t5.5 65v450q0 58 -10.5 84.5
t-18.5 35.5h-29q-47 0 -71.5 -16t-35.5 -36q-13 -24 -14 -53h-8v113h424z" />
    <glyph glyph-name="tcaron" unicode="&#x165;" horiz-adv-x="464" 
d="M537 798q14 0 24 -10t10 -24q0 -17 -9 -36t-38 -25q3 2 5 6q2 3 2.5 8.5t-1.5 13.5q-11 2 -19 11.5t-8 21.5q0 14 10 24t24 10zM444 700v-113h-8q-1 29 -14 53q-11 20 -35 36t-71 16h-30q-8 -9 -18 -35t-10 -84v-451q0 -41 5.5 -65t13.5 -37q8 -15 18 -21h-125
q10 6 19 21q7 13 12.5 37t5.5 65v450q0 58 -10.5 84.5t-18.5 35.5h-29q-47 0 -71.5 -16t-35.5 -36q-13 -24 -14 -53h-8v113h424z" />
    <glyph glyph-name="Tbar" unicode="&#x166;" horiz-adv-x="464" 
d="M207 572q-2 58 -10 85q-11 28 -19 35h-29q-50 0 -81.5 -22t-38.5 -72q0 -5 -1 -7v-4h-8v113h424v-113h-8v11q-1 11 -6 27q-6 14 -18 31q-20 22 -43.5 29t-52.5 7h-30q-9 -7 -14.5 -23t-8.5 -33.5t-4 -34.5t-1 -28v-198q68 3 142 12v-75q-35 6 -70.5 9.5t-71.5 4.5v-204
q0 -34 4 -54q3 -21 9 -35q4 -12 11 -21q5 -9 9 -10q2 -2 3 -2v-1h-123l3 3q4 1 10 9q14 23 18.5 53.5t4.5 57.5v204q-35 -2 -70.5 -5t-71.5 -9v75q67 -10 142 -12v197z" />
    <glyph glyph-name="tbar" unicode="&#x167;" horiz-adv-x="464" 
d="M207 572q-2 58 -10 85q-11 28 -19 35h-29q-50 0 -81.5 -22t-38.5 -72q0 -5 -1 -7v-4h-8v113h424v-113h-8v11q-1 11 -6 27q-6 14 -18 31q-20 22 -43.5 29t-52.5 7h-30q-9 -7 -14.5 -23t-8.5 -33.5t-4 -34.5t-1 -28v-268q68 3 142 12v-75q-35 6 -70.5 9.5t-71.5 4.5v-134
q0 -34 4 -54q3 -21 9 -35q4 -12 11 -21q5 -9 9 -10q2 -2 3 -2v-1h-123l3 3q4 1 10 9q14 23 18.5 53.5t4.5 57.5v134q-35 -2 -70.5 -5t-71.5 -9v75q67 -10 142 -12v267z" />
    <glyph glyph-name="Utilde" unicode="&#x168;" horiz-adv-x="466" 
d="M446 700q-6 -2 -11 -10q-4 -7 -7.5 -22t-3.5 -42v-396q0 -66 -9.5 -110t-29 -70.5t-49.5 -38t-72 -11.5q-41 0 -78.5 9.5t-66 35t-45.5 69.5t-17 112v346q0 42 -6 66.5t-13 38.5q-8 16 -18 22h124q-10 -6 -18 -21q-8 -13 -13.5 -38t-5.5 -67v-347q0 -63 11.5 -105.5
t32 -68t49.5 -36t64 -10.5t62.5 10t46 35t29 67t10.5 106l1 403q0 26 -3.5 40.5t-7.5 21.5q-6 9 -12 11h56zM321 835q16 0 26.5 3t16.5 6q8 4 12 9q-7 -15 -15 -27q-8 -10 -17.5 -18.5t-22.5 -9.5q-12 -1 -24.5 2t-26 7.5t-27.5 8.5t-30 4q-10 0 -19 -3t-16 -7
q-8 -5 -15 -11q4 16 12 29q8 11 19.5 19.5t28.5 8.5q16 0 29 -3.5t25 -7t23 -7t21 -3.5z" />
    <glyph glyph-name="utilde" unicode="&#x169;" horiz-adv-x="466" 
d="M446 700q-6 -2 -11 -10q-4 -7 -7.5 -22t-3.5 -42v-396q0 -66 -9.5 -110t-29 -70.5t-49.5 -38t-72 -11.5q-41 0 -78.5 9.5t-66 35t-45.5 69.5t-17 112v346q0 42 -6 66.5t-13 38.5q-8 16 -18 22h124q-10 -6 -18 -21q-8 -13 -13.5 -38t-5.5 -67v-347q0 -63 11.5 -105.5
t32 -68t49.5 -36t64 -10.5t62.5 10t46 35t29 67t10.5 106l1 403q0 26 -3.5 40.5t-7.5 21.5q-6 9 -12 11h56zM319 817q16 0 26.5 3t16.5 6q8 4 12 9q-7 -15 -15 -27q-8 -10 -17.5 -18.5t-22.5 -9.5q-12 -1 -24.5 2t-26 7.5t-27.5 8.5t-30 4q-10 0 -19 -3t-16 -7
q-8 -5 -15 -11q4 16 12 29q8 11 19.5 19.5t28.5 8.5q16 0 29 -3.5t25 -7t23 -7t21 -3.5z" />
    <glyph glyph-name="Umacron" unicode="&#x16a;" horiz-adv-x="466" 
d="M303 831l-4 -21l-64 1h-73l7 30zM446 700q-6 -2 -11 -10q-4 -7 -7.5 -22t-3.5 -42v-396q0 -66 -9.5 -110t-29 -70.5t-49.5 -38t-72 -11.5q-41 0 -78.5 9.5t-66 35t-45.5 69.5t-17 112v346q0 42 -6 66.5t-13 38.5q-8 16 -18 22h124q-10 -6 -18 -21q-8 -13 -13.5 -38
t-5.5 -67v-347q0 -63 11.5 -105.5t32 -68t49.5 -36t64 -10.5t62.5 10t46 35t29 67t10.5 106l1 403q0 26 -3.5 40.5t-7.5 21.5q-6 9 -12 11h56z" />
    <glyph glyph-name="umacron" unicode="&#x16b;" horiz-adv-x="466" 
d="M303 831l-4 -21l-64 1h-73l7 30zM446 700q-6 -2 -11 -10q-4 -7 -7.5 -22t-3.5 -42v-396q0 -66 -9.5 -110t-29 -70.5t-49.5 -38t-72 -11.5q-41 0 -78.5 9.5t-66 35t-45.5 69.5t-17 112v346q0 42 -6 66.5t-13 38.5q-8 16 -18 22h124q-10 -6 -18 -21q-8 -13 -13.5 -38
t-5.5 -67v-347q0 -63 11.5 -105.5t32 -68t49.5 -36t64 -10.5t62.5 10t46 35t29 67t10.5 106l1 403q0 26 -3.5 40.5t-7.5 21.5q-6 9 -12 11h56z" />
    <glyph glyph-name="Uring" unicode="&#x16e;" horiz-adv-x="466" 
d="M233 894q22 0 37.5 -15.5t15.5 -37.5t-15.5 -37.5t-37.5 -15.5t-37.5 15.5t-15.5 37.5t15.5 37.5t37.5 15.5zM233 811q13 0 21.5 9t8.5 21q0 13 -8.5 21.5t-21.5 8.5q-12 0 -21 -8.5t-9 -21.5q0 -12 9 -21t21 -9zM446 700q-6 -2 -11 -10q-4 -7 -7.5 -22t-3.5 -42v-396
q0 -66 -9.5 -110t-29 -70.5t-49.5 -38t-72 -11.5q-41 0 -78.5 9.5t-66 35t-45.5 69.5t-17 112v346q0 42 -6 66.5t-13 38.5q-8 16 -18 22h124q-10 -6 -18 -21q-8 -13 -13.5 -38t-5.5 -67v-347q0 -63 11.5 -105.5t32 -68t49.5 -36t64 -10.5t62.5 10t46 35t29 67t10.5 106
l1 403q0 26 -3.5 40.5t-7.5 21.5q-6 9 -12 11h56z" />
    <glyph glyph-name="uring" unicode="&#x16f;" horiz-adv-x="466" 
d="M233 894q22 0 37.5 -15.5t15.5 -37.5t-15.5 -37.5t-37.5 -15.5t-37.5 15.5t-15.5 37.5t15.5 37.5t37.5 15.5zM233 811q13 0 21.5 9t8.5 21q0 13 -8.5 21.5t-21.5 8.5q-12 0 -21 -8.5t-9 -21.5q0 -12 9 -21t21 -9zM446 700q-6 -2 -11 -10q-4 -7 -7.5 -22t-3.5 -42v-396
q0 -66 -9.5 -110t-29 -70.5t-49.5 -38t-72 -11.5q-41 0 -78.5 9.5t-66 35t-45.5 69.5t-17 112v346q0 42 -6 66.5t-13 38.5q-8 16 -18 22h124q-10 -6 -18 -21q-8 -13 -13.5 -38t-5.5 -67v-347q0 -63 11.5 -105.5t32 -68t49.5 -36t64 -10.5t62.5 10t46 35t29 67t10.5 106
l1 403q0 26 -3.5 40.5t-7.5 21.5q-6 9 -12 11h56z" />
    <glyph glyph-name="Uhungarumlaut" unicode="&#x170;" horiz-adv-x="466" 
d="M327 894l-70 -96q3 18 4 35q2 15 2 31.5t-3 29.5h67zM257 894l-71 -96q3 18 4 35q2 15 2 31.5t-3 29.5h68zM446 700q-6 -2 -11 -10q-4 -7 -7.5 -22t-3.5 -42v-396q0 -66 -9.5 -110t-29 -70.5t-49.5 -38t-72 -11.5q-41 0 -78.5 9.5t-66 35t-45.5 69.5t-17 112v346
q0 42 -6 66.5t-13 38.5q-8 16 -18 22h124q-10 -6 -18 -21q-8 -13 -13.5 -38t-5.5 -67v-347q0 -63 11.5 -105.5t32 -68t49.5 -36t64 -10.5t62.5 10t46 35t29 67t10.5 106l1 403q0 26 -3.5 40.5t-7.5 21.5q-6 9 -12 11h56z" />
    <glyph glyph-name="uhungarumlaut" unicode="&#x171;" horiz-adv-x="466" 
d="M327 894l-70 -96q3 18 4 35q2 15 2 31.5t-3 29.5h67zM257 894l-71 -96q3 18 4 35q2 15 2 31.5t-3 29.5h68zM446 700q-6 -2 -11 -10q-4 -7 -7.5 -22t-3.5 -42v-396q0 -66 -9.5 -110t-29 -70.5t-49.5 -38t-72 -11.5q-41 0 -78.5 9.5t-66 35t-45.5 69.5t-17 112v346
q0 42 -6 66.5t-13 38.5q-8 16 -18 22h124q-10 -6 -18 -21q-8 -13 -13.5 -38t-5.5 -67v-347q0 -63 11.5 -105.5t32 -68t49.5 -36t64 -10.5t62.5 10t46 35t29 67t10.5 106l1 403q0 26 -3.5 40.5t-7.5 21.5q-6 9 -12 11h56z" />
    <glyph glyph-name="Uogonek" unicode="&#x172;" horiz-adv-x="466" 
d="M331 19q3 1 6 2.5l7 3.5q23 14 36.5 38t20.5 52t9 56.5t2 52.5l1 403v15.5t-1 13.5q-1 10 -5 21q-4 10 -6 13q-2 2 -3 3.5t-2 3.5q-2 1 -4 3h53l-1 -1h-1q-2 -2 -3 -2.5t-2 -2.5q-3 -3 -5 -8q-2 -4 -4 -14q-5 -25 -5 -46v-396q0 -33 -2.5 -68t-12.5 -65.5t-30.5 -54.5
t-57.5 -35q-3 -3 -7 -9q-5 -10 -5 -21q0 -21 22 -21q8 -2 12 3v-30h-5q-7 0 -16.5 2.5t-14.5 5.5q-10 5 -14 12q-6 7 -6 22q0 17 12 29l1 2q-8 -1 -17 -1.5t-19 -0.5q-57 0 -96.5 16t-64 45.5t-35.5 71t-11 93.5v346q0 23 -2.5 46t-10.5 46q-6 14 -11 22q-7 9 -10 11l-1 1
h-1l-1 1h123v-1l-2 -1q-5 -3 -9 -10q-7 -9 -11 -21q-9 -21 -11.5 -45.5t-2.5 -47.5v-347q0 -42 6.5 -82t23.5 -70.5t47.5 -49t79.5 -18.5q31 0 53 7z" />
    <glyph glyph-name="uogonek" unicode="&#x173;" horiz-adv-x="466" 
d="M331 19q3 1 6 2.5l7 3.5q23 14 36.5 38t20.5 52t9 56.5t2 52.5l1 403v15.5t-1 13.5q-1 10 -5 21q-4 10 -6 13q-2 2 -3 3.5t-2 3.5q-2 1 -4 3h53l-1 -1h-1q-2 -2 -3 -2.5t-2 -2.5q-3 -3 -5 -8q-2 -4 -4 -14q-5 -25 -5 -46v-396q0 -33 -2.5 -68t-12.5 -65.5t-30.5 -54.5
t-57.5 -35q-3 -3 -7 -9q-5 -10 -5 -21q0 -21 22 -21q8 -2 12 3v-30h-5q-7 0 -16.5 2.5t-14.5 5.5q-10 5 -14 12q-6 7 -6 22q0 17 12 29l1 2q-8 -1 -17 -1.5t-19 -0.5q-57 0 -96.5 16t-64 45.5t-35.5 71t-11 93.5v346q0 23 -2.5 46t-10.5 46q-6 14 -11 22q-7 9 -10 11l-1 1
h-1l-1 1h123v-1l-2 -1q-5 -3 -9 -10q-7 -9 -11 -21q-9 -21 -11.5 -45.5t-2.5 -47.5v-347q0 -42 6.5 -82t23.5 -70.5t47.5 -49t79.5 -18.5q31 0 53 7z" />
    <glyph glyph-name="Wcircumflex" unicode="&#x174;" horiz-adv-x="919" 
d="M564 792h-54q-21 20 -31 41t-21 47q-11 -26 -19.5 -47t-31.5 -41h-54l105 96zM486 678q2 -7 1.5 -26t-8.5 -47l-143 -532q-7 -26 -8.5 -40.5t0.5 -21.5q2 -9 6 -11h-23q-26 0 -40.5 4.5t-23.5 18t-15.5 37.5t-18.5 63l-122 450q-11 42 -23.5 66.5t-23.5 38.5
q-12 16 -24 22h124q-9 -6 -13 -21q-3 -13 -2 -38t12 -67l122 -451q11 -41 22.5 -65t20.5 -37q5 8 9.5 21t9.5 32zM899 700q-5 -2 -11 -11q-5 -8 -11.5 -22.5t-14.5 -40.5l-150 -553q-7 -26 -8.5 -40.5t-0.5 -21.5q2 -9 6 -11h-22q-26 0 -40.5 4.5t-23.5 18t-16 37.5t-18 63
l-105 385q-5 20 -3 41.5t6.5 41t10 34t8.5 20.5l133 -522q11 -41 22 -65t21 -37q9 16 19 53l149 552q8 26 9.5 41t-0.5 22q-1 9 -5 11h45z" />
    <glyph glyph-name="wcircumflex" unicode="&#x175;" horiz-adv-x="919" 
d="M564 792h-54q-21 20 -31 41t-21 47q-11 -26 -19.5 -47t-31.5 -41h-54l105 96zM486 678q2 -7 1.5 -26t-8.5 -47l-143 -532q-7 -26 -8.5 -40.5t0.5 -21.5q2 -9 6 -11h-23q-26 0 -40.5 4.5t-23.5 18t-15.5 37.5t-18.5 63l-122 450q-11 42 -23.5 66.5t-23.5 38.5
q-12 16 -24 22h124q-9 -6 -13 -21q-3 -13 -2 -38t12 -67l122 -451q11 -41 22.5 -65t20.5 -37q5 8 9.5 21t9.5 32zM899 700q-5 -2 -11 -11q-5 -8 -11.5 -22.5t-14.5 -40.5l-150 -553q-7 -26 -8.5 -40.5t-0.5 -21.5q2 -9 6 -11h-22q-26 0 -40.5 4.5t-23.5 18t-16 37.5t-18 63
l-105 385q-5 20 -3 41.5t6.5 41t10 34t8.5 20.5l133 -522q11 -41 22 -65t21 -37q9 16 19 53l149 552q8 26 9.5 41t-0.5 22q-1 9 -5 11h45z" />
    <glyph glyph-name="Ycircumflex" unicode="&#x176;" horiz-adv-x="553" 
d="M381 792h-54q-21 20 -31 41t-21 47q-11 -26 -19.5 -47t-31.5 -41h-54l105 96zM533 700q-7 -2 -16 -10q-8 -7 -19.5 -22t-25.5 -42l-164 -311v-193q0 -41 5.5 -65t13.5 -37q8 -15 18 -21h-124q10 6 18 21q7 13 13 37t6 65v114l203 391q14 26 18 40.5t4 21.5q-1 9 -6 11h56
zM261 407q18 -37 17.5 -63.5t-9.5 -48.5l-145 277q-22 42 -41 66.5t-33 38.5q-17 16 -30 22h124q-7 -6 -7 -21q0 -13 7.5 -38t29.5 -67z" />
    <glyph glyph-name="ycircumflex" unicode="&#x177;" horiz-adv-x="553" 
d="M381 792h-54q-21 20 -31 41t-21 47q-11 -26 -19.5 -47t-31.5 -41h-54l105 96zM533 700q-7 -2 -16 -10q-8 -7 -19.5 -22t-25.5 -42l-164 -311v-193q0 -41 5.5 -65t13.5 -37q8 -15 18 -21h-124q10 6 18 21q7 13 13 37t6 65v114l203 391q14 26 18 40.5t4 21.5q-1 9 -6 11h56
zM261 407q18 -37 17.5 -63.5t-9.5 -48.5l-145 277q-22 42 -41 66.5t-33 38.5q-17 16 -30 22h124q-7 -6 -7 -21q0 -13 7.5 -38t29.5 -67z" />
    <glyph glyph-name="Ydieresis" unicode="&#x178;" horiz-adv-x="553" 
d="M215 870q18 0 30.5 -12.5t12.5 -29.5t-12.5 -29.5t-30.5 -12.5q-17 0 -29.5 12.5t-12.5 29.5t12.5 29.5t29.5 12.5zM337 870q17 0 29.5 -12.5t12.5 -29.5t-12.5 -29.5t-29.5 -12.5t-29.5 12.5t-12.5 29.5t12.5 29.5t29.5 12.5zM533 700q-7 -2 -16 -10q-8 -7 -19.5 -22
t-25.5 -42l-164 -311v-193q0 -41 5.5 -65t13.5 -37q8 -15 18 -21h-124q10 6 18 21q7 13 13 37t6 65v114l203 391q14 26 18 40.5t4 21.5q-1 9 -6 11h56zM261 407q18 -37 17.5 -63.5t-9.5 -48.5l-145 277q-22 42 -41 66.5t-33 38.5q-17 16 -30 22h124q-7 -6 -7 -21
q0 -13 7.5 -38t29.5 -67z" />
    <glyph glyph-name="Zacute" unicode="&#x179;" horiz-adv-x="504" 
d="M228 798q3 18 4 35q2 15 2 31.5t-3 29.5h68zM332 8q47 0 71 16.5t35 36.5q13 23 14 52h8v-113h-440q13 6 29 21q14 13 31 37t37 65l218 451q29 59 35 84.5t2 33.5h-199q-46 0 -70.5 -16t-35.5 -36q-13 -24 -14 -53h-8v113h439q-13 -6 -29 -22q-14 -14 -32 -38.5
t-38 -66.5l-218 -450q-14 -29 -20.5 -49t-8.5 -33.5t-0.5 -21t3.5 -11.5h191z" />
    <glyph glyph-name="zacute" unicode="&#x17a;" horiz-adv-x="504" 
d="M228 798q3 18 4 35q2 15 2 31.5t-3 29.5h68zM332 8q47 0 71 16.5t35 36.5q13 23 14 52h8v-113h-440q13 6 29 21q14 13 31 37t37 65l218 451q29 59 35 84.5t2 33.5h-199q-46 0 -70.5 -16t-35.5 -36q-13 -24 -14 -53h-8v113h439q-13 -6 -29 -22q-14 -14 -32 -38.5
t-38 -66.5l-218 -450q-14 -29 -20.5 -49t-8.5 -33.5t-0.5 -21t3.5 -11.5h191z" />
    <glyph glyph-name="Zdotaccent" unicode="&#x17b;" horiz-adv-x="504" 
d="M252 870q18 0 30.5 -12.5t12.5 -29.5t-12.5 -29.5t-30.5 -12.5q-17 0 -29.5 12.5t-12.5 29.5t12.5 29.5t29.5 12.5zM332 8q47 0 71 16.5t35 36.5q13 23 14 52h8v-113h-440q13 6 29 21q14 13 31 37t37 65l218 451q29 59 35 84.5t2 33.5h-199q-46 0 -70.5 -16t-35.5 -36
q-13 -24 -14 -53h-8v113h439q-13 -6 -29 -22q-14 -14 -32 -38.5t-38 -66.5l-218 -450q-14 -29 -20.5 -49t-8.5 -33.5t-0.5 -21t3.5 -11.5h191z" />
    <glyph glyph-name="zdotaccent" unicode="&#x17c;" horiz-adv-x="504" 
d="M252 870q18 0 30.5 -12.5t12.5 -29.5t-12.5 -29.5t-30.5 -12.5q-17 0 -29.5 12.5t-12.5 29.5t12.5 29.5t29.5 12.5zM332 8q47 0 71 16.5t35 36.5q13 23 14 52h8v-113h-440q13 6 29 21q14 13 31 37t37 65l218 451q29 59 35 84.5t2 33.5h-199q-46 0 -70.5 -16t-35.5 -36
q-13 -24 -14 -53h-8v113h439q-13 -6 -29 -22q-14 -14 -32 -38.5t-38 -66.5l-218 -450q-14 -29 -20.5 -49t-8.5 -33.5t-0.5 -21t3.5 -11.5h191z" />
    <glyph glyph-name="Zcaron" unicode="&#x17d;" horiz-adv-x="504" 
d="M357 888l-106 -96l-105 96h54q23 -20 31.5 -41t19.5 -47q11 26 21 47t31 41h54zM332 8q47 0 71 16.5t35 36.5q13 23 14 52h8v-113h-440q13 6 29 21q14 13 31 37t37 65l218 451q29 59 35 84.5t2 33.5h-199q-46 0 -70.5 -16t-35.5 -36q-13 -24 -14 -53h-8v113h439
q-13 -6 -29 -22q-14 -14 -32 -38.5t-38 -66.5l-218 -450q-14 -29 -20.5 -49t-8.5 -33.5t-0.5 -21t3.5 -11.5h191z" />
    <glyph glyph-name="zcaron" unicode="&#x17e;" horiz-adv-x="504" 
d="M357 888l-106 -96l-105 96h54q23 -20 31.5 -41t19.5 -47q11 26 21 47t31 41h54zM332 8q47 0 71 16.5t35 36.5q13 23 14 52h8v-113h-440q13 6 29 21q14 13 31 37t37 65l218 451q29 59 35 84.5t2 33.5h-199q-46 0 -70.5 -16t-35.5 -36q-13 -24 -14 -53h-8v113h439
q-13 -6 -29 -22q-14 -14 -32 -38.5t-38 -66.5l-218 -450q-14 -29 -20.5 -49t-8.5 -33.5t-0.5 -21t3.5 -11.5h191z" />
    <glyph glyph-name="Ohorn" unicode="&#x1a0;" horiz-adv-x="736" 
d="M368 700q70 0 131.5 -26t109.5 -72q18 6 31 17.5t21.5 25t12 28t3.5 27.5l55 -17q-4 -11 -12.5 -24.5t-22 -26t-33 -23t-46.5 -16.5q46 -48 72 -110t26 -133q0 -72 -27.5 -136t-74.5 -111.5t-110.5 -75t-135.5 -27.5t-135.5 27.5t-110.5 75t-74.5 111.5t-27.5 136
t27.5 136t74.5 111.5t110.5 75t135.5 27.5zM484 36q57 21 98 64t62.5 99t22.5 121.5t-23 131.5q-19 53 -50.5 96t-71.5 73t-85.5 46.5t-92.5 16.5q-45 0 -87 -15q-57 -21 -98 -64t-62.5 -99t-22.5 -121.5t22 -131.5q19 -53 51 -96t71.5 -73t85.5 -46.5t93 -16.5q44 0 87 15z
" />
    <glyph glyph-name="ohorn" unicode="&#x1a1;" horiz-adv-x="736" 
d="M368 700q72 0 135.5 -27.5t110.5 -75t74.5 -111.5t27.5 -136t-27.5 -136t-74.5 -111.5t-110.5 -75t-135.5 -27.5t-135.5 27.5t-110.5 75t-74.5 111.5t-27.5 136t27.5 136t74.5 111.5t110.5 75t135.5 27.5zM484 36q57 21 98 64t62.5 99t22.5 121.5t-23 131.5
q-19 53 -50.5 96t-71.5 73t-85.5 46.5t-92.5 16.5q-45 0 -87 -15q-57 -21 -98 -64t-62.5 -99t-22.5 -121.5t22 -131.5q19 -53 51 -96t71.5 -73t85.5 -46.5t93 -16.5q44 0 87 15zM562 609q26 0 44 9t29.5 22.5t17 29.5t5.5 30l48 -15q-4 -12 -14 -26.5t-27 -27t-42.5 -21
t-60.5 -8.5v7z" />
    <glyph glyph-name="Uhorn" unicode="&#x1af;" horiz-adv-x="514" 
d="M446 700q-6 -2 -11 -10q-4 -7 -7.5 -22t-3.5 -42v-396q0 -66 -9.5 -110t-29 -70.5t-49.5 -38t-72 -11.5q-41 0 -78.5 9.5t-66 35t-45.5 69.5t-17 112v346q0 42 -6 66.5t-13 38.5q-8 16 -18 22h124q-10 -6 -18 -21q-8 -13 -13.5 -38t-5.5 -67v-347q0 -63 11.5 -105.5
t32 -68t49.5 -36t64 -10.5t62.5 10t46 35t29 67t10.5 106l1 403q0 26 -3.5 40.5t-7.5 21.5q-6 9 -12 11h56zM412.773 652.666q18.9414 0 32.0547 6.55664t21.4912 16.3916t12.3848 21.4912t4.00684 21.8555l34.9688 -10.9277q-2.91406 -8.74219 -10.1992 -19.3057
t-19.6699 -19.6699t-30.9619 -15.2988t-44.0752 -6.19238v5.09961z" />
    <glyph glyph-name="uhorn" unicode="&#x1b0;" horiz-adv-x="540" 
d="M446 700q-6 -2 -11 -10q-4 -7 -7.5 -22t-3.5 -42v-396q0 -66 -9.5 -110t-29 -70.5t-49.5 -38t-72 -11.5q-41 0 -78.5 9.5t-66 35t-45.5 69.5t-17 112v346q0 42 -6 66.5t-13 38.5q-8 16 -18 22h124q-10 -6 -18 -21q-8 -13 -13.5 -38t-5.5 -67v-347q0 -63 11.5 -105.5
t32 -68t49.5 -36t64 -10.5t62.5 10t46 35t29 67t10.5 106l1 403q0 26 -3.5 40.5t-7.5 21.5q-6 9 -12 11h56zM414.043 638.694q22.3574 0 37.8359 7.73926q15.4795 7.73926 25.3682 19.3477q9.88965 11.6094 14.6191 25.3682t4.72949 25.7979l41.2764 -12.8994
q-3.44043 -10.3184 -12.0391 -22.7881q-8.59961 -12.4688 -23.2178 -23.2178q-14.6191 -10.749 -36.5469 -18.0586q-21.9287 -7.30859 -52.0254 -7.30859v6.01953z" />
    <glyph glyph-name="uni02BC" unicode="&#x2bc;" horiz-adv-x="108" 
d="M54 700q14 0 24 -10t10 -24q0 -17 -9 -36t-38 -25q3 2 5 6q2 3 2.5 8.5t-1.5 13.5q-11 2 -19 11.5t-8 21.5q0 14 10 24t24 10z" />
    <glyph glyph-name="circumflex" unicode="&#x2c6;" horiz-adv-x="418" 
d="M318 792h-54q-21 20 -31 41t-21 47q-11 -26 -19.5 -47t-31.5 -41h-54l105 96z" />
    <glyph glyph-name="breve" unicode="&#x2d8;" horiz-adv-x="299" 
d="M219 651q-2 -17 -21.5 -28.5t-48.5 -11.5q-28 0 -47.5 11.5t-21.5 28.5h43q1 -3 2 -9t4 -12t8 -10.5t12 -4.5q8 0 12.5 4t7 10t3.5 12t1 10h46z" />
    <glyph glyph-name="dotaccent" unicode="&#x2d9;" horiz-adv-x="299" 
d="M149 670q18 0 30.5 -12.5t12.5 -29.5t-12.5 -29.5t-30.5 -12.5q-17 0 -29.5 12.5t-12.5 29.5t12.5 29.5t29.5 12.5z" />
    <glyph glyph-name="tilde" unicode="&#x2dc;" horiz-adv-x="299" 
d="M201 645q16 0 26.5 3t16.5 6q8 4 12 9q-7 -15 -15 -27q-8 -10 -17.5 -18.5t-22.5 -9.5q-12 -1 -24.5 2t-26 7.5t-27.5 8.5t-30 4q-10 0 -19 -3t-16 -7q-8 -5 -15 -11q4 16 12 29q8 11 19.5 19.5t28.5 8.5q16 0 29 -3.5t25 -7t23 -7t21 -3.5z" />
    <glyph glyph-name="gravecomb" unicode="&#x300;" horiz-adv-x="111" 
d="M87 694q-3 -13 -2.5 -29.5t1.5 -31.5t3 -25l2 -10l-71 96h67z" />
    <glyph glyph-name="acutecomb" unicode="&#x301;" horiz-adv-x="111" 
d="M20 598q3 18 4 35q2 15 2 31.5t-3 29.5h68z" />
    <glyph glyph-name="uni0302" unicode="&#x302;" horiz-adv-x="251" 
d="M231 592h-54q-21 20 -31 41t-21 47q-11 -26 -19.5 -47t-31.5 -41h-54l105 96z" />
    <glyph glyph-name="tildecomb" unicode="&#x303;" horiz-adv-x="253" 
d="M178 645q16 0 26.5 3t16.5 6q8 4 12 9q-7 -15 -15 -27q-8 -10 -17.5 -18.5t-22.5 -9.5q-12 -1 -24.5 2t-26 7.5t-27.5 8.5t-30 4q-10 0 -19 -3t-16 -7q-8 -5 -15 -11q4 16 12 29q8 11 19.5 19.5t28.5 8.5q16 0 29 -3.5t25 -7t23 -7t21 -3.5z" />
    <glyph glyph-name="uni0304" unicode="&#x304;" horiz-adv-x="179" 
d="M161 631l-4 -21l-64 1h-73l7 30z" />
    <glyph glyph-name="uni0305" unicode="&#x305;" horiz-adv-x="290" 
d="M270 631l-8 -21l-112 1h-130l12 30z" />
    <glyph glyph-name="uni0306" unicode="&#x306;" horiz-adv-x="179" 
d="M159 651q-2 -17 -21.5 -28.5t-48.5 -11.5q-28 0 -47.5 11.5t-21.5 28.5h43q1 -3 2 -9t4 -12t8 -10.5t12 -4.5q8 0 12.5 4t7 10t3.5 12t1 10h46z" />
    <glyph glyph-name="uni0307" unicode="&#x307;" horiz-adv-x="125" 
d="M62 670q18 0 30.5 -12.5t12.5 -29.5t-12.5 -29.5t-30.5 -12.5q-17 0 -29.5 12.5t-12.5 29.5t12.5 29.5t29.5 12.5z" />
    <glyph glyph-name="uni0308" unicode="&#x308;" horiz-adv-x="246" 
d="M62 670q18 0 30.5 -12.5t12.5 -29.5t-12.5 -29.5t-30.5 -12.5q-17 0 -29.5 12.5t-12.5 29.5t12.5 29.5t29.5 12.5zM184 670q17 0 29.5 -12.5t12.5 -29.5t-12.5 -29.5t-29.5 -12.5t-29.5 12.5t-12.5 29.5t12.5 29.5t29.5 12.5z" />
    <glyph glyph-name="hookabovecomb" unicode="&#x309;" horiz-adv-x="308" 
d="M152 871q45 0 61.5 -13t16.5 -29q0 -17 -12 -27t-27 -17t-27 -14t-12 -18h-7q0 12 10.5 19.5t22.5 15t22.5 16.5t10.5 24t-10.5 28.5t-48.5 13.5q-32 0 -43.5 -13t-6.5 -36l-22 6q0 16 15 30t57 14z" />
    <glyph glyph-name="uni030A" unicode="&#x30a;" horiz-adv-x="146" 
d="M73 694q22 0 37.5 -15.5t15.5 -37.5t-15.5 -37.5t-37.5 -15.5t-37.5 15.5t-15.5 37.5t15.5 37.5t37.5 15.5zM73 611q13 0 21.5 9t8.5 21q0 13 -8.5 21.5t-21.5 8.5q-12 0 -21 -8.5t-9 -21.5q0 -12 9 -21t21 -9z" />
    <glyph glyph-name="uni030B" unicode="&#x30b;" horiz-adv-x="181" 
d="M161 694l-70 -96q3 18 4 35q2 15 2 31.5t-3 29.5h67zM91 694l-71 -96q3 18 4 35q2 15 2 31.5t-3 29.5h68z" />
    <glyph glyph-name="uni030C" unicode="&#x30c;" horiz-adv-x="251" 
d="M231 688l-106 -96l-105 96h54q23 -20 31.5 -41t19.5 -47q11 26 21 47t31 41h54z" />
    <glyph glyph-name="uni030F" unicode="&#x30f;" horiz-adv-x="181" 
d="M57 694q-3 -13 -2.5 -29.5t1.5 -31.5t3 -25l2 -10l-71 96h67zM128 694q-2 -13 -2.5 -29.5t1.5 -31.5q1 -17 4 -35l-70 96h67z" />
    <glyph glyph-name="uni0312" unicode="&#x312;" horiz-adv-x="108" 
d="M60 672q12 -2 20 -11.5t8 -21.5q0 -14 -10 -24t-24 -10t-24 10t-10 24q0 17 8.5 36t38.5 25q-3 -2 -5 -6q-2 -3 -3 -8.5t1 -13.5z" />
    <glyph glyph-name="uni0313" unicode="&#x313;" horiz-adv-x="108" 
d="M54 700q14 0 24 -10t10 -24q0 -17 -9 -36t-38 -25q3 2 5 6q2 3 2.5 8.5t-1.5 13.5q-11 2 -19 11.5t-8 21.5q0 14 10 24t24 10z" />
    <glyph glyph-name="uni0314" unicode="&#x314;" horiz-adv-x="108" 
d="M60 633q-2 -8 -1 -13.5t3 -8.5q2 -4 5 -6q-30 6 -38.5 25t-8.5 36q0 14 10 24t24 10t24 -10t10 -24q0 -12 -8 -21.5t-20 -11.5z" />
    <glyph glyph-name="uni0315" unicode="&#x315;" horiz-adv-x="108" 
d="M54 700q14 0 24 -10t10 -24q0 -17 -9 -36t-38 -25q3 2 5 6q2 3 2.5 8.5t-1.5 13.5q-11 2 -19 11.5t-8 21.5q0 14 10 24t24 10z" />
    <glyph glyph-name="uni031B" unicode="&#x31b;" horiz-adv-x="108" 
d="M-36 609q26 0 44 9t29.5 22.5t17 29.5t5.5 30l48 -15q-4 -12 -14 -26.5t-27 -27t-42.5 -21t-60.5 -8.5v7z" />
    <glyph glyph-name="uni0321" unicode="&#x321;" horiz-adv-x="164" 
d="M20 -104h77v199h47v-253h-124v54z" />
    <glyph glyph-name="uni0322" unicode="&#x322;" horiz-adv-x="164" 
d="M20 -158v253h47v-199h77v-54h-124z" />
    <glyph glyph-name="dotbelowcomb" unicode="&#x323;" horiz-adv-x="333" 
d="M167 -100q-14 0 -24 10t-10 24t10 24t24 10t24 -10t10 -24t-10 -24t-24 -10z" />
    <glyph glyph-name="uni0326" unicode="&#x326;" horiz-adv-x="108" 
d="M54 -38q14 0 24 -10t10 -24q0 -17 -9 -36t-38 -25q3 2 5 6q2 3 2.5 8.5t-1.5 13.5q-11 2 -19 11.5t-8 21.5q0 14 10 24t24 10z" />
    <glyph glyph-name="uni0327" unicode="&#x327;" horiz-adv-x="131" 
d="M73 -11q16 -3 27 -15.5t11 -29.5q0 -19 -13.5 -32t-32.5 -13q-17 0 -30 11t-15 28h20q5 -19 25 -19q11 0 20.5 6t9.5 23q0 20 -14.5 31.5t-28.5 6.5l12 34h20z" />
    <glyph glyph-name="uni0328" unicode="&#x328;" horiz-adv-x="96" 
d="M42 -23q0 -11 8 -16t16 -5q7 0 10 3v-30q-16 0 -28 4q-11 4 -19.5 12.5t-8.5 25.5q0 13 6.5 22.5t15 15.5t17.5 8.5t14 2.5v-1q-9 -3 -15 -9q-6 -5 -11 -13t-5 -20z" />
    <glyph glyph-name="uni0340" unicode="&#x340;" horiz-adv-x="111" 
d="M87 694q-3 -13 -2.5 -29.5t1.5 -31.5t3 -25l2 -10l-71 96h67z" />
    <glyph glyph-name="uni0341" unicode="&#x341;" horiz-adv-x="111" 
d="M20 598q3 18 4 35q2 15 2 31.5t-3 29.5h68z" />
    <glyph glyph-name="uni0342" unicode="&#x342;" horiz-adv-x="253" 
d="M178 645q16 0 26.5 3t16.5 6q8 4 12 9q-7 -15 -15 -27q-8 -10 -17.5 -18.5t-22.5 -9.5q-12 -1 -24.5 2t-26 7.5t-27.5 8.5t-30 4q-10 0 -19 -3t-16 -7q-8 -5 -15 -11q4 16 12 29q8 11 19.5 19.5t28.5 8.5q16 0 29 -3.5t25 -7t23 -7t21 -3.5z" />
    <glyph glyph-name="uni0343" unicode="&#x343;" horiz-adv-x="108" 
d="M54 700q14 0 24 -10t10 -24q0 -17 -9 -36t-38 -25q3 2 5 6q2 3 2.5 8.5t-1.5 13.5q-11 2 -19 11.5t-8 21.5q0 14 10 24t24 10z" />
    <glyph glyph-name="uni1EA0" unicode="&#x1ea0;" horiz-adv-x="543" 
d="M399 0q9 6 13 21q3 14 2 38.5t-12 66.5l-54 200h-212l-68 -252q-7 -26 -8.5 -40.5t-0.5 -22.5q2 -9 6 -11h-45q5 2 11 11q5 8 11.5 22.5t14.5 40.5l150 553q7 25 8 39.5t0 22t-3.5 9.5l-2.5 2h23q26 0 40.5 -4.5t23.5 -18t16 -37.5t18 -63l56 -209q-26 0 -42 15.5
t-26 53.5l-38 140q-11 41 -22.5 65t-20.5 37q-9 -16 -19 -53l-79 -291l207 -1q21 0 37 -7.5t27 -43.5l42 -156q11 -42 23.5 -66.5t23.5 -38.5q12 -16 24 -22h-124zM272 -100q-14 0 -24 10t-10 24t10 24t24 10t24 -10t10 -24t-10 -24t-24 -10z" />
    <glyph glyph-name="uni1EA1" unicode="&#x1ea1;" horiz-adv-x="543" 
d="M399 0q9 6 13 21q3 14 2 38.5t-12 66.5l-54 200h-212l-68 -252q-7 -26 -8.5 -40.5t-0.5 -22.5q2 -9 6 -11h-45q5 2 11 11q5 8 11.5 22.5t14.5 40.5l150 553q7 25 8 39.5t0 22t-3.5 9.5l-2.5 2h23q26 0 40.5 -4.5t23.5 -18t16 -37.5t18 -63l56 -209q-26 0 -42 15.5
t-26 53.5l-38 140q-11 41 -22.5 65t-20.5 37q-9 -16 -19 -53l-79 -291l207 -1q21 0 37 -7.5t27 -43.5l42 -156q11 -42 23.5 -66.5t23.5 -38.5q12 -16 24 -22h-124zM272 -100q-14 0 -24 10t-10 24t10 24t24 10t24 -10t10 -24t-10 -24t-24 -10z" />
    <glyph glyph-name="uni1EA2" unicode="&#x1ea2;" horiz-adv-x="543" 
d="M399 0q9 6 13 21q3 14 2 38.5t-12 66.5l-54 200h-212l-68 -252q-7 -26 -8.5 -40.5t-0.5 -22.5q2 -9 6 -11h-45q5 2 11 11q5 8 11.5 22.5t14.5 40.5l150 553q7 25 8 39.5t0 22t-3.5 9.5l-2.5 2h23q26 0 40.5 -4.5t23.5 -18t16 -37.5t18 -63l56 -209q-26 0 -42 15.5
t-26 53.5l-38 140q-11 41 -22.5 65t-20.5 37q-9 -16 -19 -53l-79 -291l207 -1q21 0 37 -7.5t27 -43.5l42 -156q11 -42 23.5 -66.5t23.5 -38.5q12 -16 24 -22h-124zM250 896q45 0 61.5 -13t16.5 -29q0 -17 -12 -27t-27 -17t-27 -14t-12 -18h-7q0 12 10.5 19.5t22.5 15
t22.5 16.5t10.5 24t-10.5 28.5t-48.5 13.5q-32 0 -43.5 -13t-6.5 -36l-22 6q0 16 15 30t57 14z" />
    <glyph glyph-name="uni1EA3" unicode="&#x1ea3;" horiz-adv-x="543" 
d="M399 0q9 6 13 21q3 14 2 38.5t-12 66.5l-54 200h-212l-68 -252q-7 -26 -8.5 -40.5t-0.5 -22.5q2 -9 6 -11h-45q5 2 11 11q5 8 11.5 22.5t14.5 40.5l150 553q7 25 8 39.5t0 22t-3.5 9.5l-2.5 2h23q26 0 40.5 -4.5t23.5 -18t16 -37.5t18 -63l56 -209q-26 0 -42 15.5
t-26 53.5l-38 140q-11 41 -22.5 65t-20.5 37q-9 -16 -19 -53l-79 -291l207 -1q21 0 37 -7.5t27 -43.5l42 -156q11 -42 23.5 -66.5t23.5 -38.5q12 -16 24 -22h-124zM269 871q45 0 61.5 -13t16.5 -29q0 -17 -12 -27t-27 -17t-27 -14t-12 -18h-7q0 12 10.5 19.5t22.5 15
t22.5 16.5t10.5 24t-10.5 28.5t-48.5 13.5q-32 0 -43.5 -13t-6.5 -36l-22 6q0 16 15 30t57 14z" />
    <glyph glyph-name="uni1EA4" unicode="&#x1ea4;" horiz-adv-x="543" 
d="M360 731h-54q-21 20 -31 41t-21 47q-11 -26 -19.5 -47t-31.5 -41h-54l105 96zM399 0q9 6 13 21q3 14 2 38.5t-12 66.5l-54 200h-212l-68 -252q-7 -26 -8.5 -40.5t-0.5 -22.5q2 -9 6 -11h-45q5 2 11 11q5 8 11.5 22.5t14.5 40.5l150 553q7 25 8 39.5t0 22t-3.5 9.5l-2.5 2
h23q26 0 40.5 -4.5t23.5 -18t16 -37.5t18 -63l56 -209q-26 0 -42 15.5t-26 53.5l-38 140q-11 41 -22.5 65t-20.5 37q-9 -16 -19 -53l-79 -291l207 -1q21 0 37 -7.5t27 -43.5l42 -156q11 -42 23.5 -66.5t23.5 -38.5q12 -16 24 -22h-124zM206 832q3 18 4 35q2 15 2 31.5
t-3 29.5h68z" />
    <glyph glyph-name="uni1EA5" unicode="&#x1ea5;" horiz-adv-x="543" 
d="M355 737h-54q-21 20 -31 41t-21 47q-11 -26 -19.5 -47t-31.5 -41h-54l105 96zM399 0q9 6 13 21q3 14 2 38.5t-12 66.5l-54 200h-212l-68 -252q-7 -26 -8.5 -40.5t-0.5 -22.5q2 -9 6 -11h-45q5 2 11 11q5 8 11.5 22.5t14.5 40.5l150 553q7 25 8 39.5t0 22t-3.5 9.5l-2.5 2
h23q26 0 40.5 -4.5t23.5 -18t16 -37.5t18 -63l56 -209q-26 0 -42 15.5t-26 53.5l-38 140q-11 41 -22.5 65t-20.5 37q-9 -16 -19 -53l-79 -291l207 -1q21 0 37 -7.5t27 -43.5l42 -156q11 -42 23.5 -66.5t23.5 -38.5q12 -16 24 -22h-124zM181 837q3 18 4 35q2 15 2 31.5
t-3 29.5h68z" />
    <glyph glyph-name="uni1EA6" unicode="&#x1ea6;" horiz-adv-x="543" 
d="M360 731h-54q-21 20 -31 41t-21 47q-11 -26 -19.5 -47t-31.5 -41h-54l105 96zM399 0q9 6 13 21q3 14 2 38.5t-12 66.5l-54 200h-212l-68 -252q-7 -26 -8.5 -40.5t-0.5 -22.5q2 -9 6 -11h-45q5 2 11 11q5 8 11.5 22.5t14.5 40.5l150 553q7 25 8 39.5t0 22t-3.5 9.5l-2.5 2
h23q26 0 40.5 -4.5t23.5 -18t16 -37.5t18 -63l56 -209q-26 0 -42 15.5t-26 53.5l-38 140q-11 41 -22.5 65t-20.5 37q-9 -16 -19 -53l-79 -291l207 -1q21 0 37 -7.5t27 -43.5l42 -156q11 -42 23.5 -66.5t23.5 -38.5q12 -16 24 -22h-124zM320 923q-3 -13 -2.5 -29.5t1.5 -31.5
t3 -25l2 -10l-71 96h67z" />
    <glyph glyph-name="uni1EA7" unicode="&#x1ea7;" horiz-adv-x="543" 
d="M355 737h-54q-21 20 -31 41t-21 47q-11 -26 -19.5 -47t-31.5 -41h-54l105 96zM399 0q9 6 13 21q3 14 2 38.5t-12 66.5l-54 200h-212l-68 -252q-7 -26 -8.5 -40.5t-0.5 -22.5q2 -9 6 -11h-45q5 2 11 11q5 8 11.5 22.5t14.5 40.5l150 553q7 25 8 39.5t0 22t-3.5 9.5l-2.5 2
h23q26 0 40.5 -4.5t23.5 -18t16 -37.5t18 -63l56 -209q-26 0 -42 15.5t-26 53.5l-38 140q-11 41 -22.5 65t-20.5 37q-9 -16 -19 -53l-79 -291l207 -1q21 0 37 -7.5t27 -43.5l42 -156q11 -42 23.5 -66.5t23.5 -38.5q12 -16 24 -22h-124zM330 929q-3 -13 -2.5 -29.5t1.5 -31.5
t3 -25l2 -10l-71 96h67z" />
    <glyph glyph-name="uni1EA8" unicode="&#x1ea8;" horiz-adv-x="543" 
d="M360 731h-54q-21 20 -31 41t-21 47q-11 -26 -19.5 -47t-31.5 -41h-54l105 96zM399 0q9 6 13 21q3 14 2 38.5t-12 66.5l-54 200h-212l-68 -252q-7 -26 -8.5 -40.5t-0.5 -22.5q2 -9 6 -11h-45q5 2 11 11q5 8 11.5 22.5t14.5 40.5l150 553q7 25 8 39.5t0 22t-3.5 9.5l-2.5 2
h23q26 0 40.5 -4.5t23.5 -18t16 -37.5t18 -63l56 -209q-26 0 -42 15.5t-26 53.5l-38 140q-11 41 -22.5 65t-20.5 37q-9 -16 -19 -53l-79 -291l207 -1q21 0 37 -7.5t27 -43.5l42 -156q11 -42 23.5 -66.5t23.5 -38.5q12 -16 24 -22h-124zM308 945q45 0 61.5 -13t16.5 -29
q0 -17 -12 -27t-27 -17t-27 -14t-12 -18h-7q0 12 10.5 19.5t22.5 15t22.5 16.5t10.5 24t-10.5 28.5t-48.5 13.5q-32 0 -43.5 -13t-6.5 -36l-22 6q0 16 15 30t57 14z" />
    <glyph glyph-name="uni1EA9" unicode="&#x1ea9;" horiz-adv-x="543" 
d="M355 737h-54q-21 20 -31 41t-21 47q-11 -26 -19.5 -47t-31.5 -41h-54l105 96zM399 0q9 6 13 21q3 14 2 38.5t-12 66.5l-54 200h-212l-68 -252q-7 -26 -8.5 -40.5t-0.5 -22.5q2 -9 6 -11h-45q5 2 11 11q5 8 11.5 22.5t14.5 40.5l150 553q7 25 8 39.5t0 22t-3.5 9.5l-2.5 2
h23q26 0 40.5 -4.5t23.5 -18t16 -37.5t18 -63l56 -209q-26 0 -42 15.5t-26 53.5l-38 140q-11 41 -22.5 65t-20.5 37q-9 -16 -19 -53l-79 -291l207 -1q21 0 37 -7.5t27 -43.5l42 -156q11 -42 23.5 -66.5t23.5 -38.5q12 -16 24 -22h-124zM305 951q45 0 61.5 -13t16.5 -29
q0 -17 -12 -27t-27 -17t-27 -14t-12 -18h-7q0 12 10.5 19.5t22.5 15t22.5 16.5t10.5 24t-10.5 28.5t-48.5 13.5q-32 0 -43.5 -13t-6.5 -36l-22 6q0 16 15 30t57 14z" />
    <glyph glyph-name="uni1EAA" unicode="&#x1eaa;" horiz-adv-x="543" 
d="M360 731h-54q-21 20 -31 41t-21 47q-11 -26 -19.5 -47t-31.5 -41h-54l105 96zM399 0q9 6 13 21q3 14 2 38.5t-12 66.5l-54 200h-212l-68 -252q-7 -26 -8.5 -40.5t-0.5 -22.5q2 -9 6 -11h-45q5 2 11 11q5 8 11.5 22.5t14.5 40.5l150 553q7 25 8 39.5t0 22t-3.5 9.5l-2.5 2
h23q26 0 40.5 -4.5t23.5 -18t16 -37.5t18 -63l56 -209q-26 0 -42 15.5t-26 53.5l-38 140q-11 41 -22.5 65t-20.5 37q-9 -16 -19 -53l-79 -291l207 -1q21 0 37 -7.5t27 -43.5l42 -156q11 -42 23.5 -66.5t23.5 -38.5q12 -16 24 -22h-124zM306 891q16 0 26.5 3t16.5 6q8 4 12 9
q-7 -15 -15 -27q-8 -10 -17.5 -18.5t-22.5 -9.5q-12 -1 -24.5 2t-26 7.5t-27.5 8.5t-30 4q-10 0 -19 -3t-16 -7q-8 -5 -15 -11q4 16 12 29q8 11 19.5 19.5t28.5 8.5q16 0 29 -3.5t25 -7t23 -7t21 -3.5z" />
    <glyph glyph-name="uni1EAB" unicode="&#x1eab;" horiz-adv-x="543" 
d="M355 737h-54q-21 20 -31 41t-21 47q-11 -26 -19.5 -47t-31.5 -41h-54l105 96zM399 0q9 6 13 21q3 14 2 38.5t-12 66.5l-54 200h-212l-68 -252q-7 -26 -8.5 -40.5t-0.5 -22.5q2 -9 6 -11h-45q5 2 11 11q5 8 11.5 22.5t14.5 40.5l150 553q7 25 8 39.5t0 22t-3.5 9.5l-2.5 2
h23q26 0 40.5 -4.5t23.5 -18t16 -37.5t18 -63l56 -209q-26 0 -42 15.5t-26 53.5l-38 140q-11 41 -22.5 65t-20.5 37q-9 -16 -19 -53l-79 -291l207 -1q21 0 37 -7.5t27 -43.5l42 -156q11 -42 23.5 -66.5t23.5 -38.5q12 -16 24 -22h-124zM301 899q16 0 26.5 3t16.5 6q8 4 12 9
q-7 -15 -15 -27q-8 -10 -17.5 -18.5t-22.5 -9.5q-12 -1 -24.5 2t-26 7.5t-27.5 8.5t-30 4q-10 0 -19 -3t-16 -7q-8 -5 -15 -11q4 16 12 29q8 11 19.5 19.5t28.5 8.5q16 0 29 -3.5t25 -7t23 -7t21 -3.5z" />
    <glyph glyph-name="uni1EAC" unicode="&#x1eac;" horiz-adv-x="543" 
d="M399 0q9 6 13 21q3 14 2 38.5t-12 66.5l-54 200h-212l-68 -252q-7 -26 -8.5 -40.5t-0.5 -22.5q2 -9 6 -11h-45q5 2 11 11q5 8 11.5 22.5t14.5 40.5l150 553q7 25 8 39.5t0 22t-3.5 9.5l-2.5 2h23q26 0 40.5 -4.5t23.5 -18t16 -37.5t18 -63l56 -209q-26 0 -42 15.5
t-26 53.5l-38 140q-11 41 -22.5 65t-20.5 37q-9 -16 -19 -53l-79 -291l207 -1q21 0 37 -7.5t27 -43.5l42 -156q11 -42 23.5 -66.5t23.5 -38.5q12 -16 24 -22h-124zM272 -100q-14 0 -24 10t-10 24t10 24t24 10t24 -10t10 -24t-10 -24t-24 -10zM352 724h-54q-21 20 -31 41
t-21 47q-11 -26 -19.5 -47t-31.5 -41h-54l105 96z" />
    <glyph glyph-name="uni1EAD" unicode="&#x1ead;" horiz-adv-x="543" 
d="M399 0q9 6 13 21q3 14 2 38.5t-12 66.5l-54 200h-212l-68 -252q-7 -26 -8.5 -40.5t-0.5 -22.5q2 -9 6 -11h-45q5 2 11 11q5 8 11.5 22.5t14.5 40.5l150 553q7 25 8 39.5t0 22t-3.5 9.5l-2.5 2h23q26 0 40.5 -4.5t23.5 -18t16 -37.5t18 -63l56 -209q-26 0 -42 15.5
t-26 53.5l-38 140q-11 41 -22.5 65t-20.5 37q-9 -16 -19 -53l-79 -291l207 -1q21 0 37 -7.5t27 -43.5l42 -156q11 -42 23.5 -66.5t23.5 -38.5q12 -16 24 -22h-124zM272 -100q-14 0 -24 10t-10 24t10 24t24 10t24 -10t10 -24t-10 -24t-24 -10zM375 747h-54q-21 20 -31 41
t-21 47q-11 -26 -19.5 -47t-31.5 -41h-54l105 96z" />
    <glyph glyph-name="uni1EAE" unicode="&#x1eae;" horiz-adv-x="543" 
d="M322 781q-2 -17 -21.5 -28.5t-48.5 -11.5q-28 0 -47.5 11.5t-21.5 28.5h43q1 -3 2 -9t4 -12t8 -10.5t12 -4.5q8 0 12.5 4t7 10t3.5 12t1 10h46zM399 0q9 6 13 21q3 14 2 38.5t-12 66.5l-54 200h-212l-68 -252q-7 -26 -8.5 -40.5t-0.5 -22.5q2 -9 6 -11h-45q5 2 11 11
q5 8 11.5 22.5t14.5 40.5l150 553q7 25 8 39.5t0 22t-3.5 9.5l-2.5 2h23q26 0 40.5 -4.5t23.5 -18t16 -37.5t18 -63l56 -209q-26 0 -42 15.5t-26 53.5l-38 140q-11 41 -22.5 65t-20.5 37q-9 -16 -19 -53l-79 -291l207 -1q21 0 37 -7.5t27 -43.5l42 -156q11 -42 23.5 -66.5
t23.5 -38.5q12 -16 24 -22h-124zM254 796q3 18 4 35q2 15 2 31.5t-3 29.5h68z" />
    <glyph glyph-name="uni1EAF" unicode="&#x1eaf;" horiz-adv-x="543" 
d="M326 781q-2 -17 -21.5 -28.5t-48.5 -11.5q-28 0 -47.5 11.5t-21.5 28.5h43q1 -3 2 -9t4 -12t8 -10.5t12 -4.5q8 0 12.5 4t7 10t3.5 12t1 10h46zM399 0q9 6 13 21q3 14 2 38.5t-12 66.5l-54 200h-212l-68 -252q-7 -26 -8.5 -40.5t-0.5 -22.5q2 -9 6 -11h-45q5 2 11 11
q5 8 11.5 22.5t14.5 40.5l150 553q7 25 8 39.5t0 22t-3.5 9.5l-2.5 2h23q26 0 40.5 -4.5t23.5 -18t16 -37.5t18 -63l56 -209q-26 0 -42 15.5t-26 53.5l-38 140q-11 41 -22.5 65t-20.5 37q-9 -16 -19 -53l-79 -291l207 -1q21 0 37 -7.5t27 -43.5l42 -156q11 -42 23.5 -66.5
t23.5 -38.5q12 -16 24 -22h-124zM253 812q3 18 4 35q2 15 2 31.5t-3 29.5h68z" />
    <glyph glyph-name="uni1EB0" unicode="&#x1eb0;" horiz-adv-x="543" 
d="M322 781q-2 -17 -21.5 -28.5t-48.5 -11.5q-28 0 -47.5 11.5t-21.5 28.5h43q1 -3 2 -9t4 -12t8 -10.5t12 -4.5q8 0 12.5 4t7 10t3.5 12t1 10h46zM399 0q9 6 13 21q3 14 2 38.5t-12 66.5l-54 200h-212l-68 -252q-7 -26 -8.5 -40.5t-0.5 -22.5q2 -9 6 -11h-45q5 2 11 11
q5 8 11.5 22.5t14.5 40.5l150 553q7 25 8 39.5t0 22t-3.5 9.5l-2.5 2h23q26 0 40.5 -4.5t23.5 -18t16 -37.5t18 -63l56 -209q-26 0 -42 15.5t-26 53.5l-38 140q-11 41 -22.5 65t-20.5 37q-9 -16 -19 -53l-79 -291l207 -1q21 0 37 -7.5t27 -43.5l42 -156q11 -42 23.5 -66.5
t23.5 -38.5q12 -16 24 -22h-124zM248 921q-3 -13 -2.5 -29.5t1.5 -31.5t3 -25l2 -10l-71 96h67z" />
    <glyph glyph-name="uni1EB1" unicode="&#x1eb1;" horiz-adv-x="543" 
d="M326 781q-2 -17 -21.5 -28.5t-48.5 -11.5q-28 0 -47.5 11.5t-21.5 28.5h43q1 -3 2 -9t4 -12t8 -10.5t12 -4.5q8 0 12.5 4t7 10t3.5 12t1 10h46zM399 0q9 6 13 21q3 14 2 38.5t-12 66.5l-54 200h-212l-68 -252q-7 -26 -8.5 -40.5t-0.5 -22.5q2 -9 6 -11h-45q5 2 11 11
q5 8 11.5 22.5t14.5 40.5l150 553q7 25 8 39.5t0 22t-3.5 9.5l-2.5 2h23q26 0 40.5 -4.5t23.5 -18t16 -37.5t18 -63l56 -209q-26 0 -42 15.5t-26 53.5l-38 140q-11 41 -22.5 65t-20.5 37q-9 -16 -19 -53l-79 -291l207 -1q21 0 37 -7.5t27 -43.5l42 -156q11 -42 23.5 -66.5
t23.5 -38.5q12 -16 24 -22h-124zM256 927q-3 -13 -2.5 -29.5t1.5 -31.5t3 -25l2 -10l-71 96h67z" />
    <glyph glyph-name="uni1EB2" unicode="&#x1eb2;" horiz-adv-x="543" 
d="M322 781q-2 -17 -21.5 -28.5t-48.5 -11.5q-28 0 -47.5 11.5t-21.5 28.5h43q1 -3 2 -9t4 -12t8 -10.5t12 -4.5q8 0 12.5 4t7 10t3.5 12t1 10h46zM399 0q9 6 13 21q3 14 2 38.5t-12 66.5l-54 200h-212l-68 -252q-7 -26 -8.5 -40.5t-0.5 -22.5q2 -9 6 -11h-45q5 2 11 11
q5 8 11.5 22.5t14.5 40.5l150 553q7 25 8 39.5t0 22t-3.5 9.5l-2.5 2h23q26 0 40.5 -4.5t23.5 -18t16 -37.5t18 -63l56 -209q-26 0 -42 15.5t-26 53.5l-38 140q-11 41 -22.5 65t-20.5 37q-9 -16 -19 -53l-79 -291l207 -1q21 0 37 -7.5t27 -43.5l42 -156q11 -42 23.5 -66.5
t23.5 -38.5q12 -16 24 -22h-124zM255 922q45 0 61.5 -13t16.5 -29q0 -17 -12 -27t-27 -17t-27 -14t-12 -18h-7q0 12 10.5 19.5t22.5 15t22.5 16.5t10.5 24t-10.5 28.5t-48.5 13.5q-32 0 -43.5 -13t-6.5 -36l-22 6q0 16 15 30t57 14z" />
    <glyph glyph-name="uni1EB3" unicode="&#x1eb3;" horiz-adv-x="543" 
d="M326 781q-2 -17 -21.5 -28.5t-48.5 -11.5q-28 0 -47.5 11.5t-21.5 28.5h43q1 -3 2 -9t4 -12t8 -10.5t12 -4.5q8 0 12.5 4t7 10t3.5 12t1 10h46zM399 0q9 6 13 21q3 14 2 38.5t-12 66.5l-54 200h-212l-68 -252q-7 -26 -8.5 -40.5t-0.5 -22.5q2 -9 6 -11h-45q5 2 11 11
q5 8 11.5 22.5t14.5 40.5l150 553q7 25 8 39.5t0 22t-3.5 9.5l-2.5 2h23q26 0 40.5 -4.5t23.5 -18t16 -37.5t18 -63l56 -209q-26 0 -42 15.5t-26 53.5l-38 140q-11 41 -22.5 65t-20.5 37q-9 -16 -19 -53l-79 -291l207 -1q21 0 37 -7.5t27 -43.5l42 -156q11 -42 23.5 -66.5
t23.5 -38.5q12 -16 24 -22h-124zM269 925q45 0 61.5 -13t16.5 -29q0 -17 -12 -27t-27 -17t-27 -14t-12 -18h-7q0 12 10.5 19.5t22.5 15t22.5 16.5t10.5 24t-10.5 28.5t-48.5 13.5q-32 0 -43.5 -13t-6.5 -36l-22 6q0 16 15 30t57 14z" />
    <glyph glyph-name="uni1EB4" unicode="&#x1eb4;" horiz-adv-x="543" 
d="M322 781q-2 -17 -21.5 -28.5t-48.5 -11.5q-28 0 -47.5 11.5t-21.5 28.5h43q1 -3 2 -9t4 -12t8 -10.5t12 -4.5q8 0 12.5 4t7 10t3.5 12t1 10h46zM399 0q9 6 13 21q3 14 2 38.5t-12 66.5l-54 200h-212l-68 -252q-7 -26 -8.5 -40.5t-0.5 -22.5q2 -9 6 -11h-45q5 2 11 11
q5 8 11.5 22.5t14.5 40.5l150 553q7 25 8 39.5t0 22t-3.5 9.5l-2.5 2h23q26 0 40.5 -4.5t23.5 -18t16 -37.5t18 -63l56 -209q-26 0 -42 15.5t-26 53.5l-38 140q-11 41 -22.5 65t-20.5 37q-9 -16 -19 -53l-79 -291l207 -1q21 0 37 -7.5t27 -43.5l42 -156q11 -42 23.5 -66.5
t23.5 -38.5q12 -16 24 -22h-124zM308 858q16 0 26.5 3t16.5 6q8 4 12 9q-7 -15 -15 -27q-8 -10 -17.5 -18.5t-22.5 -9.5q-12 -1 -24.5 2t-26 7.5t-27.5 8.5t-30 4q-10 0 -19 -3t-16 -7q-8 -5 -15 -11q4 16 12 29q8 11 19.5 19.5t28.5 8.5q16 0 29 -3.5t25 -7t23 -7t21 -3.5z
" />
    <glyph glyph-name="uni1EB5" unicode="&#x1eb5;" horiz-adv-x="543" 
d="M326 781q-2 -17 -21.5 -28.5t-48.5 -11.5q-28 0 -47.5 11.5t-21.5 28.5h43q1 -3 2 -9t4 -12t8 -10.5t12 -4.5q8 0 12.5 4t7 10t3.5 12t1 10h46zM399 0q9 6 13 21q3 14 2 38.5t-12 66.5l-54 200h-212l-68 -252q-7 -26 -8.5 -40.5t-0.5 -22.5q2 -9 6 -11h-45q5 2 11 11
q5 8 11.5 22.5t14.5 40.5l150 553q7 25 8 39.5t0 22t-3.5 9.5l-2.5 2h23q26 0 40.5 -4.5t23.5 -18t16 -37.5t18 -63l56 -209q-26 0 -42 15.5t-26 53.5l-38 140q-11 41 -22.5 65t-20.5 37q-9 -16 -19 -53l-79 -291l207 -1q21 0 37 -7.5t27 -43.5l42 -156q11 -42 23.5 -66.5
t23.5 -38.5q12 -16 24 -22h-124zM323 863q16 0 26.5 3t16.5 6q8 4 12 9q-7 -15 -15 -27q-8 -10 -17.5 -18.5t-22.5 -9.5q-12 -1 -24.5 2t-26 7.5t-27.5 8.5t-30 4q-10 0 -19 -3t-16 -7q-8 -5 -15 -11q4 16 12 29q8 11 19.5 19.5t28.5 8.5q16 0 29 -3.5t25 -7t23 -7t21 -3.5z
" />
    <glyph glyph-name="uni1EB6" unicode="&#x1eb6;" horiz-adv-x="543" 
d="M399 0q9 6 13 21q3 14 2 38.5t-12 66.5l-54 200h-212l-68 -252q-7 -26 -8.5 -40.5t-0.5 -22.5q2 -9 6 -11h-45q5 2 11 11q5 8 11.5 22.5t14.5 40.5l150 553q7 25 8 39.5t0 22t-3.5 9.5l-2.5 2h23q26 0 40.5 -4.5t23.5 -18t16 -37.5t18 -63l56 -209q-26 0 -42 15.5
t-26 53.5l-38 140q-11 41 -22.5 65t-20.5 37q-9 -16 -19 -53l-79 -291l207 -1q21 0 37 -7.5t27 -43.5l42 -156q11 -42 23.5 -66.5t23.5 -38.5q12 -16 24 -22h-124zM272 -100q-14 0 -24 10t-10 24t10 24t24 10t24 -10t10 -24t-10 -24t-24 -10zM324 774q-2 -17 -21.5 -28.5
t-48.5 -11.5q-28 0 -47.5 11.5t-21.5 28.5h43q1 -3 2 -9t4 -12t8 -10.5t12 -4.5q8 0 12.5 4t7 10t3.5 12t1 10h46z" />
    <glyph glyph-name="uni1EB7" unicode="&#x1eb7;" horiz-adv-x="543" 
d="M399 0q9 6 13 21q3 14 2 38.5t-12 66.5l-54 200h-212l-68 -252q-7 -26 -8.5 -40.5t-0.5 -22.5q2 -9 6 -11h-45q5 2 11 11q5 8 11.5 22.5t14.5 40.5l150 553q7 25 8 39.5t0 22t-3.5 9.5l-2.5 2h23q26 0 40.5 -4.5t23.5 -18t16 -37.5t18 -63l56 -209q-26 0 -42 15.5
t-26 53.5l-38 140q-11 41 -22.5 65t-20.5 37q-9 -16 -19 -53l-79 -291l207 -1q21 0 37 -7.5t27 -43.5l42 -156q11 -42 23.5 -66.5t23.5 -38.5q12 -16 24 -22h-124zM272 -100q-14 0 -24 10t-10 24t10 24t24 10t24 -10t10 -24t-10 -24t-24 -10zM326 788q-2 -17 -21.5 -28.5
t-48.5 -11.5q-28 0 -47.5 11.5t-21.5 28.5h43q1 -3 2 -9t4 -12t8 -10.5t12 -4.5q8 0 12.5 4t7 10t3.5 12t1 10h46z" />
    <glyph glyph-name="uni1EB8" unicode="&#x1eb8;" horiz-adv-x="426" 
d="M406 700v-113h-8q-1 29 -14 53q-11 20 -35.5 36t-71.5 16h-142q-8 -9 -18 -35t-10 -80v-34q0 -32 -11 -46t-39 -14v94q0 41 -6 65t-13 37q-8 15 -18 21h386zM277 8q47 0 71.5 16.5t35.5 36.5q13 23 14 52h8v-113h-386q10 6 18 22q7 14 13 38.5t6 66.5v305q0 22 18 25
t50 3q47 0 71.5 10t35.5 22q13 14 14 32h8v-137h-8q-1 18 -14 33q-11 12 -35.5 22t-71.5 10h-18v-326q0 -56 10 -82.5t18 -35.5h142zM213 -100q-14 0 -24 10t-10 24t10 24t24 10t24 -10t10 -24t-10 -24t-24 -10z" />
    <glyph glyph-name="uni1EB9" unicode="&#x1eb9;" horiz-adv-x="426" 
d="M406 700v-113h-8q-1 29 -14 53q-11 20 -35.5 36t-71.5 16h-142q-8 -9 -18 -35t-10 -80v-34q0 -32 -11 -46t-39 -14v94q0 41 -6 65t-13 37q-8 15 -18 21h386zM277 8q47 0 71.5 16.5t35.5 36.5q13 23 14 52h8v-113h-386q10 6 18 22q7 14 13 38.5t6 66.5v305q0 22 18 25
t50 3q47 0 71.5 10t35.5 22q13 14 14 32h8v-137h-8q-1 18 -14 33q-11 12 -35.5 22t-71.5 10h-18v-326q0 -56 10 -82.5t18 -35.5h142zM213 -100q-14 0 -24 10t-10 24t10 24t24 10t24 -10t10 -24t-10 -24t-24 -10z" />
    <glyph glyph-name="uni1EBA" unicode="&#x1eba;" horiz-adv-x="426" 
d="M406 700v-113h-8q-1 29 -14 53q-11 20 -35.5 36t-71.5 16h-142q-8 -9 -18 -35t-10 -80v-34q0 -32 -11 -46t-39 -14v94q0 41 -6 65t-13 37q-8 15 -18 21h386zM277 8q47 0 71.5 16.5t35.5 36.5q13 23 14 52h8v-113h-386q10 6 18 22q7 14 13 38.5t6 66.5v305q0 22 18 25
t50 3q47 0 71.5 10t35.5 22q13 14 14 32h8v-137h-8q-1 18 -14 33q-11 12 -35.5 22t-71.5 10h-18v-326q0 -56 10 -82.5t18 -35.5h142zM210 871q45 0 61.5 -13t16.5 -29q0 -17 -12 -27t-27 -17t-27 -14t-12 -18h-7q0 12 10.5 19.5t22.5 15t22.5 16.5t10.5 24t-10.5 28.5
t-48.5 13.5q-32 0 -43.5 -13t-6.5 -36l-22 6q0 16 15 30t57 14z" />
    <glyph glyph-name="uni1EBB" unicode="&#x1ebb;" horiz-adv-x="426" 
d="M406 700v-113h-8q-1 29 -14 53q-11 20 -35.5 36t-71.5 16h-142q-8 -9 -18 -35t-10 -80v-34q0 -32 -11 -46t-39 -14v94q0 41 -6 65t-13 37q-8 15 -18 21h386zM277 8q47 0 71.5 16.5t35.5 36.5q13 23 14 52h8v-113h-386q10 6 18 22q7 14 13 38.5t6 66.5v305q0 22 18 25
t50 3q47 0 71.5 10t35.5 22q13 14 14 32h8v-137h-8q-1 18 -14 33q-11 12 -35.5 22t-71.5 10h-18v-326q0 -56 10 -82.5t18 -35.5h142zM210 880q45 0 61.5 -13t16.5 -29q0 -17 -12 -27t-27 -17t-27 -14t-12 -18h-7q0 12 10.5 19.5t22.5 15t22.5 16.5t10.5 24t-10.5 28.5
t-48.5 13.5q-32 0 -43.5 -13t-6.5 -36l-22 6q0 16 15 30t57 14z" />
    <glyph glyph-name="uni1EBC" unicode="&#x1ebc;" horiz-adv-x="426" 
d="M406 700v-113h-8q-1 29 -14 53q-11 20 -35.5 36t-71.5 16h-142q-8 -9 -18 -35t-10 -80v-34q0 -32 -11 -46t-39 -14v94q0 41 -6 65t-13 37q-8 15 -18 21h386zM277 8q47 0 71.5 16.5t35.5 36.5q13 23 14 52h8v-113h-386q10 6 18 22q7 14 13 38.5t6 66.5v305q0 22 18 25
t50 3q47 0 71.5 10t35.5 22q13 14 14 32h8v-137h-8q-1 18 -14 33q-11 12 -35.5 22t-71.5 10h-18v-326q0 -56 10 -82.5t18 -35.5h142zM277 843q16 0 26.5 3t16.5 6q8 4 12 9q-7 -15 -15 -27q-8 -10 -17.5 -18.5t-22.5 -9.5q-12 -1 -24.5 2t-26 7.5t-27.5 8.5t-30 4
q-10 0 -19 -3t-16 -7q-8 -5 -15 -11q4 16 12 29q8 11 19.5 19.5t28.5 8.5q16 0 29 -3.5t25 -7t23 -7t21 -3.5z" />
    <glyph glyph-name="uni1EBD" unicode="&#x1ebd;" horiz-adv-x="426" 
d="M406 700v-113h-8q-1 29 -14 53q-11 20 -35.5 36t-71.5 16h-142q-8 -9 -18 -35t-10 -80v-34q0 -32 -11 -46t-39 -14v94q0 41 -6 65t-13 37q-8 15 -18 21h386zM277 8q47 0 71.5 16.5t35.5 36.5q13 23 14 52h8v-113h-386q10 6 18 22q7 14 13 38.5t6 66.5v305q0 22 18 25
t50 3q47 0 71.5 10t35.5 22q13 14 14 32h8v-137h-8q-1 18 -14 33q-11 12 -35.5 22t-71.5 10h-18v-326q0 -56 10 -82.5t18 -35.5h142zM286 815q16 0 26.5 3t16.5 6q8 4 12 9q-7 -15 -15 -27q-8 -10 -17.5 -18.5t-22.5 -9.5q-12 -1 -24.5 2t-26 7.5t-27.5 8.5t-30 4
q-10 0 -19 -3t-16 -7q-8 -5 -15 -11q4 16 12 29q8 11 19.5 19.5t28.5 8.5q16 0 29 -3.5t25 -7t23 -7t21 -3.5z" />
    <glyph glyph-name="uni1EBE" unicode="&#x1ebe;" horiz-adv-x="426" 
d="M323 745h-54q-21 20 -31 41t-21 47q-11 -26 -19.5 -47t-31.5 -41h-54l105 96zM406 700v-113h-8q-1 29 -14 53q-11 20 -35.5 36t-71.5 16h-142q-8 -9 -18 -35t-10 -80v-34q0 -32 -11 -46t-39 -14v94q0 41 -6 65t-13 37q-8 15 -18 21h386zM277 8q47 0 71.5 16.5t35.5 36.5
q13 23 14 52h8v-113h-386q10 6 18 22q7 14 13 38.5t6 66.5v305q0 22 18 25t50 3q47 0 71.5 10t35.5 22q13 14 14 32h8v-137h-8q-1 18 -14 33q-11 12 -35.5 22t-71.5 10h-18v-326q0 -56 10 -82.5t18 -35.5h142zM157 845q3 18 4 35q2 15 2 31.5t-3 29.5h68z" />
    <glyph glyph-name="uni1EBF" unicode="&#x1ebf;" horiz-adv-x="426" 
d="M324 738h-54q-21 20 -31 41t-21 47q-11 -26 -19.5 -47t-31.5 -41h-54l105 96zM406 700v-113h-8q-1 29 -14 53q-11 20 -35.5 36t-71.5 16h-142q-8 -9 -18 -35t-10 -80v-34q0 -32 -11 -46t-39 -14v94q0 41 -6 65t-13 37q-8 15 -18 21h386zM277 8q47 0 71.5 16.5t35.5 36.5
q13 23 14 52h8v-113h-386q10 6 18 22q7 14 13 38.5t6 66.5v305q0 22 18 25t50 3q47 0 71.5 10t35.5 22q13 14 14 32h8v-137h-8q-1 18 -14 33q-11 12 -35.5 22t-71.5 10h-18v-326q0 -56 10 -82.5t18 -35.5h142zM164 845q3 18 4 35q2 15 2 31.5t-3 29.5h68z" />
    <glyph glyph-name="uni1EC0" unicode="&#x1ec0;" horiz-adv-x="426" 
d="M323 745h-54q-21 20 -31 41t-21 47q-11 -26 -19.5 -47t-31.5 -41h-54l105 96zM406 700v-113h-8q-1 29 -14 53q-11 20 -35.5 36t-71.5 16h-142q-8 -9 -18 -35t-10 -80v-34q0 -32 -11 -46t-39 -14v94q0 41 -6 65t-13 37q-8 15 -18 21h386zM277 8q47 0 71.5 16.5t35.5 36.5
q13 23 14 52h8v-113h-386q10 6 18 22q7 14 13 38.5t6 66.5v305q0 22 18 25t50 3q47 0 71.5 10t35.5 22q13 14 14 32h8v-137h-8q-1 18 -14 33q-11 12 -35.5 22t-71.5 10h-18v-326q0 -56 10 -82.5t18 -35.5h142zM277 935q-3 -13 -2.5 -29.5t1.5 -31.5t3 -25l2 -10l-71 96h67z
" />
    </font>
</defs>
</svg>
