<?xml version="1.0" standalone="no"?>
<!DOCTYPE svg PUBLIC "-//W3C//DTD SVG 1.1//EN" "http://www.w3.org/Graphics/SVG/1.1/DTD/svg11.dtd" >
<svg xmlns="http://www.w3.org/2000/svg" xmlns:xlink="http://www.w3.org/1999/xlink" version="1.1">
<metadata>
Created by FontForge 20201107 at Sun Mar  2 05:40:13 2025
 By 
Copyright (c) 2018 by 50Fox. All rights reserved.
</metadata>
<defs>
<font id="DFVN-BohemeFloral-Regular" horiz-adv-x="524" >
  <font-face 
    font-family="DFVN Boheme Floral"
    font-weight="400"
    font-stretch="normal"
    units-per-em="2048"
    panose-1="0 0 0 0 0 0 0 0 0 0"
    ascent="1536"
    descent="-512"
    x-height="432"
    cap-height="1485"
    bbox="-1378 -1083 3373 2095.12"
    underline-thickness="102"
    underline-position="-255"
    unicode-range="U+0020-20AC"
  />
<missing-glyph horiz-adv-x="802" 
 />
    <glyph glyph-name=".notdef" horiz-adv-x="802" 
 />
    <glyph glyph-name=".null" horiz-adv-x="0" 
 />
    <glyph glyph-name="nonmarkingreturn" horiz-adv-x="682" 
 />
    <glyph glyph-name="space" unicode=" " horiz-adv-x="802" 
 />
    <glyph glyph-name="exclam" unicode="!" horiz-adv-x="872" 
d="M889 1538q9 12 20 12t20 -8t9 -18q0 -7 -4 -15q-135 -217 -410 -639t-405 -630q-2 -4 -8 -4q-9 0 -9 8q0 7 138 223l245 407q253 421 404 664zM6 47q-6 3 -6 12q0 18 17 42t30 24q10 0 10 -12q0 -18 -17.5 -42t-33.5 -24z" />
    <glyph glyph-name="quotedbl" unicode="&#x22;" horiz-adv-x="325" 
d="M231 1223q23 8 23 24q-10 0 -10 6q0 9 7 15t13 6q10 0 10 -14q0 -10 -10.5 -30t-27.5 -20q-5 0 -5 13zM279 1223q4 1 8 6.5t6 10.5l2 5q-6 0 -6 8q0 9 7 15t13 6q3 0 8 -6l5 -6l-2 -9q-3 -9 -6.5 -18t-12.5 -17t-20 -8q-7 0 -7 7q0 6 5 6z" />
    <glyph glyph-name="numbersign" unicode="#" horiz-adv-x="770" 
d="M707 920q6 14 22 14q10 0 18.5 -8t8.5 -19q0 -4 -4 -12q-71 -131 -234 -418h111q8 0 8 -8q0 -1 -3 -3.5t-5 -2.5h-121l-86 -154h90q8 0 8 -6t-8 -10h-100q-126 -219 -211 -375q-2 -4 -6 -4q-9 0 -9 10q132 246 195 369h-156q-126 -219 -211 -375q-2 -4 -6 -4q-8 0 -8 10
q87 156 195 369h-138q-8 0 -8 6t8 10h146l78 156h-162q-8 0 -8 8q0 1 3 3.5t5 2.5h170q183 355 231 441q6 14 23 14q10 0 18 -8t8 -19q0 -4 -4 -12q-112 -207 -233 -418h143q173 334 232 443zM236 309h153q44 90 78 154h-143q-7 -11 -88 -154z" />
    <glyph glyph-name="dollar" unicode="$" horiz-adv-x="811" 
d="M684 770l195 295q4 4 6 4q8 0 8 -10l-2 -2v-2l-191 -289q24 -6 56 -21t32 -26q0 -6 -12 -6q-38 27 -86 39l-233 -355q22 -86 22 -123q0 -118 -76.5 -198t-193.5 -80l-10 2h-4l-181 -272q-5 -5 -6 -5q-6 0 -6 13l174 266q-91 19 -115 90q0 10 9 10q4 0 8 -4
q22 -67 108 -82l230 348q-2 6 -9 30t-10 33.5t-8 30.5t-7.5 34t-4.5 31t-2 34q0 103 73 161t177 58q19 0 59 -4zM453 418l221 338q-12 2 -39 2q-55 0 -103 -14t-84 -51t-36 -93q0 -24 22 -123zM442 219q0 45 -20 123l-217 -330q95 0 165.5 57.5t71.5 149.5z" />
    <glyph glyph-name="percent" unicode="%" horiz-adv-x="909" 
d="M889 1067q4 -4 4 -8l-2 -2v-2l-877 -1329q-5 -5 -6 -5q-2 0 -3.5 3.5t-2.5 6.5v3l877 1331q2 2 10 2zM494 813q-21 0 -25 25q0 36 36.5 79.5t59.5 43.5t23 -27q0 -34 -32 -77.5t-62 -43.5zM545 936q-20 -13 -40 -44.5t-20 -53.5q0 -9 9 -9q24 0 50.5 39t26.5 64
q0 12 -8 12q-7 0 -18 -8zM371 -35q20 10 28 10q23 0 23 -26q0 -32 -32.5 -75.5t-61.5 -43.5q-10 0 -16.5 7t-6.5 18q0 25 21 58.5t45 51.5zM328 -154q24 0 51 39t27 64q0 12 -9 12q-18 0 -48 -38.5t-30 -67.5q0 -9 9 -9z" />
    <glyph glyph-name="ampersand" unicode="&#x26;" horiz-adv-x="1249" 
d="M1239 -328q8 0 8 -8t-8 -8q-481 0 -711 233q-135 -82 -284 -82q-36 0 -75 7.5t-78.5 23.5t-65 48t-25.5 75q0 91 90.5 194t255.5 228q1 77 21 166.5t55 180.5t87 175t114 149.5t140 104.5t159 39q36 0 67.5 -6.5t59 -21t43.5 -42t16 -65.5q0 -44 -19.5 -91t-49.5 -89.5
t-81 -93t-97 -89.5t-116.5 -92t-121 -88.5t-128.5 -89.5t-122 -86q0 -269 157 -434q101 65 170.5 168t92.5 225q0 6 6 6q8 0 8 -8q-23 -125 -92.5 -231t-171.5 -172q226 -226 696 -226zM934 1180q-85 -2 -169.5 -59.5t-150 -146.5t-118.5 -193.5t-83 -203.5t-36 -174
q60 45 159.5 116.5t166 119t146.5 112t127.5 113.5t80.5 104.5t33 102.5q0 59 -45 84t-111 25zM20 -41q0 -46 36 -77.5t80 -43.5t89 -12l13 -2q154 0 278 78q-155 166 -168 424q-158 -115 -243 -203t-85 -164z" />
    <glyph glyph-name="quotesingle" unicode="'" horiz-adv-x="233" 
d="M338 1233q22 7 22 24q-10 0 -10 7q0 9 7.5 14.5t13.5 5.5q10 0 10 -14q0 -10 -11 -29.5t-28 -19.5q-4 0 -4 12z" />
    <glyph glyph-name="parenleft" unicode="(" horiz-adv-x="528" 
d="M1393 1509q10 0 10 -8q0 -2 -4 -6q-162 -61 -330 -176t-319 -263.5t-284 -331t-230 -373t-153 -395t-56 -390.5q0 -157 39 -293q0 -10 -11 -10q-4 0 -6 4q-49 167 -49 360q0 234 76 476t209.5 456t308.5 401.5t381 328.5t418 220z" />
    <glyph glyph-name="parenright" unicode=")" horiz-adv-x="907" 
d="M-483 -737q-11 0 -11 6q0 5 5 8q163 61 330.5 176t318.5 264t284 331.5t230 372.5t153 394.5t56 390.5q0 159 -39 295q0 10 8 10q5 0 8 -6q49 -177 49 -360q0 -195 -53.5 -398t-148.5 -386.5t-226.5 -356t-285.5 -313.5t-327.5 -251.5t-350.5 -176.5z" />
    <glyph glyph-name="asterisk" unicode="*" horiz-adv-x="323" 
d="M152 928l32 127q0 8 11 8q6 0 6 -8l-35 -131l123 100q2 2 6 2q6 0 6 -6q0 -2 -4 -6l-117 -96h117q6 -3 6 -9q0 -10 -10 -10h-123l70 -98q0 -6 -4 -10.5t-7 -4.5q-4 0 -4 5l-67 98l-33 -125q-3 -8 -10 -8q-6 0 -6 8l30 121l-112 -94q-3 -3 -7 -3q-6 0 -6 5q0 6 4 8
l121 100h-133q-6 3 -6 6q0 11 10 11h127l-63 92q0 12 8 12q4 0 6 -2z" />
    <glyph glyph-name="plus" unicode="+" horiz-adv-x="499" 
d="M254 334h225q8 0 8 -8q0 -7 -8 -11h-233l-101 -204q-3 -7 -8 -7q-8 0 -8 9l2 2v2l98 196h-221q-8 0 -8 9q0 6 8 10h228l114 229q4 4 6 4q9 0 9 -10z" />
    <glyph glyph-name="comma" unicode="," horiz-adv-x="47" 
d="M2 115q23 8 23 24q-11 0 -11 6q0 9 7.5 15t13.5 6q10 0 10 -14q0 -11 -11 -30.5t-28 -19.5q-4 0 -4 13z" />
    <glyph glyph-name="hyphen" unicode="-" horiz-adv-x="493" 
d="M483 283l-475 2q-8 0 -8 8t8 8h475q9 -5 9 -10q0 -8 -9 -8z" />
    <glyph glyph-name="period" unicode="." horiz-adv-x="59" 
d="M0 135q1 14 12 22.5t21 8.5q12 0 12 -8q0 -9 -15 -23t-24 -14q-6 0 -6 14z" />
    <glyph glyph-name="slash" unicode="/" horiz-adv-x="1705" 
d="M1448 1401q-246 -377 -732.5 -1094t-701.5 -1042q-4 -4 -6 -4q-8 0 -8 8q0 4 2 6q215 327 681 1048.5t718 1101.5q5 11 18 11q10 0 19.5 -11.5t9.5 -23.5z" />
    <glyph glyph-name="zero" unicode="0" horiz-adv-x="419" 
d="M352 559q60 0 60 -78q0 -72 -50.5 -174.5t-132 -182t-155.5 -79.5t-74 90q0 57 31 130.5t78.5 138.5t113.5 110t129 45zM23 111q0 -52 51 -52q69 0 146.5 77.5t126 177t48.5 167.5q0 64 -43 64q-47 0 -126.5 -82.5t-141 -187.5t-61.5 -164z" />
    <glyph glyph-name="one" unicode="1" horiz-adv-x="319" 
d="M442 662q4 -2 4 -9l-2 -2q-46 -43 -106 -110t-126.5 -151.5t-111.5 -170t-45 -141.5q0 -10 5.5 -26t5.5 -23q0 -6 -9 -6q-12 0 -19 32.5t-7 55.5q0 159 260 415l-8 -6q-3 -2 -23.5 -15.5t-34.5 -22.5t-34 -20.5t-36.5 -17.5t-27.5 -6q-8 0 -8 6t6 9q150 60 309 209l2 2h4
z" />
    <glyph glyph-name="two" unicode="2" horiz-adv-x="512" 
d="M379 588q42 0 68 -23t26 -65q0 -43 -32 -81t-81 -65t-110 -58.5t-117 -60.5t-104 -71t-68 -90q72 61 133 61q41 0 107 -37t102 -37q8 0 8 -8t-8 -8q-39 0 -104 37t-105 37q-38 0 -65.5 -17t-48.5 -38t-37 -25q-6 0 -6 10q13 56 49 105t83 84t100.5 65.5t104 55t92 46.5
t66.5 45.5t25 47.5q0 36 -21 54.5t-57 18.5q-53 0 -95 -36t-48 -89q0 -6 -7 -6q-8 0 -8 6q0 57 50 99.5t108 42.5z" />
    <glyph glyph-name="three" unicode="3" horiz-adv-x="423" 
d="M420 520q0 -54 -45.5 -104.5t-136.5 -67.5q59 -20 59 -84q0 -71 -72.5 -140t-142.5 -69q-38 0 -58.5 23.5t-23.5 62.5q0 30 13.5 86t33.5 56q8 0 8 -9l-2 -2q-37 -64 -37 -120q0 -32 13.5 -56t42.5 -24q56 0 126 83t70 140q0 21 -28 33.5t-56 15.5l-28 2q-4 4 -4 6
q0 3 8 6q80 0 158.5 62.5t78.5 111.5q0 37 -47 37q-54 0 -99.5 -35.5t-51.5 -87.5q0 -6 -9 -6q-8 0 -8 9q7 55 54.5 96t103.5 41q75 0 80 -66z" />
    <glyph glyph-name="four" unicode="4" horiz-adv-x="614" 
d="M496 377q22 0 33.5 -12.5t11.5 -32.5q0 -47 -35.5 -85.5t-82.5 -57.5t-91 -19q-4 0 -13 1t-14 1q-54 -81 -96 -167t-47 -122q-3 -6 -8 -6q-9 0 -9 6q0 43 36.5 131t84.5 164q-33 7 -104 33l-2 2q-67 -31 -117 -31q-29 0 -44 12t-15 27t13 25t38 10q42 0 104 -20
q106 63 219 179t117 171q0 6 8 6q9 0 9 -8q-7 -82 -105 -192.5t-211 -170.5q74 -24 98 -28q51 82 109 133t113 51zM346 186q60 3 114 41.5t62 96.5l2 6q0 30 -24 30q-69 0 -185 -172q10 -2 31 -2zM37 199q37 0 82 26l-2 2q-54 15 -78 15q-19 0 -29 -6.5t-10 -14.5
q0 -22 37 -22z" />
    <glyph glyph-name="five" unicode="5" horiz-adv-x="501" 
d="M541 594q12 0 12 -6q0 -4 -2 -6q-101 -84 -158 -84q-46 0 -67 55q-42 -86 -125 -162q59 23 88 23q75 0 80 -72q0 -53 -37.5 -121t-107.5 -121t-148 -53q-33 0 -54.5 19t-21.5 55q0 33 34.5 91t63.5 58q8 0 8 -8q0 -2 -4 -6q-88 -68 -88 -141q0 -22 15.5 -35.5t38.5 -13.5
q45 0 112.5 52.5t117.5 120.5t50 111q0 47 -57 47q-43 0 -153 -65l-23 -15q-11 0 -11 9q0 1 21 22q53 44 103 102.5t74 95.5l24 36l8 -4q15 -62 63 -62q51 0 144 78z" />
    <glyph glyph-name="six" unicode="6" horiz-adv-x="407" 
d="M344 580q29 0 43 -17.5t14 -44.5q0 -36 -26.5 -81.5t-63.5 -45.5q-6 0 -6 6q0 7 4 9q35 10 56.5 44.5t21.5 69.5q0 19 -9 31.5t-24 13.5q-51 0 -115 -62.5t-122 -158.5q39 31 80 31q30 0 51.5 -22.5t21.5 -59.5q0 -87 -72.5 -166.5t-136.5 -79.5q-61 0 -61 84
q0 59 29.5 136t75.5 147t111 118t128 48zM160 350q-58 -22 -99 -108.5t-41 -135.5q0 -45 39 -45q59 0 127 75.5t68 152.5q0 33 -15 51t-42 18q-21 0 -37 -8z" />
    <glyph glyph-name="seven" unicode="7" horiz-adv-x="432" 
d="M477 649q-47 -44 -123 -129t-139 -170h121q8 0 8 -8t-8 -8h-133q-119 -161 -119 -244q0 -10 7 -30.5t7 -30.5q0 -6 -8 -6q-11 0 -17.5 31.5t-6.5 56.5q0 102 88 225h-60q-8 0 -8 6q0 8 8 8h70q79 105 221 236q-57 -29 -121 -29q-48 0 -98.5 20.5t-50.5 38.5q0 9 8 9
q4 0 6 -2q20 -20 57 -36t80 -16q89 0 170 64l33 29q3 0 6.5 -2.5t3.5 -4.5t-1 -3.5t-1 -4.5z" />
    <glyph glyph-name="eight" unicode="8" horiz-adv-x="415" 
d="M166 371q17 113 90.5 182.5t140.5 69.5q26 0 42 -13.5t16 -40.5q0 -29 -18 -57t-51 -53t-71 -49t-85 -50q-10 -5 -15 -8q-42 -329 -190 -329q-32 0 -53 22.5t-21 63.5q0 140 215 262zM223 403q12 6 36.5 19t36 19t32 17.5t31 18.5t26 17.5t23.5 18t16.5 17t12 19
t3.5 18.5q0 39 -51 39q-50 0 -99.5 -50.5t-66.5 -152.5zM78 55q21 13 35.5 33t22.5 39t13 48t6 47t2.5 51t2.5 46q-195 -117 -195 -223q0 -28 16 -42.5t42 -14.5q31 0 55 16z" />
    <glyph glyph-name="nine" unicode="9" horiz-adv-x="407" 
d="M373 571q28 -17 28 -73q0 -59 -28.5 -136.5t-74 -147.5t-110.5 -118.5t-129 -48.5q-29 0 -44 17t-15 45q0 39 25 77.5t63 51.5q8 0 8 -9q0 -6 -4 -8q-35 -11 -55.5 -44.5t-20.5 -67.5q0 -46 33 -46q48 0 112 62.5t124 157.5q-43 -29 -78 -29q-32 0 -54 21.5t-22 58.5
q0 86 73 166t140 80q17 0 29 -9zM242 276q58 22 98.5 109t40.5 137q0 41 -41 41q-58 0 -125.5 -74.5t-67.5 -150.5q0 -33 16.5 -51.5t43.5 -18.5q19 0 35 8z" />
    <glyph glyph-name="colon" unicode=":" horiz-adv-x="102" 
d="M23 236q1 12 11.5 20t20.5 8q11 0 11 -6q0 -9 -14.5 -23t-22.5 -14q-6 0 -6 15zM-2 135q1 14 12 22.5t21 8.5q12 0 12 -8q0 -9 -15 -23t-24 -14q-6 0 -6 14z" />
    <glyph glyph-name="semicolon" unicode=";" horiz-adv-x="90" 
d="M33 236q1 12 12 20t21 8t10 -6q0 -9 -14.5 -23t-22.5 -14q-6 0 -6 15zM2 115q23 8 23 24q-11 0 -11 6q0 9 7.5 15t13.5 6q10 0 10 -14q0 -11 -11 -30.5t-28 -19.5q-4 0 -4 13z" />
    <glyph glyph-name="less" unicode="&#x3c;" horiz-adv-x="462" 
d="M18 375l379 289q13 10 23 10q7 0 11.5 -5.5t4.5 -11.5q0 -17 -16 -28l-397 -293l100 -256q0 -14 -12 -14q-5 0 -5 4l-102 258q-6 12 -6 20q0 13 20 27z" />
    <glyph glyph-name="equal" unicode="=" horiz-adv-x="505" 
d="M483 373l-475 2q-8 0 -8 8t8 8h475q9 -5 9 -10q0 -8 -9 -8zM483 283l-475 2q-8 0 -8 8t8 8h475q9 -5 9 -10q0 -8 -9 -8z" />
    <glyph glyph-name="greater" unicode="&#x3e;" horiz-adv-x="450" 
d="M420 367l-379 -291q-11 -8 -23 -8q-18 0 -18 16t16 27l400 292l-101 256q0 13 11 13q4 0 6 -2l100 -258q4 -16 4 -21q0 -11 -16 -24z" />
    <glyph glyph-name="question" unicode="?" horiz-adv-x="493" 
d="M504 920q2 -2 2 -7q0 -8 -8 -8q-17 0 -29 33t-12 49q0 62 70.5 122.5t174 97t199.5 36.5q97 0 157 -44t60 -136q0 -76 -34 -140.5t-91.5 -112t-132 -90.5t-158.5 -81.5t-168 -78t-162 -87.5t-139.5 -103t-102 -131t-48.5 -165q-3 -6 -8 -6q-8 0 -8 8q8 86 48.5 163
t102.5 137.5t140 116t162 103t168 92.5t159 90.5t132.5 92t91.5 101.5t34 115q0 69 -54 102.5t-141 33.5q-93 0 -195 -32.5t-172.5 -87.5t-70.5 -112q0 -38 33 -71zM20 -66q-6 3 -6 13q0 18 17 41.5t30 23.5q11 0 11 -12q0 -18 -17.5 -42t-34.5 -24z" />
    <glyph glyph-name="at" unicode="@" horiz-adv-x="772" 
d="M752 369q2 2 6 2q10 0 10 -9l-2 -2q-107 -147 -252 -241t-307 -94q-91 0 -149 47.5t-58 138.5q0 75 30.5 142t81 116t114.5 85.5t131 54.5t130 18q91 0 147 -40t56 -116q0 -67 -37.5 -138.5t-102 -121t-132.5 -49.5q-84 0 -84 76q0 44 18 94q-107 -99 -151 -99
q-41 0 -41 37q0 51 52.5 108.5t102.5 57.5q38 0 68 -39l8 12t9.5 13t11 8t16.5 4q25 0 25 -18q0 -3 -41 -81.5t-41 -117.5t39 -39q101 0 182.5 95.5t81.5 197.5q0 68 -42 101.5t-112 33.5q-58 0 -125.5 -21t-132.5 -60.5t-118.5 -90.5t-86 -117t-32.5 -133q0 -71 52 -107
t126 -36q162 0 303 90.5t246 237.5zM375 383q-25 33 -41 33q-28 0 -88 -61t-60 -91q0 -12 11 -12q25 0 79.5 42t98.5 89z" />
    <glyph glyph-name="A" unicode="A" horiz-adv-x="2312" 
d="M2955 1710q4 -8 4 -10q0 -26 -61.5 -66.5t-155.5 -89.5t-121 -67q-271 -253 -515.5 -592.5t-374.5 -644.5q78 -4 116 -4q279 0 434 114q5 3 22.5 21.5t34.5 34.5t21 16q11 0 11 -10q-158 -193 -529 -193q-6 0 -17 0.5t-38 1.5t-64 2q-151 -364 -151 -635
q0 -235 125.5 -378t357.5 -160q4 0 23 -0.5t31 -3t12 -7.5q0 -8 -6 -8q-188 0 -318.5 79t-192 213.5t-61.5 314.5q0 267 129 589q-111 11 -307 45q-88 -90 -163 -164.5t-175.5 -166.5t-188.5 -163.5t-191 -142.5t-194.5 -118t-188 -76t-181.5 -29q-197 0 -303.5 103
t-106.5 260q0 89 34 180t105.5 176.5t171 151t241.5 105.5t306 40q71 0 172 -13.5t181 -29.5t221 -45t215 -43q47 48 130.5 137.5t119.5 126.5l43 45q118 123 183 190t186 185t210.5 195.5t204.5 166t219 152.5q63 58 108 97t110.5 80.5t105.5 41.5q12 0 16 -4zM2935 1688
q10 8 10 12q-83 0 -264 -168q17 10 62 33t75 39t64.5 39.5t52.5 44.5zM1794 492q81 151 164.5 276t181.5 239.5t184 203t218 214.5q-97 -69 -199 -156.5t-205.5 -190.5t-182 -184.5t-187.5 -198t-162 -171.5q-152 -159 -228 -237q189 -34 299 -43q55 137 117 248zM82 -571
q77 0 166.5 29t176 75.5t184.5 117t183.5 141.5t182.5 162t171.5 166t160.5 165q-73 14 -211 42t-216.5 43t-178.5 28.5t-171 13.5q-161 0 -300.5 -39t-237 -103.5t-167.5 -147.5t-103 -171.5t-33 -175.5q0 -150 101.5 -248t291.5 -98z" />
    <glyph glyph-name="B" unicode="B" horiz-adv-x="2187" 
d="M2241 422q12 0 12 -10q-202 -242 -580 -242q-45 -131 -130.5 -259t-214.5 -245.5t-285 -206.5t-354.5 -142.5t-409.5 -53.5q-161 0 -299 33.5t-236 90.5t-168 133t-103.5 161.5t-33.5 175.5q0 87 32 169t100 155t164 127.5t233.5 86t299.5 31.5q14 0 44 -1t46 -1
q87 103 228 262t240 272.5t199.5 235.5t153 208t52.5 132q0 6 6 6q10 0 10 -6q0 -53 -40 -133.5t-94 -160t-149.5 -197t-169 -201.5t-192 -219t-180.5 -207q5 0 14 -1t13 -1q135 160 265.5 301t283.5 284.5t288.5 246t272 167t243.5 64.5q156 0 166 -119q0 -81 -59.5 -186.5
t-174 -211.5t-253.5 -172q118 -56 176.5 -154t58.5 -226q0 -109 -37 -224q369 7 562 238zM1810 1460q-87 0 -194.5 -43t-210 -110t-220 -164.5t-213 -188.5t-200 -202t-170.5 -185t-135 -155q132 -19 350.5 -75t425.5 -100.5t369 -50.5q49 136 49 246q0 116 -51 205
t-154 139q-158 -67 -295 -67q-41 0 -72.5 16t-31.5 41q0 31 38 54.5t109 23.5q114 0 221 -35q127 66 247 169t195 208t75 176q0 98 -132 98zM1221 827h-21q-57 0 -90 -16t-39 -41q0 -20 21.5 -30.5t50.5 -10.5q118 0 260 68q-80 27 -182 30zM279 -721q187 0 369 52
t330.5 140t274.5 203t214.5 241.5t138.5 254.5q-128 6 -290 36.5t-294.5 65t-293.5 72t-273 53.5q-262 -316 -406 -532q0 -43 -29 -43q-10 0 -17 6.5t-7 17.5q0 145 350 562q-18 2 -55 2q-164 0 -302.5 -30t-236 -81.5t-166 -122t-101 -151t-32.5 -168.5q0 -87 33 -170.5
t102 -157t165 -129.5t232 -88.5t294 -32.5zM436 399q-4 0 -12.5 1t-13.5 1q-146 -171 -235 -292.5t-116 -200.5q144 210 377 491z" />
    <glyph glyph-name="C" unicode="C" horiz-adv-x="1890" 
d="M1010 686q19 -65 112 -65q62 0 136 23.5t120 47.5q157 81 269 235.5t112 319.5q0 159 -97 235.5t-259 76.5q-197 0 -423 -92.5t-435.5 -244.5t-404.5 -356t-339 -419t-230.5 -440.5t-86.5 -414.5q0 -179 86.5 -269.5t249.5 -90.5q161 0 393.5 83.5t467.5 212.5t471.5 284
t422 298.5t303.5 254.5q28 24 57 57q6 6 9 6q8 0 8 -6q0 -4 -2 -6q-148 -159 -441 -375q-158 -118 -326.5 -230.5t-359 -221.5t-364.5 -191t-342 -132t-293 -50q-183 0 -277 108.5t-94 315.5q0 195 86.5 423.5t231 444t340 417.5t405.5 352.5t437 241.5t425 91
q111 0 199.5 -34.5t144.5 -111.5t56 -186q0 -183 -110.5 -346t-281.5 -254q-48 -26 -123.5 -49t-138.5 -23q-31 0 -59.5 7t-51 27.5t-22.5 51.5q0 4 4 4q12 0 15 -10z" />
    <glyph glyph-name="D" unicode="D" horiz-adv-x="2359" 
d="M2388 422q10 0 10 -10q-210 -250 -602 -250q-51 0 -78 2q-113 -148 -242.5 -278.5t-286.5 -246.5t-323 -199t-356.5 -131t-382.5 -48q-167 0 -302 44.5t-219 119t-128.5 168.5t-44.5 198q0 92 33.5 180.5t104.5 169.5t171 143.5t243 101t312 42.5q57 84 156.5 226.5
t166.5 239.5t149 224.5t132 218t85 182t36 152.5q0 6 6 6q10 0 10 -6q-1 -61 -20 -134t-45.5 -140.5t-75.5 -157.5t-89.5 -157.5t-108 -168.5t-110 -162t-117.5 -167t-110 -156q38 0 58 -2q287 380 557 625q45 41 111 92.5t162.5 115t193 115t203 86.5t190.5 35
q151 0 226 -91t75 -251q0 -197 -108.5 -458t-298.5 -517q23 -2 65 -2q383 0 592 246zM987 1040q-275 -251 -549 -616q122 -10 289.5 -46t309.5 -73.5t318 -74t312 -48.5q195 253 306.5 513.5t111.5 453.5q0 146 -68 228.5t-205 82.5q-81 0 -184.5 -34t-196 -83
t-185.5 -109.5t-155 -108.5t-104 -85zM408 412h-15l-26 2h-15q-120 -173 -192.5 -297.5t-93.5 -212.5q152 256 342 508zM90 -702h27q230 5 456 77t420.5 194.5t359 272.5t302.5 326q-169 15 -401.5 71t-453.5 108.5t-374 62.5q-216 -292 -369 -551q-2 -10 -3 -23.5t-2 -19
t-6.5 -9.5t-16.5 -4q-10 0 -17.5 7t-7.5 18q0 89 73 233t210 351q-164 -5 -303 -43.5t-236.5 -99t-166.5 -139t-101.5 -164.5t-32.5 -175q0 -98 41.5 -185.5t119.5 -156.5t202.5 -110t279.5 -41z" />
    <glyph glyph-name="E" unicode="E" horiz-adv-x="1835" 
d="M809 705q-143 47 -289 47q-128 0 -256 -40t-238 -110t-205 -168.5t-162 -211t-105.5 -241.5t-38.5 -257q0 -125 44.5 -220.5t123 -153t179 -86t220.5 -28.5q163 0 370.5 85t404 215t397.5 294t354 312t270 280q4 0 8 -3.5t4 -6.5q0 -2 -16.5 -21t-28.5 -31
q-124 -134 -277 -278t-350 -300.5t-387 -278.5t-390.5 -201.5t-358.5 -79.5q-129 0 -237.5 33.5t-193 99t-132 172.5t-47.5 244q0 130 39.5 258t108 237t165 203t207.5 160t238.5 103.5t254.5 37.5q142 0 289 -39q-151 114 -151 277q0 97 49.5 190.5t131 165t181 126
t204 83.5t195.5 29q108 0 199 -41.5t148 -125t57 -194.5q0 -166 -126.5 -294t-291.5 -128q-45 0 -87 17t-58 53q-2 2 -2 6q0 10 10 10q4 0 4 -4q17 -65 139 -65q106 0 198.5 59.5t146 155.5t53.5 200q0 148 -104 233t-257 85q-93 0 -200 -31.5t-206 -89t-180.5 -130
t-130.5 -163.5t-49 -182q0 -143 170 -254q0 -2 -2.5 -8t-5.5 -6z" />
    <glyph glyph-name="F" unicode="F" horiz-adv-x="1261" 
d="M1272 565q10 0 10 -8t-10 -8q-123 0 -328 -31q-110 -136 -321 -384t-281 -333q-10 -116 -59.5 -249.5t-111 -234t-120 -168t-88.5 -67.5q-26 0 -31 64q0 121 104 299t294 416q-2 74 -24.5 133t-70.5 106t-131.5 73t-197.5 26q-209 0 -516 -88q-8 0 -11 6q0 10 7 10
q285 88 461 140.5t486.5 133t536.5 119.5q93 116 160 203.5t138 191t115 183.5t72.5 160.5t28.5 142.5q0 83 -54 120.5t-140 37.5q-128 0 -350 -86.5t-450 -212.5t-433 -258t-328 -232q-9 -6 -14 -6q-6 0 -6 6q0 4 2 6q96 79 247.5 181.5t337.5 210.5t367.5 199t351 149.5
t275.5 58.5q217 0 217 -205q0 -152 -120 -360.5t-333 -477.5q198 30 318 33zM344 -119q88 111 267 325t249 300q-444 -79 -1231 -320q164 29 271 29q117 0 203 -25.5t136.5 -72.5t75.5 -105t29 -131zM246 -502q64 160 80 281l-21 -25q-65 -77 -110.5 -136t-109.5 -152.5
t-99 -178t-35 -151.5q0 -35 14 -35q38 0 127.5 124t153.5 273z" />
    <glyph glyph-name="G" unicode="G" horiz-adv-x="1910" 
d="M1806 1421q260 0 260 -213q0 -79 -41.5 -162.5t-114 -140.5t-151.5 -57q-62 0 -100 47q-2 2 -2 6q0 10 10 10q34 -47 92 -47q74 0 143.5 55.5t109.5 135t40 153.5q0 102 -62 149.5t-165 47.5q-99 0 -217.5 -44t-231 -117.5t-219 -173.5t-186.5 -206.5t-128 -221
t-48 -214.5q0 -49 15 -90t47 -75.5t90 -53.5t136 -19q181 0 396 105q81 96 180 199t129 104q18 0 18 -20q0 -53 -92.5 -138t-200.5 -143q-66 -81 -201 -255t-208 -263q222 -47 364 -47q153 0 207 57q4 4 8 4q2 0 4.5 -2.5t2.5 -5.5q0 -4 -4 -8q-60 -60 -218 -60
q-147 0 -376 47q-115 -139 -219.5 -245t-245 -212.5t-285.5 -175.5t-331 -112t-392 -43q-149 0 -268 36.5t-193.5 99.5t-113.5 144t-39 173q0 88 34.5 173.5t107 163t174.5 136.5t246 94t312 35q116 0 304 -38.5t457 -106t404 -95.5q72 83 209 243t199 232
q-199 -92 -367 -92q-85 0 -149.5 22t-102 60.5t-55.5 84.5t-18 99q0 109 45.5 228t122 225.5t181.5 203.5t219 168t239 113t239 43zM1788 582q-24 0 -103 -85t-145 -167q97 59 173.5 133.5t76.5 111.5q0 7 -2 7zM-381 -1010q183 0 353 42t305.5 109.5t274.5 174.5t246 212
t234 249q-126 27 -397 96t-455 106t-301 37q-205 0 -372.5 -52t-271 -136.5t-159 -187.5t-55.5 -211q0 -88 38 -166t110.5 -139.5t188.5 -97.5t261 -36z" />
    <glyph glyph-name="H" unicode="H" horiz-adv-x="1679" 
d="M2058 1589q0 -8 -2 -10q-186 -162 -363 -368.5t-336.5 -463t-254.5 -507.5q80 -15 153 -15q262 0 461 199q3 0 6.5 -4.5t3.5 -7.5q-161 -199 -464 -199q-80 0 -166 12q-121 -321 -121 -612v-39q3 -110 31 -202.5t82 -166t143 -115.5t205 -42q8 0 8 -9q0 -8 -8 -8
q-98 0 -180.5 32t-141.5 87.5t-100.5 131t-62.5 162t-23 181.5v41q0 280 108 567q-57 9 -126 24t-114.5 26t-130 32t-116.5 29q-66 -134 -123 -237t-127 -213.5t-139 -189.5t-146.5 -144t-163.5 -98t-176 -33q-100 0 -179 28.5t-128.5 77.5t-75.5 113.5t-26 138.5
q0 88 34 177t106 172.5t171.5 148.5t241.5 104t305 39q151 0 373 -55l55 110q63 127 93.5 187t91.5 176.5t99 181.5t97.5 159t107 154t105.5 122t115 104q2 2 6 2q8 0 8 -6t-6 -9q-56 -43 -110.5 -104t-108.5 -142t-99.5 -158.5t-101.5 -188t-95.5 -192.5t-100 -208.5
t-97.5 -202.5q375 -92 485 -110q72 190 185.5 382t249.5 362.5t277.5 317.5t293.5 279q2 2 6 2t6 -2zM-326 -557q60 0 117.5 18.5t112.5 57.5t105 85.5t102 115.5t96.5 135t96.5 157t92.5 167t92.5 179q-237 56 -366 56q-134 0 -254.5 -27t-211 -73.5t-163 -108t-118.5 -132
t-70.5 -143t-24.5 -143.5q0 -148 102 -246t291 -98z" />
    <glyph glyph-name="I" unicode="I" horiz-adv-x="1081" 
d="M1135 1235q54 55 117.5 107t149.5 97.5t150 45.5q50 0 50 -27q0 -58 -378 -206q-8 -3 -12 -5l-32 -12q-96 -105 -202 -258.5t-250 -380t-224 -344.5q75 -41 174 -41q111 0 219 49t190 131q3 3 11.5 12t13.5 14t6 5q8 0 8 -10q-76 -96 -206.5 -156.5t-253.5 -60.5
q-102 0 -177 34q-78 -116 -150 -212.5t-160 -198t-172.5 -181t-184.5 -151.5t-200 -119.5t-215 -75.5t-234 -28q-9 0 -9 6q0 8 9 8q111 0 219.5 28.5t202 76.5t189.5 123t175 154t166 185.5t156 201.5t151 216q-62 45 -95.5 113t-33.5 147q0 78 30.5 152t78 133t120.5 116.5
t141.5 99.5t159 85t155.5 69.5t147 57.5zM1460 1364q62 27 92.5 51t30.5 39q0 14 -31 14q-72 0 -170.5 -61.5t-179.5 -144.5q210 80 258 102zM449 289q47 70 130.5 197.5t137 207.5t124.5 181.5t137 184t130 150.5q-79 -31 -141 -57.5t-144.5 -67.5t-145 -81t-127.5 -95
t-107 -111.5t-68.5 -128t-26.5 -147.5q0 -146 101 -233z" />
    <glyph glyph-name="J" unicode="J" horiz-adv-x="1538" 
d="M2058 1282q46 18 76 18q37 0 37 -20q0 -35 -94 -72t-203 -57q-92 -75 -196.5 -195t-210 -263.5t-211.5 -291.5t-239.5 -320.5t-256.5 -309.5q209 -39 327 -39q153 0 207 59q2 2 6 2q9 0 9 -6t-9 -12q-63 -60 -217 -60q-130 0 -335 41q-123 -136 -244 -246.5t-269 -212.5
t-299.5 -170.5t-330.5 -109.5t-367 -41q-151 0 -271 36.5t-194 99.5t-112.5 142t-38.5 168q0 87 35 173.5t108.5 165t175 138.5t246 96t311.5 36q118 0 312.5 -40t468 -108.5t411.5 -97.5q110 125 239.5 290.5t235 306t217.5 282.5t228.5 267t226.5 214q-51 -11 -158 -29
q-88 -16 -133.5 -24.5t-129 -29t-130.5 -40.5t-116.5 -55t-109.5 -75.5t-87 -100.5t-72 -131t-42 -165.5t-17 -205.5q0 -82 4 -125q0 -12 -6 -12q-15 0 -15 141q0 118 18.5 217t48.5 173t78 135t98 102.5t118.5 75.5t128 53.5t138.5 38t139.5 28.5t140.5 24t131 25
q9 6 47.5 32.5t52.5 35.5t42 24t52 25zM1901 1171q52 9 152.5 44t100.5 61q0 8 -18 8q-84 0 -235 -113zM-762 -1010q178 0 348 41t312.5 109t284 171t257.5 212.5t238 247.5q-138 29 -407 97t-461.5 108t-311.5 40q-163 0 -304.5 -35t-242 -93.5t-172.5 -135t-106.5 -161
t-34.5 -169.5q0 -87 37.5 -163.5t109.5 -137t189 -96t264 -35.5z" />
    <glyph glyph-name="K" unicode="K" horiz-adv-x="1435" 
d="M2273 1630q-89 -150 -221.5 -312t-302 -319t-349 -283t-375.5 -205.5t-368 -84.5l-41 -61q133 -308 208 -448q202 -374 449 -521q180 -107 396 -107q104 0 196.5 61.5t139.5 157.5q3 7 8 7q6 0 6 -9q0 -4 -2 -6q-48 -99 -144 -163t-204 -64q-104 0 -196.5 18.5t-166 46
t-142.5 79.5t-118 96.5t-101.5 121.5t-84.5 130.5t-74.5 146.5t-65 147.5t-61.5 153.5l-53 135q-77 -116 -142 -207.5t-146.5 -192.5t-157 -176t-167 -146t-182.5 -116t-197.5 -72.5t-217.5 -27.5q-10 0 -10 8q0 9 10 9q107 0 209.5 31t186.5 75.5t175.5 127t158.5 154.5
t155 190.5t144 202t146 220.5q-56 6 -111 26.5t-99 64.5t-44 99q0 31 17 52.5t47 21.5q26 0 52 -17t45 -39t39.5 -59t31.5 -60t26 -58l7 -15l30 48q62 95 96.5 147t96 142t101.5 144t102 133.5t110 131.5t112 116t122 110t125.5 91t136.5 78l2 2q12 0 12 -8q0 -4 -8 -8
q-71 -35 -142 -87.5t-129.5 -106.5t-128 -136.5t-117.5 -145t-119 -167t-111.5 -167.5t-114.5 -179l-88 -138q150 13 342 103.5t377 224t359 288.5t307.5 307t203.5 271q4 4 8 4q6 0 6 -12zM334 604q8 -46 49 -82t88 -54.5t94 -23.5q-2 3 -5 11.5t-5 11.5q-16 35 -25.5 54
t-29 53t-35.5 52.5t-39 34t-45 15.5q-24 0 -36.5 -19t-12.5 -47z" />
    <glyph glyph-name="L" unicode="L" horiz-adv-x="1271" 
d="M2028 -158q4 4 6 4q6 0 6 -8q0 -4 -2 -8q-117 -200 -291 -287.5t-399 -87.5q-116 0 -245.5 20t-276 61t-256.5 76t-282 94.5t-257 86.5q-400 -393 -832 -393q-158 0 -242.5 63t-84.5 158q0 58 34 114.5t96.5 103.5t164 76.5t223.5 29.5q212 0 600 -123q122 130 258 315.5
t254.5 366t242.5 362t265.5 351.5t279.5 286q50 43 158.5 117t140.5 74q6 0 6 -8q0 -5 -4 -7q-201 -97 -403 -327q-102 -116 -219 -280.5t-223.5 -327t-218 -328t-238.5 -328t-248 -283.5q74 -24 254 -85.5t283 -93.5t252 -73t275.5 -60t240.5 -19q224 0 395.5 86t286.5 282
zM-801 -584q216 0 407 102.5t371 291.5q-366 118 -587 118q-119 0 -217.5 -28t-159.5 -73t-94 -98.5t-33 -107.5q0 -87 81 -146t232 -59z" />
    <glyph glyph-name="M" unicode="M" horiz-adv-x="1949" 
d="M1843 -723q8 0 8 -8q0 -6 -8 -6q-232 0 -370 148.5t-138 383.5q0 153 53.5 319t139.5 312.5t189.5 290.5t208 270.5t191 234t141 199.5t56.5 150q0 55 -57 55q-40 0 -107 -31q-172 -82 -393.5 -265.5t-425.5 -399.5t-381.5 -436t-287.5 -394q-2 0 -4 -2t-3 -2q-8 0 -8 10
q23 120 83 254t137.5 255t166 243t173 232t153.5 206t111.5 180t44.5 142q0 24 -29 24q-60 0 -170 -58t-228 -142.5t-241 -183t-210.5 -175t-135.5 -122.5q-515 -494 -1034 -1194q-2 -2 -4 -2.5t-3 -1t0 -1.5q-8 3 -8 11q16 132 90 286t180 301t231 299t249 297.5t228 278
t174.5 259t82.5 222.5q0 8 8 8q9 -3 9 -10q-14 -114 -84.5 -254t-173 -279.5t-224 -287.5t-244.5 -295t-228 -283.5t-180.5 -271.5t-96.5 -242q521 699 1015 1170q57 54 143 129t212 176t242 184t228 141t175 58q35 0 53.5 -19.5t18.5 -52.5q0 -46 -42 -124t-111.5 -173.5
t-155 -205t-176 -231t-170.5 -239.5t-143.5 -241.5t-90.5 -225.5q117 177 293.5 392t377.5 425.5t417 388t384 257.5q65 32 113 32t71 -31.5t23 -78.5q0 -54 -54.5 -144t-141.5 -198.5t-192 -236t-210.5 -273t-192.5 -291.5t-141.5 -309.5t-54.5 -310.5q0 -223 129.5 -357.5
t349.5 -134.5z" />
    <glyph glyph-name="N" unicode="N" horiz-adv-x="1257" 
d="M1327 -723q8 0 8 -8q0 -6 -8 -6q-251 0 -405 145t-154 402q0 154 51 313t132 294t179.5 266.5t197 246.5t179.5 215.5t132 191.5t51 158q0 70 -76 70q-74 0 -213 -76q-287 -166 -645.5 -467t-678.5 -638.5t-511 -616.5l-6 -5q0 -1 -3 1.5t-6 5.5q15 132 88 286t179 301
t231 299.5t249.5 298.5t229 279t175.5 259.5t83 223.5q0 8 9 8q8 -3 8 -10q-14 -114 -84 -254t-172.5 -279.5t-223.5 -287t-244 -294t-228 -283t-181.5 -271.5t-97.5 -242q196 279 514 612t671.5 628.5t637.5 459.5q44 27 114.5 52.5t126.5 25.5q101 0 101 -98
q0 -70 -52 -163.5t-135 -195.5t-183.5 -218.5t-201 -249t-183.5 -268.5t-135 -295t-52 -312q0 -122 40.5 -219t112.5 -158.5t168.5 -94t210.5 -32.5z" />
    <glyph glyph-name="O" unicode="O" horiz-adv-x="1884" 
d="M186 -737q-276 0 -276 245q0 98 47 218q-139 42 -209 145t-70 254q0 137 44 277t121.5 266t183 245.5t226.5 219t255 183.5t266.5 141.5t262.5 89.5t241 32q205 0 324.5 -109t119.5 -335q0 -244 -149.5 -565t-388.5 -619q137 58 262 122.5t262 159.5t219 189q12 0 12 -8
q0 -7 -20 -27q-73 -84 -220.5 -180.5t-277 -162t-258.5 -120.5q-238 -290 -499 -472.5t-478 -188.5zM-37 -260q44 102 127.5 224t168 227.5t164.5 209.5t132.5 203.5t56.5 177.5q0 6 9 6q8 0 8 -8q-4 -77 -31.5 -158t-71.5 -155.5t-97.5 -149t-114 -149.5t-116 -145
t-108 -148t-84.5 -147q91 -21 199 -21q202 0 437 60t452 147q252 308 414.5 653t162.5 598q0 196 -102 291.5t-275 95.5q-141 0 -316 -60.5t-350 -163t-342 -247t-295 -304.5t-206 -344t-78 -357q0 -127 67 -213t189 -123zM0 -287q-55 -119 -55 -231q0 -109 61 -157t162 -48
q195 0 434.5 168t470.5 442q-500 -196 -866 -196q-120 0 -207 22z" />
    <glyph glyph-name="P" unicode="P" horiz-adv-x="1675" 
d="M1950 1309q-1 -92 -63.5 -201.5t-172 -216.5t-249 -206t-304 -178t-325.5 -124q138 -81 247.5 -124.5t216.5 -43.5q206 0 377 186q2 2 7.5 8t9 9.5t4.5 3.5q10 0 10 -10q-95 -105 -189.5 -160t-218.5 -55q-112 0 -228.5 47.5t-256.5 132.5q-172 -45 -321 -45
q-116 0 -211 26q-222 -313 -388 -608.5t-223 -480.5q0 -6 -6 -6q-10 0 -10 6q0 113 40 248t118 287.5t159.5 289t196.5 309.5q-75 37 -124.5 87.5t-49.5 91.5q0 40 52 64t163 24q53 0 125 -21q85 124 123 180.5t110.5 166.5t107.5 169t84 147.5t72 145.5t40.5 119.5
t17.5 110.5q0 8 8 8t8 -8q0 -79 -29.5 -178t-73 -194t-117 -220t-138.5 -224.5t-160 -238.5l60 -25q66 85 124.5 155.5t148.5 171.5t171.5 180.5t184.5 164.5t196.5 141t197 92.5t197.5 36.5q117 0 199 -63t82 -178zM807 399q196 58 398 174t355.5 248.5t251 273t97.5 246.5
q0 67 -36 112t-88 63t-118 18q-92 0 -194 -36t-194.5 -92t-194 -140t-182 -163t-170 -179.5t-147 -170.5t-122.5 -153q40 -19 88.5 -46t79 -45.5t92.5 -57.5t84 -52zM211 653q-199 0 -199 -73q0 -37 47.5 -82t118.5 -82q57 85 150 221q-62 16 -117 16zM276 377
q62 87 164 219l-59 22l-156 -223q27 -12 51 -18zM293 373q92 -25 190 -25q144 0 305 45q-27 16 -83.5 51.5t-88.5 55t-78 45t-83 43.5q-99 -125 -162 -215zM-326 -672q70 191 228.5 469.5t363.5 567.5q-19 5 -49 16q-119 -174 -195.5 -293.5t-160 -266t-130 -269
t-57.5 -224.5z" />
    <glyph glyph-name="Q" unicode="Q" horiz-adv-x="1669" 
d="M2042 -723q12 0 12 -8q0 -2 -4 -6q-288 -176 -567 -176q-102 0 -198.5 25.5t-183 72t-155.5 92t-156.5 107.5t-144.5 96q-290 -211 -518 -217q-207 0 -258 141q-146 -119 -242 -260q-4 -4 -6 -4q-8 0 -8 8q0 4 2 6q100 149 248 264q-10 42 -10 80q0 121 59 254
q-141 27 -217 124t-76 241q0 182 77 369t203.5 345.5t293 299t343.5 238.5t356 155t329 57q204 0 324 -109.5t120 -334.5q0 -177 -83.5 -404.5t-220 -448t-316 -428t-365.5 -350.5q76 -41 195.5 -121.5t203.5 -135.5t203.5 -99.5t233.5 -44.5q249 0 526 172zM-115 -512
q0 -33 4 -49q225 166 447 166q149 0 313 -82q242 195 463.5 488.5t360.5 606t139 543.5q0 201 -102.5 298t-280.5 97q-141 0 -315.5 -59t-349 -160t-340.5 -244t-293.5 -302t-205 -344.5t-77.5 -360.5q0 -131 69.5 -212.5t200.5 -106.5q47 100 130.5 219.5t165.5 221.5
t159 203.5t127.5 198t54.5 172.5q0 6 8 6q6 0 6 -8q-4 -103 -51 -211.5t-120 -210t-149 -196t-158 -204t-128 -198.5q8 0 33.5 -2t40.5 -2q316 0 751 252q4 2 17 9.5t16 7.5q8 0 8 -7q0 -4 -4 -8q-455 -268 -788 -268q-55 0 -80 4q-72 -144 -72 -258zM109 -723h16
q218 9 491 219q-166 88 -303 88q-204 0 -422 -164q16 -75 75 -109t143 -34z" />
    <glyph glyph-name="R" unicode="R" horiz-adv-x="1437" 
d="M1477 -780q6 0 6 -8q0 -9 -6 -9q-135 0 -257 33.5t-212.5 80.5t-180 131.5t-146 152t-123.5 178t-100 174t-87 174.5l-25 49q-66 6 -125 27q-203 -263 -354 -492.5t-203 -355.5q-3 -6 -8 -6q-8 0 -8 8q16 180 139 400.5t334 496.5q-47 32 -79 74.5t-32 85.5q0 36 22 63
t58 27q71 0 148 -103q69 86 169 206.5t171.5 207t156.5 192t143.5 188t111 166.5t81.5 156t35 130q0 8 8 8q6 0 6 -8q-5 -55 -23.5 -116.5t-53.5 -131t-71 -132.5t-94.5 -145.5t-105 -144.5t-121.5 -154.5t-123.5 -152t-132.5 -159.5t-129 -155l25 -41q78 97 155 188
t186 213t209 225t215.5 208t215 177.5t197.5 118.5t173 46q82 0 124 -53.5t42 -147.5q0 -73 -29.5 -167.5t-90 -201t-144.5 -212.5t-201 -203t-250.5 -171.5t-302.5 -118.5t-348 -44h-39q-26 0 -38 2l22 -43q54 -109 86.5 -171.5t98.5 -171.5t122 -176t144 -150
t177.5 -129.5t209.5 -79.5t252 -33zM1642 1475q-72 0 -169 -46t-196.5 -119.5t-214 -177.5t-216 -208.5t-209 -224t-185.5 -212.5t-153 -186l57 -108h109l57 4l49 6q71 11 113 20q189 45 365.5 146t305.5 225t226.5 260.5t147 259.5t49.5 213q0 71 -34 109.5t-102 38.5z
M35 453q-10 -20 -10 -39q0 -73 104 -150l98 125q-74 98 -131 98q-47 0 -61 -34zM215 219l66 84l-25 41l-86 -104q36 -18 45 -21zM289 287l-58 -74q43 -13 107 -20q-14 30 -49 94zM-328 -588q65 134 208 346.5t327 448.5l-45 20q-207 -256 -332.5 -455t-157.5 -360z" />
    <glyph glyph-name="S" unicode="S" horiz-adv-x="1880" 
d="M2310 1657q57 -2 91 -29.5t34 -79.5q0 -64 -55.5 -153.5t-171.5 -194.5q-123 -111 -313.5 -220.5t-417.5 -201.5l-68 -26q-27 -40 -91.5 -134.5t-102 -148.5t-93 -132.5t-102.5 -143.5q174 -41 315 -41q292 0 510 192q9 9 30 29.5t35.5 34.5t16.5 14q3 0 6.5 -4t3.5 -8
q-133 -139 -274.5 -207t-325.5 -68q-136 0 -327 43q-88 -120 -167.5 -220t-172.5 -204t-180.5 -185t-187 -154t-196 -120.5t-203 -75.5t-212.5 -28q-120 0 -212.5 31t-148.5 86t-84 125.5t-28 154.5q0 103 40.5 212t120 210t187 181t254 128t307.5 48q102 0 221 -18t202 -38
t216 -55.5t197 -50.5q104 143 362 518q-225 -78 -473 -134.5t-457 -56.5q-289 0 -415 121q-72 66 -72 111q0 6 6 6t8 -4q89 -219 471 -219q214 0 468.5 59t479.5 139q84 120 146.5 206.5t141.5 188.5t142 172t136.5 140t137 111.5t132.5 67.5t133 26zM2419 1542q0 48 -28 73
t-79 25q-58 0 -120 -24.5t-120 -64t-125 -106t-125 -133t-130.5 -163t-130.5 -178.5t-136 -197q9 5 26 11.5t19 7.5q229 93 419 201t309 216q110 100 164.5 185t56.5 147zM-309 -793q136 0 275 54t260 140.5t253 220t239.5 266t233.5 305.5q-59 14 -193.5 49.5t-214.5 55
t-198 37t-219 17.5q-158 0 -301.5 -47t-249 -125.5t-184.5 -177.5t-118.5 -205.5t-39.5 -206.5q0 -169 115.5 -276t341.5 -107z" />
    <glyph glyph-name="T" unicode="T" horiz-adv-x="1114" 
d="M2769 1552q0 -18 -14 -18q-8 0 -11 8q-66 168 -395 168q-168 0 -413.5 -48.5t-444.5 -105.5t-527 -155t-501 -146q110 -119 110 -344q0 -381 -221 -897q98 115 269.5 309.5t282.5 323t229 275.5t177.5 251t59.5 166q0 9 8 9t8 -9q0 -74 -53.5 -183.5t-131.5 -219.5
t-202.5 -260.5t-229.5 -267.5t-252.5 -281.5t-233.5 -263.5q-141 -293 -301 -514l-9 -12q-9 -12 -21.5 -27.5t-27 -31.5t-27.5 -27t-20 -11q-8 0 -8 15q0 105 116.5 284.5t329.5 433.5q242 549 242 936q0 227 -113 340q-495 -134 -788 -162q-58 -6 -102 -6q-143 0 -146 52
q0 33 60 76.5t152.5 83t218 66.5t241.5 27q228 0 354 -104q121 37 314.5 100t326.5 106t313.5 94.5t321 83.5t299 53.5t295.5 21.5q391 0 465 -189zM-457 1098q299 0 873 178q-122 94 -336 94q-142 0 -300 -43t-256.5 -98.5t-98.5 -93.5q0 -37 118 -37zM-31 -641
q151 213 273 457q-170 -199 -262 -337.5t-95 -221.5q0 -1 18.5 20.5t39 47.5t26.5 34z" />
    <glyph glyph-name="U" unicode="U" horiz-adv-x="1198" 
d="M948 582q-120 -253 -195 -507.5t-75 -453.5q0 -524 555 -524q8 0 8 -8q0 -2 -2.5 -4.5t-5.5 -2.5q-286 0 -438 143.5t-152 426.5q0 376 207 819q-141 -150 -282 -277t-286 -233t-283 -166.5t-247 -60.5q-111 0 -185.5 59.5t-74.5 169.5q0 103 65 232.5t170 261
t232.5 272.5t257 282t239.5 272.5t184.5 261t86.5 231.5q3 6 10 6q6 0 6 -8q-15 -123 -91 -267t-185 -280t-238 -277.5t-254.5 -277t-228.5 -261t-167 -247t-64 -217.5q0 -97 68.5 -147t168.5 -50q111 0 252.5 64t290 175t291.5 243t284 286q183 374 414 627
q101 112 133 112q8 0 8 -10q0 -25 -36 -84q-67 -117 -183 -270t-258 -311zM1296 1135q-161 -175 -321 -500q269 314 401 536q3 3 16 30.5t13 33.5q-19 0 -109 -100z" />
    <glyph glyph-name="V" unicode="V" horiz-adv-x="1593" 
d="M1849 1649q0 8 11 8q6 0 6 -8q-17 -205 -80 -391.5t-154 -332.5t-222.5 -287.5t-264 -249t-302.5 -225.5t-314 -207t-321.5 -205t-303.5 -208q-190 -141 -238 -215q-6 -2 -8 -4q-57 45 -57 141q0 88 48 221.5t124.5 284t169 318t185 340.5t169 333.5t124.5 314.5t48 267
q0 8 8 8t8 -8q0 -130 -47.5 -297.5t-123 -336.5t-167 -346.5t-183 -345t-167 -314t-123 -270.5t-47.5 -199q0 -59 31 -90q57 79 238 213q106 78 275.5 192t308.5 205.5t311.5 218t308.5 240.5t274 261.5t233 292t161 321.5t81 360z" />
    <glyph glyph-name="W" unicode="W" horiz-adv-x="2111" 
d="M2484 1616q8 0 8 -8q-14 -167 -70.5 -320.5t-146 -281t-203 -245t-248.5 -225.5t-274.5 -209.5t-289 -209.5t-284 -212.5t-267.5 -231.5t-232 -255q-1 0 -3.5 -2t-4.5 -2q-6 0 -6 6q-17 73 -17 131q0 125 54 266.5t133 270t159.5 251.5t144 249.5t75.5 224.5
q-32 -92 -122 -205t-207.5 -223.5t-254 -227.5t-269 -230.5t-244 -218t-188 -203.5t-92.5 -175q0 -3 -8 -6l-2 2q-55 47 -55 139q0 88 48 221.5t124.5 283.5t169 317.5t185 340.5t169 333.5t124.5 314.5t48 268q0 8 8 8q9 0 9 -8q0 -129 -47.5 -296.5t-123 -336.5
t-167 -346.5t-183 -345t-167 -314t-123 -271t-47.5 -199.5q0 -57 26 -86q23 81 110.5 188.5t208.5 218t263.5 231t281 242t254 235.5t190 227t81.5 202q1 0 2.5 3t3.5 3q8 0 10 -10.5t2 -36.5q0 -85 -31 -184t-81 -194t-110 -194.5t-120.5 -198.5t-110.5 -193t-81 -190.5
t-31 -178.5q0 -45 8 -78q101 128 234.5 258t268.5 239.5t284 222.5t287.5 218.5t272.5 216t246 226t200 237.5t143 262.5t67 288.5q0 6 8 6z" />
    <glyph glyph-name="X" unicode="X" horiz-adv-x="1337" 
d="M2658 1628q6 -3 6 -8q0 -8 -6 -8h-20l-39 4h-21q-325 0 -844 -361q-287 -200 -769 -614q-57 -49 -183 -158l-178 -153q-31 -269 -31 -406q0 -339 166.5 -493t513.5 -154q9 0 9 -8q0 -6 -9 -6q-372 0 -545 179.5t-173 567.5q0 125 16 275q-180 -154 -311 -260.5
t-290 -223.5t-281.5 -187.5t-248.5 -116.5t-227 -46q-25 0 -61 8.5t-75 24t-66 44t-27 62.5q0 9 8 9q1 0 6 -5q67 -126 211 -126q68 0 151 25t166 64.5t187.5 106.5t197 133.5t214.5 163.5t219.5 178t230.5 195q6 56 19.5 168t21 178.5t14 157t6.5 161.5q0 164 -39 280
t-117.5 185t-186.5 100t-257 31q-8 0 -8 9q0 8 8 8q323 0 482 -163.5t159 -520.5q0 -107 -30 -383l-17 -164l82 70q480 410 715 592q548 423 901 539q143 48 264 50q32 0 86 -4z" />
    <glyph glyph-name="Y" unicode="Y" horiz-adv-x="1916" 
d="M2177 1174q68 49 94 49q13 0 13 -13q0 -21 -39 -77q-99 -144 -336.5 -372.5t-372.5 -332.5q-33 -45 -145.5 -200.5t-188.5 -256t-155 -194.5q225 -45 358 -45q150 0 207 57q4 4 6 4q8 0 8 -10l-2 -2q-60 -66 -223 -66q-145 0 -367 47q-117 -140 -229.5 -250t-254 -214
t-288.5 -172t-328 -109t-378 -41q-149 0 -268 36.5t-194 99.5t-114 144t-39 173q0 88 35 173.5t107.5 163t174 136.5t246 94t312.5 35q116 0 303 -38t460.5 -107t403.5 -97q53 62 116.5 141.5t97 122.5t119 154.5t101.5 132.5q-259 -178 -405 -178q-96 0 -152.5 55
t-56.5 148q0 63 37.5 143.5t98 160.5t133.5 165t146 166.5t133.5 155.5t99 141.5t38.5 115.5q0 9 -6 26t-6 23t6 6q11 0 17.5 -25.5t6.5 -45.5q0 -58 -37.5 -131.5t-97 -148.5t-132 -156.5l-145 -163t-132 -158t-97 -153.5t-37.5 -138q0 -83 49.5 -126.5t133.5 -43.5
q157 0 438 205q471 605 727 791zM2232 1141q41 59 41 67q0 4 -4 4q-14 0 -76 -47q-97 -70 -228.5 -211.5t-220.5 -253.5t-171 -223q140 117 353.5 325t305.5 339zM-444 -1010q181 0 350 40.5t308.5 108.5t277 172t249 214t232.5 252q-134 28 -400.5 95.5t-453 105.5
t-303.5 38q-205 0 -372.5 -52t-271 -136.5t-159 -187.5t-55.5 -211q0 -88 38 -166t110.5 -139.5t188.5 -97.5t261 -36z" />
    <glyph glyph-name="Z" unicode="Z" horiz-adv-x="1314" 
d="M1649 1667q34 -7 34 -37q0 -59 -92 -121t-202 -88q-106 -131 -352.5 -473.5t-348.5 -478.5q14 -2 41 -2q161 0 250 80q4 4 6 4q6 0 6 -8q0 -4 -2 -6q-94 -86 -266 -86q-31 0 -47 2q-204 -267 -384 -468.5t-353 -334.5q86 -21 277.5 -79.5t340 -90t289.5 -31.5
q166 0 330 52.5t299 164.5q2 2 6 2q8 0 8 -8q0 -2 -4 -6q-137 -115 -303 -168t-334 -53q-144 0 -296.5 32.5t-345 92t-282.5 80.5q-268 -201 -481 -201q-65 0 -98 23t-33 61q0 64 77.5 121t198.5 57q124 0 295 -35q156 129 328 326.5t383 470.5q-33 3 -157 21t-181 18
q-138 0 -184 -80q-6 -6 -11 -6q-6 0 -6 6q0 4 2 6q52 90 199 90q59 0 185 -18.5t165 -22.5q49 64 184.5 242.5t202.5 265t169.5 213.5t183.5 217q-109 -16 -213 -16q-174 0 -499.5 40t-426.5 40q-114 0 -175.5 -27t-64.5 -94q0 -8 -6 -8q-8 0 -8 8q1 75 66.5 106t189.5 31
q99 0 423 -39t496 -39q138 0 236 19q209 233 285 233zM1618 1550q49 46 49 80q0 21 -20 21q-71 0 -242 -209q137 32 213 108zM-553 -549q182 6 422 199q-155 33 -281 33q-113 0 -187.5 -52t-74.5 -110q0 -32 30 -51t91 -19z" />
    <glyph glyph-name="bracketleft" unicode="[" horiz-adv-x="933" 
d="M1489 1526q6 10 41 10h242q8 0 8 -8q0 -6 -8 -6h-236q-12 -20 -112 -171.5t-247 -371t-285 -426t-265.5 -396.5t-149.5 -223q-374 -554 -426 -651q86 1 152 2t99.5 2t53.5 1.5t26 0.5h7q2 -4 2 -6q0 -6 -6 -6l-342 -12q-15 2 -29 10.5t-14 19.5q0 7 2 11
q105 181 1487 2220z" />
    <glyph glyph-name="backslash" unicode="\" horiz-adv-x="1038" 
d="M-410 1401q0 12 9.5 23.5t19.5 11.5q13 0 19 -11q251 -379 716.5 -1100.5t681.5 -1049.5q2 -2 2 -6q0 -8 -8 -8q-2 0 -6 4q-215 325 -701.5 1042t-732.5 1094z" />
    <glyph glyph-name="bracketright" unicode="]" horiz-adv-x="978" 
d="M-438 -721q-7 -12 -39 -12h-242q-8 0 -8 8t8 8h236q12 20 112 171.5t247 371.5t284.5 425t265.5 396.5t149 222.5q321 477 420 650q-201 -4 -333 -4q0 10 6 10q303 2 355 4h3q11 0 19 -6.5t8 -16.5q0 -6 -2 -8q-103 -187 -1489 -2220z" />
    <glyph glyph-name="asciicircum" unicode="^" horiz-adv-x="464" 
d="M35 1214q-2 -2 -10 -2q-12 0 -15 11q0 2 -1 3.5t-1 2.5q0 2 4 6q20 35 44.5 71.5t60 82t74.5 74t71 28.5q31 0 62 -29t55 -73t40 -81.5t25 -68.5l2 -4q0 -19 -26 -35q-4 -2 -14 -2q-23 0 -29 19q-11 34 -28 78t-48.5 97.5t-54.5 53.5l-2 -2q-70 -23 -209 -230z" />
    <glyph glyph-name="underscore" unicode="_" horiz-adv-x="655" 
d="M637 61l-629 -6q-8 0 -8 8q0 9 8 9h629q4 4 6 4t2 -6q0 -9 -8 -9z" />
    <glyph glyph-name="grave" unicode="`" horiz-adv-x="188" 
d="M31 1626l78 -129q3 -4 0.5 -7.5t-6.5 -3.5t-7 3l-92 119q-7 9 -2.5 17.5t13 9t16.5 -8.5z" />
    <glyph glyph-name="a" unicode="a" 
d="M545 422q10 0 10 -12q-36 -39 -76 -76t-93 -79t-108 -67.5t-100 -25.5q-32 0 -54 18t-22 56q0 44 19 96q-107 -99 -152 -99q-41 0 -41 37q0 50 54.5 108t101.5 58q38 0 68 -39q1 2 8 12t10.5 13t11 7.5t17.5 4.5q22 0 22 -18q0 -3 -41 -83.5t-41 -119.5q0 -35 39 -35
q77 0 181.5 78.5t185.5 165.5zM145 383q-33 33 -43 33q-27 0 -87 -61t-60 -91q0 -12 12 -12q24 0 77.5 41t100.5 90z" />
    <glyph glyph-name="b" unicode="b" horiz-adv-x="514" 
d="M1122 1399q33 0 54.5 -14t21.5 -44q0 -52 -87 -147t-217.5 -198.5t-285.5 -214.5t-287 -196t-227 -141q-76 -89 -157 -194q-6 -6 -9 -12q193 168 289 168q64 0 64 -58q0 -56 -41 -115q82 13 138.5 41.5t117.5 85.5l36 35l27 27q6 0 6 -8q0 -6 -2 -8q-82 -88 -142 -125.5
t-169 -59.5l-25 -4q-40 -53 -91 -87t-99 -34q-45 0 -45 25q0 27 66.5 56.5t127.5 45.5l7 10q38 74 38 101q0 24 -6.5 36.5t-25.5 12.5q-53 0 -168.5 -86.5t-149.5 -126.5q-3 0 -10.5 -6t-11.5 -6q-12 0 -19.5 8t-7.5 20q0 11 4 15q61 89 173.5 228.5t267 309.5t306 316
t299.5 245t240 99zM125 481q132 79 299 191t343.5 242t295.5 247t119 176q0 45 -49 45q-69 0 -192.5 -85.5t-267.5 -225t-281.5 -288t-266.5 -302.5zM27 111q73 0 147 92q-45 -11 -106.5 -38.5t-61.5 -43.5q0 -10 21 -10z" />
    <glyph glyph-name="c" unicode="c" horiz-adv-x="509" 
d="M547 422q10 0 10 -12q-60 -66 -135 -128t-173 -112.5t-175 -50.5q-73 0 -112.5 38t-39.5 97q0 75 58.5 143t130.5 68q25 0 42 -15.5t17 -39.5q0 -17 -6.5 -26t-13.5 -9t-7 6q11 15 11 29q0 13 -7 22.5t-20 9.5q-50 0 -103 -72t-55 -132q0 -45 26.5 -74t80.5 -29
q107 0 238.5 90t232.5 197z" />
    <glyph glyph-name="d" unicode="d" horiz-adv-x="696" 
d="M1196 1313q41 -3 41 -47q0 -70 -169 -243t-403.5 -359t-437.5 -314q-159 -209 -159 -291q0 -22 11.5 -31.5t37.5 -9.5q67 0 180 61.5t203.5 129t158.5 129.5q15 14 36.5 36t34.5 35t15 13q11 0 11 -10q-55 -66 -171 -160t-253 -172t-215 -78t-78 68q0 75 96 225
q-11 -6 -33 -17l-31 -15.5t-26.5 -12.5t-26 -11.5t-21.5 -9t-21.5 -7.5t-18 -3.5t-18.5 -1.5q-41 0 -41 41q0 62 56 124t118 62q42 0 70.5 -24.5t31.5 -65.5q132 195 339 420t402 382t281 157zM815 809q183 156 294.5 279t111.5 180q0 28 -25 28q-57 0 -227.5 -147
t-369.5 -359.5t-345 -402.5q288 186 561 422zM72 279q3 2 31.5 15t41.5 25t13 29q0 26 -14 47t-38 21q-43 0 -113.5 -68t-70.5 -104q0 -13 19 -13q33 0 131 48z" />
    <glyph glyph-name="e" unicode="e" horiz-adv-x="405" 
d="M436 422q13 0 13 -12q-79 -89 -183.5 -153t-204.5 -64q-47 0 -72 26.5t-28 69.5q0 67 37.5 124.5t97.5 57.5q46 0 49 -29q0 -26 -39 -52t-79 -36q-17 -43 -17 -75q4 -66 70 -66q89 0 186 62.5t170 146.5zM125 453q-25 0 -49.5 -23t-40.5 -57q33 10 64.5 32t31.5 39
q0 9 -6 9z" />
    <glyph glyph-name="f" unicode="f" horiz-adv-x="395" 
d="M-313 66q41 49 107 125t174 193.5t203.5 213.5t183.5 166t126 70q17 0 26 -9.5t9 -25.5q0 -32 -46 -83.5t-118.5 -107t-142 -102.5t-135.5 -86q-162 -175 -303 -340q370 81 587 285q63 63 64 63q2 0 5 -2.5t3 -3.5q0 -4 -2 -6q-237 -271 -674 -357q-45 -48 -86 -98
q4 -36 4 -55q0 -85 -39.5 -181t-103.5 -174q-96 -116 -189 -199t-147 -83q-29 0 -29 35q0 66 133.5 260t340.5 442q-1 2 -13 18t-12 25q0 6 74 17zM115 463q48 31 97 64.5t122.5 88.5t119.5 105.5t46 81.5q0 14 -11 14q-46 0 -374 -354zM-352 18l22 29l-37 -6q7 -7 15 -23z
M-350 -168q6 38 6 74q0 27 -2 39q-206 -244 -338 -423t-133 -227q0 -16 12 -16q27 0 93.5 50.5t140 126.5t138 180t83.5 196z" />
    <glyph glyph-name="g" unicode="g" horiz-adv-x="468" 
d="M506 422q4 0 8 -3.5t4 -6.5q-81 -95 -225 -181q-42 -25 -89.5 -50t-118.5 -60t-101 -51q-63 -83 -127 -163.5t-156 -192.5t-177.5 -203.5t-172 -175t-160 -130.5t-121.5 -47q-51 0 -51 43q3 59 88 181q146 206 339 360t448 295l202 270q-46 -37 -96.5 -66.5t-79.5 -29.5
q-33 0 -33 39q0 57 54 122.5t125 65.5q65 0 81 -61q1 2 5.5 8.5t7 9.5t7.5 7t11.5 6t14.5 2q24 0 24 -17q0 -8 -12 -26q-31 -42 -98 -133t-101 -136q44 24 117.5 61.5t115.5 61t95.5 56t95 68t76.5 77.5zM-80 240q0 -13 10 -13q42 0 203 129q0 47 -33 47q-55 0 -116.5 -62.5
t-63.5 -100.5zM-883 -801q231 133 752 807q-241 -136 -425 -286t-325 -349q-84 -120 -84 -170q0 -10 7 -17t16 -7q22 0 59 22z" />
    <glyph glyph-name="h" unicode="h" horiz-adv-x="552" 
d="M1198 1339q0 -71 -110.5 -190t-280.5 -247t-360 -250.5t-363 -215.5q-129 -156 -205 -270q175 192 275 192q26 0 40 -17.5t18.5 -42t9.5 -49t18.5 -42t38.5 -17.5q67 0 256 181q1 1 12.5 15t22.5 25t16 11q3 0 6.5 -4t3.5 -8q-241 -248 -350 -248q-33 0 -53 27.5
t-25 60.5t-13 60.5t-20 27.5q-56 0 -160 -99.5t-159 -175.5q-12 -24 -27 -24q-11 0 -20 8.5t-9 18.5q0 8 2 12q43 83 160 241t278.5 342.5t329 351t328 277.5t258.5 111q69 0 82 -62zM772 895q410 310 410 444q0 43 -58 43q-64 -2 -177.5 -80t-229 -185.5t-245 -243
t-214.5 -231.5t-149 -173q355 194 663 426z" />
    <glyph glyph-name="i" unicode="i" horiz-adv-x="360" 
d="M129 496q-14 0 -14 10q0 13 16.5 29t36.5 16q13 0 22 -5.5t9 -10.5q0 -12 -25.5 -25.5t-44.5 -13.5zM379 422q4 0 8 -3.5t4 -8.5q-73 -86 -181 -153t-206 -67q-43 0 -65.5 19.5t-22.5 54.5q0 44 44 109t77 65q24 0 24 -18q0 -7 -26 -39t-52.5 -73t-27.5 -68q0 -33 41 -33
q96 0 202 64t181 151z" />
    <glyph glyph-name="j" unicode="j" horiz-adv-x="315" 
d="M76 494q-6 3 -6 12q0 19 13 39t32 20q12 0 19 -6t7 -12q0 -16 -22 -35.5t-37 -19.5q-4 0 -6 2zM338 422q12 0 12 -10q-74 -88 -203 -168q-44 -27 -94 -53t-127 -64.5t-108 -54.5q-131 -167 -272.5 -325t-285.5 -297.5t-271.5 -224.5t-205.5 -85q-35 0 -54 20t-19 56
q0 63 57 168q47 82 118 155.5t142.5 126.5t170.5 110t174 93t184.5 88t171.5 84q166 205 272 369q12 20 31 20q9 0 15.5 -7t6.5 -17t-10 -27q-74 -115 -201 -279q10 6 64 33l31 17q12 8 18 10q105 55 152.5 81t116.5 76.5t114 104.5zM-1221 -846q57 0 162.5 76.5
t212.5 179.5t229 235t194 216t126 149q-49 -24 -125.5 -60.5t-131.5 -62.5t-129 -64t-129.5 -70.5t-119 -77t-112 -88t-95 -98.5t-80.5 -114q-57 -98 -57 -159q0 -27 14.5 -44.5t40.5 -17.5z" />
    <glyph glyph-name="k" unicode="k" horiz-adv-x="536" 
d="M1214 1442q13 -17 13 -33q0 -44 -92 -141t-221 -204t-295 -232.5t-287 -212t-223 -156.5q-153 -184 -228 -291q86 97 167 148t120 51q33 0 37 -25q0 -29 -38.5 -56.5t-105.5 -27.5q-13 0 -45 4q51 -96 148 -96q53 0 113 24t114.5 64.5t98.5 80.5t83 83q3 0 7 -4t4 -8
q-37 -40 -82 -79.5t-102.5 -82t-120 -68.5t-115.5 -26q-108 0 -164 110q-114 -94 -193 -203q0 -8 -8.5 -15t-15.5 -7q-11 0 -20 8.5t-9 18.5q0 8 2 12q47 93 246 340t426 491q87 93 154.5 162t152.5 147t153 128t137.5 83t123.5 33q45 0 65 -20zM1212 1403q0 43 -59 43
q-23 -1 -51 -10t-61.5 -29.5t-63 -40.5t-71 -56t-71 -61.5t-77 -72.5t-73.5 -73t-76.5 -79.5t-71 -75.5t-70.5 -76q-188 -201 -322 -364q73 51 142 100.5t206.5 149t248 187t223 181.5t178 166.5t69.5 110.5zM162 338q0 10 -17 10q-41 0 -125 -65q10 -2 29 -2q50 0 81.5 20
t31.5 37z" />
    <glyph glyph-name="l" unicode="l" horiz-adv-x="540" 
d="M1126 1440q36 0 62 -17.5t26 -52.5q0 -61 -104.5 -173.5t-254.5 -231t-319.5 -238.5t-296.5 -202.5t-188 -116.5q-174 -246 -174 -322q0 -49 72 -49q73 0 186 56.5t200.5 119t156.5 121.5q10 8 32.5 31t40.5 40t23 17q8 0 8 -12q-64 -68 -173 -154t-247.5 -161
t-228.5 -75q-86 0 -86 74q0 70 70 199.5t180 277.5t251.5 303.5t279.5 280.5t269 205t215 80zM76 440q76 47 191.5 122.5t284 195.5t307.5 230t239 217t100 165q0 27 -20 40t-50 13q-74 0 -209 -95.5t-284 -243t-297.5 -318t-261.5 -326.5z" />
    <glyph glyph-name="m" unicode="m" horiz-adv-x="649" 
d="M721 422q5 0 8.5 -4t3.5 -8q-73 -78 -171.5 -156t-162.5 -78q-33 0 -48 18t-15.5 39.5t-4.5 40t-16 19.5q-16 0 -71 -41t-76 -62q-35 0 -35 31q0 -2 26 52.5t52 113t25 66.5l-3 -2q-60 -28 -162.5 -123t-168.5 -185q-1 -7 -9 -12.5t-16 -5.5q-11 0 -19 7.5t-8 17.5
q0 6 3 12q21 50 50 106.5t69.5 110t68.5 53.5q20 0 20 -14q0 -10 -10 -23q-78 -102 -123 -190q87 103 190 186.5t146 83.5q13 0 21 -7.5t8 -18.5q0 -29 -31 -93t-67 -120q4 2 12 10q93 71 131 71q22 0 31.5 -20t9 -43.5t3.5 -43.5t17 -20q59 0 160 81t162 151z" />
    <glyph glyph-name="n" unicode="n" horiz-adv-x="460" 
d="M487 422q5 0 9 -4t4 -8l-19 -19q-179 -188 -264 -188q-31 0 -47.5 22t-19 48.5t-10.5 48.5t-25 22q-39 0 -201 -170l-8 -8q-6 -14 -23 -14q-11 0 -18.5 8t-7.5 18q0 32 69.5 143t104.5 111q24 0 24 -16q0 -10 -8 -21q-76 -97 -119 -182q154 164 211 164q27 0 40 -24.5
t15 -54.5t11 -54.5t28 -24.5q26 0 84.5 46t97 83.5t72.5 73.5z" />
    <glyph glyph-name="o" unicode="o" horiz-adv-x="372" 
d="M401 422q11 0 11 -12q-126 -148 -258 -148q-43 0 -74 10q-55 -55 -100 -55q-43 0 -43 47q0 37 32 90q-4 2 -4 23q0 42 33.5 71t77.5 29q34 0 55 -18t21 -49q0 -57 -60 -125q30 -9 60 -9q122 0 249 146zM76 461q-39 0 -66.5 -24.5t-27.5 -63.5q2 3 10.5 14.5t13 16
t12 12.5t15.5 11t16 3q12 0 22.5 -5t10.5 -13q0 -7 -11.5 -19t-30.5 -32t-32 -37q21 -21 68 -33q61 61 61 117q0 53 -61 53zM20 246q14 8 43 33q-34 5 -65 32q-27 -44 -27 -65q0 -15 13 -15q6 0 36 15z" />
    <glyph glyph-name="p" unicode="p" horiz-adv-x="483" 
d="M518 422q12 0 12 -10q-123 -159 -374 -183q-59 -51 -107 -51q-28 0 -44.5 8t-16.5 19q0 39 96 39l33 -2q24 26 39.5 58t15.5 54q0 29 -22 29q-55 0 -205 -143l-277 -381q-19 -26 -78 -108t-94 -130t-93 -126t-97.5 -126t-84 -98t-76 -74t-50.5 -24q-13 0 -13 14
q0 28 92 156.5t226 295.5t227 280t152 183q73 102 119.5 165t108.5 139.5t106 114.5t71 38q21 0 21 -18q0 -20 -29.5 -50t-89.5 -61l-84 -111q116 95 172 95q47 0 47 -52q0 -58 -49 -116q231 24 346 176zM172 528q-22 -16 -55 -57q65 36 65 66q-4 -5 -10 -9zM25 195
q35 0 73 30h-20q-72 0 -74 -20q0 -10 21 -10zM-866 -780q81 94 163.5 204.5t203.5 284.5t151 217q-91 -93 -229.5 -277t-233 -323t-90.5 -139q2 0 7.5 4.5t10.5 10t10.5 11.5t6.5 7z" />
    <glyph glyph-name="q" unicode="q" horiz-adv-x="444" 
d="M485 422q13 0 13 -10q-92 -111 -243.5 -191.5t-297.5 -101.5l-39 -56q0 -96 -31.5 -221t-83.5 -233q-112 -234 -241 -234q-49 0 -49 74q0 81 117.5 277.5t267.5 384.5q-1 1 -2 4.5t-2 5.5q0 10 20 10q51 65 123 145q-30 -12 -55 -12q-37 0 -37 39q0 45 46 90t103 45
q51 0 78 -45q2 0 4.5 1t3.5 1q4 0 8.5 -3.5t4.5 -6.5q0 -24 -87 -76q-63 -73 -135 -172q135 21 280 99t234 186zM-25 283q3 -7 13 -7q23 0 80 31q52 58 90 78q-16 27 -45 27q-42 0 -91 -46.5t-49 -76.5q0 -4 2 -6zM-211 -385q46 93 79.5 213t33.5 213q-146 -203 -257 -386
t-112 -235q0 -28 35 -28q34 0 69.5 23t65 61.5t49.5 71t37 67.5z" />
    <glyph glyph-name="r" unicode="r" horiz-adv-x="364" 
d="M414 422q10 0 10 -12q-59 -70 -194 -176.5t-197 -106.5q-45 0 -45 53q1 34 40 99t42 102v8q0 11 -6.5 29t-6.5 20q-10 -16 -47.5 -57t-46.5 -41q-6 0 -6 8q0 4 4 8q61 57 88 101q-20 40 -20 75v9q1 28 12.5 43.5t26.5 15.5q28 0 28 -53q-3 -31 -12 -58l8 -12q2 -4 5 -8
q1 -1 1 -2q25 -48 25 -78v-10q-2 -33 -18.5 -68t-35 -59t-34.5 -50t-17 -44q0 -15 15 -15q59 0 192 107t189 172zM55 567q0 -23 19 -57l6 39v8q0 29 -14 29q-11 0 -11 -19z" />
    <glyph glyph-name="s" unicode="s" horiz-adv-x="323" 
d="M362 422q15 0 15 -8l-2 -2q-34 -38 -65 -67.5t-64 -52.5t-55 -37.5t-58.5 -30t-53 -22t-60 -21l-58.5 -19.5q-87 -213 -186 -213q-56 0 -56 47q0 25 11.5 47t26.5 36.5t41.5 30.5t44.5 24t48 20l17 6q15 39 36 102t36 106t33.5 86.5t37 66t37.5 22.5q8 0 8 -13
q-15 -13 -33.5 -64.5t-46.5 -140.5t-49 -145q12 4 49 17t49.5 18l45 18t48.5 23t45.5 27.5t51 36t50 45t56.5 57.5zM-240 -33h9q66 0 131 172q-3 -2 -35.5 -15.5t-46.5 -22t-37.5 -25t-34 -36.5t-10.5 -44q0 -26 24 -29z" />
    <glyph glyph-name="t" unicode="t" horiz-adv-x="331" 
d="M1391 952q6 17 18 17q11 0 19 -9t8 -22q0 -15 -15 -33q-86 -94 -301 -94q-104 0 -207 20t-237 58q-278 -228 -598 -438q-52 -66 -99.5 -133.5t-94 -160t-46.5 -149.5q0 -14 4.5 -30.5t11 -30.5t12.5 -26t10 -19l5 -8q0 -3 -3.5 -7t-6.5 -4q-4 0 -4 4q-47 50 -47 125
q0 77 50 185t120.5 210t163 214.5t162 187.5t133.5 139q-161 35 -281 35q-235 0 -270 -125q-6 -18 -21 -18q-9 0 -16.5 8.5t-7.5 21.5q0 18 14 35q91 94 268 94q168 0 326 -38q219 215 400.5 347t260.5 132q41 0 41 -35q0 -118 -473 -506q271 -74 438 -74q227 0 263 127z
M1083 1411q-79 -36 -233 -164.5t-328 -300.5q144 -40 150 -41q201 163 338 301t137 197q0 22 -21 22q-20 0 -43 -14zM109 489q280 188 548 404q-73 21 -147 39q-226 -226 -401 -443z" />
    <glyph glyph-name="u" unicode="u" horiz-adv-x="495" 
d="M516 422q4 0 8 -4.5t4 -7.5q-37 -40 -77 -77t-93 -78t-108 -66.5t-100 -26.5q-69 0 -74 65v11q0 42 18 92q-93 -111 -139 -111q-12 0 -20.5 9t-8.5 28q1 24 17.5 62t31.5 62t27 42q10 16 37 16q18 0 18 -14q0 -11 -14 -31q-1 -2 -16 -22.5t-30 -42t-28 -46t-14 -36.5
q0 -13 8 -13q40 2 160 160l18 29q9 12 29 12q25 0 25 -18q0 -8 -13 -27q-25 -34 -47 -86.5t-22 -89.5q0 -35 41 -35q53 0 129 46.5t132.5 97.5t100.5 100z" />
    <glyph glyph-name="v" unicode="v" horiz-adv-x="370" 
d="M403 422q13 0 13 -10q-114 -138 -213 -138q-41 0 -64 28.5t-26 70.5q-41 -61 -90.5 -112.5t-75.5 -51.5q-25 0 -25 37q0 34 30 89t54 85q10 10 25 10q12 0 21 -5.5t9 -14.5t-8 -17q-18 -18 -58.5 -76.5t-43.5 -83.5q0 -10 4 -10q11 0 65 60t93 116q2 33 13.5 65t27.5 32
q12 0 12 -15q0 -9 -18.5 -41.5t-18.5 -56.5q0 -40 18.5 -67t57.5 -27q92 0 198 133zM147 467q-8 -15 -10 -27q2 6 4.5 12t4 9.5t1.5 5.5z" />
    <glyph glyph-name="w" unicode="w" horiz-adv-x="509" 
d="M559 422q12 0 12 -10q-111 -138 -213 -138q-66 0 -84 66q-44 -85 -102 -141t-94 -56q-17 0 -28 11t-11 26q0 34 47 121q-57 -43 -92 -43q-41 0 -41 41t27.5 86t54.5 45q22 0 22 -14q0 -2 -37.5 -54t-37.5 -77q0 -13 10 -13q22 0 77.5 42t69.5 42q25 0 25 -18
q0 -11 -12 -29q-80 -103 -80 -137q0 -12 10 -12q33 0 92 63t94 144v4l-2 10q0 29 11.5 72t31.5 43q13 0 13 -15q0 -29 -37 -119q11 -73 75 -73q93 0 199 133zM303 467q-15 -30 -18 -59q18 48 18 59z" />
    <glyph glyph-name="x" unicode="x" horiz-adv-x="452" 
d="M496 422q4 0 8 -3.5t4 -8.5q-39 -41 -80.5 -80t-96.5 -81.5t-111.5 -68.5t-102.5 -26q-74 0 -99 69q-18 -15 -54 -48t-59 -53t-55.5 -37t-60.5 -17q-3 0 -5.5 5t-2.5 7q38 7 81.5 33.5t73.5 53.5t78 75q-8 27 -8 65q0 27 1 43t5 39.5t14 35t27 11.5t17 -22
q0 -15 -5.5 -57.5t-5.5 -67.5l23 22q119 125 160 125q8 0 8 -12q-22 -5 -51.5 -26t-49.5 -41t-59 -60l-29 -29q11 -94 74 -94q73 0 178 81t183 167z" />
    <glyph glyph-name="y" unicode="y" horiz-adv-x="493" 
d="M520 422q12 0 12 -10q-52 -69 -131 -119q-34 -21 -78.5 -42t-77 -33.5t-86.5 -32.5t-81 -31q-60 -77 -139.5 -170.5t-202.5 -226t-235.5 -236.5t-228 -178t-190.5 -74q-55 0 -55 53q4 40 37 90q81 126 240.5 269t341.5 261.5t350 194.5q63 76 170 221q-141 -90 -186 -90
q-37 0 -37 39q0 30 30.5 77.5t51.5 47.5q28 0 28 -20q0 -8 -41 -57t-41 -64q0 -6 9 -6q43 0 188 94l22 14q2 0 13 5t16 5q25 0 25 -18q0 -8 -9.5 -25t-27.5 -41.5t-34.5 -45t-41 -51t-35.5 -44.5q23 9 90 33t101 39q163 74 233 172zM-858 -696q76 35 182 121.5t220 202.5
t220.5 236t208.5 245q-239 -110 -491 -304q-175 -135 -307.5 -274.5t-132.5 -216.5q0 -13 11.5 -21t24.5 -8q12 0 33 9.5t31 9.5z" />
    <glyph glyph-name="z" unicode="z" horiz-adv-x="385" 
d="M416 422q2 0 7 -3t5 -7q-48 -64 -144.5 -125.5t-252.5 -139.5q-48 -105 -173.5 -248t-271.5 -267t-258 -183q-80 -41 -143 -41q-33 0 -52.5 17.5t-19.5 54.5q0 166 300 359q143 92 473 255h1l1 1h1l1 1h1l1 1h1l1 1h1l1 1h1l1 1l84 41q43 74 43 107q0 16 -17 16h-12
q-9 0 -15 10t-6 21q0 15 9 18q55 15 110.5 56t55.5 67q0 4 -9 4h-18q-44 0 -70 13q0 -21 -16.5 -44.5t-36.5 -39.5q-10 0 -10 12q49 43 49 76l-2 4q0 5 4 8.5t8 3.5t6 -2q21 -14 70 -14h16q37 0 37 -31q0 -29 -39.5 -69.5t-87.5 -69.5q6 -15 6 -39q0 -39 -16 -78
q145 72 237 131.5t138 120.5zM-690 -522q155 96 356 292t299 345q-38 -19 -131 -64.5t-140.5 -69.5t-126.5 -66.5t-128.5 -74.5t-104.5 -73.5t-94 -81.5q-112 -118 -112 -205q0 -49 45 -53q49 0 137 51z" />
    <glyph glyph-name="braceleft" unicode="{" horiz-adv-x="792" 
d="M16 -621v-6l-2 -14q0 -23 9 -88q0 -8 -9 -8q-14 0 -14 112v9q3 98 27.5 193t62 171.5t81.5 149.5t88 138.5t80 127t58.5 127.5t22.5 127q0 75 -25 149q0 15 8 15q12 -2 39 -2q76 0 147.5 38t133.5 103t122.5 145t126.5 170t133 172t154.5 156.5t180.5 118.5q76 35 129 35
q6 0 6 -7q0 -3 -24.5 -10.5t-58 -17t-46.5 -15.5q-57 -27 -116.5 -81t-114 -120.5t-111 -143t-117 -154t-122 -147.5t-136 -130.5t-149.5 -95.5q-74 -33 -134 -33q-22 0 -32 2q20 -67 20 -137q0 -115 -42.5 -231t-103 -213t-121.5 -192t-105 -202.5t-46 -210.5z" />
    <glyph glyph-name="bar" unicode="|" horiz-adv-x="501" 
d="M426 1626q7 17 18 19l5 2q21 0 28 -23l2 -6v-2l-2 -2q-72 -257 -218.5 -741.5t-209.5 -706.5q0 -5 -6 -8q-8 0 -10 6q0 16 28 114t41 140l121 459q14 53 88 327.5t115 421.5z" />
    <glyph glyph-name="braceright" unicode="}" horiz-adv-x="1052" 
d="M1030 1403q0 17 -3 52.5t-3 55.5q0 7 8 7q15 0 15 -121q-3 -99 -28 -194.5t-62 -172.5t-81.5 -150t-88.5 -139.5t-80.5 -128.5t-59 -128.5t-22.5 -129.5q0 -68 24 -141l2 -2q0 -12 -10 -12q-12 2 -39 2q-67 0 -131 -30t-117 -80t-110 -118t-108 -141.5t-112 -152
t-121 -148t-137.5 -132t-158.5 -101.5q-76 -35 -129 -35q-6 0 -6 8q0 1 25 8t57 17t45 16q77 37 161 124.5t161.5 192t159 211t182 201.5t202.5 143q30 16 58.5 23.5t48 8.5t61.5 1q-23 70 -23 145q0 96 30.5 194t76.5 176t100 165t100.5 162t78.5 166t34 178z" />
    <glyph glyph-name="asciitilde" unicode="~" horiz-adv-x="505" 
d="M12 311q-2 -2 -6 -2q-6 0 -6 8q0 5 4 7q83 49 168 49q42 0 112 -16.5t105 -16.5q46 0 94 22q11 0 11 -8q0 -4 -5 -6q-79 -39 -151 -39q-42 0 -111 16.5t-102 16.5q-62 0 -113 -31z" />
    <glyph glyph-name="section" unicode="&#xa7;" horiz-adv-x="745" 
d="M786 1401h15q69 -3 101 -27.5t32 -62.5q0 -63 -80 -166q-4 -4 -6 -4q-3 0 -4.5 3.5t-1.5 7.5v3q30 35 53 78.5t23 75.5q0 31 -23.5 51t-75.5 20q-109 0 -266.5 -80.5t-277.5 -197.5t-125 -209q0 -33 30 -73.5t72.5 -80.5t85 -81.5t72.5 -89t30 -91.5q0 -51 -49.5 -107
t-134.5 -73q46 -44 73 -72.5t50.5 -70t23.5 -78.5q0 -55 -39 -99.5t-93.5 -66t-108.5 -21.5q-78 0 -120 32.5t-42 82.5q0 25 22.5 78t40.5 53q7 0 7 -12q-56 -62 -56 -117q0 -45 37.5 -73.5t108.5 -28.5q43 0 91.5 16t87 50t38.5 77q0 36 -30 77.5t-72.5 81t-84.5 81.5
t-72 93t-30 101q0 116 111 240q-76 87 -76 164q0 90 69.5 186t170.5 167t216.5 117t206.5 46zM414 449q0 29 -19 61.5t-39 54t-64 62.5t-63 61q-116 -123 -116 -196q0 -39 33 -81.5t98 -101.5q68 13 117.5 54.5t52.5 85.5z" />
    <glyph glyph-name="dieresis" unicode="&#xa8;" horiz-adv-x="198" 
d="M100 1442q-18 0 -18 12q0 16 17.5 32.5t37.5 16.5q19 0 19 -14t-18.5 -30.5t-37.5 -16.5zM18 1442q-18 0 -18 12q0 16 17.5 32.5t37.5 16.5q19 0 19 -14t-18.5 -30.5t-37.5 -16.5z" />
    <glyph glyph-name="guillemotleft" unicode="&#xab;" horiz-adv-x="602" 
d="M291 156q2 -2 2 -11q-4 -12 -10 -14q-4 0 -3 -2h-1q-41 41 -91 96.5t-109 137t-71 129.5q-2 6 -2 16q0 40 65 109t133.5 120.5t96.5 63.5q2 2 6 2q13 0 23 -29q2 -4 2 -14q0 -22 -15 -25q-17 -7 -83.5 -55t-130.5 -106.5t-64 -81.5l2 -3q9 -45 106.5 -168t143.5 -165z
M545 156q2 -2 2 -11q-4 -12 -10 -14q-4 0 -4 -2h-1q-41 41 -91 96.5t-108.5 137t-70.5 129.5q-2 6 -2 16q0 40 65 109t133.5 120.5t96.5 63.5q2 2 6 2q13 0 23 -29q2 -4 2 -14q0 -22 -15 -25q-17 -7 -83.5 -55t-130.5 -106.5t-64 -81.5l2 -3q9 -45 106.5 -168t143.5 -165z
" />
    <glyph glyph-name="uni00AD" unicode="&#xad;" horiz-adv-x="522" 
d="M455 285h-447q-8 0 -8 8t8 8h447q8 0 8 -8t-8 -8z" />
    <glyph glyph-name="degree" unicode="&#xb0;" horiz-adv-x="143" 
d="M82 604q-23 0 -23 19q0 18 19 36.5t43 18.5q29 0 29 -23q0 -18 -20 -34.5t-48 -16.5zM106 662q-13 -1 -22.5 -10.5t-9.5 -18.5q0 -12 14 -12q12 0 22.5 10.5t10.5 19.5q0 11 -15 11z" />
    <glyph glyph-name="plusminus" unicode="&#xb1;" horiz-adv-x="624" 
d="M342 369h225q8 0 8 -9q0 -6 -8 -10h-233l-101 -205q-3 -6 -8 -6q-8 0 -8 8l2 3v2l98 196h-221q-8 0 -8 8q0 7 8 11h228l114 229q4 4 6 4q9 0 9 -10zM29 96q-9 0 -9 8q0 9 9 9h475q8 -4 8 -11q0 -8 -8 -8z" />
    <glyph glyph-name="acute" unicode="&#xb4;" horiz-adv-x="155" 
d="M2 1432l74 94q5 8 12 8q6 0 12 -5.5t6 -12.5q0 -3 -4 -11l-88 -84q-2 -2 -6 -2q-6 0 -6 13z" />
    <glyph glyph-name="cedilla" unicode="&#xb8;" horiz-adv-x="149" 
d="M92 207q0 8 8 8q9 0 9 -8q-3 -34 -23 -57q53 -3 53 -50q0 -36 -32.5 -70t-75.5 -34q-9 0 -25 4q-6 3 -6 8q0 8 8 8q34 0 67.5 29.5t33.5 56.5q0 26 -31 31q-13 0 -19 -2q-8 0 -8 8t4 8q34 13 37 60z" />
    <glyph glyph-name="guillemotright" unicode="&#xbb;" horiz-adv-x="614" 
d="M301 774q-2 2 -2 10q4 13 10 15q4 0 3 2h1q41 -41 91 -96.5t109 -137t71 -129.5q2 -6 2 -16q0 -40 -65 -109t-133.5 -120.5t-96.5 -63.5q-2 -2 -6 -2q-13 0 -23 29q-2 4 -2 14q0 22 14 25q17 7 83.5 55t131 106.5t64.5 81.5l-2 2q-9 45 -106.5 168.5t-143.5 165.5z
M47 774q-2 2 -2 10q4 13 10 15q4 0 3 2h1q41 -41 91 -96.5t109 -137t71 -129.5q2 -6 2 -16q0 -40 -65 -109t-133.5 -120.5t-96.5 -63.5q-2 -2 -6 -2q-13 0 -23 29q-2 4 -2 14q0 22 14 25q17 7 83.5 55t131 106.5t64.5 81.5l-2 2q-9 45 -106.5 168.5t-143.5 165.5z" />
    <glyph glyph-name="Agrave" unicode="&#xc0;" horiz-adv-x="2349" 
d="M2863 2028l98 -152q5 -8 -2.5 -12.5t-13.5 2.5l-115 139q-8 12 -2 22.5t17 10.5q8 0 18 -10zM2955 1710q4 -8 4 -10q0 -26 -61.5 -66.5t-155.5 -89.5t-121 -67q-271 -253 -515.5 -592.5t-374.5 -644.5q78 -4 116 -4q279 0 434 114q5 3 22.5 21.5t34.5 34.5t21 16
q11 0 11 -10q-158 -193 -529 -193q-6 0 -17 0.5t-38 1.5t-64 2q-151 -364 -151 -635q0 -235 125.5 -378t357.5 -160q4 0 23 -0.5t31 -3t12 -7.5q0 -8 -6 -8q-188 0 -318.5 79t-192 213.5t-61.5 314.5q0 267 129 589q-111 11 -307 45q-88 -90 -163 -164.5t-175.5 -166.5
t-188.5 -163.5t-191 -142.5t-194.5 -118t-188 -76t-181.5 -29q-197 0 -303.5 103t-106.5 260q0 89 34 180t105.5 176.5t171 151t241.5 105.5t306 40q71 0 172 -13.5t181 -29.5t221 -45t215 -43q47 48 130.5 137.5t119.5 126.5l43 45q118 123 183 190t186 185t210.5 195.5
t204.5 166t219 152.5q63 58 108 97t110.5 80.5t105.5 41.5q12 0 16 -4zM2935 1688q10 8 10 12q-83 0 -264 -168q17 10 62 33t75 39t64.5 39.5t52.5 44.5zM1794 492q81 151 164.5 276t181.5 239.5t184 203t218 214.5q-97 -69 -199 -156.5t-205.5 -190.5t-182 -184.5
t-187.5 -198t-162 -171.5q-152 -159 -228 -237q189 -34 299 -43q55 137 117 248zM82 -571q77 0 166.5 29t176 75.5t184.5 117t183.5 141.5t182.5 162t171.5 166t160.5 165q-73 14 -211 42t-216.5 43t-178.5 28.5t-171 13.5q-161 0 -300.5 -39t-237 -103.5t-167.5 -147.5
t-103 -171.5t-33 -175.5q0 -150 101.5 -248t291.5 -98z" />
    <glyph glyph-name="Aacute" unicode="&#xc1;" horiz-adv-x="2312" 
d="M2820 1839l98 125q7 10 17 10q8 0 16 -7t8 -17q0 -3 -2.5 -8l-3.5 -7l-117 -110q-2 -2 -8 -2q-8 0 -8 16zM2955 1710q4 -8 4 -10q0 -26 -61.5 -66.5t-155.5 -89.5t-121 -67q-271 -253 -515.5 -592.5t-374.5 -644.5q78 -4 116 -4q279 0 434 114q5 3 22.5 21.5t34.5 34.5
t21 16q11 0 11 -10q-158 -193 -529 -193q-6 0 -17 0.5t-38 1.5t-64 2q-151 -364 -151 -635q0 -235 125.5 -378t357.5 -160q4 0 23 -0.5t31 -3t12 -7.5q0 -8 -6 -8q-188 0 -318.5 79t-192 213.5t-61.5 314.5q0 267 129 589q-111 11 -307 45q-88 -90 -163 -164.5
t-175.5 -166.5t-188.5 -163.5t-191 -142.5t-194.5 -118t-188 -76t-181.5 -29q-197 0 -303.5 103t-106.5 260q0 89 34 180t105.5 176.5t171 151t241.5 105.5t306 40q71 0 172 -13.5t181 -29.5t221 -45t215 -43q47 48 130.5 137.5t119.5 126.5l43 45q118 123 183 190t186 185
t210.5 195.5t204.5 166t219 152.5q63 58 108 97t110.5 80.5t105.5 41.5q12 0 16 -4zM2935 1688q10 8 10 12q-83 0 -264 -168q17 10 62 33t75 39t64.5 39.5t52.5 44.5zM1794 492q81 151 164.5 276t181.5 239.5t184 203t218 214.5q-97 -69 -199 -156.5t-205.5 -190.5
t-182 -184.5t-187.5 -198t-162 -171.5q-152 -159 -228 -237q189 -34 299 -43q55 137 117 248zM82 -571q77 0 166.5 29t176 75.5t184.5 117t183.5 141.5t182.5 162t171.5 166t160.5 165q-73 14 -211 42t-216.5 43t-178.5 28.5t-171 13.5q-161 0 -300.5 -39t-237 -103.5
t-167.5 -147.5t-103 -171.5t-33 -175.5q0 -150 101.5 -248t291.5 -98z" />
    <glyph glyph-name="Acircumflex" unicode="&#xc2;" horiz-adv-x="2312" 
d="M2796 1808q-9 0 -9 7q0 4 2 6q75 65 117 65q25 -1 32 -18.5t7 -46.5q0 -13 -14 -13q-13 0 -13 13q0 49 -20 49q-23 0 -102 -62zM2955 1710q4 -8 4 -10q0 -26 -61.5 -66.5t-155.5 -89.5t-121 -67q-271 -253 -515.5 -592.5t-374.5 -644.5q78 -4 116 -4q279 0 434 114
q5 3 22.5 21.5t34.5 34.5t21 16q11 0 11 -10q-158 -193 -529 -193q-6 0 -17 0.5t-38 1.5t-64 2q-151 -364 -151 -635q0 -235 125.5 -378t357.5 -160q4 0 23 -0.5t31 -3t12 -7.5q0 -8 -6 -8q-188 0 -318.5 79t-192 213.5t-61.5 314.5q0 267 129 589q-111 11 -307 45
q-88 -90 -163 -164.5t-175.5 -166.5t-188.5 -163.5t-191 -142.5t-194.5 -118t-188 -76t-181.5 -29q-197 0 -303.5 103t-106.5 260q0 89 34 180t105.5 176.5t171 151t241.5 105.5t306 40q71 0 172 -13.5t181 -29.5t221 -45t215 -43q47 48 130.5 137.5t119.5 126.5l43 45
q118 123 183 190t186 185t210.5 195.5t204.5 166t219 152.5q63 58 108 97t110.5 80.5t105.5 41.5q12 0 16 -4zM2935 1688q10 8 10 12q-83 0 -264 -168q17 10 62 33t75 39t64.5 39.5t52.5 44.5zM1794 492q81 151 164.5 276t181.5 239.5t184 203t218 214.5
q-97 -69 -199 -156.5t-205.5 -190.5t-182 -184.5t-187.5 -198t-162 -171.5q-152 -159 -228 -237q189 -34 299 -43q55 137 117 248zM82 -571q77 0 166.5 29t176 75.5t184.5 117t183.5 141.5t182.5 162t171.5 166t160.5 165q-73 14 -211 42t-216.5 43t-178.5 28.5t-171 13.5
q-161 0 -300.5 -39t-237 -103.5t-167.5 -147.5t-103 -171.5t-33 -175.5q0 -150 101.5 -248t291.5 -98z" />
    <glyph glyph-name="Atilde" unicode="&#xc3;" horiz-adv-x="2437" 
d="M2750 1855q-6 0 -6 9l2 2q58 53 117 53q28 0 77 -17.5t73 -17.5q32 0 65 23q6 0 6 -11l-2 -2q-52 -39 -104 -39q-30 0 -78 16.5t-70 16.5q-39 0 -80 -33zM2955 1710q4 -8 4 -10q0 -26 -61.5 -66.5t-155.5 -89.5t-121 -67q-271 -253 -515.5 -592.5t-374.5 -644.5
q78 -4 116 -4q279 0 434 114q5 3 22.5 21.5t34.5 34.5t21 16q11 0 11 -10q-158 -193 -529 -193q-6 0 -17 0.5t-38 1.5t-64 2q-151 -364 -151 -635q0 -235 125.5 -378t357.5 -160q4 0 23 -0.5t31 -3t12 -7.5q0 -8 -6 -8q-188 0 -318.5 79t-192 213.5t-61.5 314.5
q0 267 129 589q-111 11 -307 45q-88 -90 -163 -164.5t-175.5 -166.5t-188.5 -163.5t-191 -142.5t-194.5 -118t-188 -76t-181.5 -29q-197 0 -303.5 103t-106.5 260q0 89 34 180t105.5 176.5t171 151t241.5 105.5t306 40q71 0 172 -13.5t181 -29.5t221 -45t215 -43
q47 48 130.5 137.5t119.5 126.5l43 45q118 123 183 190t186 185t210.5 195.5t204.5 166t219 152.5q63 58 108 97t110.5 80.5t105.5 41.5q12 0 16 -4zM2935 1688q10 8 10 12q-83 0 -264 -168q17 10 62 33t75 39t64.5 39.5t52.5 44.5zM1794 492q81 151 164.5 276t181.5 239.5
t184 203t218 214.5q-97 -69 -199 -156.5t-205.5 -190.5t-182 -184.5t-187.5 -198t-162 -171.5q-152 -159 -228 -237q189 -34 299 -43q55 137 117 248zM82 -571q77 0 166.5 29t176 75.5t184.5 117t183.5 141.5t182.5 162t171.5 166t160.5 165q-73 14 -211 42t-216.5 43
t-178.5 28.5t-171 13.5q-161 0 -300.5 -39t-237 -103.5t-167.5 -147.5t-103 -171.5t-33 -175.5q0 -150 101.5 -248t291.5 -98z" />
    <glyph glyph-name="Adieresis" unicode="&#xc4;" horiz-adv-x="2639" 
d="M3318 1851q-19 0 -19 13q0 16 18 32.5t38 16.5q18 0 18 -15q0 -14 -18 -30.5t-37 -16.5zM3236 1851q-19 0 -19 13q0 16 18 32.5t38 16.5q18 0 18 -15q0 -14 -18 -30.5t-37 -16.5zM3283 1710q4 -8 4 -10q0 -26 -61.5 -66.5t-155.5 -89.5t-121 -67q-271 -253 -516 -592.5
t-375 -644.5q78 -4 117 -4q279 0 434 114q5 3 22.5 21.5t34.5 34.5t21 16q10 0 10 -10q-158 -193 -528 -193q-6 0 -17 0.5t-38 1.5t-64 2q-152 -367 -152 -635q0 -235 126 -378t358 -160q4 0 22.5 -0.5t30.5 -3t12 -7.5q0 -8 -6 -8q-141 0 -251 45t-179.5 126t-105 191.5
t-35.5 244.5q0 267 129 589q-111 11 -307 45q-88 -90 -163 -164.5t-175.5 -166.5t-188.5 -163.5t-191 -142.5t-194.5 -118t-188 -76t-181.5 -29q-197 0 -303.5 103t-106.5 260q0 89 34 180t105.5 176.5t171 151t241.5 105.5t306 40q71 0 172 -13.5t181 -29.5t221 -45
t215 -43q48 49 131 138.5t118 125.5l43 45q96 100 151.5 157t153 154.5t172 165t167.5 147.5t183 146t177 119q63 58 108 97t110.5 80.5t105.5 41.5q12 0 16 -4zM3262 1688q11 8 11 12q-83 0 -264 -168q17 9 62 32.5t74.5 39.5t64 39.5t52.5 44.5zM2122 492
q81 151 164.5 276t181 239.5t183.5 203t218 214.5q-97 -69 -199 -156.5t-205.5 -190.5t-182 -184.5t-187.5 -198t-162 -171.5q-194 -203 -227 -237q189 -34 299 -43q55 137 117 248zM410 -571q77 0 166.5 29t176 75.5t184.5 117t183 141.5t182 162t171.5 166t160.5 165
q-73 14 -210.5 42t-216.5 43.5t-178.5 28.5t-170.5 13q-135 0 -255.5 -27.5t-211 -74.5t-163 -109.5t-118.5 -134t-70 -145.5t-24 -146q0 -150 102 -248t292 -98z" />
    <glyph glyph-name="Aring" unicode="&#xc5;" horiz-adv-x="2639" 
d="M3252 1890q-22 0 -22 19q0 18 18.5 36.5t42.5 18.5q29 0 29 -22q0 -18 -20 -35t-48 -17zM3277 1948q-13 -1 -23 -10.5t-10 -18.5q0 -12 14 -12q12 0 22.5 10.5t10.5 19.5q0 11 -14 11zM3283 1710q4 -8 4 -10q0 -26 -61.5 -66.5t-155.5 -89.5t-121 -67
q-271 -253 -516 -592.5t-375 -644.5q78 -4 117 -4q279 0 434 114q5 3 22.5 21.5t34.5 34.5t21 16q10 0 10 -10q-158 -193 -528 -193q-6 0 -17 0.5t-38 1.5t-64 2q-152 -367 -152 -635q0 -235 126 -378t358 -160q4 0 22.5 -0.5t30.5 -3t12 -7.5q0 -8 -6 -8q-141 0 -251 45
t-179.5 126t-105 191.5t-35.5 244.5q0 267 129 589q-111 11 -307 45q-88 -90 -163 -164.5t-175.5 -166.5t-188.5 -163.5t-191 -142.5t-194.5 -118t-188 -76t-181.5 -29q-197 0 -303.5 103t-106.5 260q0 89 34 180t105.5 176.5t171 151t241.5 105.5t306 40q71 0 172 -13.5
t181 -29.5t221 -45t215 -43q48 49 131 138.5t118 125.5l43 45q96 100 151.5 157t153 154.5t172 165t167.5 147.5t183 146t177 119q63 58 108 97t110.5 80.5t105.5 41.5q12 0 16 -4zM3262 1688q11 8 11 12q-83 0 -264 -168q17 9 62 32.5t74.5 39.5t64 39.5t52.5 44.5z
M2122 492q81 151 164.5 276t181 239.5t183.5 203t218 214.5q-97 -69 -199 -156.5t-205.5 -190.5t-182 -184.5t-187.5 -198t-162 -171.5q-194 -203 -227 -237q189 -34 299 -43q55 137 117 248zM410 -571q77 0 166.5 29t176 75.5t184.5 117t183 141.5t182 162t171.5 166
t160.5 165q-73 14 -210.5 42t-216.5 43.5t-178.5 28.5t-170.5 13q-135 0 -255.5 -27.5t-211 -74.5t-163 -109.5t-118.5 -134t-70 -145.5t-24 -146q0 -150 102 -248t292 -98z" />
    <glyph glyph-name="Ccedilla" unicode="&#xc7;" horiz-adv-x="2183" 
d="M1303 686q19 -65 112 -65q62 0 136 23.5t120 47.5q157 81 269 235.5t112 319.5q0 159 -97 235.5t-259 76.5q-197 0 -423 -92.5t-435.5 -244.5t-404.5 -356t-339 -419t-230.5 -440.5t-86.5 -414.5q0 -179 86.5 -269.5t249.5 -90.5q161 0 393.5 83.5t467.5 212.5t471.5 284
t422 298.5t303.5 254.5q28 24 57 57q6 6 8 6q9 0 9 -6q0 -4 -2 -6q-148 -159 -441 -375q-158 -118 -326.5 -230.5t-359 -221.5t-364.5 -191t-342 -132t-293 -50q-112 0 -185 36q-3 -27 -20 -47q53 -3 53 -49q0 -36 -32.5 -70t-75.5 -34q-9 0 -25 4q-6 3 -6 8q0 8 8 8
q34 0 67 29.5t33 56.5q0 26 -30 31q-13 0 -19 -2q-8 0 -8 8t4 8q34 13 37 58q-172 94 -172 379q0 195 86.5 423.5t231 444t340 417.5t405.5 352.5t437 241.5t425 91q111 0 199.5 -34.5t144.5 -111.5t56 -186q0 -183 -110.5 -346t-281.5 -254q-48 -26 -123.5 -49t-138.5 -23
q-31 0 -59.5 7t-51 27.5t-22.5 51.5q0 4 4 4q12 0 15 -10z" />
    <glyph glyph-name="Egrave" unicode="&#xc8;" horiz-adv-x="1835" 
d="M1524 1878l98 -152q5 -8 -2.5 -12.5t-13.5 2.5l-115 139q-8 12 -2.5 22.5t16.5 10.5q9 0 19 -10zM809 705q-143 47 -289 47q-128 0 -256 -40t-238 -110t-205 -168.5t-162 -211t-105.5 -241.5t-38.5 -257q0 -125 44.5 -220.5t123 -153t179 -86t220.5 -28.5q163 0 370.5 85
t404 215t397.5 294t354 312t270 280q4 0 8 -3.5t4 -6.5q0 -2 -16.5 -21t-28.5 -31q-124 -134 -277 -278t-350 -300.5t-387 -278.5t-390.5 -201.5t-358.5 -79.5q-129 0 -237.5 33.5t-193 99t-132 172.5t-47.5 244q0 130 39.5 258t108 237t165 203t207.5 160t238.5 103.5
t254.5 37.5q142 0 289 -39q-151 114 -151 277q0 97 49.5 190.5t131 165t181 126t204 83.5t195.5 29q108 0 199 -41.5t148 -125t57 -194.5q0 -166 -126.5 -294t-291.5 -128q-45 0 -87 17t-58 53q-2 2 -2 6q0 10 10 10q4 0 4 -4q17 -65 139 -65q106 0 198.5 59.5t146 155.5
t53.5 200q0 148 -104 233t-257 85q-93 0 -200 -31.5t-206 -89t-180.5 -130t-130.5 -163.5t-49 -182q0 -143 170 -254q0 -2 -2.5 -8t-5.5 -6z" />
    <glyph glyph-name="Eacute" unicode="&#xc9;" horiz-adv-x="1835" 
d="M1516 1753l98 125q7 10 16 10q8 0 16.5 -7t8.5 -17q0 -3 -2.5 -8l-3.5 -7l-117 -110q-2 -2 -8 -2q-8 0 -8 16zM809 705q-143 47 -289 47q-128 0 -256 -40t-238 -110t-205 -168.5t-162 -211t-105.5 -241.5t-38.5 -257q0 -125 44.5 -220.5t123 -153t179 -86t220.5 -28.5
q163 0 370.5 85t404 215t397.5 294t354 312t270 280q4 0 8 -3.5t4 -6.5q0 -2 -16.5 -21t-28.5 -31q-124 -134 -277 -278t-350 -300.5t-387 -278.5t-390.5 -201.5t-358.5 -79.5q-129 0 -237.5 33.5t-193 99t-132 172.5t-47.5 244q0 130 39.5 258t108 237t165 203t207.5 160
t238.5 103.5t254.5 37.5q142 0 289 -39q-151 114 -151 277q0 97 49.5 190.5t131 165t181 126t204 83.5t195.5 29q108 0 199 -41.5t148 -125t57 -194.5q0 -166 -126.5 -294t-291.5 -128q-45 0 -87 17t-58 53q-2 2 -2 6q0 10 10 10q4 0 4 -4q17 -65 139 -65q106 0 198.5 59.5
t146 155.5t53.5 200q0 148 -104 233t-257 85q-93 0 -200 -31.5t-206 -89t-180.5 -130t-130.5 -163.5t-49 -182q0 -143 170 -254q0 -2 -2.5 -8t-5.5 -6z" />
    <glyph glyph-name="Ecircumflex" unicode="&#xca;" horiz-adv-x="1835" 
d="M1358 1737q-8 0 -8 6q0 4 2 6q77 66 116 66q25 -1 32 -19t7 -47q0 -12 -14 -12q-12 0 -12 12q0 49 -21 49q-24 0 -102 -61zM809 705q-143 47 -289 47q-128 0 -256 -40t-238 -110t-205 -168.5t-162 -211t-105.5 -241.5t-38.5 -257q0 -125 44.5 -220.5t123 -153t179 -86
t220.5 -28.5q163 0 370.5 85t404 215t397.5 294t354 312t270 280q4 0 8 -3.5t4 -6.5q0 -2 -16.5 -21t-28.5 -31q-124 -134 -277 -278t-350 -300.5t-387 -278.5t-390.5 -201.5t-358.5 -79.5q-129 0 -237.5 33.5t-193 99t-132 172.5t-47.5 244q0 130 39.5 258t108 237t165 203
t207.5 160t238.5 103.5t254.5 37.5q142 0 289 -39q-151 114 -151 277q0 97 49.5 190.5t131 165t181 126t204 83.5t195.5 29q108 0 199 -41.5t148 -125t57 -194.5q0 -166 -126.5 -294t-291.5 -128q-45 0 -87 17t-58 53q-2 2 -2 6q0 10 10 10q4 0 4 -4q17 -65 139 -65
q106 0 198.5 59.5t146 155.5t53.5 200q0 148 -104 233t-257 85q-93 0 -200 -31.5t-206 -89t-180.5 -130t-130.5 -163.5t-49 -182q0 -143 170 -254q0 -2 -2.5 -8t-5.5 -6z" />
    <glyph glyph-name="Edieresis" unicode="&#xcb;" horiz-adv-x="2363" 
d="M2148 1722q-22 0 -22 17q0 22 21 44.5t44 22.5t23 -18q0 -21 -21.5 -43.5t-44.5 -22.5zM2052 1722q-22 0 -22 17q0 22 21 44.5t44 22.5t23 -18q0 -21 -21.5 -43.5t-44.5 -22.5zM1337 705q-143 47 -288 47q-192 0 -377.5 -88t-322.5 -229.5t-221.5 -330t-84.5 -380.5
q0 -125 44.5 -220.5t123 -153t179 -86t220.5 -28.5q163 0 370.5 85t404 215t397.5 294t354 312t270 280q4 0 8.5 -3.5t4.5 -6.5q0 -2 -16.5 -21t-28.5 -31q-123 -134 -276.5 -278t-350.5 -300.5t-387.5 -278.5t-391 -201.5t-358.5 -79.5q-129 0 -237.5 33.5t-193 99
t-132 172.5t-47.5 244q0 130 39.5 258t108 237t165.5 203t208 160t238.5 103.5t254.5 37.5q142 0 289 -39q-152 115 -152 277q0 97 50 191t131.5 165t181 125.5t204 83.5t195.5 29q108 0 198.5 -41.5t147.5 -125t57 -194.5q0 -166 -126.5 -294t-291.5 -128q-45 0 -87 17
t-58 53q-2 2 -2 6q0 10 10 10q4 0 4 -4q17 -65 140 -65q106 0 198 59.5t145.5 155.5t53.5 200q0 148 -103.5 233t-256.5 85q-93 0 -200 -31.5t-206 -89t-180.5 -130t-130.5 -163.5t-49 -182q0 -143 170 -254q0 -2 -3 -8t-6 -6z" />
    <glyph glyph-name="Igrave" unicode="&#xcc;" horiz-adv-x="1544" 
d="M1898 1765l78 -129q3 -4 1 -7.5t-6 -3.5t-7 3l-92 119q-7 9 -3 17.5t12.5 9t16.5 -8.5zM1597 1235q54 55 118 107t150 97.5t150 45.5q49 0 49 -27q0 -14 -14.5 -30.5t-48.5 -36t-62.5 -34t-85.5 -38.5t-85.5 -35.5t-92.5 -36.5l-33 -12q-96 -105 -202 -259t-249 -379
t-224 -345q75 -41 174 -41q111 0 219 49t190 131q3 3 11.5 12t13.5 14t6 5q8 0 8 -10q-75 -95 -206.5 -156t-254.5 -61q-101 0 -176 34q-78 -116 -150.5 -212.5t-160 -198t-172 -181t-184.5 -151.5t-200.5 -119.5t-215.5 -75.5t-234 -28q-8 0 -8 6q0 8 8 8q111 0 219.5 28.5
t202.5 76.5t189.5 123t175 154t166.5 185.5t156 201.5t151 216q-62 45 -95.5 113t-33.5 147q0 78 30.5 152t78 133t120 116.5t141.5 99.5t159 85t155 69.5t147 57.5zM1923 1364q62 27 92.5 51t30.5 39q0 14 -31 14q-72 0 -170.5 -61.5t-179.5 -144.5q210 80 258 102z
M911 289q40 60 160 242t176.5 265t150.5 206.5t173 207.5q-79 -31 -141 -57.5t-144.5 -67.5t-145 -81t-127.5 -95t-107 -111.5t-68.5 -128t-26.5 -147.5q0 -147 100 -233z" />
    <glyph glyph-name="Iacute" unicode="&#xcd;" horiz-adv-x="1081" 
d="M1511 1626l99 125q7 10 16 10q8 0 16.5 -7t8.5 -17q0 -3 -2.5 -8l-3.5 -7l-117 -110q-2 -2 -8 -2q-9 0 -9 16zM1135 1235q54 55 117.5 107t149.5 97.5t150 45.5q50 0 50 -27q0 -58 -378 -206q-8 -3 -12 -5l-32 -12q-96 -105 -202 -258.5t-250 -380t-224 -344.5
q75 -41 174 -41q111 0 219 49t190 131q3 3 11.5 12t13.5 14t6 5q8 0 8 -10q-76 -96 -206.5 -156.5t-253.5 -60.5q-102 0 -177 34q-78 -116 -150 -212.5t-160 -198t-172.5 -181t-184.5 -151.5t-200 -119.5t-215 -75.5t-234 -28q-9 0 -9 6q0 8 9 8q111 0 219.5 28.5t202 76.5
t189.5 123t175 154t166 185.5t156 201.5t151 216q-62 45 -95.5 113t-33.5 147q0 78 30.5 152t78 133t120.5 116.5t141.5 99.5t159 85t155.5 69.5t147 57.5zM1460 1364q62 27 92.5 51t30.5 39q0 14 -31 14q-72 0 -170.5 -61.5t-179.5 -144.5q210 80 258 102zM449 289
q47 70 130.5 197.5t137 207.5t124.5 181.5t137 184t130 150.5q-79 -31 -141 -57.5t-144.5 -67.5t-145 -81t-127.5 -95t-107 -111.5t-68.5 -128t-26.5 -147.5q0 -146 101 -233z" />
    <glyph glyph-name="Icircumflex" unicode="&#xce;" horiz-adv-x="1544" 
d="M1896 1612q-12 0 -12 10q0 6 2 10q37 33 56 49.5t58 39t68 22.5q62 -4 62 -111q0 -20 -23 -20q-18 0 -18 20q0 82 -33 82q-45 0 -160 -102zM1597 1235q54 55 118 107t150 97.5t150 45.5q49 0 49 -27q0 -14 -14.5 -30.5t-48.5 -36t-62.5 -34t-85.5 -38.5t-85.5 -35.5
t-92.5 -36.5l-33 -12q-96 -105 -202 -259t-249 -379t-224 -345q75 -41 174 -41q111 0 219 49t190 131q3 3 11.5 12t13.5 14t6 5q8 0 8 -10q-75 -95 -206.5 -156t-254.5 -61q-101 0 -176 34q-78 -116 -150.5 -212.5t-160 -198t-172 -181t-184.5 -151.5t-200.5 -119.5
t-215.5 -75.5t-234 -28q-8 0 -8 6q0 8 8 8q111 0 219.5 28.5t202.5 76.5t189.5 123t175 154t166.5 185.5t156 201.5t151 216q-62 45 -95.5 113t-33.5 147q0 78 30.5 152t78 133t120 116.5t141.5 99.5t159 85t155 69.5t147 57.5zM1923 1364q62 27 92.5 51t30.5 39
q0 14 -31 14q-72 0 -170.5 -61.5t-179.5 -144.5q210 80 258 102zM911 289q40 60 160 242t176.5 265t150.5 206.5t173 207.5q-79 -31 -141 -57.5t-144.5 -67.5t-145 -81t-127.5 -95t-107 -111.5t-68.5 -128t-26.5 -147.5q0 -147 100 -233z" />
    <glyph glyph-name="Idieresis" unicode="&#xcf;" horiz-adv-x="1544" 
d="M2013 1569q-18 0 -18 12q0 16 17.5 32.5t37.5 16.5q18 0 18 -14t-18 -30.5t-37 -16.5zM1931 1569q-18 0 -18 12q0 16 17.5 32.5t37.5 16.5q19 0 19 -14t-18.5 -30.5t-37.5 -16.5zM1597 1235q54 55 118 107t150 97.5t150 45.5q49 0 49 -27q0 -14 -14.5 -30.5t-48.5 -36
t-62.5 -34t-85.5 -38.5t-85.5 -35.5t-92.5 -36.5l-33 -12q-96 -105 -202 -259t-249 -379t-224 -345q75 -41 174 -41q111 0 219 49t190 131q3 3 11.5 12t13.5 14t6 5q8 0 8 -10q-75 -95 -206.5 -156t-254.5 -61q-101 0 -176 34q-78 -116 -150.5 -212.5t-160 -198t-172 -181
t-184.5 -151.5t-200.5 -119.5t-215.5 -75.5t-234 -28q-8 0 -8 6q0 8 8 8q111 0 219.5 28.5t202.5 76.5t189.5 123t175 154t166.5 185.5t156 201.5t151 216q-62 45 -95.5 113t-33.5 147q0 78 30.5 152t78 133t120 116.5t141.5 99.5t159 85t155 69.5t147 57.5zM1923 1364
q62 27 92.5 51t30.5 39q0 14 -31 14q-72 0 -170.5 -61.5t-179.5 -144.5q210 80 258 102zM911 289q40 60 160 242t176.5 265t150.5 206.5t173 207.5q-79 -31 -141 -57.5t-144.5 -67.5t-145 -81t-127.5 -95t-107 -111.5t-68.5 -128t-26.5 -147.5q0 -147 100 -233z" />
    <glyph glyph-name="Ntilde" unicode="&#xd1;" horiz-adv-x="1705" 
d="M1624 1753q-6 0 -6 8l2 2q59 54 117 54q28 0 76.5 -17.5t72.5 -17.5q34 0 66 22q6 0 6 -10l-2 -2q-52 -39 -105 -39q-30 0 -77.5 16.5t-69.5 16.5q-39 0 -80 -33zM1776 -723q8 0 8 -8q0 -6 -8 -6q-251 0 -405 145t-154 402q0 154 51 313t132 294t179.5 266.5t196.5 246.5
t179 215.5t132 191.5t51 158q0 70 -76 70q-74 0 -213 -76q-287 -166 -645.5 -467t-678.5 -638.5t-511 -616.5l-6 -5q0 -1 -1.5 0t-4.5 4l-2 3q15 132 88 286t179 301t231 299.5t249.5 298.5t229 279t175.5 259.5t83 223.5q0 8 8 8q8 -3 8 -10q-14 -114 -84 -254
t-172.5 -279.5t-223.5 -287t-244 -294t-228 -283t-181.5 -271.5t-97.5 -242q196 279 514 612t671.5 628.5t637.5 459.5q44 27 115 52.5t127 25.5q100 0 100 -98q0 -70 -52 -163.5t-135 -195.5t-183.5 -218.5t-201 -249t-183.5 -268.5t-135 -295t-52 -312q0 -122 41 -219
t113 -158.5t168.5 -94t210.5 -32.5z" />
    <glyph glyph-name="Ograve" unicode="&#xd2;" horiz-adv-x="1884" 
d="M1194 1864l98 -152q5 -8 -2.5 -12.5t-13.5 2.5l-115 139q-8 12 -2 22.5t17 10.5q8 0 18 -10zM186 -737q-276 0 -276 245q0 98 47 218q-139 42 -209 145t-70 254q0 137 44 277t121.5 266t183 245.5t226.5 219t255 183.5t266.5 141.5t262.5 89.5t241 32q205 0 324.5 -109
t119.5 -335q0 -244 -149.5 -565t-388.5 -619q137 58 262 122.5t262 159.5t219 189q12 0 12 -8q0 -7 -20 -27q-73 -84 -220.5 -180.5t-277 -162t-258.5 -120.5q-238 -290 -499 -472.5t-478 -188.5zM-37 -260q44 102 127.5 224t168 227.5t164.5 209.5t132.5 203.5t56.5 177.5
q0 6 9 6q8 0 8 -8q-4 -77 -31.5 -158t-71.5 -155.5t-97.5 -149t-114 -149.5t-116 -145t-108 -148t-84.5 -147q91 -21 199 -21q202 0 437 60t452 147q252 308 414.5 653t162.5 598q0 196 -102 291.5t-275 95.5q-141 0 -316 -60.5t-350 -163t-342 -247t-295 -304.5t-206 -344
t-78 -357q0 -127 67 -213t189 -123zM0 -287q-55 -119 -55 -231q0 -109 61 -157t162 -48q195 0 434.5 168t470.5 442q-500 -196 -866 -196q-120 0 -207 22z" />
    <glyph glyph-name="Oacute" unicode="&#xd3;" horiz-adv-x="1884" 
d="M1288 1739l98 125q7 10 17 10q8 0 16 -7.5t8 -17.5q0 -3 -2.5 -7.5t-3.5 -6.5l-116 -111q-2 -2 -9 -2q-8 0 -8 17zM186 -737q-276 0 -276 245q0 98 47 218q-139 42 -209 145t-70 254q0 137 44 277t121.5 266t183 245.5t226.5 219t255 183.5t266.5 141.5t262.5 89.5
t241 32q205 0 324.5 -109t119.5 -335q0 -244 -149.5 -565t-388.5 -619q137 58 262 122.5t262 159.5t219 189q12 0 12 -8q0 -7 -20 -27q-73 -84 -220.5 -180.5t-277 -162t-258.5 -120.5q-238 -290 -499 -472.5t-478 -188.5zM-37 -260q44 102 127.5 224t168 227.5t164.5 209.5
t132.5 203.5t56.5 177.5q0 6 9 6q8 0 8 -8q-4 -77 -31.5 -158t-71.5 -155.5t-97.5 -149t-114 -149.5t-116 -145t-108 -148t-84.5 -147q91 -21 199 -21q202 0 437 60t452 147q252 308 414.5 653t162.5 598q0 196 -102 291.5t-275 95.5q-141 0 -316 -60.5t-350 -163t-342 -247
t-295 -304.5t-206 -344t-78 -357q0 -127 67 -213t189 -123zM0 -287q-55 -119 -55 -231q0 -109 61 -157t162 -48q195 0 434.5 168t470.5 442q-500 -196 -866 -196q-120 0 -207 22z" />
    <glyph glyph-name="Ocircumflex" unicode="&#xd4;" horiz-adv-x="1884" 
d="M1264 1726q-9 0 -9 7q0 4 2 6q75 65 117 65q25 -1 32 -18.5t7 -46.5q0 -13 -14 -13q-13 0 -13 13q0 49 -20 49q-23 0 -102 -62zM186 -737q-276 0 -276 245q0 98 47 218q-139 42 -209 145t-70 254q0 137 44 277t121.5 266t183 245.5t226.5 219t255 183.5t266.5 141.5
t262.5 89.5t241 32q205 0 324.5 -109t119.5 -335q0 -244 -149.5 -565t-388.5 -619q137 58 262 122.5t262 159.5t219 189q12 0 12 -8q0 -7 -20 -27q-73 -84 -220.5 -180.5t-277 -162t-258.5 -120.5q-238 -290 -499 -472.5t-478 -188.5zM-37 -260q44 102 127.5 224t168 227.5
t164.5 209.5t132.5 203.5t56.5 177.5q0 6 9 6q8 0 8 -8q-4 -77 -31.5 -158t-71.5 -155.5t-97.5 -149t-114 -149.5t-116 -145t-108 -148t-84.5 -147q91 -21 199 -21q202 0 437 60t452 147q252 308 414.5 653t162.5 598q0 196 -102 291.5t-275 95.5q-141 0 -316 -60.5
t-350 -163t-342 -247t-295 -304.5t-206 -344t-78 -357q0 -127 67 -213t189 -123zM0 -287q-55 -119 -55 -231q0 -109 61 -157t162 -48q195 0 434.5 168t470.5 442q-500 -196 -866 -196q-120 0 -207 22z" />
    <glyph glyph-name="Otilde" unicode="&#xd5;" horiz-adv-x="1884" 
d="M1163 1729q-6 0 -6 8l2 2q58 53 117 53q28 0 76.5 -17.5t72.5 -17.5q33 0 66 23q6 0 6 -11l-2 -2q-50 -38 -104 -38q-30 0 -78 16t-70 16q-40 0 -80 -32zM186 -737q-276 0 -276 245q0 98 47 218q-139 42 -209 145t-70 254q0 137 44 277t121.5 266t183 245.5t226.5 219
t255 183.5t266.5 141.5t262.5 89.5t241 32q205 0 324.5 -109t119.5 -335q0 -244 -149.5 -565t-388.5 -619q137 58 262 122.5t262 159.5t219 189q12 0 12 -8q0 -7 -20 -27q-73 -84 -220.5 -180.5t-277 -162t-258.5 -120.5q-238 -290 -499 -472.5t-478 -188.5zM-37 -260
q44 102 127.5 224t168 227.5t164.5 209.5t132.5 203.5t56.5 177.5q0 6 9 6q8 0 8 -8q-4 -77 -31.5 -158t-71.5 -155.5t-97.5 -149t-114 -149.5t-116 -145t-108 -148t-84.5 -147q91 -21 199 -21q202 0 437 60t452 147q252 308 414.5 653t162.5 598q0 196 -102 291.5
t-275 95.5q-141 0 -316 -60.5t-350 -163t-342 -247t-295 -304.5t-206 -344t-78 -357q0 -127 67 -213t189 -123zM0 -287q-55 -119 -55 -231q0 -109 61 -157t162 -48q195 0 434.5 168t470.5 442q-500 -196 -866 -196q-120 0 -207 22z" />
    <glyph glyph-name="Odieresis" unicode="&#xd6;" horiz-adv-x="2205" 
d="M1790 1696q-31 0 -31 18q0 25 29.5 51.5t60.5 26.5q14 0 22.5 -6.5t8.5 -16.5q0 -23 -29.5 -48t-60.5 -25zM1655 1696q-31 0 -31 18q0 25 29.5 51.5t60.5 26.5q14 0 22.5 -6.5t8.5 -16.5q0 -23 -29.5 -48t-60.5 -25zM508 -737q-277 0 -277 245q0 96 48 218
q-139 42 -209 145t-70 254q0 181 77 367t204 343t293.5 297t343 237t355 153.5t326.5 56.5q99 0 178.5 -25.5t140 -78t93.5 -139t33 -201.5q0 -244 -150 -565t-389 -619q220 94 422.5 214.5t321.5 256.5q12 0 12 -8q0 -7 -20 -27q-73 -84 -220.5 -180.5t-277 -162
t-258.5 -120.5q-238 -290 -499 -472.5t-478 -188.5zM285 -260q44 102 127.5 224t168 227.5t164.5 209.5t132.5 203.5t56.5 177.5q0 6 8 6t8 -8q-4 -89 -41 -185t-91.5 -178t-124.5 -175t-134.5 -171t-129 -171t-101.5 -172q92 -21 198 -21q202 0 437 60t452 147
q252 309 415 653.5t163 597.5q0 196 -102 291.5t-275 95.5q-141 0 -316 -60.5t-350 -163t-342 -247t-295 -304.5t-206 -344t-78 -357q0 -127 67 -213t189 -123zM322 -287q-56 -122 -56 -231t61 -157t162 -48q195 0 435 168t471 442q-212 -83 -440.5 -139.5t-426.5 -56.5
q-119 0 -206 22z" />
    <glyph glyph-name="Oslash" unicode="&#xd8;" horiz-adv-x="2205" 
d="M508 -737q-82 0 -141 22l-144 -217q-6 -6 -8 -6q-10 0 -10 10q0 4 2 8l141 213q-117 59 -117 215q0 96 48 218q-139 42 -209 145t-70 254q0 181 77 367t204 343t293.5 297t343 237t355 153.5t326.5 56.5q116 0 209 -35l119 180q5 13 23 13q12 0 23.5 -14t11.5 -29
q-12 -19 -53.5 -82.5t-65.5 -98.5q178 -109 178 -378q0 -244 -150 -565t-389 -619q220 94 422.5 214.5t321.5 256.5q12 0 12 -8q0 -7 -20 -27q-73 -84 -220.5 -180.5t-277 -162t-258.5 -120.5q-238 -290 -499 -472.5t-478 -188.5zM285 -260q44 102 127.5 224t168 227.5
t164.5 209.5t132.5 203.5t56.5 177.5q0 6 8 6t8 -8q-4 -89 -41 -185t-91.5 -178t-124.5 -175t-134.5 -171t-129 -171t-101.5 -172q92 -21 198 -21q30 0 92 4q131 202 368 569t434 670.5t372 571.5q-76 30 -176 30q-141 0 -316 -60.5t-350 -163t-342 -247t-295 -304.5
t-206 -344t-78 -357q0 -127 67 -213t189 -123zM653 -287q343 32 762 201q252 309 415 653.5t163 597.5q0 229 -142 324q-232 -349 -687.5 -1022t-510.5 -754zM375 -702q50 -21 114 -21q195 0 435 168t471 442q-413 -162 -754 -192q-45 -68 -266 -397zM322 -287
q-56 -122 -56 -231q0 -125 88 -176q3 4 8.5 12t8.5 12l30 47q14 18 17 25l127 195q6 9 28.5 43t34.5 53q-27 -2 -80 -2q-119 0 -206 22z" />
    <glyph glyph-name="Ugrave" unicode="&#xd9;" horiz-adv-x="1198" 
d="M1194 1864l98 -152q5 -8 -2.5 -12.5t-13.5 2.5l-115 139q-8 12 -2 22.5t17 10.5q8 0 18 -10zM948 582q-120 -253 -195 -507.5t-75 -453.5q0 -524 555 -524q8 0 8 -8q0 -2 -2.5 -4.5t-5.5 -2.5q-286 0 -438 143.5t-152 426.5q0 376 207 819q-141 -150 -282 -277t-286 -233
t-283 -166.5t-247 -60.5q-111 0 -185.5 59.5t-74.5 169.5q0 103 65 232.5t170 261t232.5 272.5t257 282t239.5 272.5t184.5 261t86.5 231.5q3 6 10 6q6 0 6 -8q-15 -123 -91 -267t-185 -280t-238 -277.5t-254.5 -277t-228.5 -261t-167 -247t-64 -217.5q0 -97 68.5 -147
t168.5 -50q111 0 252.5 64t290 175t291.5 243t284 286q183 374 414 627q101 112 133 112q8 0 8 -10q0 -25 -36 -84q-67 -117 -183 -270t-258 -311zM1296 1135q-161 -175 -321 -500q269 314 401 536q3 3 16 30.5t13 33.5q-19 0 -109 -100z" />
    <glyph glyph-name="Uacute" unicode="&#xda;" horiz-adv-x="1198" 
d="M1182 1673l98 125q7 10 16 10q8 0 16.5 -7t8.5 -17q0 -3 -2.5 -8l-3.5 -7l-117 -110q-2 -2 -8 -2q-8 0 -8 16zM948 582q-120 -253 -195 -507.5t-75 -453.5q0 -524 555 -524q8 0 8 -8q0 -2 -2.5 -4.5t-5.5 -2.5q-286 0 -438 143.5t-152 426.5q0 376 207 819
q-141 -150 -282 -277t-286 -233t-283 -166.5t-247 -60.5q-111 0 -185.5 59.5t-74.5 169.5q0 103 65 232.5t170 261t232.5 272.5t257 282t239.5 272.5t184.5 261t86.5 231.5q3 6 10 6q6 0 6 -8q-15 -123 -91 -267t-185 -280t-238 -277.5t-254.5 -277t-228.5 -261t-167 -247
t-64 -217.5q0 -97 68.5 -147t168.5 -50q111 0 252.5 64t290 175t291.5 243t284 286q183 374 414 627q101 112 133 112q8 0 8 -10q0 -25 -36 -84q-67 -117 -183 -270t-258 -311zM1296 1135q-161 -175 -321 -500q269 314 401 536q3 3 16 30.5t13 33.5q-19 0 -109 -100z" />
    <glyph glyph-name="Ucircumflex" unicode="&#xdb;" horiz-adv-x="1705" 
d="M1456 582q-120 -253 -195 -507.5t-75 -453.5q0 -524 555 -524q8 0 8 -8q0 -2 -2.5 -4.5t-5.5 -2.5q-286 0 -438 143.5t-152 426.5q0 376 207 819q-141 -150 -282 -277t-286 -233t-283 -166.5t-247 -60.5q-111 0 -185.5 59.5t-74.5 169.5q0 103 65 232.5t170 261
t232.5 272.5t257 282t239.5 272.5t184.5 261t86.5 231.5q3 6 10 6q6 0 6 -8q-15 -123 -91 -267t-185 -280t-238 -277.5t-254.5 -277t-228.5 -261t-167 -247t-64 -217.5q0 -97 68.5 -147t168.5 -50q111 0 252.5 64t290 175t291.5 243t284 286q183 374 414 627
q101 112 133 112q8 0 8 -10q0 -23 -37 -84q-148 -256 -440 -581zM1612 1636q-8 0 -8 6q0 5 2 7q75 65 116 65q25 -1 32 -18.5t7 -46.5q0 -13 -14 -13q-12 0 -12 13q0 49 -21 49q-23 0 -102 -62zM1804 1135q-161 -175 -321 -500q269 314 401 536q3 3 16 30.5t13 33.5
q-19 0 -109 -100z" />
    <glyph glyph-name="Udieresis" unicode="&#xdc;" horiz-adv-x="1705" 
d="M1456 582q-120 -253 -195 -507.5t-75 -453.5q0 -524 555 -524q8 0 8 -8q0 -2 -2.5 -4.5t-5.5 -2.5q-286 0 -438 143.5t-152 426.5q0 376 207 819q-141 -150 -282 -277t-286 -233t-283 -166.5t-247 -60.5q-111 0 -185.5 59.5t-74.5 169.5q0 103 65 232.5t170 261
t232.5 272.5t257 282t239.5 272.5t184.5 261t86.5 231.5q3 6 10 6q6 0 6 -8q-15 -123 -91 -267t-185 -280t-238 -277.5t-254.5 -277t-228.5 -261t-167 -247t-64 -217.5q0 -97 68.5 -147t168.5 -50q111 0 252.5 64t290 175t291.5 243t284 286q183 374 414 627
q101 112 133 112q8 0 8 -10q0 -23 -37 -84q-148 -256 -440 -581zM1626 1468q-24 0 -24 15q0 18 22.5 35.5t46.5 17.5q23 0 23 -14q0 -16 -22 -35t-46 -19zM1524 1468q-23 0 -23 15q0 18 22 35.5t46 17.5t24 -14q0 -16 -22.5 -35t-46.5 -19zM1804 1135q-161 -175 -321 -500
q269 314 401 536q3 3 16 30.5t13 33.5q-19 0 -109 -100z" />
    <glyph glyph-name="Yacute" unicode="&#xdd;" horiz-adv-x="1916" 
d="M1862 1380l98 125q7 11 16 11q8 0 16.5 -7.5t8.5 -17.5q0 -3 -2.5 -7.5t-3.5 -6.5l-117 -111q-2 -2 -8 -2q-8 0 -8 16zM2177 1174q68 49 94 49q13 0 13 -13q0 -21 -39 -77q-99 -144 -336.5 -372.5t-372.5 -332.5q-33 -45 -145.5 -200.5t-188.5 -256t-155 -194.5
q225 -45 358 -45q150 0 207 57q4 4 6 4q8 0 8 -10l-2 -2q-60 -66 -223 -66q-145 0 -367 47q-117 -140 -229.5 -250t-254 -214t-288.5 -172t-328 -109t-378 -41q-149 0 -268 36.5t-194 99.5t-114 144t-39 173q0 88 35 173.5t107.5 163t174 136.5t246 94t312.5 35
q116 0 303 -38t460.5 -107t403.5 -97q53 62 116.5 141.5t97 122.5t119 154.5t101.5 132.5q-259 -178 -405 -178q-96 0 -152.5 55t-56.5 148q0 63 37.5 143.5t98 160.5t133.5 165t146 166.5t133.5 155.5t99 141.5t38.5 115.5q0 9 -6 26t-6 23t6 6q11 0 17.5 -25.5t6.5 -45.5
q0 -58 -37.5 -131.5t-97 -148.5t-132 -156.5l-145 -163t-132 -158t-97 -153.5t-37.5 -138q0 -83 49.5 -126.5t133.5 -43.5q157 0 438 205q471 605 727 791zM2232 1141q41 59 41 67q0 4 -4 4q-14 0 -76 -47q-97 -70 -228.5 -211.5t-220.5 -253.5t-171 -223q140 117 353.5 325
t305.5 339zM-444 -1010q181 0 350 40.5t308.5 108.5t277 172t249 214t232.5 252q-134 28 -400.5 95.5t-453 105.5t-303.5 38q-205 0 -372.5 -52t-271 -136.5t-159 -187.5t-55.5 -211q0 -88 38 -166t110.5 -139.5t188.5 -97.5t261 -36z" />
    <glyph glyph-name="germandbls" unicode="&#xdf;" horiz-adv-x="1296" 
d="M846 834q97 -17 149 -86t52 -175q0 -92 -33.5 -193t-94.5 -193t-138.5 -166t-174.5 -118t-194 -44q-60 0 -101 23.5t-61.5 66t-28.5 89t-8 105.5v17q0 35 8 35t8 -7v-38q0 -266 166 -277q87 0 180 50.5t170 132t139 178t97 196.5t35 180q0 103 -61 157t-171 54
q-40 0 -98 -10q-128 -61 -233 -80q-128 -237 -237 -494t-165 -417q-6 -19 -24 -19q-11 0 -19 7.5t-8 17.5q0 6 2 10q31 91 74.5 203t110.5 266t139.5 299.5t161.5 293t177 258t186 183t187 78.5q103 0 103 -129q0 -63 -34.5 -128.5t-94 -123.5t-130 -108.5t-151.5 -93.5
q36 4 55 4q24 0 60 -4zM1038 1401q-57 0 -128.5 -53t-133.5 -125.5t-128 -170t-105.5 -164t-73.5 -128.5q80 34 182 61q83 43 164 101t149.5 123.5t111 137.5t42.5 134q0 84 -80 84z" />
    <glyph glyph-name="agrave" unicode="&#xe0;" 
d="M88 633l78 -129q3 -4 1 -7.5t-6 -3.5t-7 3l-93 118q-7 9 -2.5 17.5t13 9.5t16.5 -8zM545 422q10 0 10 -12q-36 -39 -76 -76t-93 -79t-108 -67.5t-100 -25.5q-32 0 -54 18t-22 56q0 44 19 96q-107 -99 -152 -99q-41 0 -41 37q0 50 54.5 108t101.5 58q38 0 68 -39q1 2 8 12
t10.5 13t11 7.5t17.5 4.5q22 0 22 -18q0 -3 -41 -83.5t-41 -119.5q0 -35 39 -35q77 0 181.5 78.5t185.5 165.5zM145 383q-33 33 -43 33q-27 0 -87 -61t-60 -91q0 -12 12 -12q24 0 77.5 41t100.5 90z" />
    <glyph glyph-name="aacute" unicode="&#xe1;" 
d="M158 537l55 92q5 8 10 8t10 -6t5 -13l-5 -10l-67 -82q0 -2 -4 -2t-4 13zM545 422q10 0 10 -12q-36 -39 -76 -76t-93 -79t-108 -67.5t-100 -25.5q-32 0 -54 18t-22 56q0 44 19 96q-107 -99 -152 -99q-41 0 -41 37q0 50 54.5 108t101.5 58q38 0 68 -39q1 2 8 12t10.5 13
t11 7.5t17.5 4.5q22 0 22 -18q0 -3 -41 -83.5t-41 -119.5q0 -35 39 -35q77 0 181.5 78.5t185.5 165.5zM145 383q-33 33 -43 33q-27 0 -87 -61t-60 -91q0 -12 12 -12q24 0 77.5 41t100.5 90z" />
    <glyph glyph-name="acircumflex" unicode="&#xe2;" 
d="M37 510q-8 0 -8 6q0 4 2 6q77 66 116 66q25 -1 32 -19t7 -47q0 -12 -14 -12q-12 0 -12 12q0 49 -21 49q-24 0 -102 -61zM545 422q10 0 10 -12q-36 -39 -76 -76t-93 -79t-108 -67.5t-100 -25.5q-32 0 -54 18t-22 56q0 44 19 96q-107 -99 -152 -99q-41 0 -41 37
q0 50 54.5 108t101.5 58q38 0 68 -39q1 2 8 12t10.5 13t11 7.5t17.5 4.5q22 0 22 -18q0 -3 -41 -83.5t-41 -119.5q0 -35 39 -35q77 0 181.5 78.5t185.5 165.5zM145 383q-33 33 -43 33q-27 0 -87 -61t-60 -91q0 -12 12 -12q24 0 77.5 41t100.5 90z" />
    <glyph glyph-name="atilde" unicode="&#xe3;" 
d="M12 504q-4 0 -4 6q2 2 2 4q35 45 72 45q18 0 48.5 -15.5t45.5 -15.5q20 0 41 21q4 0 4 -8l-2 -4q-31 -33 -65 -33q-18 0 -48 14t-45 14q-24 0 -49 -28zM545 422q10 0 10 -12q-36 -39 -76 -76t-93 -79t-108 -67.5t-100 -25.5q-32 0 -54 18t-22 56q0 44 19 96
q-107 -99 -152 -99q-41 0 -41 37q0 50 54.5 108t101.5 58q38 0 68 -39q1 2 8 12t10.5 13t11 7.5t17.5 4.5q22 0 22 -18q0 -3 -41 -83.5t-41 -119.5q0 -35 39 -35q77 0 181.5 78.5t185.5 165.5zM145 383q-33 33 -43 33q-27 0 -87 -61t-60 -91q0 -12 12 -12q24 0 77.5 41
t100.5 90z" />
    <glyph glyph-name="adieresis" unicode="&#xe4;" 
d="M164 504q-19 0 -19 12q0 16 18 32.5t38 16.5q18 0 18 -14t-18 -30.5t-37 -16.5zM82 504q-19 0 -19 12q0 16 18 32.5t38 16.5q18 0 18 -14t-18 -30.5t-37 -16.5zM545 422q10 0 10 -12q-36 -39 -76 -76t-93 -79t-108 -67.5t-100 -25.5q-32 0 -54 18t-22 56q0 44 19 96
q-107 -99 -152 -99q-41 0 -41 37q0 50 54.5 108t101.5 58q38 0 68 -39q1 2 8 12t10.5 13t11 7.5t17.5 4.5q22 0 22 -18q0 -3 -41 -83.5t-41 -119.5q0 -35 39 -35q77 0 181.5 78.5t185.5 165.5zM145 383q-33 33 -43 33q-27 0 -87 -61t-60 -91q0 -12 12 -12q24 0 77.5 41
t100.5 90z" />
    <glyph glyph-name="aring" unicode="&#xe5;" 
d="M119 518q-23 0 -23 19q0 18 19 36.5t43 18.5q28 0 28 -23q0 -18 -19.5 -34.5t-47.5 -16.5zM143 575q-13 -1 -22.5 -10t-9.5 -18q0 -12 14 -12q12 0 22.5 10.5t10.5 19.5q0 10 -15 10zM545 422q10 0 10 -12q-36 -39 -76 -76t-93 -79t-108 -67.5t-100 -25.5q-32 0 -54 18
t-22 56q0 44 19 96q-107 -99 -152 -99q-41 0 -41 37q0 50 54.5 108t101.5 58q38 0 68 -39q1 2 8 12t10.5 13t11 7.5t17.5 4.5q22 0 22 -18q0 -3 -41 -83.5t-41 -119.5q0 -35 39 -35q77 0 181.5 78.5t185.5 165.5zM145 383q-33 33 -43 33q-27 0 -87 -61t-60 -91q0 -12 12 -12
q24 0 77.5 41t100.5 90z" />
    <glyph glyph-name="ccedilla" unicode="&#xe7;" horiz-adv-x="509" 
d="M547 422q10 0 10 -12q-60 -66 -135 -128t-173 -112.5t-175 -50.5q-30 0 -54 6q-6 -23 -20 -43q53 -3 53 -49q0 -36 -32.5 -70.5t-75.5 -34.5q-9 0 -25 4q-6 3 -6 9q0 8 8 8q34 0 67.5 29.5t33.5 56.5q0 26 -31 31q-10 0 -19 -3q-8 0 -8 9q0 8 4 8q32 16 35 51
q-39 15 -60.5 48t-21.5 75q0 75 58.5 143t130.5 68q25 0 42 -15.5t17 -39.5q0 -17 -6.5 -26t-13.5 -9t-7 6q11 15 11 29q0 13 -7 22.5t-20 9.5q-50 0 -103 -72t-55 -132q0 -45 26.5 -74t80.5 -29q107 0 238.5 90t232.5 197z" />
    <glyph glyph-name="egrave" unicode="&#xe8;" horiz-adv-x="405" 
d="M109 707l77 -129q3 -4 1 -8t-6 -4t-7 3l-92 119q-7 9 -2.5 17.5t13 9.5t16.5 -8zM436 422q13 0 13 -12q-79 -89 -183.5 -153t-204.5 -64q-47 0 -72 26.5t-28 69.5q0 67 37.5 124.5t97.5 57.5q46 0 49 -29q0 -26 -39 -52t-79 -36q-17 -43 -17 -75q4 -66 70 -66
q89 0 186 62.5t170 146.5zM125 453q-25 0 -49.5 -23t-40.5 -57q33 10 64.5 32t31.5 39q0 9 -6 9z" />
    <glyph glyph-name="eacute" unicode="&#xe9;" horiz-adv-x="405" 
d="M35 561l74 94q6 9 12 9t12 -6t6 -13q0 -2 -4 -10l-88 -84q-2 -2 -6 -2q-6 0 -6 12zM436 422q13 0 13 -12q-79 -89 -183.5 -153t-204.5 -64q-47 0 -72 26.5t-28 69.5q0 67 37.5 124.5t97.5 57.5q46 0 49 -29q0 -26 -39 -52t-79 -36q-17 -43 -17 -75q4 -66 70 -66
q89 0 186 62.5t170 146.5zM125 453q-25 0 -49.5 -23t-40.5 -57q33 10 64.5 32t31.5 39q0 9 -6 9z" />
    <glyph glyph-name="ecircumflex" unicode="&#xea;" horiz-adv-x="405" 
d="M4 547q-8 0 -8 6q0 4 2 6q77 66 117 66q25 -1 32 -19t7 -47q0 -12 -15 -12q-12 0 -12 12q0 49 -21 49q-24 0 -102 -61zM436 422q13 0 13 -12q-79 -89 -183.5 -153t-204.5 -64q-47 0 -72 26.5t-28 69.5q0 67 37.5 124.5t97.5 57.5q46 0 49 -29q0 -26 -39 -52t-79 -36
q-17 -43 -17 -75q4 -66 70 -66q89 0 186 62.5t170 146.5zM125 453q-25 0 -49.5 -23t-40.5 -57q33 10 64.5 32t31.5 39q0 9 -6 9z" />
    <glyph glyph-name="edieresis" unicode="&#xeb;" horiz-adv-x="405" 
d="M119 543q-15 0 -15 10q0 14 14 28.5t27 14.5q15 0 15 -12q0 -13 -13.5 -27t-27.5 -14zM59 543q-14 0 -14 10q0 14 13 28.5t28 14.5q14 0 14 -12t-14 -26.5t-27 -14.5zM436 422q13 0 13 -12q-79 -89 -183.5 -153t-204.5 -64q-47 0 -72 26.5t-28 69.5q0 67 37.5 124.5
t97.5 57.5q46 0 49 -29q0 -26 -39 -52t-79 -36q-17 -43 -17 -75q4 -66 70 -66q89 0 186 62.5t170 146.5zM125 453q-25 0 -49.5 -23t-40.5 -57q33 10 64.5 32t31.5 39q0 9 -6 9z" />
    <glyph glyph-name="igrave" unicode="&#xec;" horiz-adv-x="360" 
d="M35 631l78 -129q3 -4 0.5 -7.5t-6.5 -3.5t-7 3l-92 118q-7 9 -2.5 17.5t13 9.5t16.5 -8zM379 422q4 0 8 -3.5t4 -8.5q-73 -86 -181 -153t-206 -67q-43 0 -65.5 19.5t-22.5 54.5q0 44 44 109t77 65q24 0 24 -18q0 -7 -26 -39t-52.5 -73t-27.5 -68q0 -33 41 -33
q96 0 202 64t181 151z" />
    <glyph glyph-name="iacute" unicode="&#xed;" horiz-adv-x="360" 
d="M53 522l74 94q6 9 12 9t12.5 -6t6.5 -13q0 -2 -4 -10l-88 -84q-2 -2 -7 -2q-6 0 -6 12zM379 422q4 0 8 -3.5t4 -8.5q-73 -86 -181 -153t-206 -67q-43 0 -65.5 19.5t-22.5 54.5q0 44 44 109t77 65q24 0 24 -18q0 -7 -26 -39t-52.5 -73t-27.5 -68q0 -33 41 -33q96 0 202 64
t181 151z" />
    <glyph glyph-name="icircumflex" unicode="&#xee;" horiz-adv-x="360" 
d="M10 535q-8 0 -8 6q0 4 2 6q75 65 117 65q25 -1 32 -18.5t7 -46.5q0 -12 -15 -12q-12 0 -12 12q0 49 -20 49q-25 0 -103 -61zM379 422q4 0 8 -3.5t4 -8.5q-73 -86 -181 -153t-206 -67q-43 0 -65.5 19.5t-22.5 54.5q0 44 44 109t77 65q24 0 24 -18q0 -7 -26 -39t-52.5 -73
t-27.5 -68q0 -33 41 -33q96 0 202 64t181 151z" />
    <glyph glyph-name="idieresis" unicode="&#xef;" horiz-adv-x="360" 
d="M102 557q-18 0 -18 12q0 16 17.5 32.5t37.5 16.5q19 0 19 -14t-18.5 -30.5t-37.5 -16.5zM20 557q-18 0 -18 12q0 16 17.5 32.5t37.5 16.5q19 0 19 -14t-18.5 -30.5t-37.5 -16.5zM379 422q4 0 8 -3.5t4 -8.5q-73 -86 -181 -153t-206 -67q-43 0 -65.5 19.5t-22.5 54.5
q0 44 44 109t77 65q24 0 24 -18q0 -7 -26 -39t-52.5 -73t-27.5 -68q0 -33 41 -33q96 0 202 64t181 151z" />
    <glyph glyph-name="ntilde" unicode="&#xf1;" horiz-adv-x="460" 
d="M49 469q-4 0 -4 8l2 2q47 58 90 58q23 0 61.5 -19.5t57.5 -19.5q24 0 51 24q4 0 4 -10l-2 -2q-39 -41 -82 -41q-23 0 -60 17.5t-54 17.5q-29 0 -64 -35zM487 422q5 0 9 -4t4 -8l-19 -19q-179 -188 -264 -188q-31 0 -47.5 22t-19 48.5t-10.5 48.5t-25 22q-39 0 -201 -170
l-8 -8q-6 -14 -23 -14q-11 0 -18.5 8t-7.5 18q0 32 69.5 143t104.5 111q24 0 24 -16q0 -10 -8 -21q-76 -97 -119 -182q154 164 211 164q27 0 40 -24.5t15 -54.5t11 -54.5t28 -24.5q26 0 84.5 46t97 83.5t72.5 73.5z" />
    <glyph glyph-name="ograve" unicode="&#xf2;" horiz-adv-x="372" 
d="M51 690l78 -129q3 -4 1 -7.5t-6 -3.5t-7 3l-92 119q-7 9 -3 17.5t12.5 9t16.5 -8.5zM401 422q11 0 11 -12q-126 -148 -258 -148q-43 0 -74 10q-55 -55 -100 -55q-43 0 -43 47q0 37 32 90q-4 2 -4 23q0 42 33.5 71t77.5 29q34 0 55 -18t21 -49q0 -57 -60 -125q30 -9 60 -9
q122 0 249 146zM76 461q-39 0 -66.5 -24.5t-27.5 -63.5q2 3 10.5 14.5t13 16t12 12.5t15.5 11t16 3q12 0 22.5 -5t10.5 -13q0 -7 -11.5 -19t-30.5 -32t-32 -37q21 -21 68 -33q61 61 61 117q0 53 -61 53zM20 246q14 8 43 33q-34 5 -65 32q-27 -44 -27 -65q0 -15 13 -15
q6 0 36 15z" />
    <glyph glyph-name="oacute" unicode="&#xf3;" horiz-adv-x="372" 
d="M57 567l74 95q5 8 12 8q6 0 12.5 -6t6.5 -13q0 -2 -4 -10l-88 -84q-2 -2 -7 -2q-6 0 -6 12zM401 422q11 0 11 -12q-126 -148 -258 -148q-43 0 -74 10q-55 -55 -100 -55q-43 0 -43 47q0 37 32 90q-4 2 -4 23q0 42 33.5 71t77.5 29q34 0 55 -18t21 -49q0 -57 -60 -125
q30 -9 60 -9q122 0 249 146zM76 461q-39 0 -66.5 -24.5t-27.5 -63.5q2 3 10.5 14.5t13 16t12 12.5t15.5 11t16 3q12 0 22.5 -5t10.5 -13q0 -7 -11.5 -19t-30.5 -32t-32 -37q21 -21 68 -33q61 61 61 117q0 53 -61 53zM20 246q14 8 43 33q-34 5 -65 32q-27 -44 -27 -65
q0 -15 13 -15q6 0 36 15z" />
    <glyph glyph-name="ocircumflex" unicode="&#xf4;" horiz-adv-x="372" 
d="M8 559q-8 0 -8 6q0 4 2 6q77 66 117 66q25 -1 32 -19t7 -47q0 -12 -15 -12q-12 0 -12 12q0 50 -20 50q-24 0 -103 -62zM401 422q11 0 11 -12q-126 -148 -258 -148q-43 0 -74 10q-55 -55 -100 -55q-43 0 -43 47q0 37 32 90q-4 2 -4 23q0 42 33.5 71t77.5 29q34 0 55 -18
t21 -49q0 -57 -60 -125q30 -9 60 -9q122 0 249 146zM76 461q-39 0 -66.5 -24.5t-27.5 -63.5q2 3 10.5 14.5t13 16t12 12.5t15.5 11t16 3q12 0 22.5 -5t10.5 -13q0 -7 -11.5 -19t-30.5 -32t-32 -37q21 -21 68 -33q61 61 61 117q0 53 -61 53zM20 246q14 8 43 33q-34 5 -65 32
q-27 -44 -27 -65q0 -15 13 -15q6 0 36 15z" />
    <glyph glyph-name="otilde" unicode="&#xf5;" horiz-adv-x="372" 
d="M-37 532q-4 0 -4 7q2 2 2 4q35 45 72 45q18 0 48.5 -15.5t45.5 -15.5q20 0 41 21q4 0 4 -9l-2 -4q-31 -33 -66 -33q-18 0 -47.5 14.5t-44.5 14.5q-23 0 -49 -29zM401 422q11 0 11 -12q-126 -148 -258 -148q-43 0 -74 10q-55 -55 -100 -55q-43 0 -43 47q0 37 32 90
q-4 2 -4 23q0 42 33.5 71t77.5 29q34 0 55 -18t21 -49q0 -57 -60 -125q30 -9 60 -9q122 0 249 146zM76 461q-39 0 -66.5 -24.5t-27.5 -63.5q2 3 10.5 14.5t13 16t12 12.5t15.5 11t16 3q12 0 22.5 -5t10.5 -13q0 -7 -11.5 -19t-30.5 -32t-32 -37q21 -21 68 -33q61 61 61 117
q0 53 -61 53zM20 246q14 8 43 33q-34 5 -65 32q-27 -44 -27 -65q0 -15 13 -15q6 0 36 15z" />
    <glyph glyph-name="odieresis" unicode="&#xf6;" horiz-adv-x="372" 
d="M119 543q-13 0 -13 14q0 16 13.5 32.5t27.5 16.5q15 0 15 -14t-14.5 -31.5t-28.5 -17.5zM57 543q-14 0 -14 14q0 15 14 32t29 17q12 0 12 -14t-13.5 -31.5t-27.5 -17.5zM401 422q11 0 11 -12q-126 -148 -258 -148q-43 0 -74 10q-55 -55 -100 -55q-43 0 -43 47q0 37 32 90
q-4 2 -4 23q0 42 33.5 71t77.5 29q34 0 55 -18t21 -49q0 -57 -60 -125q30 -9 60 -9q122 0 249 146zM76 461q-39 0 -66.5 -24.5t-27.5 -63.5q2 3 10.5 14.5t13 16t12 12.5t15.5 11t16 3q12 0 22.5 -5t10.5 -13q0 -7 -11.5 -19t-30.5 -32t-32 -37q21 -21 68 -33q61 61 61 117
q0 53 -61 53zM20 246q14 8 43 33q-34 5 -65 32q-27 -44 -27 -65q0 -15 13 -15q6 0 36 15z" />
    <glyph glyph-name="divide" unicode="&#xf7;" horiz-adv-x="102" 
d="M23 236q1 12 11.5 20t20.5 8q11 0 11 -6q0 -9 -14.5 -23t-22.5 -14q-6 0 -6 15zM-2 135q1 14 12 22.5t21 8.5q12 0 12 -8q0 -9 -15 -23t-24 -14q-6 0 -6 14z" />
    <glyph glyph-name="oslash" unicode="&#xf8;" horiz-adv-x="372" 
d="M401 422q11 0 11 -12q-126 -148 -258 -148q-43 0 -74 10q-50 -50 -100 -55q-10 -18 -38 -64.5t-61.5 -101.5t-40.5 -67q-1 -1 -2.5 0.5t-1.5 3.5l133 229q-32 7 -32 47q0 37 32 90q-4 2 -4 23q0 42 33.5 71t77.5 29q25 0 41 -8q117 203 137 236q4 4 6 4q12 0 12 -11
l-143 -237q23 -20 23 -51q0 -57 -60 -125q30 -9 60 -9q122 0 249 146zM76 461q-39 0 -66.5 -24.5t-27.5 -63.5q2 3 10.5 14.5t13 16t12 12.5t15.5 11t16 3q12 0 22.5 -5t10.5 -13q12 17 27 43q-15 6 -33 6zM76 291q61 61 61 117q0 25 -16 41l-86 -144q4 -2 41 -14zM25 311
l45 80l-25.5 -25.5t-36.5 -41.5zM-29 246q0 -12 9 -15l36 66l-18 14q-27 -44 -27 -65zM20 246q14 8 43 33q-23 4 -36 14l-37 -62q11 2 30 15z" />
    <glyph glyph-name="ugrave" unicode="&#xf9;" horiz-adv-x="495" 
d="M57 655l78 -129q3 -4 1 -7.5t-6 -3.5t-7 3l-92 119q-7 9 -3 17.5t12.5 9t16.5 -8.5zM516 422q4 0 8 -4.5t4 -7.5q-37 -40 -77 -77t-93 -78t-108 -66.5t-100 -26.5q-69 0 -74 65v11q0 42 18 92q-93 -111 -139 -111q-12 0 -20.5 9t-8.5 28q1 24 17.5 62t31.5 62t27 42
q10 16 37 16q18 0 18 -14q0 -11 -14 -31q-1 -2 -16 -22.5t-30 -42t-28 -46t-14 -36.5q0 -13 8 -13q40 2 160 160l18 29q9 12 29 12q25 0 25 -18q0 -8 -13 -27q-25 -34 -47 -86.5t-22 -89.5q0 -35 41 -35q53 0 129 46.5t132.5 97.5t100.5 100z" />
    <glyph glyph-name="uacute" unicode="&#xfa;" horiz-adv-x="495" 
d="M98 518l74 94q6 9 12 9t12.5 -6t6.5 -13q0 -2 -4 -10l-88 -84q-2 -2 -7 -2q-6 0 -6 12zM516 422q4 0 8 -4.5t4 -7.5q-37 -40 -77 -77t-93 -78t-108 -66.5t-100 -26.5q-69 0 -74 65v11q0 42 18 92q-93 -111 -139 -111q-12 0 -20.5 9t-8.5 28q1 24 17.5 62t31.5 62t27 42
q10 16 37 16q18 0 18 -14q0 -11 -14 -31q-1 -2 -16 -22.5t-30 -42t-28 -46t-14 -36.5q0 -13 8 -13q40 2 160 160l18 29q9 12 29 12q25 0 25 -18q0 -8 -13 -27q-25 -34 -47 -86.5t-22 -89.5q0 -35 41 -35q53 0 129 46.5t132.5 97.5t100.5 100z" />
    <glyph glyph-name="ucircumflex" unicode="&#xfb;" horiz-adv-x="495" 
d="M53 547q-8 0 -8 6q0 4 2 6q77 66 117 66q25 -1 32 -19t7 -47q0 -12 -15 -12q-12 0 -12 12q0 49 -20 49q-25 0 -103 -61zM516 422q4 0 8 -4.5t4 -7.5q-37 -40 -77 -77t-93 -78t-108 -66.5t-100 -26.5q-69 0 -74 65v11q0 42 18 92q-93 -111 -139 -111q-12 0 -20.5 9
t-8.5 28q1 24 17.5 62t31.5 62t27 42q10 16 37 16q18 0 18 -14q0 -11 -14 -31q-1 -2 -16 -22.5t-30 -42t-28 -46t-14 -36.5q0 -13 8 -13q40 2 160 160l18 29q9 12 29 12q25 0 25 -18q0 -8 -13 -27q-25 -34 -47 -86.5t-22 -89.5q0 -35 41 -35q53 0 129 46.5t132.5 97.5
t100.5 100z" />
    <glyph glyph-name="udieresis" unicode="&#xfc;" horiz-adv-x="495" 
d="M162 516q-19 0 -19 12q0 16 18 33t38 17q18 0 18 -15q0 -14 -18 -30.5t-37 -16.5zM80 516q-19 0 -19 12q0 16 18 33t38 17q18 0 18 -15q0 -14 -18 -30.5t-37 -16.5zM516 422q4 0 8 -4.5t4 -7.5q-37 -40 -77 -77t-93 -78t-108 -66.5t-100 -26.5q-69 0 -74 65v11
q0 42 18 92q-93 -111 -139 -111q-12 0 -20.5 9t-8.5 28q1 24 17.5 62t31.5 62t27 42q10 16 37 16q18 0 18 -14q0 -11 -14 -31q-1 -2 -16 -22.5t-30 -42t-28 -46t-14 -36.5q0 -13 8 -13q40 2 160 160l18 29q9 12 29 12q25 0 25 -18q0 -8 -13 -27q-25 -34 -47 -86.5t-22 -89.5
q0 -35 41 -35q53 0 129 46.5t132.5 97.5t100.5 100z" />
    <glyph glyph-name="yacute" unicode="&#xfd;" horiz-adv-x="493" 
d="M121 500l74 94q5 8 12 8q6 0 12 -5.5t6 -12.5q0 -3 -4 -11l-88 -84q-2 -2 -6 -2q-6 0 -6 13zM520 422q12 0 12 -10q-52 -69 -131 -119q-34 -21 -78.5 -42t-77 -33.5t-86.5 -32.5t-81 -31q-60 -77 -139.5 -170.5t-202.5 -226t-235.5 -236.5t-228 -178t-190.5 -74
q-55 0 -55 53q4 40 37 90q81 126 240.5 269t341.5 261.5t350 194.5q63 76 170 221q-141 -90 -186 -90q-37 0 -37 39q0 30 30.5 77.5t51.5 47.5q28 0 28 -20q0 -8 -41 -57t-41 -64q0 -6 9 -6q43 0 188 94l22 14q2 0 13 5t16 5q25 0 25 -18q0 -8 -9.5 -25t-27.5 -41.5
t-34.5 -45t-41 -51t-35.5 -44.5q23 9 90 33t101 39q163 74 233 172zM-858 -696q76 35 182 121.5t220 202.5t220.5 236t208.5 245q-239 -110 -491 -304q-175 -135 -307.5 -274.5t-132.5 -216.5q0 -13 11.5 -21t24.5 -8q12 0 33 9.5t31 9.5z" />
    <glyph glyph-name="ydieresis" unicode="&#xff;" horiz-adv-x="493" 
d="M178 481q-18 0 -18 13q0 16 17.5 32.5t37.5 16.5q18 0 18 -15q0 -14 -18 -30.5t-37 -16.5zM96 481q-18 0 -18 13q0 16 17.5 32.5t37.5 16.5q19 0 19 -15q0 -14 -18.5 -30.5t-37.5 -16.5zM520 422q12 0 12 -10q-52 -69 -131 -119q-34 -21 -78.5 -42t-77 -33.5t-86.5 -32.5
t-81 -31q-60 -77 -139.5 -170.5t-202.5 -226t-235.5 -236.5t-228 -178t-190.5 -74q-55 0 -55 53q4 40 37 90q81 126 240.5 269t341.5 261.5t350 194.5q63 76 170 221q-141 -90 -186 -90q-37 0 -37 39q0 30 30.5 77.5t51.5 47.5q28 0 28 -20q0 -8 -41 -57t-41 -64q0 -6 9 -6
q43 0 188 94l22 14q2 0 13 5t16 5q25 0 25 -18q0 -8 -9.5 -25t-27.5 -41.5t-34.5 -45t-41 -51t-35.5 -44.5q23 9 90 33t101 39q163 74 233 172zM-858 -696q76 35 182 121.5t220 202.5t220.5 236t208.5 245q-239 -110 -491 -304q-175 -135 -307.5 -274.5t-132.5 -216.5
q0 -13 11.5 -21t24.5 -8q12 0 33 9.5t31 9.5z" />
    <glyph glyph-name="Abreve" unicode="&#x102;" horiz-adv-x="2312" 
d="M2877 1870q0 12 11 12q5 0 8 -6q14 -49 35 -49q7 0 14 3t13 6.5t12.5 10.5t11 11.5t10.5 14t8.5 13.5t8 13.5t6.5 11.5q6 6 10 6q5 0 10.5 -5t5.5 -9q0 -7 -2 -9q-58 -84 -104 -86q-41 0 -58 62zM2955 1710q4 -8 4 -10q0 -26 -61.5 -66.5t-155.5 -89.5t-121 -67
q-271 -253 -515.5 -592.5t-374.5 -644.5q78 -4 116 -4q279 0 434 114q5 3 22.5 21.5t34.5 34.5t21 16q11 0 11 -10q-158 -193 -529 -193q-6 0 -17 0.5t-38 1.5t-64 2q-151 -364 -151 -635q0 -235 125.5 -378t357.5 -160q4 0 23 -0.5t31 -3t12 -7.5q0 -8 -6 -8
q-188 0 -318.5 79t-192 213.5t-61.5 314.5q0 267 129 589q-111 11 -307 45q-88 -90 -163 -164.5t-175.5 -166.5t-188.5 -163.5t-191 -142.5t-194.5 -118t-188 -76t-181.5 -29q-197 0 -303.5 103t-106.5 260q0 89 34 180t105.5 176.5t171 151t241.5 105.5t306 40
q71 0 172 -13.5t181 -29.5t221 -45t215 -43q47 48 130.5 137.5t119.5 126.5l43 45q118 123 183 190t186 185t210.5 195.5t204.5 166t219 152.5q63 58 108 97t110.5 80.5t105.5 41.5q12 0 16 -4zM2935 1688q10 8 10 12q-83 0 -264 -168q17 10 62 33t75 39t64.5 39.5
t52.5 44.5zM1794 492q81 151 164.5 276t181.5 239.5t184 203t218 214.5q-97 -69 -199 -156.5t-205.5 -190.5t-182 -184.5t-187.5 -198t-162 -171.5q-152 -159 -228 -237q189 -34 299 -43q55 137 117 248zM82 -571q77 0 166.5 29t176 75.5t184.5 117t183.5 141.5t182.5 162
t171.5 166t160.5 165q-73 14 -211 42t-216.5 43t-178.5 28.5t-171 13.5q-161 0 -300.5 -39t-237 -103.5t-167.5 -147.5t-103 -171.5t-33 -175.5q0 -150 101.5 -248t291.5 -98z" />
    <glyph glyph-name="abreve" unicode="&#x103;" 
d="M84 561q0 12 10 12q5 0 8 -6q14 -49 35 -49q7 0 14 3t13 6.5t12.5 10.5t11 11.5t10.5 14t8.5 13.5t8 13.5t6.5 11.5q6 6 10 6q5 0 11 -5t6 -9q0 -6 -2 -8q-21 -30 -50 -57.5t-55 -28.5q-40 0 -57 61zM545 422q10 0 10 -12q-36 -39 -76 -76t-93 -79t-108 -67.5t-100 -25.5
q-32 0 -54 18t-22 56q0 44 19 96q-107 -99 -152 -99q-41 0 -41 37q0 50 54.5 108t101.5 58q38 0 68 -39q1 2 8 12t10.5 13t11 7.5t17.5 4.5q22 0 22 -18q0 -3 -41 -83.5t-41 -119.5q0 -35 39 -35q77 0 181.5 78.5t185.5 165.5zM145 383q-33 33 -43 33q-27 0 -87 -61t-60 -91
q0 -12 12 -12q24 0 77.5 41t100.5 90z" />
    <glyph glyph-name="Aogonek" unicode="&#x104;" horiz-adv-x="2639" 
d="M3283 1710q4 -8 4 -10q0 -26 -61.5 -66.5t-155.5 -89.5t-121 -67q-271 -253 -516 -592.5t-375 -644.5q78 -4 117 -4q279 0 434 114q5 3 22.5 21.5t34.5 34.5t21 16q10 0 10 -10q-158 -193 -528 -193q-6 0 -17 0.5t-38 1.5t-64 2q-152 -367 -152 -635q0 -235 126 -378
t358 -160q4 0 22.5 -0.5t30.5 -3t12 -7.5q0 -8 -6 -8q-198 0 -334 88l7 11q0 4 -7 6q-5 0 -8 -6l-2 -2q3 -5 10 -9q-9 -16 -33.5 -49.5t-42.5 -62.5t-20 -47q0 -24 37 -29q54 0 78 41q4 4 6 4q8 0 8 -8q0 -21 -32 -36t-56 -15q-67 0 -67 51q1 25 23 56t52.5 62t36.5 40
q-113 76 -170 208.5t-57 303.5q0 267 129 589q-111 11 -307 45q-88 -90 -163 -164.5t-175.5 -166.5t-188.5 -163.5t-191 -142.5t-194.5 -118t-188 -76t-181.5 -29q-197 0 -303.5 103t-106.5 260q0 89 34 180t105.5 176.5t171 151t241.5 105.5t306 40q71 0 172 -13.5
t181 -29.5t221 -45t215 -43q48 49 131 138.5t118 125.5l43 45q96 100 151.5 157t153 154.5t172 165t167.5 147.5t183 146t177 119q63 58 108 97t110.5 80.5t105.5 41.5q12 0 16 -4zM3262 1688q11 8 11 12q-83 0 -264 -168q17 9 62 32.5t74.5 39.5t64 39.5t52.5 44.5z
M2122 492q81 151 164.5 276t181 239.5t183.5 203t218 214.5q-97 -69 -199 -156.5t-205.5 -190.5t-182 -184.5t-187.5 -198t-162 -171.5q-194 -203 -227 -237q189 -34 299 -43q55 137 117 248zM410 -571q77 0 166.5 29t176 75.5t184.5 117t183 141.5t182 162t171.5 166
t160.5 165q-73 14 -210.5 42t-216.5 43.5t-178.5 28.5t-170.5 13q-135 0 -255.5 -27.5t-211 -74.5t-163 -109.5t-118.5 -134t-70 -145.5t-24 -146q0 -150 102 -248t292 -98z" />
    <glyph glyph-name="aogonek" unicode="&#x105;" 
d="M545 422q10 0 10 -12q-36 -39 -76 -76t-93 -79t-108 -67.5t-100 -25.5q-27 0 -47 14q-5 -9 -20.5 -30t-24.5 -36.5t-10 -25.5q0 -18 24 -18q36 0 50 26q2 0 4 2q4 0 4 -6q0 -12 -21 -22.5t-35 -10.5q-43 0 -43 33q0 15 11 31.5t30.5 37.5t22.5 25q-21 18 -21 54
q0 44 19 96q-107 -99 -152 -99q-41 0 -41 37q0 50 54.5 108t101.5 58q38 0 68 -39q1 2 8 12t10.5 13t11 7.5t17.5 4.5q22 0 22 -18q0 -3 -41 -83.5t-41 -119.5q0 -35 39 -35q77 0 181.5 78.5t185.5 165.5zM-33 252q24 0 77.5 41t100.5 90q-33 33 -43 33q-27 0 -87 -61
t-60 -91q0 -12 12 -12z" />
    <glyph glyph-name="Cacute" unicode="&#x106;" horiz-adv-x="2183" 
d="M1841 1878q7 12 21 12q10 0 19 -8t9 -18q0 -5 -8 -17l-135 -123q-4 -4 -10 -4q-8 0 -8 19zM1303 686q19 -65 112 -65q62 0 136 23.5t120 47.5q157 81 269 235.5t112 319.5q0 159 -97 235.5t-259 76.5q-197 0 -423 -92.5t-435.5 -244.5t-404.5 -356t-339 -419
t-230.5 -440.5t-86.5 -414.5q0 -179 86.5 -269.5t249.5 -90.5q161 0 393.5 83.5t467.5 212.5t471.5 284t422 298.5t303.5 254.5q28 24 57 57q6 6 8 6q9 0 9 -6q0 -4 -2 -6q-148 -159 -441 -375q-158 -118 -326.5 -230.5t-359 -221.5t-364.5 -191t-342 -132t-293 -50
q-183 0 -277 108.5t-94 315.5q0 195 86.5 423.5t231 444t340 417.5t405.5 352.5t437 241.5t425 91q111 0 199.5 -34.5t144.5 -111.5t56 -186q0 -183 -110.5 -346t-281.5 -254q-48 -26 -123.5 -49t-138.5 -23q-31 0 -59.5 7t-51 27.5t-22.5 51.5q0 4 4 4q12 0 15 -10z" />
    <glyph glyph-name="cacute" unicode="&#x107;" horiz-adv-x="509" 
d="M139 528l74 95q5 8 12 8q6 0 12.5 -6t6.5 -13q0 -2 -4 -10l-88 -84q-2 -2 -7 -2q-6 0 -6 12zM547 422q10 0 10 -12q-60 -66 -135 -128t-173 -112.5t-175 -50.5q-73 0 -112.5 38t-39.5 97q0 75 58.5 143t130.5 68q25 0 42 -15.5t17 -39.5q0 -17 -6.5 -26t-13.5 -9t-7 6
q11 15 11 29q0 13 -7 22.5t-20 9.5q-50 0 -103 -72t-55 -132q0 -45 26.5 -74t80.5 -29q107 0 238.5 90t232.5 197z" />
    <glyph glyph-name="Ccaron" unicode="&#x10c;" horiz-adv-x="2183" 
d="M1634 1767q0 6 4.5 10.5t10.5 4.5q9 0 14 -8q5 -19 17.5 -38.5t31.5 -19.5q16 0 31.5 6.5t31 20.5t23.5 23t23.5 29t17.5 22q4 4 14 4q8 0 16.5 -5.5t8.5 -11.5t-4 -8q-28 -34 -72 -66.5t-82 -35.5q-64 0 -86 73zM1303 686q19 -65 112 -65q62 0 136 23.5t120 47.5
q157 81 269 235.5t112 319.5q0 159 -97 235.5t-259 76.5q-197 0 -423 -92.5t-435.5 -244.5t-404.5 -356t-339 -419t-230.5 -440.5t-86.5 -414.5q0 -179 86.5 -269.5t249.5 -90.5q161 0 393.5 83.5t467.5 212.5t471.5 284t422 298.5t303.5 254.5q28 24 57 57q6 6 8 6
q9 0 9 -6q0 -4 -2 -6q-148 -159 -441 -375q-158 -118 -326.5 -230.5t-359 -221.5t-364.5 -191t-342 -132t-293 -50q-183 0 -277 108.5t-94 315.5q0 195 86.5 423.5t231 444t340 417.5t405.5 352.5t437 241.5t425 91q111 0 199.5 -34.5t144.5 -111.5t56 -186
q0 -183 -110.5 -346t-281.5 -254q-48 -26 -123.5 -49t-138.5 -23q-31 0 -59.5 7t-51 27.5t-22.5 51.5q0 4 4 4q12 0 15 -10z" />
    <glyph glyph-name="ccaron" unicode="&#x10d;" horiz-adv-x="509" 
d="M90 616q0 11 8 11q5 0 8 -6q2 -12 10 -26.5t19 -14.5q7 0 13.5 2.5t13 8t11 9.5t11 13.5t8.5 13t8 13.5l7 11q4 4 8 4q5 0 9.5 -4t4.5 -8t-2 -6q-16 -25 -41 -49t-47 -25q-36 0 -49 53zM547 422q10 0 10 -12q-60 -66 -135 -128t-173 -112.5t-175 -50.5q-73 0 -112.5 38
t-39.5 97q0 75 58.5 143t130.5 68q25 0 42 -15.5t17 -39.5q0 -17 -6.5 -26t-13.5 -9t-7 6q11 15 11 29q0 13 -7 22.5t-20 9.5q-50 0 -103 -72t-55 -132q0 -45 26.5 -74t80.5 -29q107 0 238.5 90t232.5 197z" />
    <glyph glyph-name="Dcaron" unicode="&#x10e;" horiz-adv-x="2793" 
d="M2048 1716q0 6 5 10.5t11 4.5q8 0 17 -9q2 -16 17.5 -35.5t37.5 -19.5q18 0 35 6t34 20t26 22t25.5 27t18.5 21q8 4 15 4q9 0 18.5 -5t9.5 -11q0 -4 -4 -8q-30 -32 -79 -63.5t-91 -34.5q-70 0 -96 71zM2822 422q10 0 10 -10q-210 -250 -602 -250q-51 0 -78 2
q-113 -148 -242.5 -278.5t-286.5 -246.5t-323 -199t-356.5 -131t-382.5 -48q-167 0 -302 44.5t-219 119t-128.5 168.5t-44.5 198q0 92 33.5 180.5t104.5 169.5t171 143.5t243 101t312 42.5q57 84 156.5 226.5t166.5 239.5t149 224.5t132 218t85 182t36 152.5q0 6 6 6
q11 0 11 -6q-1 -61 -20 -134t-45.5 -140.5t-75.5 -157.5t-89.5 -157.5t-108 -168.5t-110 -162t-117.5 -167t-110 -156q37 0 57 -2q287 380 557 625q45 41 111 92.5t162.5 115t193 115t203 86.5t190.5 35q151 0 226 -91t75 -251q0 -197 -108.5 -458t-298.5 -517q23 -2 65 -2
q383 0 592 246zM1421 1040q-275 -251 -549 -616q122 -10 289.5 -46t309.5 -73.5t318 -74t312 -48.5q195 253 306.5 513.5t111.5 453.5q0 146 -67.5 228.5t-204.5 82.5q-81 0 -184.5 -34t-196 -83t-186 -109.5t-155.5 -108.5t-104 -85zM842 412h-15l-26 2h-15
q-120 -173 -192.5 -297.5t-93.5 -212.5q152 256 342 508zM524 -702h27q230 5 456 77t420.5 194.5t359 272.5t302.5 326q-169 15 -401.5 71t-453.5 108.5t-374 62.5q-212 -285 -368 -551q-2 -10 -3.5 -23.5t-2.5 -19t-6.5 -9.5t-16.5 -4q-10 0 -17.5 7t-7.5 18q0 89 73 233
t210 351q-164 -5 -303 -43.5t-236.5 -99t-166.5 -139t-101.5 -164.5t-32.5 -175q0 -98 41.5 -185.5t119.5 -156.5t202.5 -110t279.5 -41z" />
    <glyph glyph-name="dcaron" unicode="&#x10f;" horiz-adv-x="696" 
d="M1196 1313q41 -3 41 -47q0 -70 -169 -243t-403.5 -359t-437.5 -314q-159 -209 -159 -291q0 -22 11.5 -31.5t37.5 -9.5q67 0 180 61.5t203.5 129t158.5 129.5q15 14 36.5 36t34.5 35t15 13q11 0 11 -10q-55 -66 -171 -160t-253 -172t-215 -78t-78 68q0 75 96 225
q-11 -6 -33 -17l-31 -15.5t-26.5 -12.5t-26 -11.5t-21.5 -9t-21.5 -7.5t-18 -3.5t-18.5 -1.5q-41 0 -41 41q0 62 56 124t118 62q42 0 70.5 -24.5t31.5 -65.5q132 195 339 420t402 382t281 157zM815 809q183 156 294.5 279t111.5 180q0 28 -25 28q-57 0 -227.5 -147
t-369.5 -359.5t-345 -402.5q288 186 561 422zM1208 1135q23 8 23 24q-10 0 -10 6q0 9 7 15t13 6q10 0 10 -15q0 -10 -11 -29.5t-28 -19.5q-4 0 -4 13zM72 279q3 2 31.5 15t41.5 25t13 29q0 26 -14 47t-38 21q-43 0 -113.5 -68t-70.5 -104q0 -13 19 -13q33 0 131 48z" />
    <glyph glyph-name="Dcroat" unicode="&#x110;" horiz-adv-x="2359" 
d="M127 -739q-167 0 -302 44.5t-219 119t-128.5 168.5t-44.5 198q0 92 33.5 180.5t104.5 169.5t171 143.5t243 101t312 42.5q73 108 88 129h-203q-8 0 -8 8t8 8h215q32 47 95 137.5t99 143t92.5 136t91 138t78.5 126.5t69.5 124t50.5 108t36.5 102t12.5 83q0 6 6 6
q10 0 10 -6q-1 -61 -20.5 -135.5t-46.5 -142t-77.5 -160.5t-90 -159t-110 -171t-111 -163t-117.5 -167h70q223 280 442 478q45 41 111 92.5t162.5 115t193 115t203 86.5t190.5 35q151 0 226 -91t75 -251q0 -197 -108.5 -458t-298.5 -517q23 -2 65 -2q383 0 592 246
q10 0 10 -10q-210 -250 -602 -250q-51 0 -78 2q-113 -148 -242.5 -278.5t-286.5 -246.5t-323 -199t-356.5 -131t-382.5 -48zM840 573q8 0 8 -8t-8 -8h-299q-55 -68 -103 -133q122 -10 289.5 -46t309.5 -73.5t318 -74t312 -48.5q195 253 306.5 513.5t111.5 453.5
q0 146 -68 228.5t-205 82.5q-81 0 -184.5 -34t-196 -83t-185.5 -109.5t-155 -108.5t-104 -85q-214 -196 -432 -467h285zM522 557h-69q-62 -86 -91 -129q38 0 58 -2q76 100 102 131zM352 414q-120 -173 -192.5 -297.5t-93.5 -212.5q152 256 342 508h-15l-26 2h-15zM287 412
q-164 -5 -303 -43.5t-236.5 -99t-166.5 -139t-101.5 -164.5t-32.5 -175q0 -98 41.5 -185.5t119.5 -156.5t202.5 -110t279.5 -41h27q230 5 456 77t420.5 194.5t359 272.5t302.5 326q-169 15 -401.5 71t-453.5 108.5t-374 62.5q-216 -292 -369 -551q-2 -10 -3 -23.5t-2 -19
t-6.5 -9.5t-16.5 -4q-10 0 -17.5 7t-7.5 18q0 89 73 233t210 351z" />
    <glyph glyph-name="dcroat" unicode="&#x111;" horiz-adv-x="696" 
d="M1237 1266q0 -57 -117 -187.5t-291.5 -280t-363.5 -286.5h147q9 -4 9 -10q0 -1 -3.5 -3.5t-5.5 -2.5h-172q-135 -97 -213 -146q-159 -209 -159 -291q0 -22 11.5 -31.5t37.5 -9.5q67 0 180 61.5t203.5 129t158.5 129.5q15 14 36.5 36t34.5 35t15 13q11 0 11 -10
q-55 -66 -171 -160t-253 -172t-215 -78t-78 68q0 75 96 225q-11 -6 -33 -17l-31 -15.5t-26.5 -12.5t-26 -11.5t-21.5 -9t-21.5 -7.5t-18 -3.5t-18.5 -1.5q-41 0 -41 41q0 62 56 124t118 62q42 0 70.5 -24.5t31.5 -65.5q69 100 102 142h-139q-8 0 -8 8t8 8h154
q146 187 326.5 371.5t342 307t236.5 122.5q41 -3 41 -47zM438 512q63 46 145 109.5t199.5 161.5t211 185.5t160.5 171t67 128.5q0 28 -25 28q-50 0 -194.5 -120t-320.5 -301t-327 -363h84zM340 496l-86 -109q72 46 160 109h-74zM72 279q3 2 31.5 15t41.5 25t13 29
q0 26 -14 47t-38 21q-43 0 -113.5 -68t-70.5 -104q0 -13 19 -13q33 0 131 48z" />
    <glyph glyph-name="Eogonek" unicode="&#x118;" horiz-adv-x="2363" 
d="M1337 705q-143 47 -288 47q-192 0 -377.5 -88t-322.5 -229.5t-221.5 -330t-84.5 -380.5q0 -167 76.5 -277t210.5 -164q0 2 4 2l6 -4q116 -45 270 -45q163 0 370.5 85t404 215t397.5 294t354 312t270 280q4 0 8.5 -3.5t4.5 -6.5q0 -2 -16.5 -21t-28.5 -31
q-123 -134 -276.5 -278t-350.5 -300.5t-387.5 -278.5t-391 -201.5t-358.5 -79.5q-154 0 -276 45q-8 -14 -33.5 -48t-43 -63t-19.5 -47q0 -25 36 -29q54 0 78 41q5 5 6 5q3 0 6 -3t3 -6q0 -21 -32 -36t-56 -15q-68 0 -68 51q1 25 22 55t51.5 60.5t37.5 40.5q-150 60 -236 185
t-86 313q0 130 39.5 258t108 237t165.5 203t208 160t238.5 103.5t254.5 37.5q142 0 289 -39q-152 115 -152 277q0 97 50 191t131.5 165t181 125.5t204 83.5t195.5 29q108 0 198.5 -41.5t147.5 -125t57 -194.5q0 -166 -126.5 -294t-291.5 -128q-45 0 -87 17t-58 53q-2 2 -2 6
q0 10 10 10q4 0 4 -4q17 -65 140 -65q106 0 198 59.5t145.5 155.5t53.5 200q0 148 -103.5 233t-256.5 85q-93 0 -200 -31.5t-206 -89t-180.5 -130t-130.5 -163.5t-49 -182q0 -143 170 -254q0 -2 -3 -8t-6 -6z" />
    <glyph glyph-name="eogonek" unicode="&#x119;" horiz-adv-x="405" 
d="M436 422q13 0 13 -12q-79 -89 -183.5 -153t-204.5 -64q-14 0 -34 4q10 13 12 20q0 2 -6 4l-2 -2q-6 -6 -15 -18q3 0 11 -4q-4 -6 -20 -27.5t-24.5 -36t-9.5 -24.5q0 -17 25 -17q33 0 49 25l2 4q6 0 6 -6q0 -13 -20.5 -23t-34.5 -10q-43 0 -43 33q1 11 8 24t14 21.5
t20.5 22.5t16.5 18q-52 24 -55 88q0 67 37.5 124.5t97.5 57.5q46 0 49 -29q0 -26 -39 -52t-79 -36q-17 -43 -17 -75q4 -66 70 -66q89 0 186 62.5t170 146.5zM125 453q-25 0 -49.5 -23t-40.5 -57q33 10 64.5 32t31.5 39q0 9 -6 9z" />
    <glyph glyph-name="Ecaron" unicode="&#x11a;" horiz-adv-x="2363" 
d="M1919 1784q0 12 14 12q11 0 17 -6q4 -17 18 -36t33 -19q17 0 34 6.5t32.5 19t25 22t24 26.5t17.5 20q6 6 14 6q9 0 18 -5t9 -11q0 -7 -4 -9q-32 -34 -77 -64.5t-85 -31.5q-65 0 -90 70zM1337 705q-143 47 -288 47q-192 0 -377.5 -88t-322.5 -229.5t-221.5 -330
t-84.5 -380.5q0 -125 44.5 -220.5t123 -153t179 -86t220.5 -28.5q163 0 370.5 85t404 215t397.5 294t354 312t270 280q4 0 8.5 -3.5t4.5 -6.5q0 -2 -16.5 -21t-28.5 -31q-123 -134 -276.5 -278t-350.5 -300.5t-387.5 -278.5t-391 -201.5t-358.5 -79.5q-129 0 -237.5 33.5
t-193 99t-132 172.5t-47.5 244q0 130 39.5 258t108 237t165.5 203t208 160t238.5 103.5t254.5 37.5q142 0 289 -39q-152 115 -152 277q0 97 50 191t131.5 165t181 125.5t204 83.5t195.5 29q108 0 198.5 -41.5t147.5 -125t57 -194.5q0 -166 -126.5 -294t-291.5 -128
q-45 0 -87 17t-58 53q-2 2 -2 6q0 10 10 10q4 0 4 -4q17 -65 140 -65q106 0 198 59.5t145.5 155.5t53.5 200q0 148 -103.5 233t-256.5 85q-93 0 -200 -31.5t-206 -89t-180.5 -130t-130.5 -163.5t-49 -182q0 -143 170 -254q0 -2 -3 -8t-6 -6z" />
    <glyph glyph-name="ecaron" unicode="&#x11b;" horiz-adv-x="405" 
d="M49 596q0 10 8 10q6 0 9 -6q2 -13 9.5 -27t18.5 -14q7 0 13.5 2.5t13 8t11 10t10.5 13.5l9 13.5t8.5 13.5t6.5 11q4 4 8 4q5 0 9.5 -4t4.5 -8q0 -5 -2 -7q-16 -25 -41 -48.5t-47 -24.5q-36 0 -49 53zM436 422q13 0 13 -12q-79 -89 -183.5 -153t-204.5 -64q-47 0 -72 26.5
t-28 69.5q0 67 37.5 124.5t97.5 57.5q46 0 49 -29q0 -26 -39 -52t-79 -36q-17 -43 -17 -75q4 -66 70 -66q89 0 186 62.5t170 146.5zM125 453q-25 0 -49.5 -23t-40.5 -57q33 10 64.5 32t31.5 39q0 9 -6 9z" />
    <glyph glyph-name="Itilde" unicode="&#x128;" horiz-adv-x="1081" 
d="M1380 1655q-6 0 -6 8l2 2q58 53 117 53q28 0 76.5 -17.5t72.5 -17.5q33 0 66 23q6 0 6 -10l-2 -2q-52 -39 -104 -39q-30 0 -78 16.5t-70 16.5q-39 0 -80 -33zM1135 1235q54 55 117.5 107t149.5 97.5t150 45.5q50 0 50 -27q0 -58 -378 -206q-8 -3 -12 -5l-32 -12
q-96 -105 -202 -258.5t-250 -380t-224 -344.5q75 -41 174 -41q111 0 219 49t190 131q3 3 11.5 12t13.5 14t6 5q8 0 8 -10q-76 -96 -206.5 -156.5t-253.5 -60.5q-102 0 -177 34q-78 -116 -150 -212.5t-160 -198t-172.5 -181t-184.5 -151.5t-200 -119.5t-215 -75.5t-234 -28
q-9 0 -9 6q0 8 9 8q111 0 219.5 28.5t202 76.5t189.5 123t175 154t166 185.5t156 201.5t151 216q-62 45 -95.5 113t-33.5 147q0 78 30.5 152t78 133t120.5 116.5t141.5 99.5t159 85t155.5 69.5t147 57.5zM1460 1364q62 27 92.5 51t30.5 39q0 14 -31 14q-72 0 -170.5 -61.5
t-179.5 -144.5q210 80 258 102zM449 289q47 70 130.5 197.5t137 207.5t124.5 181.5t137 184t130 150.5q-79 -31 -141 -57.5t-144.5 -67.5t-145 -81t-127.5 -95t-107 -111.5t-68.5 -128t-26.5 -147.5q0 -146 101 -233z" />
    <glyph glyph-name="itilde" unicode="&#x129;" horiz-adv-x="360" 
d="M-61 510q-5 0 -5 8l3 2q47 58 88 58q22 0 59 -19.5t55 -19.5q24 0 51 24q5 0 5 -10l-2 -2q-39 -41 -80 -41q-22 0 -58.5 17.5t-54.5 17.5q-26 0 -61 -35zM379 422q4 0 8 -3.5t4 -8.5q-73 -86 -181 -153t-206 -67q-43 0 -65.5 19.5t-22.5 54.5q0 44 44 109t77 65
q24 0 24 -18q0 -7 -26 -39t-52.5 -73t-27.5 -68q0 -33 41 -33q96 0 202 64t181 151z" />
    <glyph glyph-name="Lacute" unicode="&#x139;" horiz-adv-x="2400" 
d="M3156 -158q4 4 6 4q6 0 6 -8q0 -4 -2 -8q-117 -200 -291 -287.5t-399 -87.5q-116 0 -245.5 20t-276 61t-256.5 76t-282 94.5t-257 86.5q-400 -393 -831 -393q-158 0 -243 63t-85 158q0 58 34 114.5t96.5 103.5t164 76.5t223.5 29.5q212 0 600 -123q122 130 258 315.5
t255 366t243 362t265.5 351.5t279.5 286q176 145 278 185q-6 3 -6 20l121 150q7 12 20 12q10 0 20.5 -9t10.5 -20q0 -4 -8 -16l-141 -131q10 0 10 -8q0 -5 -4 -7q-202 -97 -404 -327q-102 -116 -219 -280.5t-223.5 -327t-218 -328t-238.5 -328t-248 -283.5q74 -24 254 -85.5
t283 -93.5t252 -73t275.5 -60t240.5 -19q224 0 395.5 86t286.5 282zM328 -584q216 0 407 102.5t371 291.5q-366 118 -588 118q-119 0 -217.5 -28t-159.5 -73t-94 -98.5t-33 -107.5q0 -87 81.5 -146t232.5 -59z" />
    <glyph glyph-name="lacute" unicode="&#x13a;" horiz-adv-x="540" 
d="M1174 1509l73 95q5 8 13 8q6 0 12 -6t6 -13q0 -2 -4 -10l-88 -84q-2 -2 -6 -2q-6 0 -6 12zM1126 1440q36 0 62 -17.5t26 -52.5q0 -61 -104.5 -173.5t-254.5 -231t-319.5 -238.5t-296.5 -202.5t-188 -116.5q-174 -246 -174 -322q0 -49 72 -49q73 0 186 56.5t200.5 119
t156.5 121.5q10 8 32.5 31t40.5 40t23 17q8 0 8 -12q-64 -68 -173 -154t-247.5 -161t-228.5 -75q-86 0 -86 74q0 70 70 199.5t180 277.5t251.5 303.5t279.5 280.5t269 205t215 80zM76 440q76 47 191.5 122.5t284 195.5t307.5 230t239 217t100 165q0 27 -20 40t-50 13
q-74 0 -209 -95.5t-284 -243t-297.5 -318t-261.5 -326.5z" />
    <glyph glyph-name="Lcaron" unicode="&#x13d;" horiz-adv-x="2400" 
d="M2693 1907q3 10 12 10q11 -6 11 -10v-15q0 -44 20 -49h12q34 0 99 60l6 6h2l4 2q4 0 11 -7t7 -12q0 -7 -6 -10q-23 -22 -59.5 -41.5t-65.5 -19.5q-6 0 -10 2q-43 12 -43 84zM3156 -158q4 4 6 4q6 0 6 -8q0 -4 -2 -8q-117 -200 -291 -287.5t-399 -87.5q-116 0 -245.5 20
t-276 61t-256.5 76t-282 94.5t-257 86.5q-400 -393 -831 -393q-158 0 -243 63t-85 158q0 58 34 114.5t96.5 103.5t164 76.5t223.5 29.5q212 0 600 -123q122 130 258 315.5t255 366t243 362t265.5 351.5t279.5 286q50 43 158.5 117t140.5 74q6 0 6 -8q0 -5 -4 -7
q-202 -97 -404 -327q-102 -116 -219 -280.5t-223.5 -327t-218 -328t-238.5 -328t-248 -283.5q74 -24 254 -85.5t283 -93.5t252 -73t275.5 -60t240.5 -19q224 0 395.5 86t286.5 282zM328 -584q216 0 407 102.5t371 291.5q-366 118 -588 118q-119 0 -217.5 -28t-159.5 -73
t-94 -98.5t-33 -107.5q0 -87 81.5 -146t232.5 -59z" />
    <glyph glyph-name="lcaron" unicode="&#x13e;" horiz-adv-x="540" 
d="M1126 1440q36 0 62 -17.5t26 -52.5q0 -61 -104.5 -173.5t-254.5 -231t-319.5 -238.5t-296.5 -202.5t-188 -116.5q-174 -246 -174 -322q0 -49 72 -49q73 0 186 56.5t200.5 119t156.5 121.5q10 8 32.5 31t40.5 40t23 17q8 0 8 -12q-64 -68 -173 -154t-247.5 -161
t-228.5 -75q-86 0 -86 74q0 70 70 199.5t180 277.5t251.5 303.5t279.5 280.5t269 205t215 80zM76 440q76 47 191.5 122.5t284 195.5t307.5 230t239 217t100 165q0 27 -20 40t-50 13q-74 0 -209 -95.5t-284 -243t-297.5 -318t-261.5 -326.5zM1223 1219q17 6 29 21t12 30
q-19 0 -19 14q0 21 13.5 32t25.5 11q19 0 19 -31q0 -20 -20.5 -62t-51.5 -42q-8 0 -8 27z" />
    <glyph glyph-name="Lslash" unicode="&#x141;" horiz-adv-x="2400" 
d="M1575 301l12 16h-84q54 79 143 211.5t148.5 220.5t144.5 207t155 205.5t156 179t169 162.5q50 43 158.5 117t140.5 74q6 0 6 -8q0 -5 -4 -7q-202 -97 -404 -327q-111 -126 -229.5 -294t-268 -395.5t-231.5 -345.5h379q8 0 8 -8t-8 -8h-391zM3156 -158q4 4 6 4q6 0 6 -8
q0 -4 -2 -8q-117 -200 -291 -287.5t-399 -87.5q-116 0 -245.5 20t-276 61t-256.5 76t-282 94.5t-257 86.5q-400 -393 -831 -393q-158 0 -243 63t-85 158q0 58 34 114.5t96.5 103.5t164 76.5t223.5 29.5q212 0 600 -123q160 170 375 479h-184q-9 0 -9 8t9 8h194l-10 -16h82
q-222 -314 -406 -496q74 -24 254 -85.5t283 -93.5t252 -73t275.5 -60t240.5 -19q224 0 395.5 86t286.5 282zM328 -584q216 0 407 102.5t371 291.5q-366 118 -588 118q-119 0 -217.5 -28t-159.5 -73t-94 -98.5t-33 -107.5q0 -87 81.5 -146t232.5 -59z" />
    <glyph glyph-name="lslash" unicode="&#x142;" horiz-adv-x="540" 
d="M-53 20q-86 0 -86 74q0 130 213 424h-158q-8 0 -8 8q0 9 8 9h168q112 154 254 313t286 291.5t279 216.5t221 84q37 0 63.5 -16.5t26.5 -49.5q0 -50 -67.5 -133.5t-169.5 -172.5t-236.5 -191.5t-252.5 -184.5t-234 -157h319q3 0 6 -3t3 -6q0 -8 -9 -8h-344l-178 -110
q-174 -246 -174 -322q0 -49 72 -49t185 56t198 116t145 113l51 49q51 51 60 51q8 0 8 -12q-64 -68 -173 -154t-247.5 -161t-228.5 -75zM1198 1370q0 27 -20 40t-50 13q-90 0 -269 -141.5t-366 -341t-346 -405.5h76q60 38 137 90.5t195.5 135t225 166.5t204 168t155.5 157
t58 118zM199 518h-66l-57 -78z" />
    <glyph glyph-name="Nacute" unicode="&#x143;" horiz-adv-x="1705" 
d="M1753 1716l109 146q8 14 16 14q9 0 18 -9.5t9 -19.5q0 -4 -4 -16l-129 -131q-2 -2 -9 -2q-10 0 -10 18zM1776 -723q8 0 8 -8q0 -6 -8 -6q-251 0 -405 145t-154 402q0 154 51 313t132 294t179.5 266.5t196.5 246.5t179 215.5t132 191.5t51 158q0 70 -76 70q-74 0 -213 -76
q-287 -166 -645.5 -467t-678.5 -638.5t-511 -616.5l-6 -5q0 -1 -1.5 0t-4.5 4l-2 3q15 132 88 286t179 301t231 299.5t249.5 298.5t229 279t175.5 259.5t83 223.5q0 8 8 8q8 -3 8 -10q-14 -114 -84 -254t-172.5 -279.5t-223.5 -287t-244 -294t-228 -283t-181.5 -271.5
t-97.5 -242q196 279 514 612t671.5 628.5t637.5 459.5q44 27 115 52.5t127 25.5q100 0 100 -98q0 -70 -52 -163.5t-135 -195.5t-183.5 -218.5t-201 -249t-183.5 -268.5t-135 -295t-52 -312q0 -122 41 -219t113 -158.5t168.5 -94t210.5 -32.5z" />
    <glyph glyph-name="nacute" unicode="&#x144;" horiz-adv-x="460" 
d="M113 522l73 94q6 9 13 9q6 0 12 -6t6 -13q0 -2 -4 -10l-88 -84q-2 -2 -6 -2q-6 0 -6 12zM487 422q5 0 9 -4t4 -8l-19 -19q-179 -188 -264 -188q-31 0 -47.5 22t-19 48.5t-10.5 48.5t-25 22q-39 0 -201 -170l-8 -8q-6 -14 -23 -14q-11 0 -18.5 8t-7.5 18q0 32 69.5 143
t104.5 111q24 0 24 -16q0 -10 -8 -21q-76 -97 -119 -182q154 164 211 164q27 0 40 -24.5t15 -54.5t11 -54.5t28 -24.5q26 0 84.5 46t97 83.5t72.5 73.5z" />
    <glyph glyph-name="Ncaron" unicode="&#x147;" horiz-adv-x="1705" 
d="M1647 1802q0 10 16 10q10 0 16 -6q4 -15 20 -32t38 -17q19 0 36.5 5.5t34.5 17.5t27 20t26.5 24.5l18.5 18.5q8 4 16 4q9 0 19 -5t10 -9q0 -6 -4 -8q-34 -30 -83 -57.5t-93 -28.5q-74 0 -98 63zM1776 -723q8 0 8 -8q0 -6 -8 -6q-251 0 -405 145t-154 402q0 154 51 313
t132 294t179.5 266.5t196.5 246.5t179 215.5t132 191.5t51 158q0 70 -76 70q-74 0 -213 -76q-287 -166 -645.5 -467t-678.5 -638.5t-511 -616.5l-6 -5q0 -1 -1.5 0t-4.5 4l-2 3q15 132 88 286t179 301t231 299.5t249.5 298.5t229 279t175.5 259.5t83 223.5q0 8 8 8
q8 -3 8 -10q-14 -114 -84 -254t-172.5 -279.5t-223.5 -287t-244 -294t-228 -283t-181.5 -271.5t-97.5 -242q196 279 514 612t671.5 628.5t637.5 459.5q44 27 115 52.5t127 25.5q100 0 100 -98q0 -70 -52 -163.5t-135 -195.5t-183.5 -218.5t-201 -249t-183.5 -268.5
t-135 -295t-52 -312q0 -122 41 -219t113 -158.5t168.5 -94t210.5 -32.5z" />
    <glyph glyph-name="ncaron" unicode="&#x148;" horiz-adv-x="460" 
d="M63 557q0 10 9 10q5 0 8 -6q2 -12 10 -26.5t19 -14.5q8 0 16 4t13.5 9t13 15t11 15t10 16t7.5 13q4 4 8 4q5 0 10 -4t5 -8t-2 -6q-16 -25 -41 -49t-47 -25q-37 0 -50 53zM487 422q5 0 9 -4t4 -8l-19 -19q-179 -188 -264 -188q-31 0 -47.5 22t-19 48.5t-10.5 48.5t-25 22
q-39 0 -201 -170l-8 -8q-6 -14 -23 -14q-11 0 -18.5 8t-7.5 18q0 32 69.5 143t104.5 111q24 0 24 -16q0 -10 -8 -21q-76 -97 -119 -182q154 164 211 164q27 0 40 -24.5t15 -54.5t11 -54.5t28 -24.5q26 0 84.5 46t97 83.5t72.5 73.5z" />
    <glyph glyph-name="Ohungarumlaut" unicode="&#x150;" horiz-adv-x="2205" 
d="M1071 1948q5 8 12 8q6 0 12.5 -6t6.5 -13q0 -2 -4 -10l-88 -84q-2 -2 -6 -2q-7 0 -7 12zM1178 1948q5 8 12 8q6 0 12 -6t6 -13q0 -2 -4 -10l-88 -84q-2 -2 -6 -2q-6 0 -6 12zM508 -737q-277 0 -277 245q0 96 48 218q-139 42 -209 145t-70 254q0 181 77 367t204 343
t293.5 297t343 237t355 153.5t326.5 56.5q99 0 178.5 -25.5t140 -78t93.5 -139t33 -201.5q0 -244 -150 -565t-389 -619q220 94 422.5 214.5t321.5 256.5q12 0 12 -8q0 -7 -20 -27q-73 -84 -220.5 -180.5t-277 -162t-258.5 -120.5q-238 -290 -499 -472.5t-478 -188.5z
M285 -260q44 102 127.5 224t168 227.5t164.5 209.5t132.5 203.5t56.5 177.5q0 6 8 6t8 -8q-4 -89 -41 -185t-91.5 -178t-124.5 -175t-134.5 -171t-129 -171t-101.5 -172q92 -21 198 -21q202 0 437 60t452 147q252 309 415 653.5t163 597.5q0 196 -102 291.5t-275 95.5
q-141 0 -316 -60.5t-350 -163t-342 -247t-295 -304.5t-206 -344t-78 -357q0 -127 67 -213t189 -123zM322 -287q-56 -122 -56 -231t61 -157t162 -48q195 0 435 168t471 442q-212 -83 -440.5 -139.5t-426.5 -56.5q-119 0 -206 22z" />
    <glyph glyph-name="ohungarumlaut" unicode="&#x151;" horiz-adv-x="372" 
d="M72 537l47 86q3 6 8 6q12 0 12 -17q0 -2 -1 -4.5t-1 -3.5l-57 -76l-4 -2q-4 0 -4 11zM139 537l49 86q3 6 9 6q4 0 8 -5t4 -12q0 -4 -4 -8l-58 -76q0 -2 -4 -2t-4 11zM401 422q11 0 11 -12q-126 -148 -258 -148q-43 0 -74 10q-55 -55 -100 -55q-43 0 -43 47q0 37 32 90
q-4 2 -4 23q0 42 33.5 71t77.5 29q34 0 55 -18t21 -49q0 -57 -60 -125q30 -9 60 -9q122 0 249 146zM76 461q-39 0 -66.5 -24.5t-27.5 -63.5q2 3 10.5 14.5t13 16t12 12.5t15.5 11t16 3q12 0 22.5 -5t10.5 -13q0 -7 -11.5 -19t-30.5 -32t-32 -37q21 -21 68 -33q61 61 61 117
q0 53 -61 53zM20 246q14 8 43 33q-34 5 -65 32q-27 -44 -27 -65q0 -15 13 -15q6 0 36 15z" />
    <glyph glyph-name="Racute" unicode="&#x154;" horiz-adv-x="1585" 
d="M1681 1673l97 160q6 14 16 14q8 0 15.5 -9.5t7.5 -22.5q0 -2 -5 -17l-114 -143q-2 -2 -8 -2q-9 0 -9 20zM1624 -780q6 0 6 -8q0 -9 -6 -9q-135 0 -257 33.5t-212.5 80.5t-180 131.5t-146 152t-123.5 178t-100 174t-87 174.5l-24 49q-66 6 -125 27q-203 -263 -354 -492.5
t-203 -355.5q-3 -6 -9 -6q-8 0 -8 8q16 180 139 400.5t334 496.5q-47 32 -78.5 74.5t-31.5 85.5q0 36 22 63t58 27q70 0 147 -103q69 86 169 206.5t171.5 207t156.5 192t143.5 188t111 166.5t81.5 156t35 130q0 8 9 8q6 0 6 -8q-5 -55 -23.5 -116.5t-53.5 -131t-71 -132.5
t-94.5 -145.5t-105 -144.5t-121.5 -154.5t-123.5 -152t-132.5 -159.5t-129 -155l24 -41q78 96 155 188t186 213.5t209 224.5t215.5 208t215.5 177.5t198 118.5t173 46q82 0 124 -53.5t42 -147.5q0 -73 -29.5 -167.5t-90 -201t-144.5 -212.5t-201 -203t-250.5 -171.5
t-302.5 -118.5t-348 -44h-39q-27 0 -39 2l23 -43q42 -84 66 -131.5t72.5 -134t85.5 -139.5t96.5 -128.5t114 -123t130 -101t152.5 -83.5t172.5 -50t199.5 -20zM1790 1475q-72 0 -169 -46t-196.5 -119.5t-214 -177.5t-216.5 -208.5t-209 -224t-185.5 -212.5t-153.5 -186
l58 -108h108l58 4l49 6q68 10 112 20q189 45 365.5 146t305.5 225t226.5 260.5t147 259.5t49.5 213q0 71 -33.5 109.5t-101.5 38.5zM182 453q-10 -20 -10 -39q0 -73 104 -150l99 125q-74 98 -131 98q-48 0 -62 -34zM362 219l66 84l-25 41l-86 -104q36 -18 45 -21zM436 287
l-57 -74q44 -13 106 -20q-14 30 -49 94zM-180 -588q65 134 208 347t326 448l-45 20q-206 -255 -331 -454.5t-158 -360.5z" />
    <glyph glyph-name="racute" unicode="&#x155;" horiz-adv-x="364" 
d="M139 680l60 88q5 8 10 8q6 0 11 -5.5t5 -12.5l-4 -8l-71 -80q-2 -2 -7 -2q-4 0 -4 12zM414 422q10 0 10 -12q-59 -70 -194 -176.5t-197 -106.5q-45 0 -45 53q1 34 40 99t42 102v8q0 11 -6.5 29t-6.5 20q-10 -16 -47.5 -57t-46.5 -41q-6 0 -6 8q0 4 4 8q61 57 88 101
q-20 40 -20 75v9q1 28 12.5 43.5t26.5 15.5q28 0 28 -53q-3 -31 -12 -58l8 -12q2 -4 5 -8q1 -1 1 -2q25 -48 25 -78v-10q-2 -33 -18.5 -68t-35 -59t-34.5 -50t-17 -44q0 -15 15 -15q59 0 192 107t189 172zM55 567q0 -23 19 -57l6 39v8q0 29 -14 29q-11 0 -11 -19z" />
    <glyph glyph-name="Rcaron" unicode="&#x158;" horiz-adv-x="1585" 
d="M1540 1722q0 5 4 9t8 4q7 0 13 -9q2 -14 14 -31.5t27 -17.5q10 0 20 3t19.5 10t16.5 12t16 16t12.5 15.5t12 16.5t9.5 13q3 6 12 6q6 0 13.5 -5t7.5 -9q0 -6 -2 -8q-26 -32 -62 -60.5t-69 -29.5q-28 0 -46.5 19t-25.5 46zM1624 -780q6 0 6 -8q0 -9 -6 -9
q-135 0 -257 33.5t-212.5 80.5t-180 131.5t-146 152t-123.5 178t-100 174t-87 174.5l-24 49q-66 6 -125 27q-203 -263 -354 -492.5t-203 -355.5q-3 -6 -9 -6q-8 0 -8 8q16 180 139 400.5t334 496.5q-47 32 -78.5 74.5t-31.5 85.5q0 36 22 63t58 27q70 0 147 -103
q69 86 169 206.5t171.5 207t156.5 192t143.5 188t111 166.5t81.5 156t35 130q0 8 9 8q6 0 6 -8q-5 -55 -23.5 -116.5t-53.5 -131t-71 -132.5t-94.5 -145.5t-105 -144.5t-121.5 -154.5t-123.5 -152t-132.5 -159.5t-129 -155l24 -41q78 96 155 188t186 213.5t209 224.5
t215.5 208t215.5 177.5t198 118.5t173 46q82 0 124 -53.5t42 -147.5q0 -73 -29.5 -167.5t-90 -201t-144.5 -212.5t-201 -203t-250.5 -171.5t-302.5 -118.5t-348 -44h-39q-27 0 -39 2l23 -43q42 -84 66 -131.5t72.5 -134t85.5 -139.5t96.5 -128.5t114 -123t130 -101
t152.5 -83.5t172.5 -50t199.5 -20zM1790 1475q-72 0 -169 -46t-196.5 -119.5t-214 -177.5t-216.5 -208.5t-209 -224t-185.5 -212.5t-153.5 -186l58 -108h108l58 4l49 6q68 10 112 20q189 45 365.5 146t305.5 225t226.5 260.5t147 259.5t49.5 213q0 71 -33.5 109.5
t-101.5 38.5zM182 453q-10 -20 -10 -39q0 -73 104 -150l99 125q-74 98 -131 98q-48 0 -62 -34zM362 219l66 84l-25 41l-86 -104q36 -18 45 -21zM436 287l-57 -74q44 -13 106 -20q-14 30 -49 94zM-180 -588q65 134 208 347t326 448l-45 20q-206 -255 -331 -454.5t-158 -360.5
z" />
    <glyph glyph-name="rcaron" unicode="&#x159;" horiz-adv-x="364" 
d="M88 719q0 10 8 10q5 0 8 -6q2 -12 10 -26.5t19 -14.5q7 0 13.5 2.5t13 8t11 10t10.5 13.5l9 13.5t8.5 13.5t6.5 11q4 4 8 4q5 0 9.5 -4.5t4.5 -8.5t-2 -6q-16 -25 -41 -48.5t-47 -24.5q-36 0 -49 53zM414 422q10 0 10 -12q-59 -70 -194 -176.5t-197 -106.5q-45 0 -45 53
q1 34 40 99t42 102v8q0 11 -6.5 29t-6.5 20q-10 -16 -47.5 -57t-46.5 -41q-6 0 -6 8q0 4 4 8q61 57 88 101q-20 40 -20 75v9q1 28 12.5 43.5t26.5 15.5q28 0 28 -53q-3 -31 -12 -58l8 -12q2 -4 5 -8q1 -1 1 -2q25 -48 25 -78v-10q-2 -33 -18.5 -68t-35 -59t-34.5 -50
t-17 -44q0 -15 15 -15q59 0 192 107t189 172zM55 567q0 -23 19 -57l6 39v8q0 29 -14 29q-11 0 -11 -19z" />
    <glyph glyph-name="Sacute" unicode="&#x15a;" horiz-adv-x="2578" 
d="M2812 1755l133 166q8 14 23 14q11 0 21.5 -9.5t10.5 -22.5q0 -3 -8 -19l-158 -147q-4 -4 -12 -4q-10 0 -10 22zM3009 1657q56 -2 90 -29.5t34 -79.5q0 -64 -55.5 -153.5t-171.5 -194.5q-123 -111 -313.5 -220.5t-417.5 -201.5l-68 -26q-27 -40 -91.5 -134.5t-102 -148.5
t-93 -132.5t-102.5 -143.5q174 -41 316 -41q292 0 510 192q9 9 30 29.5t35.5 34.5t16.5 14q3 0 6.5 -4t3.5 -8q-133 -139 -274.5 -207t-325.5 -68q-137 0 -328 43q-88 -120 -167.5 -220t-172.5 -204t-180.5 -185t-187 -154t-196 -120.5t-203 -75.5t-212.5 -28
q-120 0 -212.5 31t-148.5 86t-84 125.5t-28 154.5q0 103 40.5 212t120 210t187 181t254 128t307.5 48q102 0 221 -18t202 -38t216 -55.5t197 -50.5q104 143 362 518q-225 -78 -472.5 -134.5t-456.5 -56.5q-290 0 -416 121q-72 66 -72 111q0 6 6 6q7 0 9 -4q89 -219 471 -219
q214 0 468.5 59t479.5 139q84 120 146.5 206.5t141.5 188.5t142 172t136.5 140t137 111.5t132.5 67.5t133 26zM3117 1542q0 49 -27.5 73.5t-78.5 24.5q-58 0 -120 -24.5t-120 -64t-125 -106t-125 -133t-130.5 -163t-130.5 -178.5t-136 -197q9 5 26 11.5t19 7.5
q485 198 727 417q110 100 164.5 185t56.5 147zM389 -793q98 0 197.5 28t190 75.5t185.5 120.5t179 153.5t175 184.5t169 203.5t166 220.5q-59 14 -193.5 50t-214.5 55t-198.5 36.5t-219.5 17.5q-158 0 -301.5 -47t-249 -125.5t-184.5 -177.5t-118.5 -205.5t-39.5 -206.5
q0 -169 115.5 -276t341.5 -107z" />
    <glyph glyph-name="sacute" unicode="&#x15b;" horiz-adv-x="323" 
d="M109 670l73 94q5 8 13 8q6 0 12 -5.5t6 -12.5q0 -3 -4 -11l-88 -84q-2 -2 -6 -2q-6 0 -6 13zM362 422q15 0 15 -8l-2 -2q-34 -38 -65 -67.5t-64 -52.5t-55 -37.5t-58.5 -30t-53 -22t-60 -21l-58.5 -19.5q-87 -213 -186 -213q-56 0 -56 47q0 25 11.5 47t26.5 36.5
t41.5 30.5t44.5 24t48 20l17 6q15 39 36 102t36 106t33.5 86.5t37 66t37.5 22.5q8 0 8 -13q-15 -13 -33.5 -64.5t-46.5 -140.5t-49 -145q12 4 49 17t49.5 18l45 18t48.5 23t45.5 27.5t51 36t50 45t56.5 57.5zM-240 -33h9q66 0 131 172q-3 -2 -35.5 -15.5t-46.5 -22
t-37.5 -25t-34 -36.5t-10.5 -44q0 -26 24 -29z" />
    <glyph glyph-name="Scedilla" unicode="&#x15e;" horiz-adv-x="2578" 
d="M3009 1657q56 -2 90 -29.5t34 -79.5q0 -64 -55.5 -153.5t-171.5 -194.5q-123 -111 -313.5 -220.5t-417.5 -201.5l-68 -26q-27 -40 -91.5 -134.5t-102 -148.5t-93 -132.5t-102.5 -143.5q174 -41 316 -41q292 0 510 192q9 9 30 29.5t35.5 34.5t16.5 14q3 0 6.5 -4t3.5 -8
q-133 -139 -274.5 -207t-325.5 -68q-137 0 -328 43q-131 -179 -248.5 -318.5t-253.5 -272t-279.5 -224t-287.5 -135.5q-7 -30 -23 -49q54 -3 54 -49q0 -36 -33 -70.5t-76 -34.5q-8 0 -24 4q-7 3 -7 8q0 3 3 6t6 3q34 0 67 29.5t33 56.5q0 25 -31 30q-12 0 -18 -2q-8 0 -8 9
q0 8 4 8q28 11 35 47l18 4v8q0 8 -8 8t-8 -8t-2 -12q-125 -33 -232 -33q-120 0 -212.5 31t-148.5 86t-84 125.5t-28 154.5q0 103 40.5 212t120 210t187 181t254 128t307.5 48q102 0 221 -18t202 -38t216 -55.5t197 -50.5q104 143 362 518q-225 -78 -472.5 -134.5
t-456.5 -56.5q-290 0 -416 121q-72 66 -72 111q0 6 6 6q7 0 9 -4q89 -219 471 -219q214 0 468.5 59t479.5 139q84 120 146.5 206.5t141.5 188.5t142 172t136.5 140t137 111.5t132.5 67.5t133 26zM3117 1542q0 49 -27.5 73.5t-78.5 24.5q-58 0 -120 -24.5t-120 -64t-125 -106
t-125 -133t-130.5 -163t-130.5 -178.5t-136 -197q9 5 26 11.5t19 7.5q485 198 727 417q110 100 164.5 185t56.5 147zM389 -793q98 0 197.5 28t190 75.5t185.5 120.5t179 153.5t175 184.5t169 203.5t166 220.5q-59 14 -193.5 50t-214.5 55t-198.5 36.5t-219.5 17.5
q-158 0 -301.5 -47t-249 -125.5t-184.5 -177.5t-118.5 -205.5t-39.5 -206.5q0 -169 115.5 -276t341.5 -107z" />
    <glyph glyph-name="scedilla" unicode="&#x15f;" horiz-adv-x="323" 
d="M362 422q15 0 15 -8l-2 -2q-34 -38 -65 -67.5t-64 -52.5t-55 -37.5t-58.5 -30t-53 -22t-60 -21l-58.5 -19.5q-66 -161 -137 -201q-3 -26 -21 -47q47 -3 47 -43q0 -33 -28.5 -63.5t-67.5 -30.5q-8 0 -20 4q-6 3 -6 8q0 6 8 6q30 0 59 26t29 50q0 23 -27 29q-12 0 -16 -2
q-8 0 -8 6q0 8 4 8q23 8 30 43q11 3 17 10q0 6 -8 6q-6 0 -6 -6q0 -4 -3 -10q-15 -6 -32 -6q-56 0 -56 47q0 25 11.5 47t26.5 36.5t41.5 30.5t44.5 24t48 20l17 6q15 39 36 102t36 106t33.5 86.5t37 66t37.5 22.5q8 0 8 -13q-15 -13 -33.5 -64.5t-46.5 -140.5t-49 -145
q12 4 49 17t49.5 18l45 18t48.5 23t45.5 27.5t51 36t50 45t56.5 57.5zM-240 -33h9q66 0 131 172q-3 -2 -35.5 -15.5t-46.5 -22t-37.5 -25t-34 -36.5t-10.5 -44q0 -26 24 -29z" />
    <glyph glyph-name="Scaron" unicode="&#x160;" horiz-adv-x="2578" 
d="M2843 1858q0 9 6 14.5t14 5.5q15 0 21 -12q6 -25 25.5 -49.5t47.5 -24.5q23 0 45.5 8t44.5 27t33.5 29.5t33.5 36.5t24 28q12 8 20 8q13 0 25 -6.5t12 -15.5q0 -7 -6 -11q-42 -46 -104.5 -89t-116.5 -46q-89 0 -125 97zM3009 1657q56 -2 90 -29.5t34 -79.5
q0 -64 -55.5 -153.5t-171.5 -194.5q-123 -111 -313.5 -220.5t-417.5 -201.5l-68 -26q-27 -40 -91.5 -134.5t-102 -148.5t-93 -132.5t-102.5 -143.5q174 -41 316 -41q292 0 510 192q9 9 30 29.5t35.5 34.5t16.5 14q3 0 6.5 -4t3.5 -8q-133 -139 -274.5 -207t-325.5 -68
q-137 0 -328 43q-88 -120 -167.5 -220t-172.5 -204t-180.5 -185t-187 -154t-196 -120.5t-203 -75.5t-212.5 -28q-120 0 -212.5 31t-148.5 86t-84 125.5t-28 154.5q0 103 40.5 212t120 210t187 181t254 128t307.5 48q102 0 221 -18t202 -38t216 -55.5t197 -50.5
q104 143 362 518q-225 -78 -472.5 -134.5t-456.5 -56.5q-290 0 -416 121q-72 66 -72 111q0 6 6 6q7 0 9 -4q89 -219 471 -219q214 0 468.5 59t479.5 139q84 120 146.5 206.5t141.5 188.5t142 172t136.5 140t137 111.5t132.5 67.5t133 26zM3117 1542q0 49 -27.5 73.5
t-78.5 24.5q-58 0 -120 -24.5t-120 -64t-125 -106t-125 -133t-130.5 -163t-130.5 -178.5t-136 -197q9 5 26 11.5t19 7.5q485 198 727 417q110 100 164.5 185t56.5 147zM389 -793q98 0 197.5 28t190 75.5t185.5 120.5t179 153.5t175 184.5t169 203.5t166 220.5
q-59 14 -193.5 50t-214.5 55t-198.5 36.5t-219.5 17.5q-158 0 -301.5 -47t-249 -125.5t-184.5 -177.5t-118.5 -205.5t-39.5 -206.5q0 -169 115.5 -276t341.5 -107z" />
    <glyph glyph-name="scaron" unicode="&#x161;" horiz-adv-x="323" 
d="M59 688q0 10 9 10q5 0 8 -6q2 -13 9.5 -27t18.5 -14q7 0 13.5 2.5t13 8t11 10t10.5 13.5l9 13.5t8.5 13.5t6.5 11q4 4 8 4q5 0 10 -4t5 -8t-2 -6q-16 -25 -41 -49t-47 -25q-37 0 -50 53zM362 422q15 0 15 -8l-2 -2q-34 -38 -65 -67.5t-64 -52.5t-55 -37.5t-58.5 -30
t-53 -22t-60 -21l-58.5 -19.5q-87 -213 -186 -213q-56 0 -56 47q0 25 11.5 47t26.5 36.5t41.5 30.5t44.5 24t48 20l17 6q15 39 36 102t36 106t33.5 86.5t37 66t37.5 22.5q8 0 8 -13q-15 -13 -33.5 -64.5t-46.5 -140.5t-49 -145q12 4 49 17t49.5 18l45 18t48.5 23t45.5 27.5
t51 36t50 45t56.5 57.5zM-240 -33h9q66 0 131 172q-3 -2 -35.5 -15.5t-46.5 -22t-37.5 -25t-34 -36.5t-10.5 -44q0 -26 24 -29z" />
    <glyph glyph-name="uni0162" unicode="&#x162;" horiz-adv-x="1705" 
d="M3361 1552q0 -18 -15 -18q-7 0 -10 8q-66 168 -395 168q-168 0 -413.5 -48.5t-444.5 -105.5t-527 -155t-501 -146q110 -119 110 -344q0 -381 -221 -897q98 115 269.5 309.5t282.5 323t229 275.5t177.5 251t59.5 166q0 9 8 9t8 -9q0 -74 -53.5 -183.5t-131.5 -219.5
t-203 -260.5t-230 -267.5t-252.5 -281.5t-233.5 -263.5q-141 -293 -301 -514l-9 -12q-9 -12 -21.5 -27.5t-26.5 -31.5t-27 -27t-20 -11q-8 0 -8 15q0 105 116.5 284.5t329.5 433.5q242 549 242 936q0 227 -113 340q-495 -134 -788 -162q-58 -6 -103 -6q-142 0 -145 52
q0 33 60 76.5t152.5 83t218 66.5t241.5 27q228 0 354 -104q121 37 314.5 100t326.5 106t313.5 94.5t321 83.5t299 53.5t295.5 21.5q391 0 465 -189zM135 1098q299 0 873 178q-122 94 -336 94q-142 0 -300.5 -43t-257 -98.5t-98.5 -93.5q0 -37 119 -37zM561 -641
q151 213 273 457q-170 -199 -262 -337.5t-95 -221.5q0 -1 18.5 20.5t39 47.5t26.5 34zM444 -889q14 5 24.5 16t10.5 21q-16 0 -16 10q0 13 11.5 22t19.5 9q16 0 16 -23q0 -16 -16.5 -44.5t-42.5 -28.5q-7 0 -7 18z" />
    <glyph glyph-name="uni0163" unicode="&#x163;" horiz-adv-x="331" 
d="M1391 952q6 17 18 17q11 0 19 -9t8 -22q0 -15 -15 -33q-86 -94 -301 -94q-104 0 -207 20t-237 58q-278 -228 -598 -438q-52 -66 -99.5 -133.5t-94 -160t-46.5 -149.5q0 -14 4.5 -30.5t11 -30.5t12.5 -26t10 -19l5 -8q0 -3 -3.5 -7t-6.5 -4q-4 0 -4 4q-47 50 -47 125
q0 77 50 185t120.5 210t163 214.5t162 187.5t133.5 139q-161 35 -281 35q-235 0 -270 -125q-6 -18 -21 -18q-9 0 -16.5 8.5t-7.5 21.5q0 18 14 35q91 94 268 94q168 0 326 -38q219 215 400.5 347t260.5 132q41 0 41 -35q0 -118 -473 -506q271 -74 438 -74q227 0 263 127z
M1083 1411q-79 -36 -233 -164.5t-328 -300.5q144 -40 150 -41q201 163 338 301t137 197q0 22 -21 22q-20 0 -43 -14zM109 489q280 188 548 404q-73 21 -147 39q-226 -226 -401 -443zM-170 -207q23 8 23 25q-11 0 -11 6q0 9 7.5 14.5t13.5 5.5q10 0 10 -14q0 -10 -11 -29.5
t-28 -19.5q-4 0 -4 12z" />
    <glyph glyph-name="Tcaron" unicode="&#x164;" horiz-adv-x="1705" 
d="M1675 1788q0 7 6.5 12.5t12.5 5.5q10 0 20 -10q4 -25 22.5 -52.5t43.5 -27.5q18 0 36.5 8t32.5 17.5t30.5 27.5t25 29t23.5 30.5t18 24.5q14 9 20 9q11 0 22 -8t11 -15q0 -8 -4 -12q-41 -49 -98 -93.5t-107 -47.5q-46 0 -74 29.5t-41 72.5zM3361 1552q0 -18 -15 -18
q-7 0 -10 8q-66 168 -395 168q-168 0 -413.5 -48.5t-444.5 -105.5t-527 -155t-501 -146q110 -119 110 -344q0 -381 -221 -897q98 115 269.5 309.5t282.5 323t229 275.5t177.5 251t59.5 166q0 9 8 9t8 -9q0 -74 -53.5 -183.5t-131.5 -219.5t-203 -260.5t-230 -267.5
t-252.5 -281.5t-233.5 -263.5q-141 -293 -301 -514l-9 -12q-9 -12 -21.5 -27.5t-26.5 -31.5t-27 -27t-20 -11q-8 0 -8 15q0 105 116.5 284.5t329.5 433.5q242 549 242 936q0 227 -113 340q-495 -134 -788 -162q-58 -6 -103 -6q-142 0 -145 52q0 33 60 76.5t152.5 83
t218 66.5t241.5 27q228 0 354 -104q121 37 314.5 100t326.5 106t313.5 94.5t321 83.5t299 53.5t295.5 21.5q391 0 465 -189zM135 1098q299 0 873 178q-122 94 -336 94q-142 0 -300.5 -43t-257 -98.5t-98.5 -93.5q0 -37 119 -37zM561 -641q151 213 273 457
q-170 -199 -262 -337.5t-95 -221.5q0 -1 18.5 20.5t39 47.5t26.5 34z" />
    <glyph glyph-name="tcaron" unicode="&#x165;" horiz-adv-x="331" 
d="M1391 952q6 17 18 17q11 0 19 -9t8 -22q0 -15 -15 -33q-86 -94 -301 -94q-104 0 -207 20t-237 58q-278 -228 -598 -438q-52 -66 -99.5 -133.5t-94 -160t-46.5 -149.5q0 -14 4.5 -30.5t11 -30.5t12.5 -26t10 -19l5 -8q0 -3 -3.5 -7t-6.5 -4q-4 0 -4 4q-47 50 -47 125
q0 77 50 185t120.5 210t163 214.5t162 187.5t133.5 139q-161 35 -281 35q-235 0 -270 -125q-6 -18 -21 -18q-9 0 -16.5 8.5t-7.5 21.5q0 18 14 35q91 94 268 94q168 0 326 -38q219 215 400.5 347t260.5 132q41 0 41 -35q0 -118 -473 -506q271 -74 438 -74q227 0 263 127z
M1083 1411q-79 -36 -233 -164.5t-328 -300.5q144 -40 150 -41q201 163 338 301t137 197q0 22 -21 22q-20 0 -43 -14zM1118 1145q12 5 21.5 17.5t9.5 25.5q-14 0 -14 10q0 18 10 27.5t18 9.5q15 0 15 -25q0 -18 -15 -53t-39 -35q-6 0 -6 23zM109 489q280 188 548 404
q-73 21 -147 39q-226 -226 -401 -443z" />
    <glyph glyph-name="Utilde" unicode="&#x168;" horiz-adv-x="1198" 
d="M1042 1794q-6 0 -6 8l2 2q59 54 117 54q28 0 77 -17.5t73 -17.5q33 0 65 22q6 0 6 -10l-2 -2q-52 -39 -104 -39q-30 0 -78 16.5t-70 16.5q-39 0 -80 -33zM948 582q-120 -253 -195 -507.5t-75 -453.5q0 -524 555 -524q8 0 8 -8q0 -2 -2.5 -4.5t-5.5 -2.5
q-286 0 -438 143.5t-152 426.5q0 376 207 819q-141 -150 -282 -277t-286 -233t-283 -166.5t-247 -60.5q-111 0 -185.5 59.5t-74.5 169.5q0 103 65 232.5t170 261t232.5 272.5t257 282t239.5 272.5t184.5 261t86.5 231.5q3 6 10 6q6 0 6 -8q-15 -123 -91 -267t-185 -280
t-238 -277.5t-254.5 -277t-228.5 -261t-167 -247t-64 -217.5q0 -97 68.5 -147t168.5 -50q111 0 252.5 64t290 175t291.5 243t284 286q183 374 414 627q101 112 133 112q8 0 8 -10q0 -25 -36 -84q-67 -117 -183 -270t-258 -311zM1296 1135q-161 -175 -321 -500
q269 314 401 536q3 3 16 30.5t13 33.5q-19 0 -109 -100z" />
    <glyph glyph-name="utilde" unicode="&#x169;" horiz-adv-x="495" 
d="M-12 520q-4 0 -4 6q2 2 2 4q35 45 71 45q18 0 49 -15t46 -15q21 0 41 20q4 0 4 -8l-2 -4q-31 -33 -66 -33q-18 0 -47.5 14.5t-44.5 14.5q-23 0 -49 -29zM516 422q4 0 8 -4.5t4 -7.5q-37 -40 -77 -77t-93 -78t-108 -66.5t-100 -26.5q-69 0 -74 65v11q0 42 18 92
q-93 -111 -139 -111q-12 0 -20.5 9t-8.5 28q1 24 17.5 62t31.5 62t27 42q10 16 37 16q18 0 18 -14q0 -11 -14 -31q-1 -2 -16 -22.5t-30 -42t-28 -46t-14 -36.5q0 -13 8 -13q40 2 160 160l18 29q9 12 29 12q25 0 25 -18q0 -8 -13 -27q-25 -34 -47 -86.5t-22 -89.5
q0 -35 41 -35q53 0 129 46.5t132.5 97.5t100.5 100z" />
    <glyph glyph-name="Uring" unicode="&#x16e;" horiz-adv-x="1705" 
d="M1456 582q-120 -253 -195 -507.5t-75 -453.5q0 -524 555 -524q8 0 8 -8q0 -2 -2.5 -4.5t-5.5 -2.5q-286 0 -438 143.5t-152 426.5q0 376 207 819q-141 -150 -282 -277t-286 -233t-283 -166.5t-247 -60.5q-111 0 -185.5 59.5t-74.5 169.5q0 103 65 232.5t170 261
t232.5 272.5t257 282t239.5 272.5t184.5 261t86.5 231.5q3 6 10 6q6 0 6 -8q-15 -123 -91 -267t-185 -280t-238 -277.5t-254.5 -277t-228.5 -261t-167 -247t-64 -217.5q0 -97 68.5 -147t168.5 -50q111 0 252.5 64t290 175t291.5 243t284 286q183 374 414 627
q101 112 133 112q8 0 8 -10q0 -23 -37 -84q-148 -256 -440 -581zM1559 1454q-39 0 -39 31q0 30 32.5 61t73.5 31q49 0 49 -37q0 -31 -33.5 -58.5t-82.5 -27.5zM1602 1550q-24 -3 -41 -18t-17 -31q0 -8 7 -14t18 -6q21 0 39 17.5t18 33.5q0 18 -24 18zM1804 1135
q-161 -175 -321 -500q269 314 401 536q3 3 16 30.5t13 33.5q-19 0 -109 -100z" />
    <glyph glyph-name="uring" unicode="&#x16f;" horiz-adv-x="495" 
d="M92 489q-22 0 -22 19q0 18 18.5 36.5t42.5 18.5q29 0 29 -22q0 -18 -20 -35t-48 -17zM117 547q-13 -1 -23 -10.5t-10 -18.5q0 -12 14 -12q12 0 22.5 11t10.5 20q0 10 -14 10zM516 422q4 0 8 -4.5t4 -7.5q-37 -40 -77 -77t-93 -78t-108 -66.5t-100 -26.5q-69 0 -74 65v11
q0 42 18 92q-93 -111 -139 -111q-12 0 -20.5 9t-8.5 28q1 24 17.5 62t31.5 62t27 42q10 16 37 16q18 0 18 -14q0 -11 -14 -31q-1 -2 -16 -22.5t-30 -42t-28 -46t-14 -36.5q0 -13 8 -13q40 2 160 160l18 29q9 12 29 12q25 0 25 -18q0 -8 -13 -27q-25 -34 -47 -86.5t-22 -89.5
q0 -35 41 -35q53 0 129 46.5t132.5 97.5t100.5 100z" />
    <glyph glyph-name="Uhungarumlaut" unicode="&#x170;" horiz-adv-x="1705" 
d="M1456 582q-120 -253 -195 -507.5t-75 -453.5q0 -524 555 -524q8 0 8 -8q0 -2 -2.5 -4.5t-5.5 -2.5q-286 0 -438 143.5t-152 426.5q0 376 207 819q-141 -150 -282 -277t-286 -233t-283 -166.5t-247 -60.5q-111 0 -185.5 59.5t-74.5 169.5q0 103 65 232.5t170 261
t232.5 272.5t257 282t239.5 272.5t184.5 261t86.5 231.5q3 6 10 6q6 0 6 -8q-15 -123 -91 -267t-185 -280t-238 -277.5t-254.5 -277t-228.5 -261t-167 -247t-64 -217.5q0 -97 68.5 -147t168.5 -50q111 0 252.5 64t290 175t291.5 243t284 286q183 374 414 627
q101 112 133 112q8 0 8 -10q0 -23 -37 -84q-148 -256 -440 -581zM1520 1425l79 103q5 8 13 8q7 0 13.5 -5.5t6.5 -12.5q0 -1 -6 -13l-94 -92q-2 -2 -6 -2q-6 0 -6 14zM1634 1425l78 103q5 8 12 8q8 0 14.5 -5.5t6.5 -12.5q0 -5 -4 -13l-94 -92q-2 -2 -7 -2q-6 0 -6 14z
M1804 1135q-161 -175 -321 -500q269 314 401 536q3 3 16 30.5t13 33.5q-19 0 -109 -100z" />
    <glyph glyph-name="uhungarumlaut" unicode="&#x171;" horiz-adv-x="495" 
d="M78 498l45 86q5 8 8 8q5 0 8.5 -6t3.5 -13l-2 -6v-2l-57 -78l-2 -2q-4 0 -4 13zM143 498l47 86q3 8 9 8q3 0 7.5 -5.5t4.5 -11.5q0 -2 -4 -10l-55 -78q0 -2 -5 -2q-4 0 -4 13zM516 422q4 0 8 -4.5t4 -7.5q-37 -40 -77 -77t-93 -78t-108 -66.5t-100 -26.5q-69 0 -74 65v11
q0 42 18 92q-93 -111 -139 -111q-12 0 -20.5 9t-8.5 28q1 24 17.5 62t31.5 62t27 42q10 16 37 16q18 0 18 -14q0 -11 -14 -31q-1 -2 -16 -22.5t-30 -42t-28 -46t-14 -36.5q0 -13 8 -13q40 2 160 160l18 29q9 12 29 12q25 0 25 -18q0 -8 -13 -27q-25 -34 -47 -86.5t-22 -89.5
q0 -35 41 -35q53 0 129 46.5t132.5 97.5t100.5 100z" />
    <glyph glyph-name="Zacute" unicode="&#x179;" horiz-adv-x="1738" 
d="M1303 1661l112 166q8 14 21 14q10 0 19 -10t9 -23q0 -2 -8 -18l-135 -148q-4 -4 -10 -4q-8 0 -8 23zM2073 1667q34 -7 34 -37q0 -59 -92.5 -121t-202.5 -88q-106 -130 -351 -472t-349 -480q14 -2 41 -2q161 0 250 80q4 4 6 4q6 0 6 -8q0 -4 -2 -6q-94 -86 -266 -86
q-31 0 -47 2q-203 -265 -384 -467t-354 -336q86 -21 278 -79.5t340.5 -90t289.5 -31.5q166 0 329.5 52.5t298.5 164.5q2 2 7 2q8 0 8 -8q0 -2 -4 -6q-137 -115 -303 -168t-334 -53q-144 0 -296.5 32.5t-345 92t-282.5 80.5q-268 -201 -481 -201q-65 0 -98 23t-33 61
q0 64 77.5 121t198.5 57q124 0 295 -35q156 129 328 326.5t383 470.5q-33 3 -157 21t-181 18q-138 0 -184 -80q-6 -6 -11 -6q-6 0 -6 6q0 4 2 6q52 90 199 90q59 0 185 -18.5t165 -22.5q54 70 185 243t200.5 263t171.5 216t182 216q-109 -16 -213 -16q-174 0 -499 40
t-426 40q-114 0 -175.5 -27t-64.5 -94q0 -8 -6 -8q-8 0 -8 8q1 75 66.5 106t189.5 31q99 0 423.5 -39t495.5 -39q138 0 236 19q209 233 285 233zM2042 1550q49 46 49 80q0 21 -20 21q-71 0 -242 -209q137 32 213 108zM-129 -549q182 6 422 199q-155 33 -281 33
q-113 0 -187.5 -52t-74.5 -110q0 -32 30 -51t91 -19z" />
    <glyph glyph-name="zacute" unicode="&#x17a;" horiz-adv-x="385" 
d="M135 573l74 95q5 8 12 8q6 0 12.5 -6t6.5 -13q0 -2 -4 -10l-89 -84q-2 -2 -6 -2q-6 0 -6 12zM416 422q2 0 7 -3t5 -7q-48 -64 -144.5 -125.5t-252.5 -139.5q-48 -105 -173.5 -248t-271.5 -267t-258 -183q-80 -41 -143 -41q-33 0 -52.5 17.5t-19.5 54.5q0 166 300 359
q143 92 473 255h1l1 1h1l1 1h1l1 1h1l1 1h1l1 1h1l1 1l84 41q43 74 43 107q0 16 -17 16h-12q-9 0 -15 10t-6 21q0 15 9 18q55 15 110.5 56t55.5 67q0 4 -9 4h-18q-44 0 -70 13q0 -21 -16.5 -44.5t-36.5 -39.5q-10 0 -10 12q49 43 49 76l-2 4q0 5 4 8.5t8 3.5t6 -2
q21 -14 70 -14h16q37 0 37 -31q0 -29 -39.5 -69.5t-87.5 -69.5q6 -15 6 -39q0 -39 -16 -78q145 72 237 131.5t138 120.5zM-690 -522q155 96 356 292t299 345q-38 -19 -131 -64.5t-140.5 -69.5t-126.5 -66.5t-128.5 -74.5t-104.5 -73.5t-94 -81.5q-112 -118 -112 -205
q0 -49 45 -53q49 0 137 51z" />
    <glyph glyph-name="Zdotaccent" unicode="&#x17b;" horiz-adv-x="1738" 
d="M1335 1690q-18 0 -18 14q0 21 18 42t39 21q19 0 19 -18q0 -19 -18.5 -39t-39.5 -20zM2073 1667q34 -7 34 -37q0 -59 -92.5 -121t-202.5 -88q-106 -130 -351 -472t-349 -480q14 -2 41 -2q161 0 250 80q4 4 6 4q6 0 6 -8q0 -4 -2 -6q-94 -86 -266 -86q-31 0 -47 2
q-203 -265 -384 -467t-354 -336q86 -21 278 -79.5t340.5 -90t289.5 -31.5q166 0 329.5 52.5t298.5 164.5q2 2 7 2q8 0 8 -8q0 -2 -4 -6q-137 -115 -303 -168t-334 -53q-144 0 -296.5 32.5t-345 92t-282.5 80.5q-268 -201 -481 -201q-65 0 -98 23t-33 61q0 64 77.5 121
t198.5 57q124 0 295 -35q156 129 328 326.5t383 470.5q-33 3 -157 21t-181 18q-138 0 -184 -80q-6 -6 -11 -6q-6 0 -6 6q0 4 2 6q52 90 199 90q59 0 185 -18.5t165 -22.5q54 70 185 243t200.5 263t171.5 216t182 216q-109 -16 -213 -16q-174 0 -499 40t-426 40
q-114 0 -175.5 -27t-64.5 -94q0 -8 -6 -8q-8 0 -8 8q1 75 66.5 106t189.5 31q99 0 423.5 -39t495.5 -39q138 0 236 19q209 233 285 233zM2042 1550q49 46 49 80q0 21 -20 21q-71 0 -242 -209q137 32 213 108zM-129 -549q182 6 422 199q-155 33 -281 33q-113 0 -187.5 -52
t-74.5 -110q0 -32 30 -51t91 -19z" />
    <glyph glyph-name="zdotaccent" unicode="&#x17c;" horiz-adv-x="385" 
d="M131 551q-14 0 -14 14q0 18 14 37t31 19q14 0 14 -17q0 -16 -14.5 -34.5t-30.5 -18.5zM416 422q2 0 7 -3t5 -7q-48 -64 -144.5 -125.5t-252.5 -139.5q-48 -105 -173.5 -248t-271.5 -267t-258 -183q-80 -41 -143 -41q-33 0 -52.5 17.5t-19.5 54.5q0 166 300 359
q143 92 473 255h1l1 1h1l1 1h1l1 1h1l1 1h1l1 1h1l1 1l84 41q43 74 43 107q0 16 -17 16h-12q-9 0 -15 10t-6 21q0 15 9 18q55 15 110.5 56t55.5 67q0 4 -9 4h-18q-44 0 -70 13q0 -21 -16.5 -44.5t-36.5 -39.5q-10 0 -10 12q49 43 49 76l-2 4q0 5 4 8.5t8 3.5t6 -2
q21 -14 70 -14h16q37 0 37 -31q0 -29 -39.5 -69.5t-87.5 -69.5q6 -15 6 -39q0 -39 -16 -78q145 72 237 131.5t138 120.5zM-690 -522q155 96 356 292t299 345q-38 -19 -131 -64.5t-140.5 -69.5t-126.5 -66.5t-128.5 -74.5t-104.5 -73.5t-94 -81.5q-112 -118 -112 -205
q0 -49 45 -53q49 0 137 51z" />
    <glyph glyph-name="Zcaron" unicode="&#x17d;" horiz-adv-x="1738" 
d="M1239 1780q0 16 14 16q8 0 15 -10q4 -22 17 -44t32 -22q16 0 31.5 7.5t30.5 23.5t24 27.5t22.5 32t16.5 24.5q8 8 14 8q8 0 16.5 -6.5t8.5 -13.5t-4 -11q-31 -42 -73.5 -79.5t-78.5 -38.5q-65 0 -86 86zM2073 1667q34 -7 34 -37q0 -59 -92.5 -121t-202.5 -88
q-106 -130 -351 -472t-349 -480q14 -2 41 -2q161 0 250 80q4 4 6 4q6 0 6 -8q0 -4 -2 -6q-94 -86 -266 -86q-31 0 -47 2q-203 -265 -384 -467t-354 -336q86 -21 278 -79.5t340.5 -90t289.5 -31.5q166 0 329.5 52.5t298.5 164.5q2 2 7 2q8 0 8 -8q0 -2 -4 -6
q-137 -115 -303 -168t-334 -53q-144 0 -296.5 32.5t-345 92t-282.5 80.5q-268 -201 -481 -201q-65 0 -98 23t-33 61q0 64 77.5 121t198.5 57q124 0 295 -35q156 129 328 326.5t383 470.5q-33 3 -157 21t-181 18q-138 0 -184 -80q-6 -6 -11 -6q-6 0 -6 6q0 4 2 6
q52 90 199 90q59 0 185 -18.5t165 -22.5q54 70 185 243t200.5 263t171.5 216t182 216q-109 -16 -213 -16q-174 0 -499 40t-426 40q-114 0 -175.5 -27t-64.5 -94q0 -8 -6 -8q-8 0 -8 8q1 75 66.5 106t189.5 31q99 0 423.5 -39t495.5 -39q138 0 236 19q209 233 285 233z
M2042 1550q49 46 49 80q0 21 -20 21q-71 0 -242 -209q137 32 213 108zM-129 -549q182 6 422 199q-155 33 -281 33q-113 0 -187.5 -52t-74.5 -110q0 -32 30 -51t91 -19z" />
    <glyph glyph-name="zcaron" unicode="&#x17e;" horiz-adv-x="385" 
d="M113 627q0 10 8 10q5 0 8 -6q2 -12 10 -26.5t19 -14.5q8 0 16 4t13.5 9t13 15t11 15t10 16t7.5 13q4 4 9 4t9.5 -4.5t4.5 -8.5t-2 -6q-16 -25 -41 -49t-47 -25q-36 0 -49 54zM416 422q2 0 7 -3t5 -7q-48 -64 -144.5 -125.5t-252.5 -139.5q-48 -105 -173.5 -248
t-271.5 -267t-258 -183q-80 -41 -143 -41q-33 0 -52.5 17.5t-19.5 54.5q0 166 300 359q143 92 473 255h1l1 1h1l1 1h1l1 1h1l1 1h1l1 1h1l1 1l84 41q43 74 43 107q0 16 -17 16h-12q-9 0 -15 10t-6 21q0 15 9 18q55 15 110.5 56t55.5 67q0 4 -9 4h-18q-44 0 -70 13
q0 -21 -16.5 -44.5t-36.5 -39.5q-10 0 -10 12q49 43 49 76l-2 4q0 5 4 8.5t8 3.5t6 -2q21 -14 70 -14h16q37 0 37 -31q0 -29 -39.5 -69.5t-87.5 -69.5q6 -15 6 -39q0 -39 -16 -78q145 72 237 131.5t138 120.5zM-690 -522q155 96 356 292t299 345q-38 -19 -131 -64.5
t-140.5 -69.5t-126.5 -66.5t-128.5 -74.5t-104.5 -73.5t-94 -81.5q-112 -118 -112 -205q0 -49 45 -53q49 0 137 51z" />
    <glyph glyph-name="Ohorn" unicode="&#x1a0;" horiz-adv-x="1884" 
d="M186 -737q-276 0 -276 245q0 98 47 218q-139 42 -209 145t-70 254q0 137 44 277t121.5 266t183 245.5t226.5 219t255 183.5t266.5 141.5t262.5 89.5t241 32q239 0 354 -141q36 10 61 30t25 35q0 7 -10 10q-43 6 -43 43q0 18 11.5 29.5t29.5 11.5q19 0 31 -12t12 -33
q0 -44 -29.5 -77t-79.5 -48q82 -113 82 -292q0 -244 -149.5 -565t-388.5 -619q137 58 262 122.5t262 159.5t219 189q12 0 12 -8q0 -7 -20 -27q-73 -84 -220.5 -180.5t-277 -162t-258.5 -120.5q-238 -290 -499 -472.5t-478 -188.5zM-37 -260q44 102 127.5 224t168 227.5
t164.5 209.5t132.5 203.5t56.5 177.5q0 6 9 6q8 0 8 -8q-4 -77 -31.5 -158t-71.5 -155.5t-97.5 -149t-114 -149.5t-116 -145t-108 -148t-84.5 -147q91 -21 199 -21q202 0 437 60t452 147q252 308 414.5 653t162.5 598q0 196 -102 291.5t-275 95.5q-141 0 -316 -60.5
t-350 -163t-342 -247t-295 -304.5t-206 -344t-78 -357q0 -127 67 -213t189 -123zM0 -287q-55 -119 -55 -231q0 -109 61 -157t162 -48q195 0 434.5 168t470.5 442q-500 -196 -866 -196q-120 0 -207 22z" />
    <glyph glyph-name="ohorn" unicode="&#x1a1;" horiz-adv-x="372" 
d="M401 422q11 0 11 -12q-126 -148 -258 -148q-43 0 -74 10q-55 -55 -100 -55q-43 0 -43 47q0 37 32 90q-4 2 -4 23q0 42 33.5 71t77.5 29q76 0 76 -82q30 10 50.5 28t20.5 30q0 7 -10 10q-37 3 -37 37q0 17 10.5 27t24.5 10q39 0 39 -41q0 -39 -27.5 -69t-72.5 -42
q-9 -44 -58 -100q30 -9 60 -9q122 0 249 146zM76 461q-39 0 -66.5 -24.5t-27.5 -63.5q2 3 10.5 14.5t13 16t12 12.5t15.5 11t16 3q12 0 22.5 -5t10.5 -13q0 -7 -11.5 -19t-30.5 -32t-32 -37q21 -21 68 -33q61 61 61 117q0 53 -61 53zM20 246q14 8 43 33q-34 5 -65 32
q-27 -44 -27 -65q0 -15 13 -15q6 0 36 15z" />
    <glyph glyph-name="Uhorn" unicode="&#x1af;" horiz-adv-x="1198" 
d="M948 582q-120 -253 -195 -507.5t-75 -453.5q0 -524 555 -524q8 0 8 -8q0 -2 -2.5 -4.5t-5.5 -2.5q-286 0 -438 143.5t-152 426.5q0 376 207 819q-141 -150 -282 -277t-286 -233t-283 -166.5t-247 -60.5q-111 0 -185.5 59.5t-74.5 169.5q0 103 65 232.5t170 261
t232.5 272.5t257 282t239.5 272.5t184.5 261t86.5 231.5q3 6 10 6q6 0 6 -8q-15 -123 -91 -267t-185 -280t-238 -277.5t-254.5 -277t-228.5 -261t-167 -247t-64 -217.5q0 -97 68.5 -147t168.5 -50q111 0 252.5 64t290 175t291.5 243t284 286q183 374 414 627
q101 112 133 112q8 0 8 -10q0 -7 -6 -22q34 11 57 30.5t23 32.5q0 8 -10 10q-43 6 -43 43q0 18 11.5 29.5t29.5 11.5q19 0 31 -12t12 -33q0 -44 -32 -78.5t-83 -48.5q-120 -240 -467 -628zM1296 1135q-161 -175 -321 -500q269 314 401 536q3 3 16 30.5t13 33.5
q-19 0 -109 -100z" />
    <glyph glyph-name="uhorn" unicode="&#x1b0;" horiz-adv-x="495" 
d="M516 422q4 0 8 -4.5t4 -7.5q-37 -40 -77 -77t-93 -78t-108 -66.5t-100 -26.5q-69 0 -74 65v11q0 42 18 92q-93 -111 -139 -111q-12 0 -20.5 9t-8.5 28q1 24 17.5 62t31.5 62t27 42q10 16 37 16q18 0 18 -14q0 -11 -14 -31q-1 -2 -16 -22.5t-30 -42t-28 -46t-14 -36.5
q0 -13 8 -13q40 2 160 160l18 29q9 12 29 12q25 0 25 -18q0 -8 -13 -27q26 10 43 25.5t17 25.5q0 8 -9 11q-38 6 -38 38q0 15 10.5 25t25.5 10q18 0 28.5 -10.5t10.5 -28.5q0 -39 -26.5 -68.5t-71.5 -43.5q-23 -35 -41 -81t-18 -79q0 -35 41 -35q53 0 129 46.5t132.5 97.5
t100.5 100z" />
    <glyph glyph-name="circumflex" unicode="&#x2c6;" horiz-adv-x="174" 
d="M18 1448q-8 0 -8 6q0 4 2 6q77 66 117 66q25 -1 32 -19t7 -47q0 -12 -14 -12q-13 0 -13 12q0 49 -20 49q-25 0 -103 -61z" />
    <glyph glyph-name="caron" unicode="&#x2c7;" horiz-adv-x="167" 
d="M0 1481q0 10 8 10q5 0 8 -6q2 -12 10 -26.5t19 -14.5q7 0 13.5 2.5t13 8t11 10t10.5 13.5l9 13.5t8.5 13.5t6.5 11q4 4 8 4q5 0 9.5 -4.5t4.5 -8.5t-2 -6q-16 -25 -41 -49t-47 -25q-36 0 -49 54z" />
    <glyph glyph-name="breve" unicode="&#x2d8;" horiz-adv-x="161" 
d="M0 1497q0 10 8 10q5 0 8 -6q2 -12 10 -26.5t19 -14.5q7 0 13.5 2.5t13 8t11 10t10.5 13.5l9 13.5t8.5 13.5t6.5 11q4 4 8 4q5 0 9.5 -4t4.5 -8t-2 -6q-16 -25 -41 -49t-47 -25q-36 0 -49 53z" />
    <glyph glyph-name="dotaccent" unicode="&#x2d9;" horiz-adv-x="90" 
d="M18 1448q-18 0 -18 12q0 16 17.5 32.5t37.5 16.5q19 0 19 -14t-18.5 -30.5t-37.5 -16.5z" />
    <glyph glyph-name="ring" unicode="&#x2da;" horiz-adv-x="126" 
d="M23 1481q-23 0 -23 18t18.5 36.5t42.5 18.5q29 0 29 -22q0 -18 -19.5 -34.5t-47.5 -16.5zM47 1538q-13 -1 -23 -10.5t-10 -18.5q0 -12 15 -12q11 0 21.5 10.5t10.5 20.5t-14 10z" />
    <glyph glyph-name="ogonek" unicode="&#x2db;" horiz-adv-x="155" 
d="M115 209q4 4 8 4q6 -2 6 -6q-6 -13 -53 -78.5t-49 -91.5q0 -25 36 -29q54 0 78 41q4 4 6 4q9 0 9 -8q0 -21 -32 -36t-56 -15q-68 0 -68 51q1 27 26 60.5t54.5 63t34.5 40.5z" />
    <glyph glyph-name="tilde" unicode="&#x2dc;" horiz-adv-x="339" 
d="M6 1446q-6 0 -6 8l2 2q58 53 117 53q28 0 76.5 -17t72.5 -17q34 0 66 22q6 0 6 -10l-2 -2q-52 -39 -105 -39q-30 0 -77.5 16.5t-69.5 16.5q-39 0 -80 -33z" />
    <glyph glyph-name="hungarumlaut" unicode="&#x2dd;" horiz-adv-x="233" 
d="M2 1444l74 94q5 8 12 8q6 0 12 -5.5t6 -12.5q0 -2 -4 -10l-88 -84q-2 -2 -6 -2q-6 0 -6 12zM109 1444l73 94q5 8 13 8q6 0 12 -5.5t6 -12.5q0 -2 -4 -10l-88 -84q-2 -2 -6 -2q-6 0 -6 12z" />
    <glyph glyph-name="uni1EA0" unicode="&#x1ea0;" horiz-adv-x="2312" 
d="M2955 1710q4 -8 4 -10q0 -26 -61.5 -66.5t-155.5 -89.5t-121 -67q-271 -253 -515.5 -592.5t-374.5 -644.5q78 -4 116 -4q279 0 434 114q5 3 22.5 21.5t34.5 34.5t21 16q11 0 11 -10q-158 -193 -529 -193q-6 0 -17 0.5t-38 1.5t-64 2q-151 -364 -151 -635
q0 -235 125.5 -378t357.5 -160q4 0 23 -0.5t31 -3t12 -7.5q0 -8 -6 -8q-188 0 -318.5 79t-192 213.5t-61.5 314.5q0 267 129 589q-111 11 -307 45q-88 -90 -163 -164.5t-175.5 -166.5t-188.5 -163.5t-191 -142.5t-194.5 -118t-188 -76t-181.5 -29q-197 0 -303.5 103
t-106.5 260q0 89 34 180t105.5 176.5t171 151t241.5 105.5t306 40q71 0 172 -13.5t181 -29.5t221 -45t215 -43q47 48 130.5 137.5t119.5 126.5l43 45q118 123 183 190t186 185t210.5 195.5t204.5 166t219 152.5q63 58 108 97t110.5 80.5t105.5 41.5q12 0 16 -4zM2935 1688
q10 8 10 12q-83 0 -264 -168q17 10 62 33t75 39t64.5 39.5t52.5 44.5zM1794 492q81 151 164.5 276t181.5 239.5t184 203t218 214.5q-97 -69 -199 -156.5t-205.5 -190.5t-182 -184.5t-187.5 -198t-162 -171.5q-152 -159 -228 -237q189 -34 299 -43q55 137 117 248zM82 -571
q77 0 166.5 29t176 75.5t184.5 117t183.5 141.5t182.5 162t171.5 166t160.5 165q-73 14 -211 42t-216.5 43t-178.5 28.5t-171 13.5q-161 0 -300.5 -39t-237 -103.5t-167.5 -147.5t-103 -171.5t-33 -175.5q0 -150 101.5 -248t291.5 -98zM1149 -477q-23 0 -23 16q0 22 21.5 45
t44.5 23q22 0 22 -19q0 -21 -21 -43t-44 -22z" />
    <glyph glyph-name="uni1EA1" unicode="&#x1ea1;" 
d="M545 422q10 0 10 -12q-36 -39 -76 -76t-93 -79t-108 -67.5t-100 -25.5q-32 0 -54 18t-22 56q0 44 19 96q-107 -99 -152 -99q-41 0 -41 37q0 50 54.5 108t101.5 58q38 0 68 -39q1 2 8 12t10.5 13t11 7.5t17.5 4.5q22 0 22 -18q0 -3 -41 -83.5t-41 -119.5q0 -35 39 -35
q77 0 181.5 78.5t185.5 165.5zM145 383q-33 33 -43 33q-27 0 -87 -61t-60 -91q0 -12 12 -12q24 0 77.5 41t100.5 90zM-109 72q-18 0 -18 12q0 19 17.5 38t35.5 19q21 0 21 -16q0 -17 -18.5 -35t-37.5 -18z" />
    <glyph glyph-name="uni1EA2" unicode="&#x1ea2;" horiz-adv-x="2312" 
d="M2959 1925q3 -4 0.5 -11.5t-1.5 -10.5t-3.5 -10t-5.5 -10t-7.5 -9.5t-9 -9.5t-10.5 -10l-12 -10.5t-12.5 -11t-13.5 -11.5q-9 0 -13 7q-2 2 0 3q4 3 13 10t12.5 10t9.5 8.5t9.5 11.5t6.5 13q8 14 2 36.5t-26 18.5l-10 -2l-7.5 -1.5t-5.5 -0.5q-15 -2 -18 7.5t14 19.5
q16 8 29 8q21 3 38.5 -10.5t20.5 -34.5zM2955 1710q4 -8 4 -10q0 -26 -61.5 -66.5t-155.5 -89.5t-121 -67q-271 -253 -515.5 -592.5t-374.5 -644.5q78 -4 116 -4q279 0 434 114q5 3 22.5 21.5t34.5 34.5t21 16q11 0 11 -10q-158 -193 -529 -193q-6 0 -17 0.5t-38 1.5t-64 2
q-151 -364 -151 -635q0 -235 125.5 -378t357.5 -160q4 0 23 -0.5t31 -3t12 -7.5q0 -8 -6 -8q-188 0 -318.5 79t-192 213.5t-61.5 314.5q0 267 129 589q-111 11 -307 45q-88 -90 -163 -164.5t-175.5 -166.5t-188.5 -163.5t-191 -142.5t-194.5 -118t-188 -76t-181.5 -29
q-197 0 -303.5 103t-106.5 260q0 89 34 180t105.5 176.5t171 151t241.5 105.5t306 40q71 0 172 -13.5t181 -29.5t221 -45t215 -43q47 48 130.5 137.5t119.5 126.5l43 45q118 123 183 190t186 185t210.5 195.5t204.5 166t219 152.5q63 58 108 97t110.5 80.5t105.5 41.5
q12 0 16 -4zM2935 1688q10 8 10 12q-83 0 -264 -168q17 10 62 33t75 39t64.5 39.5t52.5 44.5zM1794 492q81 151 164.5 276t181.5 239.5t184 203t218 214.5q-97 -69 -199 -156.5t-205.5 -190.5t-182 -184.5t-187.5 -198t-162 -171.5q-152 -159 -228 -237q189 -34 299 -43
q55 137 117 248zM82 -571q77 0 166.5 29t176 75.5t184.5 117t183.5 141.5t182.5 162t171.5 166t160.5 165q-73 14 -211 42t-216.5 43t-178.5 28.5t-171 13.5q-161 0 -300.5 -39t-237 -103.5t-167.5 -147.5t-103 -171.5t-33 -175.5q0 -150 101.5 -248t291.5 -98z" />
    <glyph glyph-name="uni1EA3" unicode="&#x1ea3;" 
d="M213 614q4 -18 -4.5 -38t-17 -30.5t-37.5 -43.5q-11 0 -14 7q0 2 1 3q35 38 41 57q4 17 -4 37t-26 15q-9 -3 -21 -9q-9 -2 -14 0.5t-3.5 9t11.5 15.5q11 9 25 12q19 6 37 -5t26 -30zM545 422q10 0 10 -12q-36 -39 -76 -76t-93 -79t-108 -67.5t-100 -25.5q-32 0 -54 18
t-22 56q0 44 19 96q-107 -99 -152 -99q-41 0 -41 37q0 50 54.5 108t101.5 58q38 0 68 -39q1 2 8 12t10.5 13t11 7.5t17.5 4.5q22 0 22 -18q0 -3 -41 -83.5t-41 -119.5q0 -35 39 -35q77 0 181.5 78.5t185.5 165.5zM145 383q-33 33 -43 33q-27 0 -87 -61t-60 -91q0 -12 12 -12
q24 0 77.5 41t100.5 90z" />
    <glyph glyph-name="uni1EA4" unicode="&#x1ea4;" horiz-adv-x="2312" 
d="M2933 1937l73 95q5 8 13 8q6 0 12 -6t6 -13q0 -2 -4 -10l-88 -84q-2 -2 -6 -2q-6 0 -6 12zM2796 1808q-9 0 -9 7q0 4 2 6q75 65 117 65q25 -1 32 -18.5t7 -46.5q0 -13 -14 -13q-13 0 -13 13q0 49 -20 49q-23 0 -102 -62zM2955 1710q4 -8 4 -10q0 -26 -61.5 -66.5
t-155.5 -89.5t-121 -67q-271 -253 -515.5 -592.5t-374.5 -644.5q78 -4 116 -4q279 0 434 114q5 3 22.5 21.5t34.5 34.5t21 16q11 0 11 -10q-158 -193 -529 -193q-6 0 -17 0.5t-38 1.5t-64 2q-151 -364 -151 -635q0 -235 125.5 -378t357.5 -160q4 0 23 -0.5t31 -3t12 -7.5
q0 -8 -6 -8q-188 0 -318.5 79t-192 213.5t-61.5 314.5q0 267 129 589q-111 11 -307 45q-88 -90 -163 -164.5t-175.5 -166.5t-188.5 -163.5t-191 -142.5t-194.5 -118t-188 -76t-181.5 -29q-197 0 -303.5 103t-106.5 260q0 89 34 180t105.5 176.5t171 151t241.5 105.5t306 40
q71 0 172 -13.5t181 -29.5t221 -45t215 -43q47 48 130.5 137.5t119.5 126.5l43 45q118 123 183 190t186 185t210.5 195.5t204.5 166t219 152.5q63 58 108 97t110.5 80.5t105.5 41.5q12 0 16 -4zM2935 1688q10 8 10 12q-83 0 -264 -168q17 10 62 33t75 39t64.5 39.5
t52.5 44.5zM1794 492q81 151 164.5 276t181.5 239.5t184 203t218 214.5q-97 -69 -199 -156.5t-205.5 -190.5t-182 -184.5t-187.5 -198t-162 -171.5q-152 -159 -228 -237q189 -34 299 -43q55 137 117 248zM82 -571q77 0 166.5 29t176 75.5t184.5 117t183.5 141.5t182.5 162
t171.5 166t160.5 165q-73 14 -211 42t-216.5 43t-178.5 28.5t-171 13.5q-161 0 -300.5 -39t-237 -103.5t-167.5 -147.5t-103 -171.5t-33 -175.5q0 -150 101.5 -248t291.5 -98z" />
    <glyph glyph-name="uni1EA5" unicode="&#x1ea5;" 
d="M156 639l73 94q5 8 13 8q6 0 12 -5.5t6 -12.5q0 -2 -4 -10l-88 -84q-2 -2 -6 -2q-6 0 -6 12zM18 510q-8 0 -8 6q0 4 2 6q77 66 117 66q25 -1 32 -19t7 -47q0 -12 -14 -12q-13 0 -13 12q0 49 -20 49q-25 0 -103 -61zM545 422q10 0 10 -12q-36 -39 -76 -76t-93 -79
t-108 -67.5t-100 -25.5q-32 0 -54 18t-22 56q0 44 19 96q-107 -99 -152 -99q-41 0 -41 37q0 50 54.5 108t101.5 58q38 0 68 -39q1 2 8 12t10.5 13t11 7.5t17.5 4.5q22 0 22 -18q0 -3 -41 -83.5t-41 -119.5q0 -35 39 -35q77 0 181.5 78.5t185.5 165.5zM145 383q-33 33 -43 33
q-27 0 -87 -61t-60 -91q0 -12 12 -12q24 0 77.5 41t100.5 90z" />
    <glyph glyph-name="uni1EA6" unicode="&#x1ea6;" horiz-adv-x="2312" 
d="M2828 2062l78 -129q3 -4 1 -7.5t-6 -3.5t-7 3l-92 119q-7 9 -3 17.5t12.5 9t16.5 -8.5zM2796 1808q-9 0 -9 7q0 4 2 6q75 65 117 65q25 -1 32 -18.5t7 -46.5q0 -13 -14 -13q-13 0 -13 13q0 49 -20 49q-23 0 -102 -62zM2955 1710q4 -8 4 -10q0 -26 -61.5 -66.5
t-155.5 -89.5t-121 -67q-271 -253 -515.5 -592.5t-374.5 -644.5q78 -4 116 -4q279 0 434 114q5 3 22.5 21.5t34.5 34.5t21 16q11 0 11 -10q-158 -193 -529 -193q-6 0 -17 0.5t-38 1.5t-64 2q-151 -364 -151 -635q0 -235 125.5 -378t357.5 -160q4 0 23 -0.5t31 -3t12 -7.5
q0 -8 -6 -8q-188 0 -318.5 79t-192 213.5t-61.5 314.5q0 267 129 589q-111 11 -307 45q-88 -90 -163 -164.5t-175.5 -166.5t-188.5 -163.5t-191 -142.5t-194.5 -118t-188 -76t-181.5 -29q-197 0 -303.5 103t-106.5 260q0 89 34 180t105.5 176.5t171 151t241.5 105.5t306 40
q71 0 172 -13.5t181 -29.5t221 -45t215 -43q47 48 130.5 137.5t119.5 126.5l43 45q118 123 183 190t186 185t210.5 195.5t204.5 166t219 152.5q63 58 108 97t110.5 80.5t105.5 41.5q12 0 16 -4zM2935 1688q10 8 10 12q-83 0 -264 -168q17 10 62 33t75 39t64.5 39.5
t52.5 44.5zM1794 492q81 151 164.5 276t181.5 239.5t184 203t218 214.5q-97 -69 -199 -156.5t-205.5 -190.5t-182 -184.5t-187.5 -198t-162 -171.5q-152 -159 -228 -237q189 -34 299 -43q55 137 117 248zM82 -571q77 0 166.5 29t176 75.5t184.5 117t183.5 141.5t182.5 162
t171.5 166t160.5 165q-73 14 -211 42t-216.5 43t-178.5 28.5t-171 13.5q-161 0 -300.5 -39t-237 -103.5t-167.5 -147.5t-103 -171.5t-33 -175.5q0 -150 101.5 -248t291.5 -98z" />
    <glyph glyph-name="uni1EA7" unicode="&#x1ea7;" 
d="M51 764l78 -129q3 -4 1 -7.5t-6 -3.5t-7 3l-92 118q-7 9 -3 17.5t12.5 9.5t16.5 -8zM18 510q-8 0 -8 6q0 4 2 6q77 66 117 66q25 -1 32 -19t7 -47q0 -12 -14 -12q-13 0 -13 12q0 49 -20 49q-25 0 -103 -61zM545 422q10 0 10 -12q-36 -39 -76 -76t-93 -79t-108 -67.5
t-100 -25.5q-32 0 -54 18t-22 56q0 44 19 96q-107 -99 -152 -99q-41 0 -41 37q0 50 54.5 108t101.5 58q38 0 68 -39q1 2 8 12t10.5 13t11 7.5t17.5 4.5q22 0 22 -18q0 -3 -41 -83.5t-41 -119.5q0 -35 39 -35q77 0 181.5 78.5t185.5 165.5zM145 383q-33 33 -43 33
q-27 0 -87 -61t-60 -91q0 -12 12 -12q24 0 77.5 41t100.5 90z" />
    <glyph glyph-name="uni1EA8" unicode="&#x1ea8;" horiz-adv-x="2312" 
d="M2980 2050q5 -25 -7 -46t-44 -57q-6 -7 -9 -10q-5 0 -10 4t-2 7q35 38 41 57q4 17 -4.5 36.5t-26.5 14.5q-12 -4 -20 -8q-9 -2 -14 0.5t-3.5 9t11.5 15.5q12 9 24 12q19 6 37.5 -5.5t26.5 -29.5zM2796 1808q-9 0 -9 7q0 4 2 6q75 65 117 65q25 -1 32 -18.5t7 -46.5
q0 -13 -14 -13q-13 0 -13 13q0 49 -20 49q-23 0 -102 -62zM2955 1710q4 -8 4 -10q0 -26 -61.5 -66.5t-155.5 -89.5t-121 -67q-271 -253 -515.5 -592.5t-374.5 -644.5q78 -4 116 -4q279 0 434 114q5 3 22.5 21.5t34.5 34.5t21 16q11 0 11 -10q-158 -193 -529 -193
q-6 0 -17 0.5t-38 1.5t-64 2q-151 -364 -151 -635q0 -235 125.5 -378t357.5 -160q4 0 23 -0.5t31 -3t12 -7.5q0 -8 -6 -8q-188 0 -318.5 79t-192 213.5t-61.5 314.5q0 267 129 589q-111 11 -307 45q-88 -90 -163 -164.5t-175.5 -166.5t-188.5 -163.5t-191 -142.5
t-194.5 -118t-188 -76t-181.5 -29q-197 0 -303.5 103t-106.5 260q0 89 34 180t105.5 176.5t171 151t241.5 105.5t306 40q71 0 172 -13.5t181 -29.5t221 -45t215 -43q47 48 130.5 137.5t119.5 126.5l43 45q118 123 183 190t186 185t210.5 195.5t204.5 166t219 152.5
q63 58 108 97t110.5 80.5t105.5 41.5q12 0 16 -4zM2935 1688q10 8 10 12q-83 0 -264 -168q17 10 62 33t75 39t64.5 39.5t52.5 44.5zM1794 492q81 151 164.5 276t181.5 239.5t184 203t218 214.5q-97 -69 -199 -156.5t-205.5 -190.5t-182 -184.5t-187.5 -198t-162 -171.5
q-152 -159 -228 -237q189 -34 299 -43q55 137 117 248zM82 -571q77 0 166.5 29t176 75.5t184.5 117t183.5 141.5t182.5 162t171.5 166t160.5 165q-73 14 -211 42t-216.5 43t-178.5 28.5t-171 13.5q-161 0 -300.5 -39t-237 -103.5t-167.5 -147.5t-103 -171.5t-33 -175.5
q0 -150 101.5 -248t291.5 -98z" />
    <glyph glyph-name="uni1EA9" unicode="&#x1ea9;" 
d="M221 752q4 -19 -4.5 -38.5t-17.5 -31t-37 -43.5q-3 0 -6.5 1.5t-5.5 4t0 4.5q32 36 40 58q4 17 -4 36.5t-26 14.5q-15 -5 -21 -8q-9 -2 -14 0.5t-3.5 8.5t11.5 15q11 9 25 12q19 6 37 -5t26 -29zM37 510q-8 0 -8 6q0 4 2 6q77 66 116 66q25 -1 32 -19t7 -47
q0 -12 -14 -12q-12 0 -12 12q0 49 -21 49q-24 0 -102 -61zM545 422q10 0 10 -12q-36 -39 -76 -76t-93 -79t-108 -67.5t-100 -25.5q-32 0 -54 18t-22 56q0 44 19 96q-107 -99 -152 -99q-41 0 -41 37q0 50 54.5 108t101.5 58q38 0 68 -39q1 2 8 12t10.5 13t11 7.5t17.5 4.5
q22 0 22 -18q0 -3 -41 -83.5t-41 -119.5q0 -35 39 -35q77 0 181.5 78.5t185.5 165.5zM145 383q-33 33 -43 33q-27 0 -87 -61t-60 -91q0 -12 12 -12q24 0 77.5 41t100.5 90z" />
    <glyph glyph-name="uni1EAA" unicode="&#x1eaa;" horiz-adv-x="2312" 
d="M2740 1939q-6 0 -6 9l2 2q58 53 117 53q28 0 76.5 -17.5t72.5 -17.5q33 0 66 23q6 0 6 -11l-2 -2q-52 -39 -104 -39q-30 0 -78 16.5t-70 16.5q-39 0 -80 -33zM2796 1808q-9 0 -9 7q0 4 2 6q75 65 117 65q25 -1 32 -18.5t7 -46.5q0 -13 -14 -13q-13 0 -13 13q0 49 -20 49
q-23 0 -102 -62zM2955 1710q4 -8 4 -10q0 -26 -61.5 -66.5t-155.5 -89.5t-121 -67q-271 -253 -515.5 -592.5t-374.5 -644.5q78 -4 116 -4q279 0 434 114q5 3 22.5 21.5t34.5 34.5t21 16q11 0 11 -10q-158 -193 -529 -193q-6 0 -17 0.5t-38 1.5t-64 2q-151 -364 -151 -635
q0 -235 125.5 -378t357.5 -160q4 0 23 -0.5t31 -3t12 -7.5q0 -8 -6 -8q-188 0 -318.5 79t-192 213.5t-61.5 314.5q0 267 129 589q-111 11 -307 45q-88 -90 -163 -164.5t-175.5 -166.5t-188.5 -163.5t-191 -142.5t-194.5 -118t-188 -76t-181.5 -29q-197 0 -303.5 103
t-106.5 260q0 89 34 180t105.5 176.5t171 151t241.5 105.5t306 40q71 0 172 -13.5t181 -29.5t221 -45t215 -43q47 48 130.5 137.5t119.5 126.5l43 45q118 123 183 190t186 185t210.5 195.5t204.5 166t219 152.5q63 58 108 97t110.5 80.5t105.5 41.5q12 0 16 -4zM2935 1688
q10 8 10 12q-83 0 -264 -168q17 10 62 33t75 39t64.5 39.5t52.5 44.5zM1794 492q81 151 164.5 276t181.5 239.5t184 203t218 214.5q-97 -69 -199 -156.5t-205.5 -190.5t-182 -184.5t-187.5 -198t-162 -171.5q-152 -159 -228 -237q189 -34 299 -43q55 137 117 248zM82 -571
q77 0 166.5 29t176 75.5t184.5 117t183.5 141.5t182.5 162t171.5 166t160.5 165q-73 14 -211 42t-216.5 43t-178.5 28.5t-171 13.5q-161 0 -300.5 -39t-237 -103.5t-167.5 -147.5t-103 -171.5t-33 -175.5q0 -150 101.5 -248t291.5 -98z" />
    <glyph glyph-name="uni1EAB" unicode="&#x1eab;" 
d="M47 623q-4 0 -4 6q2 2 2 4q35 45 72 45q18 0 48.5 -15.5t45.5 -15.5q20 0 41 21q4 0 4 -9l-2 -4q-30 -32 -66 -32q-18 0 -47.5 14t-44.5 14q-24 0 -49 -28zM37 510q-8 0 -8 6q0 4 2 6q77 66 116 66q25 -1 32 -19t7 -47q0 -12 -14 -12q-12 0 -12 12q0 49 -21 49
q-24 0 -102 -61zM545 422q10 0 10 -12q-36 -39 -76 -76t-93 -79t-108 -67.5t-100 -25.5q-32 0 -54 18t-22 56q0 44 19 96q-107 -99 -152 -99q-41 0 -41 37q0 50 54.5 108t101.5 58q38 0 68 -39q1 2 8 12t10.5 13t11 7.5t17.5 4.5q22 0 22 -18q0 -3 -41 -83.5t-41 -119.5
q0 -35 39 -35q77 0 181.5 78.5t185.5 165.5zM145 383q-33 33 -43 33q-27 0 -87 -61t-60 -91q0 -12 12 -12q24 0 77.5 41t100.5 90z" />
    <glyph glyph-name="uni1EAC" unicode="&#x1eac;" horiz-adv-x="2312" 
d="M2796 1808q-9 0 -9 7q0 4 2 6q75 65 117 65q25 -1 32 -18.5t7 -46.5q0 -13 -14 -13q-13 0 -13 13q0 49 -20 49q-23 0 -102 -62zM2955 1710q4 -8 4 -10q0 -26 -61.5 -66.5t-155.5 -89.5t-121 -67q-271 -253 -515.5 -592.5t-374.5 -644.5q78 -4 116 -4q279 0 434 114
q5 3 22.5 21.5t34.5 34.5t21 16q11 0 11 -10q-158 -193 -529 -193q-6 0 -17 0.5t-38 1.5t-64 2q-151 -364 -151 -635q0 -235 125.5 -378t357.5 -160q4 0 23 -0.5t31 -3t12 -7.5q0 -8 -6 -8q-188 0 -318.5 79t-192 213.5t-61.5 314.5q0 267 129 589q-111 11 -307 45
q-88 -90 -163 -164.5t-175.5 -166.5t-188.5 -163.5t-191 -142.5t-194.5 -118t-188 -76t-181.5 -29q-197 0 -303.5 103t-106.5 260q0 89 34 180t105.5 176.5t171 151t241.5 105.5t306 40q71 0 172 -13.5t181 -29.5t221 -45t215 -43q47 48 130.5 137.5t119.5 126.5l43 45
q118 123 183 190t186 185t210.5 195.5t204.5 166t219 152.5q63 58 108 97t110.5 80.5t105.5 41.5q12 0 16 -4zM2935 1688q10 8 10 12q-83 0 -264 -168q17 10 62 33t75 39t64.5 39.5t52.5 44.5zM1794 492q81 151 164.5 276t181.5 239.5t184 203t218 214.5
q-97 -69 -199 -156.5t-205.5 -190.5t-182 -184.5t-187.5 -198t-162 -171.5q-152 -159 -228 -237q189 -34 299 -43q55 137 117 248zM82 -571q77 0 166.5 29t176 75.5t184.5 117t183.5 141.5t182.5 162t171.5 166t160.5 165q-73 14 -211 42t-216.5 43t-178.5 28.5t-171 13.5
q-161 0 -300.5 -39t-237 -103.5t-167.5 -147.5t-103 -171.5t-33 -175.5q0 -150 101.5 -248t291.5 -98zM1149 -477q-23 0 -23 16q0 22 21.5 45t44.5 23q22 0 22 -19q0 -21 -21 -43t-44 -22z" />
    <glyph glyph-name="uni1EAD" unicode="&#x1ead;" 
d="M37 510q-8 0 -8 6q0 4 2 6q77 66 116 66q25 -1 32 -19t7 -47q0 -12 -14 -12q-12 0 -12 12q0 49 -21 49q-24 0 -102 -61zM545 422q10 0 10 -12q-36 -39 -76 -76t-93 -79t-108 -67.5t-100 -25.5q-32 0 -54 18t-22 56q0 44 19 96q-107 -99 -152 -99q-41 0 -41 37
q0 50 54.5 108t101.5 58q38 0 68 -39q1 2 8 12t10.5 13t11 7.5t17.5 4.5q22 0 22 -18q0 -3 -41 -83.5t-41 -119.5q0 -35 39 -35q77 0 181.5 78.5t185.5 165.5zM145 383q-33 33 -43 33q-27 0 -87 -61t-60 -91q0 -12 12 -12q24 0 77.5 41t100.5 90zM-109 70q-18 0 -18 14
q0 19 17.5 38t35.5 19q19 0 19 -16q0 -18 -18 -36.5t-36 -18.5z" />
    <glyph glyph-name="uni1EAE" unicode="&#x1eae;" horiz-adv-x="2312" 
d="M2933 1935l73 95q5 8 13 8q6 0 12 -6t6 -13q0 -2 -4 -10l-88 -84q-2 -2 -6 -2q-6 0 -6 12zM2877 1870q0 12 11 12q5 0 8 -6q14 -49 35 -49q7 0 14 3t13 6.5t12.5 10.5t11 11.5t10.5 14t8.5 13.5t8 13.5t6.5 11.5q6 6 10 6q5 0 10.5 -5t5.5 -9q0 -7 -2 -9
q-58 -84 -104 -86q-41 0 -58 62zM2955 1710q4 -8 4 -10q0 -26 -61.5 -66.5t-155.5 -89.5t-121 -67q-271 -253 -515.5 -592.5t-374.5 -644.5q78 -4 116 -4q279 0 434 114q5 3 22.5 21.5t34.5 34.5t21 16q11 0 11 -10q-158 -193 -529 -193q-6 0 -17 0.5t-38 1.5t-64 2
q-151 -364 -151 -635q0 -235 125.5 -378t357.5 -160q4 0 23 -0.5t31 -3t12 -7.5q0 -8 -6 -8q-188 0 -318.5 79t-192 213.5t-61.5 314.5q0 267 129 589q-111 11 -307 45q-88 -90 -163 -164.5t-175.5 -166.5t-188.5 -163.5t-191 -142.5t-194.5 -118t-188 -76t-181.5 -29
q-197 0 -303.5 103t-106.5 260q0 89 34 180t105.5 176.5t171 151t241.5 105.5t306 40q71 0 172 -13.5t181 -29.5t221 -45t215 -43q47 48 130.5 137.5t119.5 126.5l43 45q118 123 183 190t186 185t210.5 195.5t204.5 166t219 152.5q63 58 108 97t110.5 80.5t105.5 41.5
q12 0 16 -4zM2935 1688q10 8 10 12q-83 0 -264 -168q17 10 62 33t75 39t64.5 39.5t52.5 44.5zM1794 492q81 151 164.5 276t181.5 239.5t184 203t218 214.5q-97 -69 -199 -156.5t-205.5 -190.5t-182 -184.5t-187.5 -198t-162 -171.5q-152 -159 -228 -237q189 -34 299 -43
q55 137 117 248zM82 -571q77 0 166.5 29t176 75.5t184.5 117t183.5 141.5t182.5 162t171.5 166t160.5 165q-73 14 -211 42t-216.5 43t-178.5 28.5t-171 13.5q-161 0 -300.5 -39t-237 -103.5t-167.5 -147.5t-103 -171.5t-33 -175.5q0 -150 101.5 -248t291.5 -98z" />
    <glyph glyph-name="uni1EAF" unicode="&#x1eaf;" 
d="M139 627l74 94q5 8 12 8q6 0 12.5 -5.5t6.5 -12.5q0 -3 -4 -11l-88 -84q-2 -2 -7 -2q-6 0 -6 13zM84 561q0 12 10 12q5 0 8 -6q14 -49 35 -49q7 0 14 3t13 6.5t12.5 10.5t11 11.5t10.5 14t8.5 13.5t8 13.5t6.5 11.5q6 6 10 6q5 0 11 -5t6 -9q0 -6 -2 -8
q-21 -30 -50 -57.5t-55 -28.5q-40 0 -57 61zM545 422q10 0 10 -12q-36 -39 -76 -76t-93 -79t-108 -67.5t-100 -25.5q-32 0 -54 18t-22 56q0 44 19 96q-107 -99 -152 -99q-41 0 -41 37q0 50 54.5 108t101.5 58q38 0 68 -39q1 2 8 12t10.5 13t11 7.5t17.5 4.5q22 0 22 -18
q0 -3 -41 -83.5t-41 -119.5q0 -35 39 -35q77 0 181.5 78.5t185.5 165.5zM145 383q-33 33 -43 33q-27 0 -87 -61t-60 -91q0 -12 12 -12q24 0 77.5 41t100.5 90z" />
    <glyph glyph-name="uni1EB0" unicode="&#x1eb0;" horiz-adv-x="2312" 
d="M2877 2056l78 -129q3 -4 1 -7.5t-6 -3.5t-7 3l-92 119q-7 9 -3 17.5t12.5 9t16.5 -8.5zM2877 1870q0 12 11 12q5 0 8 -6q14 -49 35 -49q7 0 14 3t13 6.5t12.5 10.5t11 11.5t10.5 14t8.5 13.5t8 13.5t6.5 11.5q6 6 10 6q5 0 10.5 -5t5.5 -9q0 -7 -2 -9q-58 -84 -104 -86
q-41 0 -58 62zM2955 1710q4 -8 4 -10q0 -26 -61.5 -66.5t-155.5 -89.5t-121 -67q-271 -253 -515.5 -592.5t-374.5 -644.5q78 -4 116 -4q279 0 434 114q5 3 22.5 21.5t34.5 34.5t21 16q11 0 11 -10q-158 -193 -529 -193q-6 0 -17 0.5t-38 1.5t-64 2q-151 -364 -151 -635
q0 -235 125.5 -378t357.5 -160q4 0 23 -0.5t31 -3t12 -7.5q0 -8 -6 -8q-188 0 -318.5 79t-192 213.5t-61.5 314.5q0 267 129 589q-111 11 -307 45q-88 -90 -163 -164.5t-175.5 -166.5t-188.5 -163.5t-191 -142.5t-194.5 -118t-188 -76t-181.5 -29q-197 0 -303.5 103
t-106.5 260q0 89 34 180t105.5 176.5t171 151t241.5 105.5t306 40q71 0 172 -13.5t181 -29.5t221 -45t215 -43q47 48 130.5 137.5t119.5 126.5l43 45q118 123 183 190t186 185t210.5 195.5t204.5 166t219 152.5q63 58 108 97t110.5 80.5t105.5 41.5q12 0 16 -4zM2935 1688
q10 8 10 12q-83 0 -264 -168q17 10 62 33t75 39t64.5 39.5t52.5 44.5zM1794 492q81 151 164.5 276t181.5 239.5t184 203t218 214.5q-97 -69 -199 -156.5t-205.5 -190.5t-182 -184.5t-187.5 -198t-162 -171.5q-152 -159 -228 -237q189 -34 299 -43q55 137 117 248zM82 -571
q77 0 166.5 29t176 75.5t184.5 117t183.5 141.5t182.5 162t171.5 166t160.5 165q-73 14 -211 42t-216.5 43t-178.5 28.5t-171 13.5q-161 0 -300.5 -39t-237 -103.5t-167.5 -147.5t-103 -171.5t-33 -175.5q0 -150 101.5 -248t291.5 -98z" />
    <glyph glyph-name="uni1EB1" unicode="&#x1eb1;" 
d="M84 748l78 -130q3 -4 1 -7.5t-6 -3.5t-7 3l-93 119q-7 9 -2.5 17.5t13 9.5t16.5 -8zM84 561q0 12 10 12q5 0 8 -6q14 -49 35 -49q7 0 14 3t13 6.5t12.5 10.5t11 11.5t10.5 14t8.5 13.5t8 13.5t6.5 11.5q6 6 10 6q5 0 11 -5t6 -9q0 -6 -2 -8q-21 -30 -50 -57.5t-55 -28.5
q-40 0 -57 61zM545 422q10 0 10 -12q-36 -39 -76 -76t-93 -79t-108 -67.5t-100 -25.5q-32 0 -54 18t-22 56q0 44 19 96q-107 -99 -152 -99q-41 0 -41 37q0 50 54.5 108t101.5 58q38 0 68 -39q1 2 8 12t10.5 13t11 7.5t17.5 4.5q22 0 22 -18q0 -3 -41 -83.5t-41 -119.5
q0 -35 39 -35q77 0 181.5 78.5t185.5 165.5zM145 383q-33 33 -43 33q-27 0 -87 -61t-60 -91q0 -12 12 -12q24 0 77.5 41t100.5 90z" />
    <glyph glyph-name="uni1EB2" unicode="&#x1eb2;" horiz-adv-x="2312" 
d="M3004 2058q4 -18 -4.5 -38t-17 -30.5t-37.5 -43.5q-3 0 -6.5 1.5t-5.5 4t0 4.5q35 38 41 57q4 17 -4.5 36.5t-26.5 14.5q-15 -5 -21 -8q-9 -2 -14 0.5t-3.5 9t11.5 15.5q12 9 25 12q19 6 37 -5t26 -30zM2877 1870q0 12 11 12q5 0 8 -6q14 -49 35 -49q7 0 14 3t13 6.5
t12.5 10.5t11 11.5t10.5 14t8.5 13.5t8 13.5t6.5 11.5q6 6 10 6q5 0 10.5 -5t5.5 -9q0 -7 -2 -9q-58 -84 -104 -86q-41 0 -58 62zM2955 1710q4 -8 4 -10q0 -26 -61.5 -66.5t-155.5 -89.5t-121 -67q-271 -253 -515.5 -592.5t-374.5 -644.5q78 -4 116 -4q279 0 434 114
q5 3 22.5 21.5t34.5 34.5t21 16q11 0 11 -10q-158 -193 -529 -193q-6 0 -17 0.5t-38 1.5t-64 2q-151 -364 -151 -635q0 -235 125.5 -378t357.5 -160q4 0 23 -0.5t31 -3t12 -7.5q0 -8 -6 -8q-188 0 -318.5 79t-192 213.5t-61.5 314.5q0 267 129 589q-111 11 -307 45
q-88 -90 -163 -164.5t-175.5 -166.5t-188.5 -163.5t-191 -142.5t-194.5 -118t-188 -76t-181.5 -29q-197 0 -303.5 103t-106.5 260q0 89 34 180t105.5 176.5t171 151t241.5 105.5t306 40q71 0 172 -13.5t181 -29.5t221 -45t215 -43q47 48 130.5 137.5t119.5 126.5l43 45
q118 123 183 190t186 185t210.5 195.5t204.5 166t219 152.5q63 58 108 97t110.5 80.5t105.5 41.5q12 0 16 -4zM2935 1688q10 8 10 12q-83 0 -264 -168q17 10 62 33t75 39t64.5 39.5t52.5 44.5zM1794 492q81 151 164.5 276t181.5 239.5t184 203t218 214.5
q-97 -69 -199 -156.5t-205.5 -190.5t-182 -184.5t-187.5 -198t-162 -171.5q-152 -159 -228 -237q189 -34 299 -43q55 137 117 248zM82 -571q77 0 166.5 29t176 75.5t184.5 117t183.5 141.5t182.5 162t171.5 166t160.5 165q-73 14 -211 42t-216.5 43t-178.5 28.5t-171 13.5
q-161 0 -300.5 -39t-237 -103.5t-167.5 -147.5t-103 -171.5t-33 -175.5q0 -150 101.5 -248t291.5 -98z" />
    <glyph glyph-name="uni1EB3" unicode="&#x1eb3;" 
d="M211 750q4 -19 -4.5 -38.5t-17.5 -31t-37 -43.5q-11 0 -14 7q0 2 1 3q34 38 41 58q4 17 -4 36.5t-26 14.5q-15 -5 -21 -8q-9 -2 -14 0.5t-3.5 8.5t11.5 15q12 9 24 12q19 6 37.5 -5t26.5 -29zM84 561q0 12 10 12q5 0 8 -6q14 -49 35 -49q7 0 14 3t13 6.5t12.5 10.5
t11 11.5t10.5 14t8.5 13.5t8 13.5t6.5 11.5q6 6 10 6q5 0 11 -5t6 -9q0 -6 -2 -8q-21 -30 -50 -57.5t-55 -28.5q-40 0 -57 61zM545 422q10 0 10 -12q-36 -39 -76 -76t-93 -79t-108 -67.5t-100 -25.5q-32 0 -54 18t-22 56q0 44 19 96q-107 -99 -152 -99q-41 0 -41 37
q0 50 54.5 108t101.5 58q38 0 68 -39q1 2 8 12t10.5 13t11 7.5t17.5 4.5q22 0 22 -18q0 -3 -41 -83.5t-41 -119.5q0 -35 39 -35q77 0 181.5 78.5t185.5 165.5zM145 383q-33 33 -43 33q-27 0 -87 -61t-60 -91q0 -12 12 -12q24 0 77.5 41t100.5 90z" />
    <glyph glyph-name="uni1EB4" unicode="&#x1eb4;" horiz-adv-x="2312" 
d="M2787 1952q-6 0 -6 8l2 2q58 53 117 53q28 0 76.5 -17.5t72.5 -17.5q33 0 66 23q6 0 6 -10l-2 -2q-52 -39 -104 -39q-30 0 -78 16.5t-70 16.5q-39 0 -80 -33zM2877 1870q0 12 11 12q5 0 8 -6q14 -49 35 -49q7 0 14 3t13 6.5t12.5 10.5t11 11.5t10.5 14t8.5 13.5t8 13.5
t6.5 11.5q6 6 10 6q5 0 10.5 -5t5.5 -9q0 -7 -2 -9q-58 -84 -104 -86q-41 0 -58 62zM2955 1710q4 -8 4 -10q0 -26 -61.5 -66.5t-155.5 -89.5t-121 -67q-271 -253 -515.5 -592.5t-374.5 -644.5q78 -4 116 -4q279 0 434 114q5 3 22.5 21.5t34.5 34.5t21 16q11 0 11 -10
q-158 -193 -529 -193q-6 0 -17 0.5t-38 1.5t-64 2q-151 -364 -151 -635q0 -235 125.5 -378t357.5 -160q4 0 23 -0.5t31 -3t12 -7.5q0 -8 -6 -8q-188 0 -318.5 79t-192 213.5t-61.5 314.5q0 267 129 589q-111 11 -307 45q-88 -90 -163 -164.5t-175.5 -166.5t-188.5 -163.5
t-191 -142.5t-194.5 -118t-188 -76t-181.5 -29q-197 0 -303.5 103t-106.5 260q0 89 34 180t105.5 176.5t171 151t241.5 105.5t306 40q71 0 172 -13.5t181 -29.5t221 -45t215 -43q47 48 130.5 137.5t119.5 126.5l43 45q118 123 183 190t186 185t210.5 195.5t204.5 166
t219 152.5q63 58 108 97t110.5 80.5t105.5 41.5q12 0 16 -4zM2935 1688q10 8 10 12q-83 0 -264 -168q17 10 62 33t75 39t64.5 39.5t52.5 44.5zM1794 492q81 151 164.5 276t181.5 239.5t184 203t218 214.5q-97 -69 -199 -156.5t-205.5 -190.5t-182 -184.5t-187.5 -198
t-162 -171.5q-152 -159 -228 -237q189 -34 299 -43q55 137 117 248zM82 -571q77 0 166.5 29t176 75.5t184.5 117t183.5 141.5t182.5 162t171.5 166t160.5 165q-73 14 -211 42t-216.5 43t-178.5 28.5t-171 13.5q-161 0 -300.5 -39t-237 -103.5t-167.5 -147.5t-103 -171.5
t-33 -175.5q0 -150 101.5 -248t291.5 -98z" />
    <glyph glyph-name="uni1EB5" unicode="&#x1eb5;" 
d="M76 643q-4 0 -4 6q2 2 2 4q35 45 71 45q18 0 49 -15t46 -15q21 0 41 20q4 0 4 -8l-2 -4q-31 -33 -66 -33q-18 0 -47.5 14.5t-44.5 14.5q-23 0 -49 -29zM84 561q0 12 10 12q5 0 8 -6q14 -49 35 -49q7 0 14 3t13 6.5t12.5 10.5t11 11.5t10.5 14t8.5 13.5t8 13.5t6.5 11.5
q6 6 10 6q5 0 11 -5t6 -9q0 -6 -2 -8q-21 -30 -50 -57.5t-55 -28.5q-40 0 -57 61zM545 422q10 0 10 -12q-36 -39 -76 -76t-93 -79t-108 -67.5t-100 -25.5q-32 0 -54 18t-22 56q0 44 19 96q-107 -99 -152 -99q-41 0 -41 37q0 50 54.5 108t101.5 58q38 0 68 -39q1 2 8 12
t10.5 13t11 7.5t17.5 4.5q22 0 22 -18q0 -3 -41 -83.5t-41 -119.5q0 -35 39 -35q77 0 181.5 78.5t185.5 165.5zM145 383q-33 33 -43 33q-27 0 -87 -61t-60 -91q0 -12 12 -12q24 0 77.5 41t100.5 90z" />
    <glyph glyph-name="uni1EB6" unicode="&#x1eb6;" horiz-adv-x="2312" 
d="M2877 1870q0 12 11 12q5 0 8 -6q14 -49 35 -49q7 0 14 3t13 6.5t12.5 10.5t11 11.5t10.5 14t8.5 13.5t8 13.5t6.5 11.5q6 6 10 6q5 0 10.5 -5t5.5 -9q0 -7 -2 -9q-58 -84 -104 -86q-41 0 -58 62zM2955 1710q4 -8 4 -10q0 -26 -61.5 -66.5t-155.5 -89.5t-121 -67
q-271 -253 -515.5 -592.5t-374.5 -644.5q78 -4 116 -4q279 0 434 114q5 3 22.5 21.5t34.5 34.5t21 16q11 0 11 -10q-158 -193 -529 -193q-6 0 -17 0.5t-38 1.5t-64 2q-151 -364 -151 -635q0 -235 125.5 -378t357.5 -160q4 0 23 -0.5t31 -3t12 -7.5q0 -8 -6 -8
q-188 0 -318.5 79t-192 213.5t-61.5 314.5q0 267 129 589q-111 11 -307 45q-88 -90 -163 -164.5t-175.5 -166.5t-188.5 -163.5t-191 -142.5t-194.5 -118t-188 -76t-181.5 -29q-197 0 -303.5 103t-106.5 260q0 89 34 180t105.5 176.5t171 151t241.5 105.5t306 40
q71 0 172 -13.5t181 -29.5t221 -45t215 -43q47 48 130.5 137.5t119.5 126.5l43 45q118 123 183 190t186 185t210.5 195.5t204.5 166t219 152.5q63 58 108 97t110.5 80.5t105.5 41.5q12 0 16 -4zM2935 1688q10 8 10 12q-83 0 -264 -168q17 10 62 33t75 39t64.5 39.5
t52.5 44.5zM1794 492q81 151 164.5 276t181.5 239.5t184 203t218 214.5q-97 -69 -199 -156.5t-205.5 -190.5t-182 -184.5t-187.5 -198t-162 -171.5q-152 -159 -228 -237q189 -34 299 -43q55 137 117 248zM82 -571q77 0 166.5 29t176 75.5t184.5 117t183.5 141.5t182.5 162
t171.5 166t160.5 165q-73 14 -211 42t-216.5 43t-178.5 28.5t-171 13.5q-161 0 -300.5 -39t-237 -103.5t-167.5 -147.5t-103 -171.5t-33 -175.5q0 -150 101.5 -248t291.5 -98zM1149 -477q-23 0 -23 16q0 22 21.5 45t44.5 23q22 0 22 -19q0 -21 -21 -43t-44 -22z" />
    <glyph glyph-name="uni1EB7" unicode="&#x1eb7;" 
d="M84 561q0 12 10 12q5 0 8 -6q14 -49 35 -49q7 0 14 3t13 6.5t12.5 10.5t11 11.5t10.5 14t8.5 13.5t8 13.5t6.5 11.5q6 6 10 6q5 0 11 -5t6 -9q0 -6 -2 -8q-21 -30 -50 -57.5t-55 -28.5q-40 0 -57 61zM545 422q10 0 10 -12q-36 -39 -76 -76t-93 -79t-108 -67.5t-100 -25.5
q-32 0 -54 18t-22 56q0 44 19 96q-107 -99 -152 -99q-41 0 -41 37q0 50 54.5 108t101.5 58q38 0 68 -39q1 2 8 12t10.5 13t11 7.5t17.5 4.5q22 0 22 -18q0 -3 -41 -83.5t-41 -119.5q0 -35 39 -35q77 0 181.5 78.5t185.5 165.5zM145 383q-33 33 -43 33q-27 0 -87 -61t-60 -91
q0 -12 12 -12q24 0 77.5 41t100.5 90zM-109 68q-20 0 -20 14q0 18 17.5 36.5t37.5 18.5q19 0 19 -14q0 -18 -18 -36.5t-36 -18.5z" />
    <glyph glyph-name="uni1EB8" unicode="&#x1eb8;" horiz-adv-x="1835" 
d="M809 705q-143 47 -289 47q-128 0 -256 -40t-238 -110t-205 -168.5t-162 -211t-105.5 -241.5t-38.5 -257q0 -125 44.5 -220.5t123 -153t179 -86t220.5 -28.5q163 0 370.5 85t404 215t397.5 294t354 312t270 280q4 0 8 -3.5t4 -6.5q0 -2 -16.5 -21t-28.5 -31
q-124 -134 -277 -278t-350 -300.5t-387 -278.5t-390.5 -201.5t-358.5 -79.5q-129 0 -237.5 33.5t-193 99t-132 172.5t-47.5 244q0 130 39.5 258t108 237t165 203t207.5 160t238.5 103.5t254.5 37.5q142 0 289 -39q-151 114 -151 277q0 97 49.5 190.5t131 165t181 126
t204 83.5t195.5 29q108 0 199 -41.5t148 -125t57 -194.5q0 -166 -126.5 -294t-291.5 -128q-45 0 -87 17t-58 53q-2 2 -2 6q0 10 10 10q4 0 4 -4q17 -65 139 -65q106 0 198.5 59.5t146 155.5t53.5 200q0 148 -104 233t-257 85q-93 0 -200 -31.5t-206 -89t-180.5 -130
t-130.5 -163.5t-49 -182q0 -143 170 -254q0 -2 -2.5 -8t-5.5 -6zM-139 -1040q-23 0 -23 16q0 22 21.5 45t44.5 23q22 0 22 -19q0 -21 -21 -43t-44 -22z" />
    <glyph glyph-name="uni1EB9" unicode="&#x1eb9;" horiz-adv-x="405" 
d="M436 422q13 0 13 -12q-79 -89 -183.5 -153t-204.5 -64q-47 0 -72 26.5t-28 69.5q0 67 37.5 124.5t97.5 57.5q46 0 49 -29q0 -26 -39 -52t-79 -36q-17 -43 -17 -75q4 -66 70 -66q89 0 186 62.5t170 146.5zM125 453q-25 0 -49.5 -23t-40.5 -57q33 10 64.5 32t31.5 39
q0 9 -6 9zM-43 35q-18 0 -18 14q0 19 17.5 38t37.5 19q18 0 18 -16q0 -18 -17.5 -36.5t-37.5 -18.5z" />
    <glyph glyph-name="uni1EBA" unicode="&#x1eba;" horiz-adv-x="1835" 
d="M1505 1860q3 -17 -7 -34.5t-18 -25.5t-38 -34q-8 -7 -12 -11q-9 0 -13 7q-2 2 0 3q3 2 11 8t10.5 8.5t8.5 7.5t9 9t6.5 9.5t5.5 11.5q8 14 2 36.5t-26 18.5l-10 -2l-7.5 -1.5t-5.5 -0.5q-15 -2 -18 7t14 19q18 9 29 9q21 3 38.5 -10.5t20.5 -34.5zM809 705
q-143 47 -289 47q-128 0 -256 -40t-238 -110t-205 -168.5t-162 -211t-105.5 -241.5t-38.5 -257q0 -125 44.5 -220.5t123 -153t179 -86t220.5 -28.5q163 0 370.5 85t404 215t397.5 294t354 312t270 280q4 0 8 -3.5t4 -6.5q0 -2 -16.5 -21t-28.5 -31q-124 -134 -277 -278
t-350 -300.5t-387 -278.5t-390.5 -201.5t-358.5 -79.5q-129 0 -237.5 33.5t-193 99t-132 172.5t-47.5 244q0 130 39.5 258t108 237t165 203t207.5 160t238.5 103.5t254.5 37.5q142 0 289 -39q-151 114 -151 277q0 97 49.5 190.5t131 165t181 126t204 83.5t195.5 29
q108 0 199 -41.5t148 -125t57 -194.5q0 -166 -126.5 -294t-291.5 -128q-45 0 -87 17t-58 53q-2 2 -2 6q0 10 10 10q4 0 4 -4q17 -65 139 -65q106 0 198.5 59.5t146 155.5t53.5 200q0 148 -104 233t-257 85q-93 0 -200 -31.5t-206 -89t-180.5 -130t-130.5 -163.5t-49 -182
q0 -143 170 -254q0 -2 -2.5 -8t-5.5 -6z" />
    <glyph glyph-name="uni1EBB" unicode="&#x1ebb;" horiz-adv-x="405" 
d="M147 674q4 -19 -4.5 -38.5t-17.5 -31t-37 -43.5q-3 0 -6.5 1.5t-5.5 4t0 4.5q3 3 10.5 11t10.5 11.5t8 10.5t7.5 12.5t4.5 12.5q5 16 -4 36t-27 15q-12 -4 -20 -8q-14 -3 -17.5 4t10.5 20q13 10 25 13q19 6 37 -5t26 -30zM436 422q13 0 13 -12q-79 -89 -183.5 -153
t-204.5 -64q-47 0 -72 26.5t-28 69.5q0 67 37.5 124.5t97.5 57.5q46 0 49 -29q0 -26 -39 -52t-79 -36q-17 -43 -17 -75q4 -66 70 -66q89 0 186 62.5t170 146.5zM125 453q-25 0 -49.5 -23t-40.5 -57q33 10 64.5 32t31.5 39q0 9 -6 9z" />
    <glyph glyph-name="uni1EBC" unicode="&#x1ebc;" horiz-adv-x="1835" 
d="M1251 1759q-6 0 -6 8l2 2q59 54 117 54q28 0 76.5 -17.5t72.5 -17.5q34 0 66 22q6 0 6 -10l-2 -2q-52 -39 -104 -39q-30 0 -78 16.5t-70 16.5q-39 0 -80 -33zM809 705q-143 47 -289 47q-128 0 -256 -40t-238 -110t-205 -168.5t-162 -211t-105.5 -241.5t-38.5 -257
q0 -125 44.5 -220.5t123 -153t179 -86t220.5 -28.5q163 0 370.5 85t404 215t397.5 294t354 312t270 280q4 0 8 -3.5t4 -6.5q0 -2 -16.5 -21t-28.5 -31q-124 -134 -277 -278t-350 -300.5t-387 -278.5t-390.5 -201.5t-358.5 -79.5q-129 0 -237.5 33.5t-193 99t-132 172.5
t-47.5 244q0 130 39.5 258t108 237t165 203t207.5 160t238.5 103.5t254.5 37.5q142 0 289 -39q-151 114 -151 277q0 97 49.5 190.5t131 165t181 126t204 83.5t195.5 29q108 0 199 -41.5t148 -125t57 -194.5q0 -166 -126.5 -294t-291.5 -128q-45 0 -87 17t-58 53q-2 2 -2 6
q0 10 10 10q4 0 4 -4q17 -65 139 -65q106 0 198.5 59.5t146 155.5t53.5 200q0 148 -104 233t-257 85q-93 0 -200 -31.5t-206 -89t-180.5 -130t-130.5 -163.5t-49 -182q0 -143 170 -254q0 -2 -2.5 -8t-5.5 -6z" />
    <glyph glyph-name="uni1EBD" unicode="&#x1ebd;" horiz-adv-x="405" 
d="M-12 520q-4 0 -4 6q2 2 2 4q35 45 71 45q18 0 49 -15t46 -15q21 0 41 20q4 0 4 -8l-2 -4q-31 -33 -66 -33q-18 0 -47.5 14.5t-44.5 14.5q-23 0 -49 -29zM436 422q13 0 13 -12q-79 -89 -183.5 -153t-204.5 -64q-47 0 -72 26.5t-28 69.5q0 67 37.5 124.5t97.5 57.5
q46 0 49 -29q0 -26 -39 -52t-79 -36q-17 -43 -17 -75q4 -66 70 -66q89 0 186 62.5t170 146.5zM125 453q-25 0 -49.5 -23t-40.5 -57q33 10 64.5 32t31.5 39q0 9 -6 9z" />
    <glyph glyph-name="uni1EBE" unicode="&#x1ebe;" horiz-adv-x="1835" 
d="M1495 1866l74 94q5 8 12 8q6 0 12 -5.5t6 -12.5q0 -3 -4 -11l-88 -84q-2 -2 -6 -2q-6 0 -6 13zM1358 1737q-8 0 -8 6q0 4 2 6q77 66 116 66q25 -1 32 -19t7 -47q0 -12 -14 -12q-12 0 -12 12q0 49 -21 49q-24 0 -102 -61zM809 705q-143 47 -289 47q-128 0 -256 -40
t-238 -110t-205 -168.5t-162 -211t-105.5 -241.5t-38.5 -257q0 -125 44.5 -220.5t123 -153t179 -86t220.5 -28.5q163 0 370.5 85t404 215t397.5 294t354 312t270 280q4 0 8 -3.5t4 -6.5q0 -2 -16.5 -21t-28.5 -31q-124 -134 -277 -278t-350 -300.5t-387 -278.5
t-390.5 -201.5t-358.5 -79.5q-129 0 -237.5 33.5t-193 99t-132 172.5t-47.5 244q0 130 39.5 258t108 237t165 203t207.5 160t238.5 103.5t254.5 37.5q142 0 289 -39q-151 114 -151 277q0 97 49.5 190.5t131 165t181 126t204 83.5t195.5 29q108 0 199 -41.5t148 -125
t57 -194.5q0 -166 -126.5 -294t-291.5 -128q-45 0 -87 17t-58 53q-2 2 -2 6q0 10 10 10q4 0 4 -4q17 -65 139 -65q106 0 198.5 59.5t146 155.5t53.5 200q0 148 -104 233t-257 85q-93 0 -200 -31.5t-206 -89t-180.5 -130t-130.5 -163.5t-49 -182q0 -143 170 -254
q0 -2 -2.5 -8t-5.5 -6z" />
    <glyph glyph-name="uni1EBF" unicode="&#x1ebf;" horiz-adv-x="405" 
d="M141 676l74 94q5 8 12 8q6 0 12.5 -5.5t6.5 -12.5q0 -2 -4 -10l-88 -84q-2 -2 -7 -2q-6 0 -6 12zM4 547q-8 0 -8 6q0 4 2 6q77 66 117 66q25 -1 32 -19t7 -47q0 -12 -15 -12q-12 0 -12 12q0 49 -21 49q-24 0 -102 -61zM436 422q13 0 13 -12q-79 -89 -183.5 -153
t-204.5 -64q-47 0 -72 26.5t-28 69.5q0 67 37.5 124.5t97.5 57.5q46 0 49 -29q0 -26 -39 -52t-79 -36q-17 -43 -17 -75q4 -66 70 -66q89 0 186 62.5t170 146.5zM125 453q-25 0 -49.5 -23t-40.5 -57q33 10 64.5 32t31.5 39q0 9 -6 9z" />
    <glyph glyph-name="uni1EC0" unicode="&#x1ec0;" horiz-adv-x="1835" 
d="M1391 1991l77 -129q3 -4 1 -8t-6 -4t-7 3l-92 119q-7 9 -2.5 17.5t13 9.5t16.5 -8zM1358 1737q-8 0 -8 6q0 4 2 6q77 66 116 66q25 -1 32 -19t7 -47q0 -12 -14 -12q-12 0 -12 12q0 49 -21 49q-24 0 -102 -61zM809 705q-143 47 -289 47q-128 0 -256 -40t-238 -110
t-205 -168.5t-162 -211t-105.5 -241.5t-38.5 -257q0 -125 44.5 -220.5t123 -153t179 -86t220.5 -28.5q163 0 370.5 85t404 215t397.5 294t354 312t270 280q4 0 8 -3.5t4 -6.5q0 -2 -16.5 -21t-28.5 -31q-124 -134 -277 -278t-350 -300.5t-387 -278.5t-390.5 -201.5
t-358.5 -79.5q-129 0 -237.5 33.5t-193 99t-132 172.5t-47.5 244q0 130 39.5 258t108 237t165 203t207.5 160t238.5 103.5t254.5 37.5q142 0 289 -39q-151 114 -151 277q0 97 49.5 190.5t131 165t181 126t204 83.5t195.5 29q108 0 199 -41.5t148 -125t57 -194.5
q0 -166 -126.5 -294t-291.5 -128q-45 0 -87 17t-58 53q-2 2 -2 6q0 10 10 10q4 0 4 -4q17 -65 139 -65q106 0 198.5 59.5t146 155.5t53.5 200q0 148 -104 233t-257 85q-93 0 -200 -31.5t-206 -89t-180.5 -130t-130.5 -163.5t-49 -182q0 -143 170 -254q0 -2 -2.5 -8t-5.5 -6z
" />
    <glyph glyph-name="uni1EC1" unicode="&#x1ec1;" horiz-adv-x="405" 
d="M37 801l78 -129q3 -4 0.5 -7.5t-6.5 -3.5t-7 3l-92 118q-7 9 -2.5 17.5t13 9.5t16.5 -8zM4 547q-8 0 -8 6q0 4 2 6q77 66 117 66q25 -1 32 -19t7 -47q0 -12 -15 -12q-12 0 -12 12q0 49 -21 49q-24 0 -102 -61zM436 422q13 0 13 -12q-79 -89 -183.5 -153t-204.5 -64
q-47 0 -72 26.5t-28 69.5q0 67 37.5 124.5t97.5 57.5q46 0 49 -29q0 -26 -39 -52t-79 -36q-17 -43 -17 -75q4 -66 70 -66q89 0 186 62.5t170 146.5zM125 453q-25 0 -49.5 -23t-40.5 -57q33 10 64.5 32t31.5 39q0 9 -6 9z" />
    <glyph glyph-name="uni1EC2" unicode="&#x1ec2;" horiz-adv-x="1835" 
d="M1542 1978q4 -18 -4.5 -38t-17 -30.5t-37.5 -43.5q-11 0 -14 7q0 2 1 3q35 38 41 57q4 17 -4 37t-26 15q-9 -3 -21 -9q-9 -2 -14 0.5t-3.5 9t11.5 15.5q12 9 25 12q19 6 37 -5t26 -30zM1358 1737q-8 0 -8 6q0 4 2 6q77 66 116 66q25 -1 32 -19t7 -47q0 -12 -14 -12
q-12 0 -12 12q0 49 -21 49q-24 0 -102 -61zM809 705q-143 47 -289 47q-128 0 -256 -40t-238 -110t-205 -168.5t-162 -211t-105.5 -241.5t-38.5 -257q0 -125 44.5 -220.5t123 -153t179 -86t220.5 -28.5q163 0 370.5 85t404 215t397.5 294t354 312t270 280q4 0 8 -3.5t4 -6.5
q0 -2 -16.5 -21t-28.5 -31q-124 -134 -277 -278t-350 -300.5t-387 -278.5t-390.5 -201.5t-358.5 -79.5q-129 0 -237.5 33.5t-193 99t-132 172.5t-47.5 244q0 130 39.5 258t108 237t165 203t207.5 160t238.5 103.5t254.5 37.5q142 0 289 -39q-151 114 -151 277
q0 97 49.5 190.5t131 165t181 126t204 83.5t195.5 29q108 0 199 -41.5t148 -125t57 -194.5q0 -166 -126.5 -294t-291.5 -128q-45 0 -87 17t-58 53q-2 2 -2 6q0 10 10 10q4 0 4 -4q17 -65 139 -65q106 0 198.5 59.5t146 155.5t53.5 200q0 148 -104 233t-257 85
q-93 0 -200 -31.5t-206 -89t-180.5 -130t-130.5 -163.5t-49 -182q0 -143 170 -254q0 -2 -2.5 -8t-5.5 -6z" />
    <glyph glyph-name="uni1EC3" unicode="&#x1ec3;" horiz-adv-x="405" 
d="M188 788q4 -18 -4.5 -38t-17 -30.5t-37.5 -43.5q-3 0 -6.5 1.5t-5.5 4t0 4.5q35 38 41 57q4 17 -4.5 37t-26.5 15q-9 -3 -21 -9q-9 -2 -14 0.5t-3.5 9t11.5 15.5q12 9 25 12q19 6 37 -5t26 -30zM4 547q-8 0 -8 6q0 4 2 6q77 66 117 66q25 -1 32 -19t7 -47q0 -12 -15 -12
q-12 0 -12 12q0 49 -21 49q-24 0 -102 -61zM436 422q13 0 13 -12q-79 -89 -183.5 -153t-204.5 -64q-47 0 -72 26.5t-28 69.5q0 67 37.5 124.5t97.5 57.5q46 0 49 -29q0 -26 -39 -52t-79 -36q-17 -43 -17 -75q4 -66 70 -66q89 0 186 62.5t170 146.5zM125 453q-25 0 -49.5 -23
t-40.5 -57q33 10 64.5 32t31.5 39q0 9 -6 9z" />
    <glyph glyph-name="uni1EC4" unicode="&#x1ec4;" horiz-adv-x="1835" 
d="M1303 1868q-7 0 -7 8l2 2q58 53 117 53q28 0 77 -17.5t73 -17.5q32 0 65 23q6 0 6 -10l-2 -2q-52 -39 -104 -39q-30 0 -78 16.5t-70 16.5q-38 0 -79 -33zM1358 1737q-8 0 -8 6q0 4 2 6q77 66 116 66q25 -1 32 -19t7 -47q0 -12 -14 -12q-12 0 -12 12q0 49 -21 49
q-24 0 -102 -61zM809 705q-143 47 -289 47q-128 0 -256 -40t-238 -110t-205 -168.5t-162 -211t-105.5 -241.5t-38.5 -257q0 -125 44.5 -220.5t123 -153t179 -86t220.5 -28.5q163 0 370.5 85t404 215t397.5 294t354 312t270 280q4 0 8 -3.5t4 -6.5q0 -2 -16.5 -21t-28.5 -31
q-124 -134 -277 -278t-350 -300.5t-387 -278.5t-390.5 -201.5t-358.5 -79.5q-129 0 -237.5 33.5t-193 99t-132 172.5t-47.5 244q0 130 39.5 258t108 237t165 203t207.5 160t238.5 103.5t254.5 37.5q142 0 289 -39q-151 114 -151 277q0 97 49.5 190.5t131 165t181 126
t204 83.5t195.5 29q108 0 199 -41.5t148 -125t57 -194.5q0 -166 -126.5 -294t-291.5 -128q-45 0 -87 17t-58 53q-2 2 -2 6q0 10 10 10q4 0 4 -4q17 -65 139 -65q106 0 198.5 59.5t146 155.5t53.5 200q0 148 -104 233t-257 85q-93 0 -200 -31.5t-206 -89t-180.5 -130
t-130.5 -163.5t-49 -182q0 -143 170 -254q0 -2 -2.5 -8t-5.5 -6z" />
    <glyph glyph-name="uni1EC5" unicode="&#x1ec5;" horiz-adv-x="405" 
d="M-2 659q-4 0 -4 7q2 2 2 4q35 45 72 45q18 0 48.5 -15.5t45.5 -15.5q20 0 41 21q4 0 4 -9l-2 -4q-31 -33 -66 -33q-18 0 -47.5 14.5t-44.5 14.5q-23 0 -49 -29zM4 547q-8 0 -8 6q0 4 2 6q77 66 117 66q25 -1 32 -19t7 -47q0 -12 -15 -12q-12 0 -12 12q0 49 -21 49
q-24 0 -102 -61zM436 422q13 0 13 -12q-79 -89 -183.5 -153t-204.5 -64q-47 0 -72 26.5t-28 69.5q0 67 37.5 124.5t97.5 57.5q46 0 49 -29q0 -26 -39 -52t-79 -36q-17 -43 -17 -75q4 -66 70 -66q89 0 186 62.5t170 146.5zM125 453q-25 0 -49.5 -23t-40.5 -57q33 10 64.5 32
t31.5 39q0 9 -6 9z" />
    <glyph glyph-name="uni1EC6" unicode="&#x1ec6;" horiz-adv-x="1835" 
d="M1358 1737q-8 0 -8 6q0 4 2 6q77 66 116 66q25 -1 32 -19t7 -47q0 -12 -14 -12q-12 0 -12 12q0 49 -21 49q-24 0 -102 -61zM809 705q-143 47 -289 47q-128 0 -256 -40t-238 -110t-205 -168.5t-162 -211t-105.5 -241.5t-38.5 -257q0 -125 44.5 -220.5t123 -153t179 -86
t220.5 -28.5q163 0 370.5 85t404 215t397.5 294t354 312t270 280q4 0 8 -3.5t4 -6.5q0 -2 -16.5 -21t-28.5 -31q-124 -134 -277 -278t-350 -300.5t-387 -278.5t-390.5 -201.5t-358.5 -79.5q-129 0 -237.5 33.5t-193 99t-132 172.5t-47.5 244q0 130 39.5 258t108 237t165 203
t207.5 160t238.5 103.5t254.5 37.5q142 0 289 -39q-151 114 -151 277q0 97 49.5 190.5t131 165t181 126t204 83.5t195.5 29q108 0 199 -41.5t148 -125t57 -194.5q0 -166 -126.5 -294t-291.5 -128q-45 0 -87 17t-58 53q-2 2 -2 6q0 10 10 10q4 0 4 -4q17 -65 139 -65
q106 0 198.5 59.5t146 155.5t53.5 200q0 148 -104 233t-257 85q-93 0 -200 -31.5t-206 -89t-180.5 -130t-130.5 -163.5t-49 -182q0 -143 170 -254q0 -2 -2.5 -8t-5.5 -6zM-139 -1040q-23 0 -23 16q0 22 21.5 45t44.5 23q22 0 22 -19q0 -21 -21 -43t-44 -22z" />
    <glyph glyph-name="uni1EC7" unicode="&#x1ec7;" horiz-adv-x="405" 
d="M4 547q-8 0 -8 6q0 4 2 6q77 66 117 66q25 -1 32 -19t7 -47q0 -12 -15 -12q-12 0 -12 12q0 49 -21 49q-24 0 -102 -61zM436 422q13 0 13 -12q-79 -89 -183.5 -153t-204.5 -64q-47 0 -72 26.5t-28 69.5q0 67 37.5 124.5t97.5 57.5q46 0 49 -29q0 -26 -39 -52t-79 -36
q-17 -43 -17 -75q4 -66 70 -66q89 0 186 62.5t170 146.5zM125 453q-25 0 -49.5 -23t-40.5 -57q33 10 64.5 32t31.5 39q0 9 -6 9zM-41 37q-20 0 -20 14q0 18 18.5 36.5t36.5 18.5t18 -14q0 -18 -17.5 -36.5t-35.5 -18.5z" />
    <glyph glyph-name="uni1EC8" unicode="&#x1ec8;" horiz-adv-x="1081" 
d="M1632 1714q-1 -8 0.5 -12t-2.5 -12t-4.5 -11.5t-7 -10.5t-9.5 -10.5t-11 -11t-12.5 -11.5t-14 -12t-15.5 -13q-11 0 -13 8q0 1 1 2q4 3 13 10t12.5 10t9.5 8.5t9.5 11.5t6.5 13q8 14 2 37t-26 19q-6 -1 -13 -3t-10 -2q-15 -2 -18 7.5t14 19.5q16 8 29 8q21 3 38.5 -10.5
t20.5 -34.5zM1135 1235q54 55 117.5 107t149.5 97.5t150 45.5q50 0 50 -27q0 -58 -378 -206q-8 -3 -12 -5l-32 -12q-96 -105 -202 -258.5t-250 -380t-224 -344.5q75 -41 174 -41q111 0 219 49t190 131q3 3 11.5 12t13.5 14t6 5q8 0 8 -10q-76 -96 -206.5 -156.5
t-253.5 -60.5q-102 0 -177 34q-78 -116 -150 -212.5t-160 -198t-172.5 -181t-184.5 -151.5t-200 -119.5t-215 -75.5t-234 -28q-9 0 -9 6q0 8 9 8q111 0 219.5 28.5t202 76.5t189.5 123t175 154t166 185.5t156 201.5t151 216q-62 45 -95.5 113t-33.5 147q0 78 30.5 152
t78 133t120.5 116.5t141.5 99.5t159 85t155.5 69.5t147 57.5zM1460 1364q62 27 92.5 51t30.5 39q0 14 -31 14q-72 0 -170.5 -61.5t-179.5 -144.5q210 80 258 102zM449 289q47 70 130.5 197.5t137 207.5t124.5 181.5t137 184t130 150.5q-79 -31 -141 -57.5t-144.5 -67.5
t-145 -81t-127.5 -95t-107 -111.5t-68.5 -128t-26.5 -147.5q0 -146 101 -233z" />
    </font>
</defs>
</svg>
